<svg width="24" height="24" viewBox="0 0 24 24" fill="none" xmlns="http://www.w3.org/2000/svg">
	<path d="M12 2.5V6M12 21.5V18M14.5 3.5L12.2572 2.15435C12.0989 2.05934 11.9011 2.05934 11.7427 2.15435L9.5 3.5M14.5 20.5L12.2572 21.8456C12.0989 21.9407 11.9011 21.9407 11.7427 21.8456L9.5 20.5M3.99993 16.4997L6.80032 15.0018M20 7.5L17.1926 9.0018M3.38888 14.0849L3.34489 16.7C3.34178 16.8846 3.44069 17.056 3.60213 17.1456L5.88888 18.415M18.1113 5.58491L20.3981 6.85436C20.5595 6.94399 20.6584 7.1153 20.6553 7.29993L20.6113 9.91504M20 16.5L17.1959 14.9999M3.99985 7.49993L6.8036 8.99993M18.1111 18.4151L20.3979 17.1456C20.5593 17.056 20.6582 16.8847 20.6551 16.7001L20.6111 14.085M3.38867 9.91508L3.34468 7.29998C3.34157 7.11535 3.44048 6.94404 3.60192 6.85441L5.88867 5.58496M12 12L14.5 10.5M12 12V15M12 12L9.5 10.5" stroke="white" stroke-width="1.5" stroke-linecap="round" />
</svg>
