<svg width="24" height="24" viewBox="0 0 24 24" fill="none" xmlns="http://www.w3.org/2000/svg">
	<path d="M5.92 6.04348C5.92 6.61978 5.49019 7.08696 4.96 7.08696C4.42981 7.08696 4 6.61978 4 6.04348C4 5.46718 4.42981 5 4.96 5C5.49019 5 5.92 5.46718 5.92 6.04348Z" fill="white" />
	<path d="M5.92 12.3043C5.92 12.8806 5.49019 13.3478 4.96 13.3478C4.42981 13.3478 4 12.8806 4 12.3043C4 11.7281 4.42981 11.2609 4.96 11.2609C5.49019 11.2609 5.92 11.7281 5.92 12.3043Z" fill="white" />
	<path d="M5.92 18.5652C5.92 19.1415 5.49019 19.6087 4.96 19.6087C4.42981 19.6087 4 19.1415 4 18.5652C4 17.9889 4.42981 17.5217 4.96 17.5217C5.49019 17.5217 5.92 17.9889 5.92 18.5652Z" fill="white" />
	<path d="M5.92 6.04348C5.92 6.61978 5.49019 7.08696 4.96 7.08696C4.42981 7.08696 4 6.61978 4 6.04348C4 5.46718 4.42981 5 4.96 5C5.49019 5 5.92 5.46718 5.92 6.04348Z" stroke="white" stroke-width="2" />
	<path d="M5.92 12.3043C5.92 12.8806 5.49019 13.3478 4.96 13.3478C4.42981 13.3478 4 12.8806 4 12.3043C4 11.7281 4.42981 11.2609 4.96 11.2609C5.49019 11.2609 5.92 11.7281 5.92 12.3043Z" stroke="white" stroke-width="2" />
	<path d="M5.92 18.5652C5.92 19.1415 5.49019 19.6087 4.96 19.6087C4.42981 19.6087 4 19.1415 4 18.5652C4 17.9889 4.42981 17.5217 4.96 17.5217C5.49019 17.5217 5.92 17.9889 5.92 18.5652Z" stroke="white" stroke-width="2" />
	<path d="M9.76 6.04347H20.32M9.76 12.3043H20.32M9.76 18.5652H20.32" stroke="white" stroke-width="2.5" stroke-linecap="round" />
</svg>
