<svg width="24" height="24" viewBox="0 0 24 24" fill="none" xmlns="http://www.w3.org/2000/svg">
	<path fill-rule="evenodd" clip-rule="evenodd" d="M10 3C10 2.44772 10.4477 2 11 2H13C13.5523 2 14 2.44772 14 3V3.55044C14 4.8868 15.6157 5.55604 16.5607 4.6111L16.9499 4.2219C17.3404 3.83137 17.9736 3.83137 18.3641 4.22189L19.7783 5.63611C20.1688 6.02663 20.1688 6.6598 19.7783 7.05032L19.3893 7.43934C18.4443 8.38429 19.1136 10 20.4499 10H21C21.5523 10 22 10.4477 22 11V13C22 13.5523 21.5523 14 21 14H20.4496C19.1132 14 18.444 15.6157 19.3889 16.5607L19.7781 16.9499C20.1686 17.3404 20.1686 17.9736 19.7781 18.3641L18.3639 19.7783C17.9734 20.1688 17.3402 20.1688 16.9497 19.7783L16.5607 19.3893C15.6157 18.4443 14 19.1136 14 20.4499V21C14 21.5523 13.5523 22 13 22H11C10.4477 22 10 21.5523 10 21V20.4499C10 19.1136 8.38429 18.4443 7.43934 19.3893L7.05037 19.7782C6.65984 20.1688 6.02668 20.1688 5.63615 19.7782L4.22194 18.364C3.83142 17.9735 3.83142 17.3403 4.22194 16.9498L4.6111 16.5607C5.55605 15.6157 4.8868 14 3.55044 14H3C2.44772 14 2 13.5523 2 13V11C2 10.4477 2.44772 10 3 10H3.55007C4.88642 10 5.55567 8.38429 4.61073 7.43934L4.22176 7.05037C3.83123 6.65984 3.83123 6.02668 4.22176 5.63615L5.63597 4.22194C6.02649 3.83142 6.65966 3.83142 7.05018 4.22194L7.43934 4.6111C8.38429 5.55605 10 4.8868 10 3.55044V3ZM12 16C14.2091 16 16 14.2091 16 12C16 9.79086 14.2091 8 12 8C9.79086 8 8 9.79086 8 12C8 14.2091 9.79086 16 12 16Z" fill="white" />
</svg>
