<svg width="24" height="24" viewBox="0 0 24 24" fill="none" xmlns="http://www.w3.org/2000/svg">
	<path d="M3 17H6C7.25903 17 8.44458 16.4072 9.2 15.4L14.3 8.6C15.0554 7.59278 16.241 7 17.5 7H20M18 4L20.6464 6.64645C20.8417 6.84171 20.8417 7.15829 20.6464 7.35355L18 10M14 15L14.3 15.4C15.0554 16.4072 16.241 17 17.5 17H20M3 7H6C7.25903 7 8.44458 7.59278 9.2 8.6L9.5 9M18 20L20.6464 17.3536C20.8417 17.1583 20.8417 16.8417 20.6464 16.6464L18 14" stroke="white" stroke-width="2" stroke-linecap="round" />
</svg>
