<svg width="1440" height="913" viewBox="0 0 1440 913" fill="none" xmlns="http://www.w3.org/2000/svg">
	<g filter="url(#filter0_f_2002_29)">
		<path fill-rule="evenodd" clip-rule="evenodd" d="M1440 288.66C1440 270.07 1424.93 255 1406.34 255H870.541C831.329 255 799.541 286.788 799.541 326V586C799.541 625.212 831.329 657 870.541 657H1406.1C1424.82 657 1440 641.822 1440 623.099V623.099C1440 604.376 1424.82 589.199 1406.1 589.199H1128.85C1089.64 589.199 1057.85 557.411 1057.85 518.199V393.321C1057.85 354.108 1089.64 322.321 1128.85 322.321H1406.34C1424.93 322.321 1440 307.25 1440 288.66V288.66Z" fill="url(#paint0_linear_2002_29)" fill-opacity="0.21" />
		<path fill-rule="evenodd" clip-rule="evenodd" d="M943.128 177.933C943.128 147.042 918.086 122 887.195 122H550.311C511.099 122 479.311 153.788 479.311 193V719C479.311 758.212 511.099 790 550.311 790H886.795C917.907 790 943.128 764.779 943.128 733.667V733.667C943.128 702.556 917.907 677.335 886.795 677.335H737.375C698.163 677.335 666.375 645.547 666.375 606.335V304.866C666.375 265.654 698.163 233.866 737.375 233.866H887.195C918.086 233.866 943.128 208.824 943.128 177.933V177.933Z" fill="url(#paint1_linear_2002_29)" fill-opacity="0.21" />
		<path fill-rule="evenodd" clip-rule="evenodd" d="M0 131C0 107.804 18.804 89 42 89H403.222C426.418 89 445.222 107.804 445.222 131V161.068C445.222 184.264 426.418 203.068 403.222 203.068H290.052C266.857 203.068 248.052 221.872 248.052 245.068V414C248.052 437.196 266.857 456 290.052 456H403.222C426.418 456 445.222 474.804 445.222 498V781C445.222 804.196 426.418 823 403.222 823H42C18.804 823 0 804.196 0 781V759.198C0 736.002 18.804 717.198 42 717.198H155.17C178.366 717.198 197.17 698.394 197.17 675.198V506.266C197.17 483.07 178.366 464.266 155.17 464.266H42C18.804 464.266 0 445.462 0 422.266V131Z" fill="url(#paint2_linear_2002_29)" fill-opacity="0.21" />
	</g>
	<defs>
		<filter id="filter0_f_2002_29" x="-102" y="-13" width="1644" height="938" filterUnits="userSpaceOnUse" color-interpolation-filters="sRGB">
			<feFlood flood-opacity="0" result="BackgroundImageFix" />
			<feBlend mode="normal" in="SourceGraphic" in2="BackgroundImageFix" result="shape" />
			<feGaussianBlur stdDeviation="51" result="effect1_foregroundBlur_2002_29" />
		</filter>
		<linearGradient id="paint0_linear_2002_29" x1="1119.77" y1="255" x2="1119.77" y2="657" gradientUnits="userSpaceOnUse">
			<stop stop-color="#001B46" />
			<stop offset="1" stop-color="#00FFA2" />
		</linearGradient>
		<linearGradient id="paint1_linear_2002_29" x1="711.22" y1="122" x2="711.22" y2="790" gradientUnits="userSpaceOnUse">
			<stop stop-color="#001B46" />
			<stop offset="1" stop-color="#00FFA2" />
		</linearGradient>
		<linearGradient id="paint2_linear_2002_29" x1="222.611" y1="89" x2="222.611" y2="823" gradientUnits="userSpaceOnUse">
			<stop stop-color="#001B46" />
			<stop offset="1" stop-color="#00FFA2" />
		</linearGradient>
	</defs>
</svg>
