<svg width="24" height="24" viewBox="0 0 24 24" fill="none" xmlns="http://www.w3.org/2000/svg">
	<g clip-path="url(#clip0_2069_16)">
		<path d="M10.02 23.88C4.32 22.86 0 17.94 0 12C0 5.4 5.4 0 12 0C18.6 0 24 5.4 24 12C24 17.94 19.68 22.86 13.98 23.88L13.32 23.34H10.68L10.02 23.88Z" fill="url(#paint0_linear_2069_16)" />
		<path d="M16.68 15.36L17.22 12H14.04V9.66C14.04 8.7 14.4 7.98 15.84 7.98H17.4V4.92C16.56 4.8 15.6 4.68 14.76 4.68C12 4.68 10.08 6.36 10.08 9.36V12H7.07996V15.36H10.08V23.82C10.74 23.94 11.4 24 12.06 24C12.72 24 13.38 23.94 14.04 23.82V15.36H16.68Z" fill="white" />
	</g>
	<defs>
		<linearGradient id="paint0_linear_2069_16" x1="12.0006" y1="23.1654" x2="12.0006" y2="-0.00442066" gradientUnits="userSpaceOnUse">
			<stop stop-color="#0062E0" />
			<stop offset="1" stop-color="#19AFFF" />
		</linearGradient>
		<clipPath id="clip0_2069_16">
			<rect width="24" height="24" fill="white" />
		</clipPath>
	</defs>
</svg>
