<svg width="24" height="25" viewBox="0 0 24 25" fill="none" xmlns="http://www.w3.org/2000/svg">
	<path d="M7.46943 18.964L7.77557 19.1454C9.06134 19.9085 10.5356 20.3121 12.039 20.3128H12.0422C16.6591 20.3128 20.4166 16.5562 20.4185 11.9389C20.4193 9.70145 19.5489 7.59739 17.9674 6.01466C17.1917 5.2341 16.2689 4.61515 15.2524 4.19363C14.2359 3.77212 13.1459 3.55641 12.0455 3.55899C7.42492 3.55899 3.66731 7.31523 3.66567 11.9322C3.66339 13.5088 4.10736 15.0538 4.94624 16.3886L5.14553 16.7053L4.29917 19.7952L7.46943 18.964ZM1.87939 22.1889L3.30926 16.9683C2.42743 15.4405 1.9635 13.7072 1.96404 11.9315C1.96637 6.37641 6.48706 1.85709 12.0423 1.85709C14.7381 1.85846 17.2684 2.90755 19.1714 4.81189C21.0744 6.71624 22.1214 9.24752 22.1204 11.9396C22.118 17.4943 17.5966 22.0144 12.0422 22.0144H12.0378C10.3512 22.0137 8.69398 21.5906 7.22192 20.788L1.87939 22.1889Z" fill="#B3B3B3" />
	<path d="M1.776 22.0854L3.20587 16.8648C2.32251 15.3333 1.85852 13.596 1.86065 11.828C1.86298 6.27285 6.38366 1.75354 11.9389 1.75354C14.6347 1.75491 17.165 2.80399 19.068 4.70834C20.971 6.61269 22.018 9.14396 22.017 11.836C22.0146 17.3907 17.4932 21.9109 11.9388 21.9109H11.9344C10.2478 21.9102 8.59058 21.4871 7.11853 20.6844L1.776 22.0854Z" fill="white" />
	<path d="M11.9419 3.45544C7.32139 3.45544 3.56379 7.21167 3.56214 11.8286C3.55987 13.4052 4.00383 14.9502 4.84271 16.2851L5.04201 16.6019L4.19565 19.6918L7.36604 18.8605L7.67218 19.0418C8.95795 19.8049 10.4322 20.2084 11.9356 20.2093H11.9388C16.5558 20.2093 20.3134 16.4526 20.3151 11.8354C20.3186 10.7349 20.1038 9.64459 19.683 8.62768C19.2623 7.61078 18.644 6.68743 17.864 5.9111C17.0883 5.13053 16.1655 4.51157 15.1489 4.09005C14.1324 3.66853 13.0424 3.45283 11.9419 3.45544Z" fill="url(#paint0_linear_2072_19)" />
	<path fill-rule="evenodd" clip-rule="evenodd" d="M9.41998 7.61615C9.23123 7.19687 9.03262 7.18838 8.85332 7.18112L8.37062 7.17523C8.20269 7.17523 7.92984 7.23824 7.69918 7.49027C7.46851 7.7423 6.81775 8.35143 6.81775 9.59035C6.81775 10.8293 7.72013 12.0264 7.84587 12.1946C7.97162 12.3628 9.58791 14.9863 12.1475 15.9957C14.2746 16.8345 14.7074 16.6677 15.1693 16.6257C15.6312 16.5838 16.6592 16.0166 16.8689 15.4286C17.0786 14.8406 17.0787 14.3368 17.0159 14.2314C16.953 14.1261 16.7851 14.0635 16.533 13.9375C16.281 13.8115 15.0432 13.2024 14.8124 13.1183C14.5816 13.0341 14.4138 12.9924 14.2457 13.2444C14.0776 13.4964 13.5956 14.0634 13.4486 14.2314C13.3017 14.3995 13.155 14.4206 12.9029 14.2947C12.6509 14.1688 11.84 13.9028 10.8779 13.045C10.1294 12.3775 9.62407 11.5532 9.47696 11.3013C9.32985 11.0494 9.46134 10.913 9.58763 10.7875C9.70064 10.6746 9.83939 10.4934 9.96554 10.3464C10.0917 10.1995 10.1332 10.0944 10.217 9.92662C10.3009 9.75883 10.2591 9.61145 10.1961 9.48557C10.1331 9.35969 9.64379 8.11419 9.41998 7.61615Z" fill="white" />
	<defs>
		<linearGradient id="paint0_linear_2072_19" x1="11.7681" y1="4.46082" x2="11.853" y2="18.778" gradientUnits="userSpaceOnUse">
			<stop stop-color="#57D163" />
			<stop offset="1" stop-color="#23B33A" />
		</linearGradient>
	</defs>
</svg>
