<svg width="859" height="859" viewBox="0 0 859 859" fill="none" xmlns="http://www.w3.org/2000/svg">
	<rect width="859" height="859" fill="white" />
	<path d="M528.638 266.77C527.788 266.1 526.678 265.843 525.621 266.095L353.178 306.253C351.571 306.625 350.442 308.059 350.442 309.704V535.732C350.442 537.689 352.03 539.277 353.987 539.277C355.945 539.277 357.53 537.692 357.53 535.732V347.89L522.893 309.38V495.571C522.893 497.529 524.483 499.116 526.44 499.116C528.398 499.116 529.983 497.531 529.983 495.571V269.544C529.978 268.463 529.481 267.44 528.638 266.77Z" fill="url(#paint0_linear_6_13)" />
	<path d="M495.724 459.552C476.82 459.552 461.448 474.93 461.448 493.828C461.448 512.732 476.82 528.104 495.724 528.104C514.624 528.104 530 512.732 530 493.828C530.002 474.93 514.626 459.552 495.724 459.552Z" fill="url(#paint1_linear_6_13)" />
	<path d="M323.276 499.808C304.371 499.808 289 515.182 289 534.084C289 552.984 304.371 568.36 323.276 568.36C342.176 568.36 357.552 552.984 357.552 534.084C357.552 515.184 342.176 499.808 323.276 499.808Z" fill="url(#paint2_linear_6_13)" />
	<path d="M122.724 80.8987C123.171 80.8987 123.603 80.9752 124.019 81.1282C124.451 81.2659 124.828 81.4724 125.152 81.7478C125.491 82.0079 125.761 82.3368 125.961 82.7345C126.161 83.117 126.262 83.553 126.262 84.0426C126.262 84.9911 125.953 86.0696 125.337 87.2782C124.72 88.4868 123.919 89.9019 122.932 91.5236C121.869 93.2523 120.867 94.981 119.927 96.7098C118.987 98.4232 118.108 100.083 117.291 101.689C116.49 103.28 115.75 104.787 115.072 106.21C114.409 107.618 113.831 108.88 113.338 109.997C113.954 110.073 114.571 110.134 115.187 110.18C115.804 110.226 116.359 110.241 116.852 110.226L116.898 111.419C116.79 111.419 116.382 111.419 115.673 111.419C114.979 111.404 114.031 111.312 112.829 111.144C112.351 112.245 111.981 113.102 111.719 113.714C111.473 114.326 111.349 114.647 111.349 114.678L108.598 113.829L109.985 110.685C108.953 110.456 107.866 110.188 106.726 109.882C105.585 109.576 104.421 109.232 103.234 108.849C102.063 108.451 100.892 108.008 99.7202 107.518C98.5488 107.029 97.4236 106.493 96.3447 105.912C95.3429 107.059 94.2563 108.191 93.0848 109.308C91.9135 110.41 90.6573 111.404 89.3164 112.291C87.9754 113.163 86.5497 113.867 85.0392 114.403C83.5441 114.953 81.9643 115.229 80.2997 115.229C78.82 115.229 77.3404 115.007 75.8607 114.563C74.3964 114.135 73.0786 113.508 71.9072 112.681C70.7512 111.84 69.811 110.823 69.0866 109.629C68.3622 108.421 68 107.052 68 105.522C68 104.313 68.2312 103.25 68.6936 102.332C69.1406 101.414 69.7571 100.649 70.5432 100.037C71.3446 99.4252 72.2771 98.9663 73.3406 98.6603C74.4196 98.3391 75.5756 98.1784 76.8086 98.1784C77.7488 98.1784 78.7198 98.2702 79.7217 98.4538C80.739 98.6374 81.7254 98.9434 82.681 99.3717C83.6366 99.8001 84.5383 100.366 85.386 101.07C86.2337 101.774 86.9582 102.646 87.5593 103.686L86.542 104.328C86.5266 104.298 86.4341 104.183 86.2646 103.984C86.1105 103.77 85.8715 103.518 85.5479 103.227C85.2396 102.921 84.8388 102.6 84.3457 102.263C83.8524 101.927 83.259 101.621 82.5654 101.345C81.8872 101.055 81.0934 100.817 80.1841 100.634C79.2901 100.435 78.2728 100.336 77.1323 100.336C75.9763 100.336 74.9668 100.534 74.1036 100.932C73.2405 101.315 72.516 101.812 71.9303 102.424C71.3601 103.02 70.9285 103.694 70.6356 104.443C70.3582 105.193 70.2195 105.92 70.2195 106.623C70.2195 107.449 70.3659 108.207 70.6588 108.895C70.9516 109.568 71.3446 110.18 71.8379 110.731C72.3465 111.282 72.9322 111.764 73.595 112.177C74.2731 112.574 74.9821 112.911 75.722 113.186C76.4772 113.462 77.2402 113.668 78.0108 113.806C78.7969 113.944 79.5598 114.012 80.2997 114.012C81.8256 114.012 83.2899 113.768 84.6924 113.278C86.095 112.773 87.4205 112.115 88.669 111.305C89.9175 110.478 91.0888 109.545 92.1832 108.505C93.2929 107.465 94.3179 106.401 95.2582 105.315C94.21 104.688 93.239 104.015 92.345 103.296C91.4665 102.562 90.7035 101.781 90.0562 100.955C89.4088 100.114 88.9002 99.2188 88.5303 98.2702C88.1758 97.3064 87.9985 96.2891 87.9985 95.2182C87.9985 94.3308 88.1604 93.4971 88.4841 92.7168C88.8231 91.9366 89.2778 91.2558 89.8481 90.6744C90.4338 90.0779 91.1197 89.6112 91.9058 89.2747C92.7072 88.9228 93.5627 88.7468 94.472 88.7468C95.4893 88.7468 96.4526 88.9075 97.362 89.2288C98.2714 89.5348 99.1345 89.9631 99.9514 90.5139C100.768 91.0493 101.531 91.6919 102.24 92.4415C102.965 93.1911 103.643 94.0019 104.275 94.8739C106.001 92.9616 107.72 91.164 109.43 89.4812C111.157 87.7831 112.814 86.2991 114.401 85.0293C115.989 83.7595 117.484 82.7575 118.886 82.0232C120.304 81.2735 121.584 80.8987 122.724 80.8987ZM104.992 95.9295C105.716 97.031 106.379 98.1708 106.98 99.3488C107.581 100.527 108.12 101.682 108.598 102.814C109.091 103.946 109.523 105.025 109.893 106.05C110.278 107.059 110.61 107.954 110.887 108.734C112.69 104.833 114.617 101.009 116.667 97.2605C118.717 93.5123 121.021 89.8101 123.58 86.1538C123.996 85.5418 124.289 85.037 124.458 84.6392C124.643 84.2261 124.736 83.8743 124.736 83.5836C124.736 83.094 124.528 82.7269 124.112 82.4821C123.695 82.222 123.218 82.092 122.678 82.092C120.967 82.092 118.632 83.2547 115.673 85.5801C112.729 87.8902 109.168 91.34 104.992 95.9295ZM90.1024 96.3197C90.1024 97.1305 90.2565 97.9031 90.5648 98.6374C90.8731 99.3564 91.297 100.053 91.8364 100.726C92.3759 101.383 93.0155 102.011 93.7553 102.607C94.4952 103.189 95.2966 103.739 96.1598 104.26C97.3158 102.867 98.4949 101.468 99.6971 100.06C100.899 98.6527 102.117 97.2605 103.35 95.8836C102.811 95.1799 102.248 94.5297 101.662 93.9331C101.092 93.3211 100.491 92.7934 99.8589 92.3497C99.227 91.906 98.5719 91.5618 97.8937 91.317C97.2156 91.0722 96.5143 90.9498 95.7899 90.9498C94.973 90.9498 94.2177 91.0876 93.5241 91.363C92.8306 91.6383 92.2294 92.0208 91.7208 92.5103C91.2122 92.9846 90.8114 93.5506 90.5186 94.2085C90.2411 94.851 90.1024 95.5547 90.1024 96.3197ZM109.87 109.4C109.654 108.712 109.361 107.878 108.991 106.899C108.637 105.92 108.213 104.872 107.72 103.755C107.242 102.623 106.695 101.468 106.078 100.29C105.477 99.1116 104.814 97.9872 104.09 96.9163C103.026 98.1095 101.924 99.3641 100.784 100.68C99.6431 101.995 98.4564 103.395 97.2233 104.879C98.3022 105.476 99.4274 106.019 100.599 106.509C101.786 106.983 102.934 107.411 104.044 107.794C105.169 108.161 106.232 108.482 107.234 108.757C108.251 109.033 109.13 109.247 109.87 109.4ZM135.972 103.089C135.386 102.952 134.878 102.76 134.446 102.516C134.03 102.256 133.691 101.965 133.429 101.644C133.167 101.322 132.974 100.986 132.851 100.634C132.727 100.267 132.666 99.9072 132.666 99.5553C132.666 98.7903 132.882 98.2013 133.313 97.7884C133.745 97.3599 134.284 97.1458 134.932 97.1458C135.363 97.1458 135.733 97.2605 136.041 97.49C136.35 97.7042 136.604 97.9948 136.804 98.362C137.005 98.7292 137.151 99.1575 137.244 99.6471C137.336 100.121 137.382 100.619 137.382 101.139C137.382 101.491 137.367 101.842 137.336 102.194C137.305 102.531 137.251 102.875 137.174 103.227C136.804 104.879 136.257 106.378 135.533 107.725C134.824 109.056 134.014 110.203 133.105 111.167C132.211 112.115 131.255 112.85 130.238 113.37C129.221 113.875 128.227 114.127 127.256 114.127C126.593 114.127 125.961 114.035 125.36 113.852C124.774 113.668 124.25 113.362 123.788 112.934C123.341 112.506 122.986 111.947 122.724 111.259C122.462 110.555 122.331 109.691 122.331 108.666C122.331 107.396 122.578 105.881 123.071 104.122C123.58 102.363 124.435 100.297 125.637 97.926C127.364 94.6062 129.098 91.6306 130.839 88.9993C131.579 87.8825 132.358 86.7886 133.174 85.7178C133.991 84.6469 134.808 83.6907 135.625 82.8493C136.457 82.0079 137.274 81.3347 138.076 80.8299C138.893 80.3097 139.663 80.0496 140.388 80.0496C140.48 80.0496 140.642 80.0649 140.873 80.0955C141.12 80.1261 141.367 80.2103 141.613 80.348C141.859 80.4703 142.076 80.6692 142.26 80.9446C142.461 81.2047 142.561 81.5718 142.561 82.0461C142.561 82.6121 142.407 83.3312 142.098 84.2032C141.805 85.0599 141.359 86.0161 140.758 87.0717C140.172 88.112 139.44 89.2288 138.561 90.4221C137.698 91.6001 136.696 92.7857 135.556 93.9789C134.431 95.1722 133.174 96.3426 131.787 97.49C130.415 98.6374 128.92 99.7083 127.302 100.703C126.763 101.865 126.308 102.921 125.938 103.869C125.583 104.803 125.298 105.652 125.082 106.417C124.867 107.166 124.713 107.832 124.62 108.413C124.528 108.995 124.481 109.499 124.481 109.928C124.481 110.524 124.558 111.022 124.713 111.419C124.882 111.802 125.106 112.108 125.383 112.337C125.661 112.551 125.977 112.704 126.331 112.796C126.685 112.888 127.055 112.934 127.441 112.934C128.165 112.934 128.866 112.75 129.545 112.383C130.238 112.016 130.893 111.542 131.51 110.96C132.126 110.364 132.689 109.698 133.198 108.964C133.722 108.23 134.176 107.503 134.562 106.784C134.947 106.05 135.263 105.361 135.51 104.719C135.756 104.061 135.91 103.518 135.972 103.089ZM128.273 98.6145C129.691 97.6506 130.993 96.6333 132.18 95.5624C133.382 94.4915 134.469 93.4206 135.44 92.3497C136.411 91.2635 137.267 90.2079 138.006 89.1829C138.746 88.1426 139.363 87.1711 139.856 86.2685C140.349 85.3659 140.719 84.5627 140.966 83.859C141.228 83.1399 141.359 82.5586 141.359 82.1149C141.359 81.7172 141.212 81.5183 140.92 81.5183C140.365 81.5183 139.694 81.8166 138.908 82.4133C138.137 83.0099 137.236 83.9814 136.203 85.3276C135.186 86.6739 134.014 88.4333 132.689 90.6056C131.379 92.778 129.907 95.4476 128.273 98.6145ZM136.134 101.896C136.149 101.758 136.157 101.621 136.157 101.483C136.172 101.345 136.18 101.215 136.18 101.093C136.18 100.267 136.072 99.6012 135.856 99.0963C135.641 98.5915 135.332 98.3391 134.932 98.3391C134.839 98.3391 134.731 98.3544 134.608 98.3849C134.5 98.4003 134.384 98.4538 134.261 98.5456C134.153 98.6221 134.061 98.7368 133.984 98.8898C133.907 99.0428 133.868 99.2417 133.868 99.4864C133.868 100.114 134.084 100.634 134.515 101.047C134.962 101.445 135.502 101.728 136.134 101.896Z" fill="url(#paint3_linear_6_13)" />
	<path d="M220.778 170.506C220.671 170.578 220.188 170.829 219.328 171.259C218.469 171.689 217.341 172.154 215.946 172.655C214.548 173.157 212.955 173.605 211.166 173.999C209.376 174.429 207.514 174.644 205.581 174.644C202.43 174.644 199.602 174.088 197.096 172.979C194.59 171.868 192.46 170.291 190.705 168.25C188.987 166.243 187.662 163.808 186.732 160.942C185.801 158.112 185.335 154.959 185.335 151.484C185.335 148.153 185.747 144.499 186.57 140.523C187.394 136.511 188.468 132.391 189.793 128.164C191.117 123.937 192.603 119.71 194.25 115.483C195.933 111.256 197.615 107.243 199.297 103.446C201.016 99.6133 202.645 96.1205 204.185 92.9681C205.724 89.7799 207.048 87.129 208.158 85.0155C206.154 87.3082 203.862 89.959 201.285 92.9681C198.707 95.9414 195.951 99.2191 193.015 102.801C190.115 106.348 187.089 110.145 183.939 114.193C180.789 118.205 177.602 122.396 174.38 126.767C171.194 131.101 168.026 135.561 164.875 140.147C161.724 144.696 158.717 149.281 155.853 153.903L153.275 153.043C153.812 147.204 154.69 141.418 155.907 135.687C157.16 129.919 158.556 124.385 160.096 119.083C161.671 113.745 163.318 108.748 165.037 104.091C166.79 99.3983 168.455 95.2071 170.03 91.5173C167.631 94.813 165.233 98.3953 162.834 102.264C160.471 106.097 158.073 110.056 155.638 114.139C153.204 118.187 150.698 122.271 148.12 126.391C145.542 130.474 142.857 134.415 140.065 138.212C137.272 141.974 134.319 145.502 131.204 148.798C128.125 152.058 124.832 154.888 121.323 157.288C117.85 159.724 114.127 161.64 110.153 163.037C106.215 164.434 101.991 165.132 97.4796 165.132C94.0069 165.132 90.8564 164.613 88.0281 163.575C85.1998 162.536 82.7654 161.103 80.7247 159.276C78.7199 157.485 77.1804 155.371 76.1064 152.935C74.9966 150.499 74.4417 147.866 74.4417 145.036C74.4417 142.278 74.8892 139.788 75.7842 137.567C76.6434 135.311 77.8069 133.322 79.2748 131.603C80.7426 129.848 82.4432 128.343 84.3764 127.089C86.3455 125.8 88.404 124.743 90.5521 123.919C92.7002 123.095 94.8661 122.486 97.05 122.092C99.2696 121.698 101.382 121.501 103.387 121.501C107.54 121.501 111.514 122.002 115.309 123.005C119.103 123.973 122.755 125.71 126.264 128.218L124.384 130.313C124.348 130.277 123.883 129.955 122.988 129.346C122.093 128.701 120.804 128.003 119.121 127.25C117.439 126.498 115.344 125.817 112.838 125.209C110.368 124.6 107.54 124.295 104.353 124.295C101.275 124.295 98.2851 124.707 95.3852 125.531C92.5212 126.355 89.9793 127.609 87.7596 129.292C85.5757 130.94 83.8215 133.036 82.4969 135.579C81.1722 138.087 80.5099 141.042 80.5099 144.445C80.5099 146.881 80.9753 149.138 81.9062 151.216C82.8728 153.294 84.1975 155.085 85.8801 156.589C87.5627 158.13 89.5855 159.33 91.9483 160.189C94.3112 161.049 96.9247 161.479 99.7888 161.479C104.085 161.479 108.202 160.566 112.14 158.739C116.078 156.912 119.873 154.44 123.525 151.323C127.177 148.207 130.685 144.571 134.05 140.415C137.451 136.26 140.709 131.872 143.824 127.25C146.975 122.629 150.018 117.883 152.953 113.011C155.889 108.139 158.735 103.446 161.491 98.9326C164.249 94.3831 166.934 90.1381 169.547 86.1976C172.16 82.2213 174.72 78.8002 177.226 75.9344L179.643 77.3852C178.068 82.1855 176.707 86.4126 175.562 90.0665C174.416 93.6845 173.414 96.8728 172.555 99.6311C171.731 102.389 171.015 104.772 170.407 106.778C169.834 108.784 169.333 110.575 168.903 112.151C168.473 113.727 168.079 115.16 167.721 116.45C167.399 117.704 167.059 118.958 166.701 120.211C166.379 121.465 166.002 122.791 165.573 124.188C165.143 125.585 164.624 127.215 164.016 129.077C163.407 130.904 162.691 133.036 161.868 135.472C161.045 137.872 160.042 140.72 158.86 144.015C161.868 139.466 164.946 134.988 168.097 130.582C171.283 126.176 174.452 121.913 177.602 117.793C180.753 113.674 183.831 109.733 186.839 105.972C189.882 102.21 192.747 98.7177 195.431 95.4936C198.152 92.2696 200.64 89.35 202.896 86.735C205.187 84.0841 207.174 81.8273 208.857 79.9645C210.539 78.1017 211.846 76.6509 212.777 75.612C213.743 74.5732 214.244 74.0358 214.28 74L216.536 75.6658C214.424 80.8959 212.329 86.1439 210.252 91.4098C208.176 96.6399 206.171 101.745 204.238 106.724C202.341 111.703 200.569 116.504 198.922 121.125C197.275 125.746 195.843 130.08 194.626 134.128C193.408 138.141 192.442 141.812 191.726 145.144C191.045 148.44 190.705 151.27 190.705 153.634C190.705 156.428 191.028 158.953 191.673 161.21C192.352 163.467 193.319 165.384 194.572 166.96C195.825 168.536 197.364 169.736 199.191 170.56C201.052 171.42 203.147 171.85 205.473 171.85C207.228 171.85 208.928 171.653 210.575 171.259C212.258 170.864 213.743 170.435 215.032 169.969C216.321 169.503 217.359 169.074 218.147 168.68C218.935 168.285 219.346 168.088 219.382 168.088L220.778 170.506Z" fill="url(#paint4_linear_6_13)" />
	<rect x="83" y="684" width="680" height="38" fill="url(#paint5_linear_6_13)" />
	<rect x="83" y="684" width="680" height="38" fill="url(#paint6_linear_6_13)" />
	<rect x="83" y="684" width="680" height="38" fill="url(#paint7_linear_6_13)" />
	<path d="M322.58 712.145C322.329 712.145 322.126 712.106 321.971 712.029C321.817 711.971 321.739 711.884 321.739 711.768C321.739 711.633 321.817 711.517 321.971 711.42C322.145 711.304 322.387 711.198 322.696 711.101C323.199 710.946 323.663 710.714 324.088 710.405C324.514 710.096 324.881 709.583 325.19 708.868C325.732 707.631 326.225 706.471 326.669 705.388C327.133 704.305 327.568 703.242 327.974 702.198C328.38 701.154 328.796 700.071 329.221 698.95C329.666 697.809 330.13 696.572 330.613 695.238C330.71 694.967 330.797 694.697 330.874 694.426C330.952 694.155 331 693.865 331.019 693.556C331.193 693.498 331.367 693.44 331.541 693.382C331.715 693.324 331.889 693.237 332.063 693.121C332.237 693.005 332.353 692.831 332.411 692.599C332.489 692.367 332.556 692.212 332.614 692.135C332.634 692.116 332.653 692.106 332.672 692.106C332.711 692.106 332.74 692.125 332.759 692.164C332.798 692.241 332.827 692.338 332.846 692.454C332.885 692.57 332.924 692.686 332.962 692.802C333.426 694.271 333.91 695.77 334.412 697.297C334.915 698.824 335.398 700.303 335.862 701.734C336.346 703.145 336.781 704.421 337.167 705.562C337.573 706.683 337.892 707.592 338.124 708.288C338.395 709.061 338.685 709.641 338.994 710.028C339.304 710.415 339.623 710.685 339.951 710.84C340.299 710.995 340.667 711.111 341.053 711.188C341.382 711.246 341.624 711.343 341.778 711.478C341.933 711.594 342.01 711.72 342.01 711.855C342.01 711.971 341.933 712.048 341.778 712.087C341.624 712.126 341.421 712.145 341.169 712.145C340.899 712.145 340.531 712.126 340.067 712.087C339.603 712.068 339.11 712.039 338.588 712C338.066 711.981 337.583 711.971 337.138 711.971C336.771 711.971 336.394 711.971 336.007 711.971C335.621 711.971 335.263 711.981 334.934 712C334.606 712 334.325 712 334.093 712C333.842 712 333.639 711.971 333.484 711.913C333.33 711.855 333.252 711.768 333.252 711.652C333.252 711.517 333.349 711.401 333.542 711.304C333.736 711.207 333.958 711.14 334.209 711.101C334.847 711.004 335.302 710.84 335.572 710.608C335.843 710.376 335.978 710.105 335.978 709.796C335.978 709.506 335.911 709.09 335.775 708.549C335.659 707.988 335.514 707.399 335.34 706.78C335.166 706.142 335.002 705.581 334.847 705.098C334.809 704.943 334.731 704.856 334.615 704.837C334.519 704.798 334.335 704.779 334.064 704.779H328.583C328.506 704.779 328.419 704.818 328.322 704.895C328.245 704.953 328.168 705.088 328.09 705.301C328.032 705.494 327.936 705.804 327.8 706.229C327.665 706.635 327.53 707.07 327.394 707.534C327.259 707.998 327.143 708.414 327.046 708.781C326.95 709.148 326.901 709.38 326.901 709.477C326.901 709.902 327.066 710.26 327.394 710.55C327.723 710.821 328.119 711.014 328.583 711.13C329.221 711.304 329.54 711.497 329.54 711.71C329.54 711.826 329.463 711.913 329.308 711.971C329.154 712.01 328.951 712.029 328.699 712.029C328.448 712.029 328.081 712.019 327.597 712C327.114 711.981 326.602 711.971 326.06 711.971C325.422 711.971 324.804 712 324.204 712.058C323.605 712.116 323.064 712.145 322.58 712.145ZM329.366 703.822H333.861C334.132 703.822 334.267 703.774 334.267 703.677C334.267 703.638 334.258 703.6 334.238 703.561C334.238 703.503 334.229 703.445 334.209 703.387L331.947 696.311C331.831 695.963 331.744 695.789 331.686 695.789C331.648 695.789 331.57 695.953 331.454 696.282L328.815 703.387C328.777 703.503 328.757 703.58 328.757 703.619C328.757 703.716 328.806 703.774 328.902 703.793C329.018 703.812 329.173 703.822 329.366 703.822ZM343.007 712.087C342.911 712.087 342.785 712.068 342.63 712.029C342.495 712.01 342.427 711.942 342.427 711.826C342.427 711.671 342.495 711.565 342.63 711.507C342.785 711.43 342.94 711.362 343.094 711.304C343.384 711.207 343.665 711.101 343.935 710.985C344.206 710.85 344.341 710.589 344.341 710.202V695.586C344.341 695.025 344.235 694.561 344.022 694.194C343.829 693.807 343.491 693.566 343.007 693.469C342.853 693.43 342.775 693.305 342.775 693.092C342.775 692.899 342.843 692.783 342.978 692.744C343.481 692.628 343.916 692.512 344.283 692.396C344.651 692.261 344.989 692.125 345.298 691.99C345.627 691.855 345.946 691.729 346.255 691.613C346.333 691.574 346.391 691.555 346.429 691.555C346.468 691.555 346.497 691.584 346.516 691.642C346.555 691.681 346.574 691.719 346.574 691.758C346.574 691.932 346.536 692.309 346.458 692.889C346.4 693.45 346.371 694.387 346.371 695.702V710.202C346.371 710.589 346.507 710.85 346.777 710.985C347.048 711.101 347.328 711.207 347.618 711.304C347.773 711.362 347.918 711.43 348.053 711.507C348.208 711.565 348.285 711.671 348.285 711.826C348.285 711.942 348.208 712.01 348.053 712.029C347.918 712.068 347.802 712.087 347.705 712.087C347.338 712.087 347.038 712.068 346.806 712.029C346.594 712.01 346.381 711.99 346.168 711.971C345.975 711.952 345.704 711.942 345.356 711.942C345.028 711.942 344.757 711.952 344.544 711.971C344.332 711.99 344.119 712.01 343.906 712.029C343.694 712.068 343.394 712.087 343.007 712.087ZM350.003 720.265C349.907 720.265 349.781 720.246 349.626 720.207C349.472 720.188 349.394 720.12 349.394 720.004C349.394 719.849 349.462 719.733 349.597 719.656C349.752 719.598 349.907 719.54 350.061 719.482C350.351 719.385 350.632 719.269 350.902 719.134C351.173 719.018 351.308 718.767 351.308 718.38V703.677C351.308 703.522 351.26 703.29 351.163 702.981C351.086 702.672 350.951 702.372 350.757 702.082C350.564 701.792 350.303 701.618 349.974 701.56C349.897 701.541 349.839 701.492 349.8 701.415C349.762 701.338 349.742 701.26 349.742 701.183C349.742 701.086 349.762 701.009 349.8 700.951C349.839 700.893 349.887 700.854 349.945 700.835C350.68 700.661 351.308 700.477 351.83 700.284C352.352 700.071 352.845 699.868 353.309 699.675C353.329 699.675 353.338 699.675 353.338 699.675C353.338 699.656 353.348 699.646 353.367 699.646C353.406 699.646 353.445 699.675 353.483 699.733C353.522 699.791 353.541 699.849 353.541 699.907C353.541 700.081 353.512 700.361 353.454 700.748C353.416 701.115 353.396 701.415 353.396 701.647C353.396 701.802 353.406 701.889 353.425 701.908C353.619 701.715 353.967 701.473 354.469 701.183C354.991 700.874 355.581 700.603 356.238 700.371C356.896 700.12 357.524 699.994 358.123 699.994C359.129 699.994 359.979 700.265 360.675 700.806C361.391 701.328 361.932 702.014 362.299 702.865C362.686 703.696 362.879 704.566 362.879 705.475C362.879 706.345 362.715 707.196 362.386 708.027C362.058 708.839 361.594 709.574 360.994 710.231C360.395 710.888 359.699 711.42 358.906 711.826C358.114 712.213 357.263 712.406 356.354 712.406C356.084 712.406 355.755 712.358 355.368 712.261C355.001 712.184 354.634 712.077 354.266 711.942C353.918 711.807 353.648 711.652 353.454 711.478C353.435 711.478 353.416 711.594 353.396 711.826C353.377 712.039 353.358 712.261 353.338 712.493C353.338 712.744 353.338 712.899 353.338 712.957V718.38C353.338 718.631 353.435 718.825 353.628 718.96C353.841 719.115 354.073 719.221 354.324 719.279C354.595 719.356 354.827 719.424 355.02 719.482C355.175 719.54 355.32 719.598 355.455 719.656C355.61 719.733 355.687 719.849 355.687 720.004C355.687 720.12 355.61 720.188 355.455 720.207C355.301 720.246 355.165 720.265 355.049 720.265C354.489 720.265 354.015 720.236 353.628 720.178C353.261 720.139 352.826 720.12 352.323 720.12C351.995 720.12 351.724 720.13 351.511 720.149C351.318 720.168 351.115 720.188 350.902 720.207C350.69 720.246 350.39 720.265 350.003 720.265ZM356.789 711.507C357.079 711.507 357.427 711.42 357.833 711.246C358.259 711.072 358.674 710.792 359.08 710.405C359.506 710.018 359.854 709.496 360.124 708.839C360.414 708.182 360.559 707.37 360.559 706.403C360.559 705.282 360.414 704.383 360.124 703.706C359.834 703.029 359.477 702.517 359.051 702.169C358.626 701.821 358.191 701.589 357.746 701.473C357.302 701.357 356.925 701.299 356.615 701.299C356.151 701.299 355.668 701.396 355.165 701.589C354.682 701.782 354.266 702.005 353.918 702.256C353.59 702.488 353.425 702.672 353.425 702.807C353.425 703.232 353.416 703.667 353.396 704.112C353.396 704.537 353.387 704.953 353.367 705.359C353.367 705.765 353.358 706.132 353.338 706.461C353.338 706.77 353.338 707.012 353.338 707.186C353.338 707.959 353.512 708.675 353.86 709.332C354.228 709.989 354.672 710.521 355.194 710.927C355.736 711.314 356.267 711.507 356.789 711.507ZM364.588 712.087C364.201 712.087 364.008 711.981 364.008 711.768C364.008 711.594 364.23 711.439 364.675 711.304C364.965 711.207 365.235 711.082 365.487 710.927C365.757 710.772 365.902 710.502 365.922 710.115V695.586C365.922 695.064 365.835 694.61 365.661 694.223C365.487 693.817 365.148 693.575 364.646 693.498C364.472 693.459 364.385 693.324 364.385 693.092C364.385 692.918 364.462 692.802 364.617 692.744C364.887 692.647 365.206 692.541 365.574 692.425C365.96 692.309 366.357 692.183 366.763 692.048C367.169 691.893 367.526 691.748 367.836 691.613C367.913 691.574 367.971 691.555 368.01 691.555C368.068 691.555 368.116 691.574 368.155 691.613C368.193 691.652 368.213 691.7 368.213 691.758C368.213 691.874 368.184 692.038 368.126 692.251C368.087 692.464 368.048 692.831 368.01 693.353C367.971 693.875 367.952 694.658 367.952 695.702V700.748C367.952 701.057 367.961 701.28 367.981 701.415C368.019 701.55 368.077 701.686 368.155 701.821C368.464 701.589 368.841 701.338 369.286 701.067C369.75 700.777 370.262 700.526 370.823 700.313C371.383 700.1 371.963 699.994 372.563 699.994C373.51 699.994 374.293 700.371 374.912 701.125C375.55 701.86 375.869 702.797 375.869 703.938V710.028C375.869 710.415 375.994 710.705 376.246 710.898C376.497 711.072 376.768 711.207 377.058 711.304C377.27 711.362 377.435 711.43 377.551 711.507C377.667 711.565 377.725 711.652 377.725 711.768C377.725 711.981 377.531 712.087 377.145 712.087C376.758 712.087 376.458 712.068 376.246 712.029C376.052 712.01 375.859 711.99 375.666 711.971C375.492 711.952 375.231 711.942 374.883 711.942C374.554 711.942 374.293 711.952 374.1 711.971C373.906 711.99 373.703 712.01 373.491 712.029C373.297 712.068 373.007 712.087 372.621 712.087C372.234 712.087 372.041 711.981 372.041 711.768C372.041 711.633 372.099 711.546 372.215 711.507C372.331 711.449 372.495 711.381 372.708 711.304C372.998 711.207 373.259 711.072 373.491 710.898C373.723 710.705 373.839 710.415 373.839 710.028V704.112C373.839 703.629 373.694 703.194 373.404 702.807C373.133 702.401 372.795 702.082 372.389 701.85C371.983 701.618 371.567 701.502 371.142 701.502C370.774 701.502 370.349 701.56 369.866 701.676C369.382 701.773 369.005 701.927 368.735 702.14C368.425 702.391 368.213 702.652 368.097 702.923C368 703.194 367.952 703.629 367.952 704.228V710.115C367.971 710.502 368.087 710.772 368.3 710.927C368.532 711.082 368.793 711.207 369.083 711.304C369.295 711.362 369.45 711.43 369.547 711.507C369.663 711.565 369.721 711.652 369.721 711.768C369.721 711.981 369.527 712.087 369.141 712.087C368.754 712.087 368.464 712.068 368.271 712.029C368.077 712.01 367.894 711.99 367.72 711.971C367.546 711.952 367.285 711.942 366.937 711.942C366.608 711.942 366.337 711.952 366.125 711.971C365.931 711.99 365.719 712.01 365.487 712.029C365.274 712.068 364.974 712.087 364.588 712.087ZM381.774 712.406C381.426 712.406 381.069 712.271 380.701 712C380.353 711.729 380.054 711.401 379.802 711.014C379.57 710.627 379.454 710.26 379.454 709.912C379.454 709.293 379.619 708.81 379.947 708.462C380.276 708.114 380.798 707.795 381.513 707.505L384.471 706.287C384.858 706.132 385.08 705.997 385.138 705.881C385.216 705.765 385.264 705.514 385.283 705.127L385.341 703.271C385.361 702.768 385.216 702.333 384.906 701.966C384.616 701.599 384.191 701.415 383.63 701.415C383.34 701.415 383.05 701.463 382.76 701.56C382.47 701.657 382.229 701.782 382.035 701.937C381.919 702.014 381.842 702.13 381.803 702.285C381.765 702.44 381.745 702.604 381.745 702.778C381.745 702.855 381.745 702.942 381.745 703.039C381.765 703.136 381.774 703.223 381.774 703.3C381.774 703.397 381.649 703.532 381.397 703.706C381.165 703.861 380.895 704.006 380.585 704.141C380.295 704.257 380.054 704.315 379.86 704.315C379.764 704.315 379.686 704.296 379.628 704.257C379.57 704.199 379.541 704.131 379.541 704.054C379.541 703.745 379.638 703.416 379.831 703.068C380.044 702.701 380.334 702.362 380.701 702.053C381.146 701.647 381.629 701.289 382.151 700.98C382.673 700.671 383.186 700.429 383.688 700.255C384.191 700.081 384.636 699.994 385.022 699.994C385.718 699.994 386.289 700.245 386.733 700.748C387.197 701.231 387.42 701.84 387.4 702.575L387.255 709.535C387.236 709.941 387.323 710.27 387.516 710.521C387.729 710.772 387.99 710.898 388.299 710.898C388.783 710.898 389.14 710.792 389.372 710.579C389.469 710.482 389.546 710.434 389.604 710.434C389.701 710.434 389.778 710.463 389.836 710.521C389.894 710.579 389.923 710.656 389.923 710.753C389.923 710.966 389.817 711.178 389.604 711.391C389.295 711.7 388.957 711.942 388.589 712.116C388.241 712.309 387.913 712.406 387.603 712.406C386.714 712.406 386.008 711.903 385.486 710.898H385.399C384.761 711.42 384.152 711.797 383.572 712.029C382.992 712.28 382.393 712.406 381.774 712.406ZM383.137 711.014C383.524 711.014 383.853 710.956 384.123 710.84C384.394 710.705 384.636 710.531 384.848 710.318C384.945 710.221 385.022 710.096 385.08 709.941C385.158 709.767 385.206 709.496 385.225 709.129L385.283 707.708C385.303 707.495 385.293 707.341 385.254 707.244C385.216 707.147 385.138 707.099 385.022 707.099C384.984 707.099 384.916 707.109 384.819 707.128C384.723 707.147 384.597 707.186 384.442 707.244C383.418 707.611 382.702 707.998 382.296 708.404C381.91 708.791 381.716 709.148 381.716 709.477C381.716 709.98 381.861 710.366 382.151 710.637C382.461 710.888 382.789 711.014 383.137 711.014ZM391.356 712.145C391.105 712.145 390.902 712.116 390.747 712.058C390.593 712.019 390.515 711.942 390.515 711.826C390.515 711.594 390.834 711.42 391.472 711.304C392.207 711.169 392.768 710.946 393.154 710.637C393.541 710.328 393.734 709.825 393.734 709.129V696.079C393.734 695.383 393.589 694.871 393.299 694.542C393.009 694.213 392.507 694.02 391.791 693.962C391.463 693.923 391.221 693.856 391.066 693.759C390.912 693.643 390.834 693.517 390.834 693.382C390.834 693.266 390.912 693.189 391.066 693.15C391.221 693.092 391.424 693.063 391.675 693.063C392.197 693.063 392.603 693.063 392.893 693.063C393.183 693.063 393.454 693.073 393.705 693.092C393.976 693.092 394.305 693.092 394.691 693.092C395.059 693.092 395.378 693.082 395.648 693.063C395.919 693.024 396.219 692.995 396.547 692.976C396.895 692.957 397.35 692.947 397.91 692.947C400.172 692.947 401.854 693.276 402.956 693.933C404.078 694.571 404.638 695.683 404.638 697.268C404.638 697.925 404.522 698.505 404.29 699.008C404.078 699.491 403.865 699.839 403.652 700.052C403.343 700.361 403.063 700.603 402.811 700.777C402.56 700.932 402.193 701.106 401.709 701.299C401.632 701.318 401.593 701.367 401.593 701.444C401.593 701.502 401.632 701.55 401.709 701.589C402.154 701.724 402.608 701.898 403.072 702.111C403.556 702.324 404 702.604 404.406 702.952C404.832 703.281 405.17 703.725 405.421 704.286C405.692 704.827 405.827 705.523 405.827 706.374C405.827 707.437 405.653 708.278 405.305 708.897C404.977 709.516 404.58 709.989 404.116 710.318C403.652 710.647 403.217 710.917 402.811 711.13C402.212 711.439 401.516 711.681 400.723 711.855C399.931 712.029 398.983 712.116 397.881 712.116C397.63 712.116 397.253 712.097 396.75 712.058C396.248 712.019 395.706 712 395.126 712C394.624 712 394.198 712.01 393.85 712.029C393.502 712.048 393.135 712.068 392.748 712.087C392.381 712.126 391.917 712.145 391.356 712.145ZM398.287 710.927C399.138 710.927 399.931 710.734 400.665 710.347C401.4 709.96 401.99 709.438 402.434 708.781C402.879 708.104 403.101 707.35 403.101 706.519C403.101 705.765 402.976 705.146 402.724 704.663C402.473 704.16 402.183 703.754 401.854 703.445C401.526 703.136 401.226 702.913 400.955 702.778C400.704 702.623 400.308 702.469 399.766 702.314C399.225 702.14 398.519 702.053 397.649 702.053C397.031 702.053 396.596 702.179 396.344 702.43C396.112 702.681 395.996 702.904 395.996 703.097V708.868C395.996 709.68 396.19 710.231 396.576 710.521C396.982 710.792 397.553 710.927 398.287 710.927ZM397.33 701.241C397.852 701.241 398.413 701.183 399.012 701.067C399.631 700.951 400.24 700.729 400.839 700.4C401.052 700.284 401.323 700.004 401.651 699.559C401.98 699.114 402.144 698.476 402.144 697.645C402.144 697.084 402.038 696.514 401.825 695.934C401.613 695.335 401.207 694.832 400.607 694.426C400.008 694.02 399.109 693.817 397.91 693.817C397.118 693.817 396.596 693.923 396.344 694.136C396.112 694.349 395.996 694.677 395.996 695.122V700.168C395.996 700.671 396.161 700.98 396.489 701.096C396.818 701.193 397.098 701.241 397.33 701.241ZM408.406 712.087C408.213 712.087 408.068 712.058 407.971 712C407.874 711.961 407.826 711.884 407.826 711.768C407.826 711.613 407.884 711.517 408 711.478C408.116 711.42 408.28 711.362 408.493 711.304C408.86 711.207 409.131 711.072 409.305 710.898C409.498 710.705 409.595 710.473 409.595 710.202V703.967C409.595 703.445 409.518 702.991 409.363 702.604C409.208 702.217 408.889 701.976 408.406 701.879C408.329 701.86 408.261 701.811 408.203 701.734C408.145 701.657 408.116 701.579 408.116 701.502C408.116 701.309 408.203 701.193 408.377 701.154C408.88 700.999 409.402 700.777 409.943 700.487C410.504 700.178 410.939 699.926 411.248 699.733C411.364 699.656 411.451 699.607 411.509 699.588C411.586 699.549 411.644 699.53 411.683 699.53C411.78 699.53 411.828 699.598 411.828 699.733C411.828 699.791 411.818 699.936 411.799 700.168C411.799 700.4 411.789 700.671 411.77 700.98C411.77 701.289 411.76 701.599 411.741 701.908C411.741 701.947 411.76 701.966 411.799 701.966C412.108 701.579 412.447 701.241 412.814 700.951C413.201 700.661 413.587 700.429 413.974 700.255C414.38 700.081 414.767 699.994 415.134 699.994C415.54 699.994 415.869 700.081 416.12 700.255C416.391 700.429 416.526 700.651 416.526 700.922C416.526 701.115 416.468 701.328 416.352 701.56C416.255 701.792 416.12 701.995 415.946 702.169C415.772 702.343 415.588 702.43 415.395 702.43C415.279 702.43 415.153 702.411 415.018 702.372C414.883 702.314 414.738 702.246 414.583 702.169C414.428 702.111 414.274 702.053 414.119 701.995C413.964 701.937 413.81 701.908 413.655 701.908C413.191 701.908 412.737 702.072 412.292 702.401C411.867 702.73 411.654 703.377 411.654 704.344V710.202C411.654 710.453 411.789 710.666 412.06 710.84C412.331 710.995 412.708 711.149 413.191 711.304C413.404 711.362 413.568 711.42 413.684 711.478C413.8 711.536 413.858 711.633 413.858 711.768C413.858 711.981 413.665 712.087 413.278 712.087C412.698 712.087 412.253 712.058 411.944 712C411.654 711.961 411.258 711.942 410.755 711.942C410.426 711.942 410.156 711.952 409.943 711.971C409.75 711.99 409.537 712.01 409.305 712.029C409.092 712.068 408.793 712.087 408.406 712.087ZM420.063 712.406C419.715 712.406 419.358 712.271 418.99 712C418.642 711.729 418.343 711.401 418.091 711.014C417.859 710.627 417.743 710.26 417.743 709.912C417.743 709.293 417.908 708.81 418.236 708.462C418.565 708.114 419.087 707.795 419.802 707.505L422.76 706.287C423.147 706.132 423.369 705.997 423.427 705.881C423.505 705.765 423.553 705.514 423.572 705.127L423.63 703.271C423.65 702.768 423.505 702.333 423.195 701.966C422.905 701.599 422.48 701.415 421.919 701.415C421.629 701.415 421.339 701.463 421.049 701.56C420.759 701.657 420.518 701.782 420.324 701.937C420.208 702.014 420.131 702.13 420.092 702.285C420.054 702.44 420.034 702.604 420.034 702.778C420.034 702.855 420.034 702.942 420.034 703.039C420.054 703.136 420.063 703.223 420.063 703.3C420.063 703.397 419.938 703.532 419.686 703.706C419.454 703.861 419.184 704.006 418.874 704.141C418.584 704.257 418.343 704.315 418.149 704.315C418.053 704.315 417.975 704.296 417.917 704.257C417.859 704.199 417.83 704.131 417.83 704.054C417.83 703.745 417.927 703.416 418.12 703.068C418.333 702.701 418.623 702.362 418.99 702.053C419.435 701.647 419.918 701.289 420.44 700.98C420.962 700.671 421.475 700.429 421.977 700.255C422.48 700.081 422.925 699.994 423.311 699.994C424.007 699.994 424.578 700.245 425.022 700.748C425.486 701.231 425.709 701.84 425.689 702.575L425.544 709.535C425.525 709.941 425.612 710.27 425.805 710.521C426.018 710.772 426.279 710.898 426.588 710.898C427.072 710.898 427.429 710.792 427.661 710.579C427.758 710.482 427.835 710.434 427.893 710.434C427.99 710.434 428.067 710.463 428.125 710.521C428.183 710.579 428.212 710.656 428.212 710.753C428.212 710.966 428.106 711.178 427.893 711.391C427.584 711.7 427.246 711.942 426.878 712.116C426.53 712.309 426.202 712.406 425.892 712.406C425.003 712.406 424.297 711.903 423.775 710.898H423.688C423.05 711.42 422.441 711.797 421.861 712.029C421.281 712.28 420.682 712.406 420.063 712.406ZM421.426 711.014C421.813 711.014 422.142 710.956 422.412 710.84C422.683 710.705 422.925 710.531 423.137 710.318C423.234 710.221 423.311 710.096 423.369 709.941C423.447 709.767 423.495 709.496 423.514 709.129L423.572 707.708C423.592 707.495 423.582 707.341 423.543 707.244C423.505 707.147 423.427 707.099 423.311 707.099C423.273 707.099 423.205 707.109 423.108 707.128C423.012 707.147 422.886 707.186 422.731 707.244C421.707 707.611 420.991 707.998 420.585 708.404C420.199 708.791 420.005 709.148 420.005 709.477C420.005 709.98 420.15 710.366 420.44 710.637C420.75 710.888 421.078 711.014 421.426 711.014ZM433.734 712.406C432.787 712.406 432.043 712.116 431.501 711.536C430.979 710.956 430.718 710.096 430.718 708.955V702.227C430.718 702.072 430.66 701.966 430.544 701.908C430.428 701.831 430.177 701.792 429.79 701.792H429.616C429.52 701.792 429.433 701.734 429.355 701.618C429.297 701.483 429.268 701.347 429.268 701.212C429.268 701.173 429.297 701.115 429.355 701.038C429.413 700.961 429.452 700.912 429.471 700.893C429.858 700.622 430.206 700.352 430.515 700.081C430.844 699.81 431.134 699.549 431.385 699.298C431.656 699.027 431.878 698.786 432.052 698.573C432.149 698.476 432.226 698.399 432.284 698.341C432.362 698.264 432.449 698.225 432.545 698.225C432.642 698.225 432.729 698.244 432.806 698.283C432.903 698.322 432.942 698.409 432.922 698.544L432.777 699.849C432.758 700.062 432.806 700.207 432.922 700.284C433.038 700.361 433.222 700.4 433.473 700.4H436.779C436.857 700.4 436.924 700.468 436.982 700.603C437.04 700.719 437.069 700.864 437.069 701.038C437.069 701.212 437.04 701.386 436.982 701.56C436.924 701.715 436.857 701.792 436.779 701.792H433.908C433.425 701.792 433.106 701.831 432.951 701.908C432.816 701.985 432.748 702.217 432.748 702.604V708.317C432.748 709.09 432.913 709.699 433.241 710.144C433.57 710.589 434.044 710.811 434.662 710.811C435.223 710.811 435.658 710.772 435.967 710.695C436.277 710.598 436.557 710.463 436.808 710.289C436.847 710.25 436.886 710.231 436.924 710.231C437.002 710.231 437.05 710.279 437.069 710.376C437.108 710.453 437.127 710.54 437.127 710.637C437.127 710.734 436.963 710.927 436.634 711.217C436.325 711.507 435.909 711.778 435.387 712.029C434.885 712.28 434.334 712.406 433.734 712.406ZM443.55 712.435C442.486 712.435 441.558 712.174 440.766 711.652C439.973 711.13 439.354 710.395 438.91 709.448C438.465 708.481 438.243 707.37 438.243 706.113C438.243 704.992 438.494 703.977 438.997 703.068C439.519 702.14 440.205 701.396 441.056 700.835C441.906 700.274 442.834 699.994 443.84 699.994C444.613 699.994 445.299 700.149 445.899 700.458C446.498 700.767 446.962 701.202 447.291 701.763C447.639 702.304 447.813 702.933 447.813 703.648C447.813 704.247 447.523 704.547 446.943 704.547H440.824C440.553 704.547 440.36 704.624 440.244 704.779C440.147 704.914 440.099 705.195 440.099 705.62C440.099 706.548 440.302 707.399 440.708 708.172C441.114 708.926 441.655 709.535 442.332 709.999C443.008 710.444 443.753 710.666 444.565 710.666C445.145 710.666 445.667 710.56 446.131 710.347C446.614 710.115 447.039 709.786 447.407 709.361C447.484 709.264 447.542 709.206 447.581 709.187C447.619 709.148 447.668 709.129 447.726 709.129C447.88 709.129 447.958 709.226 447.958 709.419C447.958 709.786 447.784 710.192 447.436 710.637C447.146 711.004 446.798 711.323 446.392 711.594C445.986 711.865 445.541 712.068 445.058 712.203C444.574 712.358 444.072 712.435 443.55 712.435ZM440.882 703.648H443.521C443.985 703.648 444.381 703.638 444.71 703.619C445.038 703.6 445.357 703.561 445.667 703.503C445.763 703.484 445.821 703.426 445.841 703.329C445.879 703.213 445.899 703.058 445.899 702.865C445.899 702.304 445.647 701.831 445.145 701.444C444.661 701.038 444.081 700.835 443.405 700.835C442.96 700.835 442.515 700.97 442.071 701.241C441.626 701.492 441.259 701.811 440.969 702.198C440.679 702.585 440.534 702.971 440.534 703.358C440.534 703.551 440.65 703.648 440.882 703.648ZM455.87 712.145C455.619 712.145 455.416 712.116 455.261 712.058C455.106 712.019 455.029 711.942 455.029 711.826C455.029 711.691 455.106 711.584 455.261 711.507C455.416 711.43 455.657 711.362 455.986 711.304C456.469 711.207 456.866 710.975 457.175 710.608C457.484 710.241 457.687 709.719 457.784 709.042C458.016 707.302 458.219 705.649 458.393 704.083C458.567 702.498 458.702 701.077 458.799 699.82C458.915 698.544 458.973 697.5 458.973 696.688C458.973 696.533 458.973 696.369 458.973 696.195C458.973 696.021 458.963 695.866 458.944 695.731C458.925 695.576 458.896 695.422 458.857 695.267C458.818 695.093 458.702 694.929 458.509 694.774C458.161 694.484 457.823 694.291 457.494 694.194C457.165 694.078 456.779 693.981 456.334 693.904C456.141 693.865 455.986 693.798 455.87 693.701C455.754 693.585 455.696 693.459 455.696 693.324C455.696 693.169 455.783 693.082 455.957 693.063C456.15 693.024 456.392 693.005 456.682 693.005C456.875 693.005 457.165 693.015 457.552 693.034C457.958 693.053 458.393 693.082 458.857 693.121C459.321 693.16 459.746 693.189 460.133 693.208C460.539 693.227 460.839 693.237 461.032 693.237C461.167 693.237 461.283 693.276 461.38 693.353C461.477 693.43 461.544 693.546 461.583 693.701C461.68 694.049 461.776 694.416 461.873 694.803C461.97 695.19 462.086 695.567 462.221 695.934L466.803 707.563C466.861 707.698 466.967 707.785 467.122 707.824C467.277 707.843 467.393 707.785 467.47 707.65L473.183 695.76C473.28 695.431 473.376 695.064 473.473 694.658C473.57 694.252 473.647 693.894 473.705 693.585C473.763 693.334 473.86 693.208 473.995 693.208H475.039C475.619 693.208 476.228 693.169 476.866 693.092C477.523 693.015 478.016 692.976 478.345 692.976C478.442 692.976 478.567 692.995 478.722 693.034C478.877 693.053 478.954 693.131 478.954 693.266C478.954 693.401 478.896 693.508 478.78 693.585C478.683 693.662 478.49 693.759 478.2 693.875C477.949 693.972 477.668 694.078 477.359 694.194C477.05 694.31 476.76 694.426 476.489 694.542C476.296 694.619 476.131 694.755 475.996 694.948C475.861 695.122 475.793 695.315 475.793 695.528C475.793 696.881 475.812 698.157 475.851 699.356C475.909 700.535 475.967 701.676 476.025 702.778C476.083 703.861 476.151 704.934 476.228 705.997C476.305 707.06 476.373 708.143 476.431 709.245C476.47 709.844 476.663 710.308 477.011 710.637C477.359 710.946 477.891 711.169 478.606 711.304C478.935 711.362 479.176 711.43 479.331 711.507C479.486 711.584 479.563 711.691 479.563 711.826C479.563 711.942 479.486 712.019 479.331 712.058C479.176 712.116 478.973 712.145 478.722 712.145C478.2 712.145 477.765 712.126 477.417 712.087C477.088 712.068 476.769 712.048 476.46 712.029C476.151 712.01 475.774 712 475.329 712C474.942 712 474.614 712.01 474.343 712.029C474.092 712.048 473.811 712.068 473.502 712.087C473.212 712.126 472.806 712.145 472.284 712.145C472.033 712.145 471.83 712.116 471.675 712.058C471.52 712.019 471.443 711.942 471.443 711.826C471.443 711.691 471.52 711.584 471.675 711.507C471.83 711.41 472.071 711.343 472.4 711.304C472.961 711.227 473.347 711.033 473.56 710.724C473.773 710.395 473.879 709.893 473.879 709.216C473.879 707.824 473.86 706.567 473.821 705.446C473.802 704.325 473.763 703.223 473.705 702.14C473.647 701.038 473.589 699.839 473.531 698.544C473.512 698.331 473.454 698.235 473.357 698.254C473.26 698.254 473.164 698.351 473.067 698.544L466.397 712.145C466.358 712.242 466.271 712.29 466.136 712.29C466.001 712.309 465.914 712.251 465.875 712.116C465.121 709.854 464.309 707.631 463.439 705.446C462.588 703.242 461.622 700.874 460.539 698.341C460.5 698.244 460.433 698.196 460.336 698.196C460.239 698.196 460.181 698.244 460.162 698.341C459.988 699.694 459.824 700.941 459.669 702.082C459.534 703.203 459.427 704.315 459.35 705.417C459.273 706.519 459.234 707.727 459.234 709.042C459.234 709.564 459.398 710.047 459.727 710.492C460.056 710.917 460.52 711.188 461.119 711.304C461.448 711.362 461.689 711.43 461.844 711.507C461.999 711.584 462.076 711.691 462.076 711.826C462.076 711.942 461.999 712.019 461.844 712.058C461.689 712.116 461.486 712.145 461.235 712.145C460.713 712.145 460.317 712.126 460.046 712.087C459.795 712.068 459.563 712.048 459.35 712.029C459.157 712.01 458.876 712 458.509 712C458.161 712 457.89 712.01 457.697 712.029C457.504 712.048 457.281 712.068 457.03 712.087C456.779 712.126 456.392 712.145 455.87 712.145ZM491.232 712.551C491.096 712.551 491.029 712.474 491.029 712.319C491.029 712.126 491.048 711.845 491.087 711.478C491.145 711.091 491.174 710.772 491.174 710.521C491.174 710.482 491.174 710.453 491.174 710.434C491.174 710.395 491.174 710.366 491.174 710.347C490.42 711.082 489.656 711.613 488.883 711.942C488.129 712.251 487.297 712.406 486.389 712.406C485.77 712.406 485.209 712.271 484.707 712C484.204 711.749 483.808 711.372 483.518 710.869C483.228 710.347 483.083 709.709 483.083 708.955V703.068C483.083 702.643 482.986 702.304 482.793 702.053C482.599 701.802 482.28 701.589 481.836 701.415C481.739 701.376 481.652 701.328 481.575 701.27C481.497 701.212 481.459 701.106 481.459 700.951C481.459 700.777 481.497 700.661 481.575 700.603C481.671 700.545 481.778 700.506 481.894 700.487C482.551 700.448 483.054 700.4 483.402 700.342C483.769 700.265 484.223 700.158 484.765 700.023C484.823 700.004 484.861 699.994 484.881 699.994C484.919 699.994 484.958 699.994 484.997 699.994C485.209 699.994 485.306 700.129 485.287 700.4C485.229 700.845 485.18 701.222 485.142 701.531C485.122 701.821 485.113 702.188 485.113 702.633V708.288C485.113 708.752 485.229 709.187 485.461 709.593C485.693 709.98 485.992 710.299 486.36 710.55C486.746 710.801 487.143 710.927 487.549 710.927C488.051 710.927 488.486 710.898 488.854 710.84C489.24 710.782 489.617 710.618 489.985 710.347C490.197 710.192 490.468 709.941 490.797 709.593C491.125 709.245 491.29 708.771 491.29 708.172V702.865C491.29 702.459 491.164 702.159 490.913 701.966C490.681 701.753 490.41 701.608 490.101 701.531C489.791 701.454 489.54 701.415 489.347 701.415C489.173 701.415 489.028 701.386 488.912 701.328C488.796 701.251 488.738 701.115 488.738 700.922C488.738 700.748 488.796 700.632 488.912 700.574C489.047 700.516 489.192 700.487 489.347 700.487C489.946 700.468 490.439 700.448 490.826 700.429C491.232 700.39 491.589 700.342 491.899 700.284C492.227 700.207 492.566 700.12 492.914 700.023C492.952 700.004 493.001 699.994 493.059 699.994C493.117 699.975 493.165 699.965 493.204 699.965C493.455 699.965 493.581 700.071 493.581 700.284C493.581 700.303 493.571 700.342 493.552 700.4C493.552 700.439 493.542 700.487 493.523 700.545C493.503 700.603 493.474 700.767 493.436 701.038C493.416 701.309 493.387 701.589 493.349 701.879C493.329 702.169 493.32 702.391 493.32 702.546V709.245C493.32 709.767 493.368 710.144 493.465 710.376C493.581 710.589 493.706 710.695 493.842 710.695C493.996 710.695 494.219 710.685 494.509 710.666C494.818 710.627 495.04 710.608 495.176 710.608C495.272 710.608 495.369 710.627 495.466 710.666C495.562 710.705 495.611 710.811 495.611 710.985C495.611 711.14 495.572 711.246 495.495 711.304C495.417 711.343 495.321 711.372 495.205 711.391C494.451 711.488 493.803 711.633 493.262 711.826C492.72 712.019 492.237 712.203 491.812 712.377C491.754 712.396 491.667 712.425 491.551 712.464C491.435 712.522 491.328 712.551 491.232 712.551ZM500.087 712.406C499.487 712.406 498.927 712.309 498.405 712.116C497.883 711.942 497.438 711.691 497.071 711.362C496.974 711.149 496.897 710.792 496.839 710.289C496.8 709.786 496.771 709.371 496.752 709.042C496.752 708.868 496.877 708.781 497.129 708.781C497.206 708.781 497.274 708.8 497.332 708.839C497.409 708.858 497.457 708.907 497.477 708.984C497.728 709.931 498.124 710.608 498.666 711.014C499.226 711.42 499.787 711.623 500.348 711.623C500.908 711.623 501.382 711.439 501.769 711.072C502.175 710.685 502.378 710.212 502.378 709.651C502.378 709.129 502.204 708.684 501.856 708.317C501.508 707.93 500.899 707.466 500.029 706.925C499.371 706.519 498.84 706.132 498.434 705.765C498.028 705.398 497.728 705.021 497.535 704.634C497.361 704.247 497.274 703.812 497.274 703.329C497.274 702.71 497.419 702.15 497.709 701.647C497.999 701.144 498.434 700.748 499.014 700.458C499.594 700.149 500.319 699.994 501.189 699.994C501.769 699.994 502.252 700.052 502.639 700.168C503.025 700.284 503.315 700.41 503.509 700.545C503.663 700.758 503.789 701.096 503.886 701.56C504.002 702.005 504.06 702.43 504.06 702.836C504.06 702.971 503.963 703.039 503.77 703.039C503.654 703.039 503.538 703.02 503.422 702.981C503.325 702.923 503.257 702.855 503.219 702.778C502.967 702.14 502.648 701.657 502.262 701.328C501.894 700.98 501.43 700.806 500.87 700.806C500.386 700.806 499.951 700.951 499.565 701.241C499.197 701.531 499.014 701.956 499.014 702.517C499.014 702.962 499.149 703.358 499.42 703.706C499.71 704.054 500.241 704.45 501.015 704.895C502.136 705.533 502.967 706.132 503.509 706.693C504.069 707.234 504.35 707.959 504.35 708.868C504.35 709.912 503.953 710.763 503.161 711.42C502.368 712.077 501.343 712.406 500.087 712.406ZM506.561 712.087C506.387 712.087 506.242 712.058 506.126 712C506.029 711.961 505.981 711.884 505.981 711.768C505.981 711.613 506.048 711.507 506.184 711.449C506.338 711.391 506.493 711.343 506.648 711.304C507.054 711.207 507.363 711.091 507.576 710.956C507.788 710.801 507.895 710.55 507.895 710.202V703.909C507.895 703.387 507.798 702.923 507.605 702.517C507.431 702.111 507.092 701.869 506.59 701.792C506.493 701.773 506.416 701.734 506.358 701.676C506.319 701.618 506.3 701.531 506.3 701.415C506.3 701.202 506.387 701.086 506.561 701.067C507.334 700.893 507.972 700.661 508.475 700.371C508.977 700.062 509.354 699.81 509.606 699.617C509.78 699.482 509.915 699.414 510.012 699.414C510.128 699.414 510.186 699.462 510.186 699.559C510.186 699.714 510.157 700.023 510.099 700.487C510.06 700.932 510.021 701.434 509.983 701.995C509.944 702.536 509.925 703.029 509.925 703.474V710.202C509.925 710.531 510.031 710.772 510.244 710.927C510.476 711.082 510.785 711.207 511.172 711.304C511.326 711.343 511.471 711.391 511.607 711.449C511.761 711.507 511.839 711.613 511.839 711.768C511.839 711.981 511.645 712.087 511.259 712.087C510.891 712.087 510.592 712.068 510.36 712.029C510.147 712.01 509.934 711.99 509.722 711.971C509.528 711.952 509.258 711.942 508.91 711.942C508.581 711.942 508.31 711.952 508.098 711.971C507.885 711.99 507.672 712.01 507.46 712.029C507.247 712.068 506.947 712.087 506.561 712.087ZM508.881 697.036C508.475 697.036 508.127 696.901 507.837 696.63C507.566 696.34 507.431 695.992 507.431 695.586C507.431 695.161 507.566 694.813 507.837 694.542C508.127 694.252 508.475 694.107 508.881 694.107C509.306 694.107 509.654 694.252 509.925 694.542C510.215 694.813 510.36 695.161 510.36 695.586C510.36 695.992 510.215 696.34 509.925 696.63C509.654 696.901 509.306 697.036 508.881 697.036ZM518.57 712.435C517.603 712.435 516.724 712.193 515.931 711.71C515.158 711.207 514.539 710.531 514.075 709.68C513.63 708.81 513.408 707.843 513.408 706.78C513.408 705.523 513.679 704.383 514.22 703.358C514.781 702.333 515.525 701.521 516.453 700.922C517.381 700.303 518.406 699.994 519.527 699.994C520.784 699.994 521.886 700.332 522.833 701.009C523.065 701.183 523.181 701.367 523.181 701.56C523.181 701.715 523.113 701.889 522.978 702.082C522.843 702.275 522.678 702.44 522.485 702.575C522.292 702.691 522.108 702.749 521.934 702.749C521.837 702.749 521.741 702.72 521.644 702.662C521.547 702.585 521.441 702.507 521.325 702.43C520.9 702.101 520.426 701.792 519.904 701.502C519.382 701.212 518.947 701.067 518.599 701.067C517.652 701.067 516.878 701.512 516.279 702.401C515.699 703.271 515.409 704.421 515.409 705.852C515.409 706.761 515.602 707.582 515.989 708.317C516.395 709.052 516.927 709.632 517.584 710.057C518.261 710.482 519.005 710.695 519.817 710.695C520.378 710.695 520.861 710.608 521.267 710.434C521.673 710.241 522.108 709.912 522.572 709.448C522.611 709.409 522.659 709.38 522.717 709.361C522.775 709.322 522.823 709.303 522.862 709.303C523.075 709.303 523.181 709.438 523.181 709.709C523.181 709.825 523.142 709.96 523.065 710.115C523.007 710.25 522.901 710.415 522.746 710.608C522.437 710.995 522.069 711.333 521.644 711.623C521.219 711.894 520.745 712.097 520.223 712.232C519.72 712.367 519.169 712.435 518.57 712.435Z" fill="white" />
	<defs>
		<linearGradient id="paint0_linear_6_13" x1="437.233" y1="300.797" x2="171.103" y2="550.907" gradientUnits="userSpaceOnUse">
			<stop stop-color="#AD2525" />
			<stop offset="1" stop-color="#5035B9" stop-opacity="0" />
		</linearGradient>
		<linearGradient id="paint1_linear_6_13" x1="494.586" y1="468.281" x2="431.767" y2="558.141" gradientUnits="userSpaceOnUse">
			<stop stop-color="#AD2525" />
			<stop offset="1" stop-color="#5035B9" stop-opacity="0" />
		</linearGradient>
		<linearGradient id="paint2_linear_6_13" x1="322.138" y1="508.537" x2="259.319" y2="598.397" gradientUnits="userSpaceOnUse">
			<stop stop-color="#AD2525" />
			<stop offset="1" stop-color="#5035B9" stop-opacity="0" />
		</linearGradient>
		<linearGradient id="paint3_linear_6_13" x1="105.28" y1="80.0496" x2="35.8096" y2="144.665" gradientUnits="userSpaceOnUse">
			<stop stop-color="#FF0000" />
			<stop offset="1" stop-opacity="0" />
			<stop offset="1" stop-opacity="0" />
		</linearGradient>
		<linearGradient id="paint4_linear_6_13" x1="147.61" y1="74" x2="-33.1112" y2="189.314" gradientUnits="userSpaceOnUse">
			<stop stop-color="#FF0000" />
			<stop offset="1" stop-opacity="0" />
			<stop offset="1" stop-opacity="0" />
		</linearGradient>
		<linearGradient id="paint5_linear_6_13" x1="83" y1="702.345" x2="763" y2="702.345" gradientUnits="userSpaceOnUse">
			<stop offset="0.0677083" stop-color="#CCFF00" stop-opacity="0" />
			<stop offset="0.145833" stop-color="#00FF19" stop-opacity="0.05" />
			<stop offset="0.494917" stop-color="#0066FF" stop-opacity="0.38" />
			<stop offset="0.807292" stop-color="#FF0000" stop-opacity="0.28" />
			<stop offset="0.901042" stop-color="#FF0000" stop-opacity="0" />
		</linearGradient>
		<linearGradient id="paint6_linear_6_13" x1="83" y1="702.345" x2="763" y2="702.345" gradientUnits="userSpaceOnUse">
			<stop offset="0.0677083" stop-color="#CCFF00" stop-opacity="0" />
			<stop offset="0.145833" stop-color="#00FF19" stop-opacity="0.05" />
			<stop offset="0.494917" stop-color="#0066FF" stop-opacity="0.38" />
			<stop offset="0.807292" stop-color="#FF0000" stop-opacity="0.28" />
			<stop offset="0.901042" stop-color="#FF0000" stop-opacity="0" />
		</linearGradient>
		<linearGradient id="paint7_linear_6_13" x1="83" y1="702.345" x2="763" y2="702.345" gradientUnits="userSpaceOnUse">
			<stop offset="0.078025" stop-color="white" stop-opacity="0" />
			<stop offset="0.078125" stop-color="white" stop-opacity="0.01" />
			<stop offset="0.494917" stop-color="white" stop-opacity="0.25" />
			<stop offset="0.927083" stop-color="white" stop-opacity="0.01" />
			<stop offset="0.927183" stop-color="white" stop-opacity="0" />
		</linearGradient>
	</defs>
</svg>
