<svg width="445" height="207" viewBox="0 0 445 207" fill="none" xmlns="http://www.w3.org/2000/svg">
	<g clip-path="url(#clip0_2018_19)">
		<rect width="445" height="207" fill="#D9D9D9" />
		<circle cx="220" cy="104" r="34" fill="#774041" />
		<path d="M95.2939 114.366C89.0098 114.366 85.0986 110.162 85.0986 103.438V103.409C85.0986 96.6855 89.0391 92.4961 95.2939 92.4961C101.563 92.4961 105.489 96.7002 105.489 103.409V103.438C105.489 110.162 101.578 114.366 95.2939 114.366ZM95.2939 110.616C98.8096 110.616 100.978 107.818 100.978 103.438V103.409C100.978 99 98.7656 96.2461 95.2939 96.2461C91.8369 96.2461 89.6104 98.9854 89.6104 103.409V103.438C89.6104 107.862 91.8223 110.616 95.2939 110.616ZM107.979 114V98.2969H112.257V100.875H112.345C113.15 99.0732 114.762 97.9746 117.135 97.9746C120.592 97.9746 122.555 100.187 122.555 103.863V114H118.277V104.742C118.277 102.691 117.311 101.52 115.392 101.52C113.473 101.52 112.257 102.926 112.257 104.977V114H107.979ZM132.413 114.322C127.608 114.322 124.693 111.202 124.693 106.178V106.163C124.693 101.168 127.638 97.9746 132.237 97.9746C136.837 97.9746 139.723 101.095 139.723 105.841V107.159H128.912C128.956 109.664 130.318 111.129 132.501 111.129C134.259 111.129 135.328 110.162 135.636 109.283L135.665 109.195H139.591L139.547 109.356C139.063 111.671 136.896 114.322 132.413 114.322ZM132.311 101.168C130.553 101.168 129.234 102.34 128.956 104.464H135.621C135.357 102.296 134.083 101.168 132.311 101.168ZM155.089 114.322C150.313 114.322 147.311 111.261 147.311 106.148V106.119C147.311 101.065 150.387 97.9746 155.074 97.9746C159.776 97.9746 162.867 101.036 162.867 106.119V106.148C162.867 111.275 159.835 114.322 155.089 114.322ZM155.104 110.968C157.184 110.968 158.517 109.21 158.517 106.148V106.119C158.517 103.087 157.154 101.329 155.074 101.329C153.009 101.329 151.661 103.087 151.661 106.119V106.148C151.661 109.225 152.994 110.968 155.104 110.968ZM166.222 114V101.52H164.083V98.2969H166.222V97.0371C166.222 93.9609 167.687 92.54 171.393 92.54C172.184 92.54 173.048 92.6133 173.546 92.7158V95.543C173.253 95.4844 172.843 95.4697 172.447 95.4697C171.026 95.4697 170.396 96.0703 170.396 97.1982V98.2969H173.517V101.52H170.499V114H166.222ZM268.6 114V92.8623H282.604V96.5098H273.023V101.578H282.062V105.035H273.023V110.353H282.604V114H268.6ZM289.576 114L284.142 98.2969H288.712L291.993 110.221H292.081L295.318 98.2969H299.786L294.396 114H289.576ZM307.872 114.322C303.067 114.322 300.152 111.202 300.152 106.178V106.163C300.152 101.168 303.097 97.9746 307.696 97.9746C312.296 97.9746 315.182 101.095 315.182 105.841V107.159H304.371C304.415 109.664 305.777 111.129 307.96 111.129C309.718 111.129 310.787 110.162 311.095 109.283L311.124 109.195H315.05L315.006 109.356C314.522 111.671 312.354 114.322 307.872 114.322ZM307.77 101.168C306.012 101.168 304.693 102.34 304.415 104.464H311.08C310.816 102.296 309.542 101.168 307.77 101.168ZM317.394 114V98.2969H321.671V100.875H321.759C322.564 99.0732 324.176 97.9746 326.549 97.9746C330.006 97.9746 331.969 100.187 331.969 103.863V114H327.691V104.742C327.691 102.691 326.725 101.52 324.806 101.52C322.887 101.52 321.671 102.926 321.671 104.977V114H317.394ZM340.919 114.322C337.433 114.322 335.792 112.975 335.792 109.605V101.52H333.609V98.2969H335.792V94.459H340.113V98.2969H342.984V101.52H340.113V109.137C340.113 110.602 340.772 111.1 342.062 111.1C342.442 111.1 342.721 111.056 342.984 111.026V114.161C342.501 114.234 341.812 114.322 340.919 114.322ZM351.803 114.322C347.452 114.322 345.035 112.315 344.698 109.342L344.684 109.21H348.858L348.888 109.342C349.166 110.572 350.089 111.29 351.803 111.29C353.414 111.29 354.396 110.66 354.396 109.649V109.635C354.396 108.8 353.868 108.316 352.33 107.979L349.664 107.423C346.617 106.778 345.079 105.255 345.079 102.911V102.896C345.079 99.9082 347.657 97.9746 351.656 97.9746C355.831 97.9746 358.16 100.187 358.263 102.94V103.087H354.322L354.308 102.97C354.161 101.842 353.238 100.992 351.656 100.992C350.177 100.992 349.254 101.651 349.254 102.662V102.677C349.254 103.482 349.796 104.01 351.378 104.347L354.044 104.918C357.325 105.606 358.673 106.896 358.673 109.21V109.225C358.673 112.301 355.846 114.322 351.803 114.322Z" fill="black" />
		<path d="M205.802 114.322C202.315 114.322 200.675 112.975 200.675 109.605V101.52H198.492V98.2969H200.675V94.459H204.996V98.2969H207.867V101.52H204.996V109.137C204.996 110.602 205.655 111.1 206.944 111.1C207.325 111.1 207.604 111.056 207.867 111.026V114.161C207.384 114.234 206.695 114.322 205.802 114.322ZM210.328 114V92.8623H214.605V101.007H214.693C215.499 99.0586 217.154 97.9746 219.513 97.9746C222.911 97.9746 225.021 100.348 225.021 104.142V114H220.743V105.021C220.743 102.823 219.659 101.52 217.711 101.52C215.821 101.52 214.605 102.955 214.605 105.006V114H210.328ZM234.923 114.322C230.118 114.322 227.203 111.202 227.203 106.178V106.163C227.203 101.168 230.147 97.9746 234.747 97.9746C239.347 97.9746 242.232 101.095 242.232 105.841V107.159H231.422C231.466 109.664 232.828 111.129 235.011 111.129C236.769 111.129 237.838 110.162 238.146 109.283L238.175 109.195H242.101L242.057 109.356C241.573 111.671 239.405 114.322 234.923 114.322ZM234.82 101.168C233.062 101.168 231.744 102.34 231.466 104.464H238.131C237.867 102.296 236.593 101.168 234.82 101.168Z" fill="white" />
	</g>
	<defs>
		<clipPath id="clip0_2018_19">
			<rect width="445" height="207" fill="white" />
		</clipPath>
	</defs>
</svg>
