<svg width="445" height="207" viewBox="0 0 445 207" fill="none" xmlns="http://www.w3.org/2000/svg">
	<g clip-path="url(#clip0_2015_10)">
		<rect width="445" height="207" fill="#D9D9D9" />
		<circle cx="232" cy="104" r="34" fill="#0000FF" />
		<path d="M115.494 114V110.968L122.965 103.98C125.689 101.432 126.261 100.392 126.261 98.9268V98.8975C126.246 97.1689 124.928 95.9385 123.053 95.9385C120.885 95.9385 119.42 97.3594 119.361 99.2637L119.347 99.3955H115.245V99.2783C115.245 95.2939 118.556 92.4961 123.023 92.4961C127.491 92.4961 130.567 95.0449 130.567 98.6484V98.6777C130.567 101.241 129.352 102.911 125.704 106.266L121.28 110.309V110.484H130.86V114H115.494ZM141.861 114.366C136.5 114.366 133.248 110.162 133.248 103.438V103.409C133.248 96.6855 136.5 92.4961 141.861 92.4961C147.223 92.4961 150.475 96.6855 150.475 103.409V103.438C150.475 110.162 147.223 114.366 141.861 114.366ZM141.861 110.821C144.498 110.821 146.007 108.082 146.007 103.438V103.409C146.007 98.7656 144.498 96.041 141.861 96.041C139.225 96.041 137.716 98.7656 137.716 103.409V103.438C137.716 108.082 139.225 110.821 141.861 110.821ZM153.053 114V110.968L160.523 103.98C163.248 101.432 163.819 100.392 163.819 98.9268V98.8975C163.805 97.1689 162.486 95.9385 160.611 95.9385C158.443 95.9385 156.979 97.3594 156.92 99.2637L156.905 99.3955H152.804V99.2783C152.804 95.2939 156.114 92.4961 160.582 92.4961C165.05 92.4961 168.126 95.0449 168.126 98.6484V98.6777C168.126 101.241 166.91 102.911 163.263 106.266L158.839 110.309V110.484H168.419V114H153.053ZM180.855 114V110.118H170.338V106.427L178.819 92.8623H185.06V106.588H187.843V110.118H185.06V114H180.855ZM174.19 106.705H180.943V96.0557H180.841L174.19 106.588V106.705ZM278.15 114V92.8623H286.222C292.55 92.8623 296.3 96.627 296.3 103.321V103.351C296.3 110.06 292.564 114 286.222 114H278.15ZM282.574 110.338H285.694C289.649 110.338 291.788 107.936 291.788 103.365V103.336C291.788 98.9268 289.576 96.5098 285.694 96.5098H282.574V110.338ZM303.375 114.249C300.226 114.249 298.102 112.271 298.102 109.503V109.474C298.102 106.617 300.313 104.947 304.21 104.698L308.092 104.464V103.497C308.092 102.105 307.184 101.241 305.514 101.241C303.917 101.241 302.95 101.988 302.745 102.999L302.716 103.131H298.805L298.819 102.955C299.054 100.055 301.544 97.9746 305.689 97.9746C309.747 97.9746 312.369 100.069 312.369 103.233V114H308.092V111.656H308.004C307.11 113.268 305.44 114.249 303.375 114.249ZM302.335 109.283C302.335 110.44 303.287 111.129 304.767 111.129C306.686 111.129 308.092 109.898 308.092 108.258V107.13L304.854 107.335C303.199 107.438 302.335 108.141 302.335 109.254V109.283ZM317.511 119.171C316.676 119.171 315.826 119.068 315.328 118.98V115.802C315.636 115.86 316.134 115.948 316.764 115.948C318.038 115.948 318.741 115.582 319.122 114.513L319.312 114L313.761 98.2969H318.463L321.773 110.572H321.891L325.216 98.2969H329.728L324.337 114.278C323.106 117.984 320.997 119.171 317.511 119.171Z" fill="black" />
		<path d="M208.307 114V92.8623H212.73V114H208.307ZM215.88 114V98.2969H220.157V100.875H220.245C221.051 99.0732 222.662 97.9746 225.035 97.9746C228.492 97.9746 230.455 100.187 230.455 103.863V114H226.178V104.742C226.178 102.691 225.211 101.52 223.292 101.52C221.373 101.52 220.157 102.926 220.157 104.977V114H215.88ZM234.308 114V101.52H232.169V98.2969H234.308V97.0371C234.308 93.9609 235.772 92.54 239.479 92.54C240.27 92.54 241.134 92.6133 241.632 92.7158V95.543C241.339 95.4844 240.929 95.4697 240.533 95.4697C239.112 95.4697 238.482 96.0703 238.482 97.1982V98.2969H241.603V101.52H238.585V114H234.308ZM249.952 114.322C245.177 114.322 242.174 111.261 242.174 106.148V106.119C242.174 101.065 245.25 97.9746 249.938 97.9746C254.64 97.9746 257.73 101.036 257.73 106.119V106.148C257.73 111.275 254.698 114.322 249.952 114.322ZM249.967 110.968C252.047 110.968 253.38 109.21 253.38 106.148V106.119C253.38 103.087 252.018 101.329 249.938 101.329C247.872 101.329 246.524 103.087 246.524 106.119V106.148C246.524 109.225 247.857 110.968 249.967 110.968Z" fill="white" />
	</g>
	<defs>
		<clipPath id="clip0_2015_10">
			<rect width="445" height="207" fill="white" />
		</clipPath>
	</defs>
</svg>
