<svg width="24" height="24" viewBox="0 0 24 24" fill="none" xmlns="http://www.w3.org/2000/svg">
	<path d="M8 4H7C6.44772 4 6 4.44772 6 5V19C6 19.5523 6.44772 20 7 20H8C8.55228 20 9 19.5523 9 19V5C9 4.44772 8.55228 4 8 4Z" fill="white" />
	<path d="M17 4H16C15.4477 4 15 4.44772 15 5V19C15 19.5523 15.4477 20 16 20H17C17.5523 20 18 19.5523 18 19V5C18 4.44772 17.5523 4 17 4Z" fill="white" />
	<path d="M8 4H7C6.44772 4 6 4.44772 6 5V19C6 19.5523 6.44772 20 7 20H8C8.55228 20 9 19.5523 9 19V5C9 4.44772 8.55228 4 8 4Z" stroke="white" stroke-width="1.5" stroke-linecap="round" />
	<path d="M17 4H16C15.4477 4 15 4.44772 15 5V19C15 19.5523 15.4477 20 16 20H17C17.5523 20 18 19.5523 18 19V5C18 4.44772 17.5523 4 17 4Z" stroke="white" stroke-width="1.5" stroke-linecap="round" />
</svg>
