<svg width="254" height="319" viewBox="0 0 254 319" fill="none" xmlns="http://www.w3.org/2000/svg">
<g clip-path="url(#clip0_1_76)">
<rect width="254" height="319" fill="#EBFFE6"/>
<path d="M74.1922 291.2C70.1922 291.2 65.7922 290.8 60.9922 290C56.1922 289.467 53.7922 287.733 53.7922 284.8C53.7922 281.6 55.5255 279.467 58.9922 278.4C62.4589 277.333 66.3255 276.533 70.5922 276C85.7922 273.867 99.3922 269.733 111.392 263.6C123.392 257.2 132.726 249.733 139.392 241.2C146.326 232.4 149.792 223.467 149.792 214.4C149.792 204.533 147.392 196 142.592 188.8C137.792 181.333 130.059 174.667 119.392 168.8C108.992 162.933 95.3922 157.467 78.5922 152.4C69.2589 149.467 62.8589 146.533 59.3922 143.6C56.1922 140.667 54.5922 136.4 54.5922 130.8C54.5922 127.067 55.3922 121.733 56.9922 114.8C58.5922 107.6 60.3255 100.133 62.1922 92.4C64.3255 84.4 66.3255 77.3333 68.1922 71.2C70.0589 64.8 71.1255 60.6667 71.3922 58.8C72.9922 51.8667 75.6589 46.9333 79.3922 44C83.1255 41.0667 87.1255 39.0667 91.3922 38C96.1922 36.9333 103.126 35.7333 112.192 34.4C121.526 32.8 131.259 31.2 141.392 29.6C151.526 28 160.459 26.6667 168.192 25.6C176.192 24.5333 181.126 24 182.992 24C185.126 24 186.726 24.9333 187.792 26.8C189.126 28.6666 189.659 30.6666 189.392 32.8C189.126 37.0667 187.792 41.8667 185.392 47.2C182.992 52.2667 180.992 56.9333 179.392 61.2C177.259 66.8 173.659 71.4667 168.592 75.2C163.792 78.9333 158.192 81.0667 151.792 81.6C147.526 81.8667 142.059 82.1333 135.392 82.4C128.992 82.4 122.326 82.5333 115.392 82.8C108.726 83.0667 102.726 83.3333 97.3922 83.6C92.3255 83.6 88.7255 83.7333 86.5922 84C84.7255 84.2667 83.2589 85.2 82.1922 86.8C81.1255 88.1333 80.3255 89.7333 79.7922 91.6C79.2589 93.2 78.9922 94.5333 78.9922 95.6C78.9922 96.9333 79.3922 98 80.1922 98.8C80.9922 99.6 81.9255 100.133 82.9922 100.4C97.9255 102.8 110.992 106.133 122.192 110.4C133.392 114.4 143.792 118.667 153.392 123.2C170.992 131.467 183.526 142 190.992 154.8C198.459 167.6 202.192 181.067 202.192 195.2C202.192 210.133 197.659 224.533 188.592 238.4C179.526 252.267 167.526 263.333 152.592 271.6C147.792 274.267 141.126 277.067 132.592 280C124.059 283.2 114.726 285.867 104.592 288C94.4589 290.133 84.3255 291.2 74.1922 291.2Z" fill="black" fill-opacity="0.03"/>
<path d="M57.2406 160.155L61.7367 146.309L66.2379 160.155H57.2406ZM66.2783 138.553H57.2027L45 172.879L53.093 172.869L55.379 166.248H68.0995L70.3829 172.869L70.7947 172.879H78.4709L78.4659 172.869H78.4735L66.2783 138.553ZM205.211 138.704H195.595L189.01 159.533L182.428 138.704H172.811L170.02 172.879H177.426L179.263 148.985L186.017 172.929H191.955L198.763 149.061L200.594 172.879H208V172.871L205.211 138.704ZM155.474 152.073C151.086 150.386 149.949 149.438 149.949 147.457C149.949 145.533 151.528 144.382 154.178 144.382C156.792 144.382 159.99 145.341 163.008 147.02L164.188 140.477C161.425 139.167 158.608 138.302 154.077 138.302C147.05 138.302 142.511 142.212 142.511 148.264C142.511 153.939 145.524 156.056 152.281 158.656C157.204 160.532 158.406 161.529 158.406 163.721C158.406 165.866 156.668 167.199 153.872 167.199C150.7 167.199 146.885 166.119 143.084 164.146L141.945 170.795C145.686 172.467 149.543 173.283 153.723 173.283C161.313 173.283 165.847 169.331 165.847 162.712C165.847 157.54 163.322 154.953 155.474 152.073ZM93.927 167.348H90.4059V157.672H93.826C97.6578 157.672 99.7695 159.425 99.7695 162.611C99.7695 165.669 97.6957 167.348 93.927 167.348ZM90.4059 144.233H93.826C98.0291 144.233 98.9107 146.479 98.9107 148.365C98.9107 151.14 96.9354 152.801 93.6264 152.801H90.4059V144.233ZM101.141 155.105L100.285 154.832L101.106 154.468C103.291 153.492 105.895 151.471 105.895 147.404C105.895 141.711 101.932 138.704 94.4322 138.704H82.914V172.879H94.1796C102.581 172.879 107.208 169.429 107.208 163.167C107.208 158.995 105.278 156.433 101.141 155.105ZM123.647 155.378H120.629V144.534H123.748C127.681 144.534 129.843 146.433 129.843 149.88C129.843 153.373 127.585 155.378 123.647 155.378ZM137.636 149.374C137.636 142.495 133.008 138.704 124.607 138.704H112.786V172.879H120.682V160.904H123.586L131 172.869H139.919L131.015 159.126L131.381 158.962C135.534 157.138 137.636 153.914 137.636 149.374ZM112.149 108.453L112.826 113.268C109.562 113.612 106.312 114.047 103.086 114.596L101.745 109.909C105.188 109.305 108.661 108.822 112.149 108.453ZM126.524 107.593V112.459C123.286 112.509 120.05 112.653 116.827 112.906L116.148 108.081C119.595 107.805 123.058 107.641 126.524 107.593ZM130.54 107.593C134.003 107.641 137.466 107.805 140.914 108.081L140.235 112.906C137.012 112.653 133.778 112.509 130.54 112.459V107.593ZM144.913 108.453C148.401 108.822 151.874 109.305 155.317 109.909L153.976 114.596C150.75 114.047 147.499 113.612 144.236 113.268L144.913 108.453ZM100.184 119.019L100.189 119.041L101.217 122.638C110.159 120.908 119.343 120.03 128.532 120.008C137.719 120.03 146.903 120.908 155.845 122.638L156.873 119.041L156.878 119.019L164.569 92.1633C164.875 91.0986 164.261 89.9858 163.198 89.6823C162.127 89.3738 161.02 89.9909 160.715 91.0556L156.426 106.032C152.801 105.39 149.146 104.872 145.468 104.48L148.633 81.9335C148.79 80.8359 148.025 79.8218 146.928 79.665C145.825 79.5107 144.817 80.277 144.663 81.3746L141.47 104.105C137.838 103.807 134.19 103.635 130.54 103.582V76.0055C130.54 74.8978 129.641 74 128.532 74C127.423 74 126.524 74.8978 126.524 76.0055V103.582C122.872 103.635 119.227 103.807 115.592 104.105L112.399 81.3746C112.245 80.277 111.237 79.5107 110.133 79.665C109.037 79.8218 108.272 80.8359 108.426 81.9335L111.593 104.48C107.916 104.872 104.261 105.39 100.636 106.032L96.3469 91.0556C96.0412 89.9909 94.9323 89.3738 93.8664 89.6823C92.8005 89.9858 92.1867 91.0986 92.4923 92.1633L100.184 119.019ZM147.969 191.014H109.09C107.991 191.014 107.1 191.91 107.1 193.007C107.1 194.107 107.991 195 109.09 195H147.969C149.068 195 149.959 194.107 149.959 193.007C149.959 191.91 149.068 191.014 147.969 191.014Z" fill="url(#paint0_linear_1_76)"/>
<path d="M75.2122 237.096C75.0843 237.096 74.9563 237.053 74.8283 236.968C74.7003 236.883 74.6363 236.765 74.6363 236.616C74.6363 236.253 74.8389 236.019 75.2443 235.912C76.0549 235.741 76.6096 235.528 76.9083 235.272C77.2069 235.016 77.3563 234.557 77.3563 233.896V219.368C77.3563 218.685 77.2176 218.205 76.9403 217.928C76.6843 217.629 76.1829 217.395 75.4363 217.224C75.1803 217.16 74.9989 217.064 74.8923 216.936C74.8069 216.808 74.7643 216.68 74.7643 216.552C74.7643 216.403 74.8176 216.285 74.9243 216.2C75.0523 216.093 75.2123 216.04 75.4043 216.04C75.8736 216.04 76.3856 216.051 76.9403 216.072C77.4949 216.093 78.0389 216.125 78.5723 216.168C79.1056 216.189 79.5856 216.2 80.0123 216.2C80.5243 216.2 80.9723 216.179 81.3563 216.136C81.7616 216.072 82.2096 216.019 82.7003 215.976C83.1909 215.912 83.8309 215.88 84.6203 215.88C87.2443 215.88 89.3243 216.445 90.8603 217.576C92.3963 218.685 93.1643 220.211 93.1643 222.152C93.1643 223.496 92.8763 224.744 92.3003 225.896C91.7243 227.027 90.8496 227.944 89.6763 228.648C88.5243 229.331 87.0629 229.672 85.2923 229.672C84.7163 229.672 84.2789 229.587 83.9803 229.416C83.6816 229.245 83.5323 229.032 83.5323 228.776C83.5323 228.605 83.6069 228.477 83.7563 228.392C83.9056 228.307 84.0336 228.264 84.1403 228.264C84.3963 228.264 84.5989 228.296 84.7483 228.36C84.9189 228.403 85.1429 228.424 85.4203 228.424C86.2309 228.424 86.8389 227.933 87.2443 226.952C87.6709 225.949 87.8843 224.659 87.8843 223.08C87.8843 221.053 87.5963 219.603 87.0203 218.728C86.4656 217.832 85.6656 217.384 84.6203 217.384C84.0229 217.384 83.5749 217.523 83.2763 217.8C82.9776 218.077 82.8283 218.504 82.8283 219.08L82.7963 233.864C82.7963 234.525 82.9776 234.984 83.3403 235.24C83.7243 235.496 84.3749 235.72 85.2923 235.912C85.4843 235.955 85.6336 236.029 85.7403 236.136C85.8469 236.221 85.9003 236.371 85.9003 236.584C85.9003 236.733 85.8576 236.851 85.7723 236.936C85.6869 237.021 85.5589 237.064 85.3883 237.064C84.9403 237.064 84.3749 237.053 83.6923 237.032C83.0096 237.011 82.3269 236.989 81.6443 236.968C80.9829 236.947 80.4389 236.936 80.0123 236.936C79.5856 236.936 79.0843 236.947 78.5083 236.968C77.9536 236.989 77.3776 237.011 76.7803 237.032C76.2043 237.075 75.6816 237.096 75.2122 237.096ZM95.0247 237.096C94.8968 237.096 94.7688 237.053 94.6408 236.968C94.5128 236.883 94.4488 236.765 94.4488 236.616C94.4488 236.253 94.6514 236.019 95.0568 235.912C95.8674 235.741 96.4221 235.528 96.7208 235.272C97.0194 235.016 97.1688 234.557 97.1688 233.896V219.368C97.1688 218.685 97.0301 218.205 96.7528 217.928C96.4754 217.651 95.9101 217.416 95.0568 217.224C94.6514 217.117 94.4488 216.883 94.4488 216.52C94.4488 216.371 94.5128 216.253 94.6408 216.168C94.7688 216.083 94.8968 216.04 95.0247 216.04C95.4941 216.04 96.0168 216.051 96.5928 216.072C97.1901 216.093 97.7661 216.125 98.3208 216.168C98.8968 216.189 99.3981 216.2 99.8248 216.2C100.251 216.2 100.763 216.189 101.361 216.168C101.958 216.147 102.566 216.125 103.185 216.104C103.803 216.083 104.337 216.072 104.785 216.072C104.955 216.072 105.083 216.115 105.169 216.2C105.254 216.264 105.297 216.381 105.297 216.552C105.297 216.765 105.243 216.915 105.137 217C105.03 217.085 104.881 217.16 104.689 217.224C103.814 217.48 103.249 217.747 102.993 218.024C102.737 218.301 102.609 218.76 102.609 219.4V233.864C102.609 234.461 102.747 234.899 103.025 235.176C103.302 235.432 103.857 235.677 104.689 235.912C104.881 235.976 105.03 236.051 105.137 236.136C105.243 236.221 105.297 236.371 105.297 236.584C105.297 236.733 105.254 236.851 105.169 236.936C105.083 237.021 104.955 237.064 104.785 237.064C104.337 237.064 103.803 237.053 103.185 237.032C102.566 237.011 101.958 236.989 101.361 236.968C100.763 236.947 100.251 236.936 99.8248 236.936C99.3981 236.936 98.8968 236.947 98.3208 236.968C97.7661 236.989 97.1901 237.011 96.5928 237.032C96.0168 237.075 95.4941 237.096 95.0247 237.096ZM106.453 237.16C106.219 237.16 106.016 237.117 105.845 237.032C105.696 236.968 105.621 236.829 105.621 236.616C105.621 236.403 105.685 236.253 105.813 236.168C105.963 236.061 106.133 235.976 106.325 235.912C106.965 235.741 107.509 235.475 107.957 235.112C108.427 234.749 108.768 234.333 108.981 233.864C109.493 232.691 109.984 231.528 110.453 230.376C110.923 229.224 111.381 228.083 111.829 226.952C112.277 225.8 112.715 224.648 113.141 223.496C113.589 222.323 114.027 221.149 114.453 219.976C114.816 218.995 115.04 218.301 115.125 217.896C115.211 217.469 115.285 217.245 115.349 217.224C115.776 217.117 116.171 217.021 116.533 216.936C116.896 216.829 117.301 216.701 117.749 216.552C118.155 216.403 118.507 216.221 118.805 216.008C119.125 215.773 119.36 215.581 119.509 215.432C119.616 215.368 119.712 215.325 119.797 215.304C119.904 215.283 120 215.357 120.085 215.528C120.171 215.677 120.235 215.827 120.277 215.976C120.341 216.104 120.395 216.253 120.437 216.424C120.864 217.832 121.301 219.251 121.749 220.68C122.219 222.109 122.688 223.56 123.157 225.032C123.627 226.483 124.096 227.944 124.565 229.416C125.056 230.888 125.536 232.371 126.005 233.864C126.112 234.205 126.283 234.515 126.517 234.792C126.773 235.048 127.072 235.272 127.413 235.464C127.755 235.635 128.139 235.784 128.565 235.912C128.757 235.976 128.917 236.051 129.045 236.136C129.195 236.221 129.269 236.371 129.269 236.584C129.269 236.733 129.205 236.851 129.077 236.936C128.971 237.021 128.832 237.064 128.661 237.064C128.213 237.064 127.659 237.053 126.997 237.032C126.357 237.011 125.707 236.989 125.045 236.968C124.405 236.947 123.84 236.936 123.349 236.936C122.923 236.936 122.4 236.947 121.781 236.968C121.163 236.989 120.533 237.011 119.893 237.032C119.253 237.075 118.699 237.096 118.229 237.096C118.059 237.096 117.899 237.053 117.749 236.968C117.621 236.883 117.557 236.765 117.557 236.616C117.557 236.424 117.621 236.275 117.749 236.168C117.899 236.04 118.069 235.955 118.261 235.912C119.072 235.741 119.669 235.517 120.053 235.24C120.437 234.963 120.544 234.515 120.373 233.896C120.267 233.469 120.149 233.053 120.021 232.648C119.915 232.243 119.808 231.837 119.701 231.432C119.595 231.005 119.488 230.589 119.381 230.184C119.339 230.013 119.285 229.885 119.221 229.8C119.157 229.693 119.04 229.64 118.869 229.64H113.301C113.131 229.64 113.003 229.693 112.917 229.8C112.853 229.885 112.8 230.013 112.757 230.184C112.672 230.504 112.576 230.803 112.469 231.08C112.384 231.336 112.299 231.592 112.213 231.848C112.128 232.104 112.043 232.371 111.957 232.648C111.872 232.904 111.787 233.192 111.701 233.512C111.509 234.195 111.541 234.707 111.797 235.048C112.053 235.389 112.683 235.677 113.685 235.912C114.155 236.019 114.389 236.253 114.389 236.616C114.389 236.765 114.336 236.883 114.229 236.968C114.123 237.032 113.952 237.064 113.717 237.064C113.013 237.064 112.395 237.043 111.861 237C111.328 236.979 110.741 236.968 110.101 236.968C109.483 236.968 108.885 237 108.309 237.064C107.755 237.128 107.136 237.16 106.453 237.16ZM114.197 227.784H118.197C118.517 227.784 118.677 227.709 118.677 227.56C118.677 227.475 118.667 227.421 118.645 227.4C118.645 227.357 118.635 227.293 118.613 227.208L116.565 220.136C116.501 219.923 116.437 219.816 116.373 219.816C116.331 219.816 116.267 219.923 116.181 220.136L113.717 227.208C113.675 227.293 113.653 227.379 113.653 227.464C113.653 227.571 113.707 227.656 113.813 227.72C113.941 227.763 114.069 227.784 114.197 227.784ZM150.387 237.608C150.089 237.608 149.619 237.437 148.979 237.096C148.361 236.776 147.699 236.189 146.995 235.336C146.398 234.696 145.801 234.067 145.203 233.448C144.627 232.808 144.041 232.179 143.443 231.56C142.846 230.92 142.249 230.291 141.651 229.672C141.054 229.032 140.457 228.403 139.859 227.784C139.283 227.165 138.697 226.547 138.099 225.928C137.502 225.288 136.905 224.659 136.307 224.04C135.731 223.4 135.145 222.76 134.547 222.12C134.526 222.077 134.473 222.013 134.387 221.928C134.302 221.843 134.238 221.8 134.195 221.8C134.11 221.8 134.046 221.875 134.003 222.024C133.982 222.173 133.971 222.301 133.971 222.408C133.971 223.368 133.982 224.509 134.003 225.832C134.046 227.155 134.078 228.488 134.099 229.832C134.142 231.155 134.163 232.339 134.163 233.384C134.163 234.109 134.387 234.664 134.835 235.048C135.305 235.411 135.966 235.699 136.819 235.912C137.011 235.955 137.203 236.029 137.395 236.136C137.587 236.221 137.683 236.371 137.683 236.584C137.683 236.733 137.598 236.851 137.427 236.936C137.257 237.021 137.086 237.064 136.915 237.064C136.339 237.064 135.859 237.053 135.475 237.032C135.091 237.011 134.729 237 134.387 237C134.067 236.979 133.683 236.968 133.235 236.968C132.745 236.968 132.265 236.979 131.795 237C131.347 237.021 130.974 237.043 130.675 237.064C130.398 237.085 130.259 237.096 130.259 237.096C130.131 237.096 129.971 237.053 129.779 236.968C129.609 236.883 129.523 236.765 129.523 236.616C129.523 236.424 129.598 236.285 129.747 236.2C129.918 236.093 130.099 235.997 130.291 235.912C130.782 235.72 131.155 235.4 131.411 234.952C131.689 234.504 131.849 233.96 131.891 233.32C131.977 232.531 132.062 231.485 132.147 230.184C132.254 228.883 132.35 227.421 132.435 225.8C132.521 224.179 132.563 222.493 132.563 220.744C132.563 219.635 132.286 218.835 131.731 218.344C131.177 217.853 130.505 217.459 129.715 217.16C129.523 217.117 129.331 217.043 129.139 216.936C128.947 216.808 128.851 216.648 128.851 216.456C128.851 216.264 128.926 216.136 129.075 216.072C129.246 215.987 129.449 215.944 129.683 215.944C130.025 215.944 130.441 215.955 130.931 215.976C131.443 215.997 131.987 216.019 132.563 216.04C133.161 216.04 133.769 216.051 134.387 216.072C135.006 216.093 135.603 216.104 136.179 216.104C136.35 216.104 136.478 216.136 136.563 216.2C136.67 216.243 136.755 216.317 136.819 216.424C137.374 217.043 137.929 217.672 138.483 218.312C139.059 218.931 139.625 219.549 140.179 220.168C140.755 220.787 141.321 221.405 141.875 222.024C142.451 222.643 143.017 223.272 143.571 223.912C144.126 224.531 144.681 225.149 145.235 225.768C145.811 226.387 146.377 227.016 146.931 227.656C147.507 228.275 148.073 228.893 148.627 229.512C148.691 229.597 148.766 229.683 148.851 229.768C148.937 229.853 149.011 229.896 149.075 229.896C149.246 229.896 149.331 229.747 149.331 229.448C149.331 228.701 149.331 227.891 149.331 227.016C149.331 226.12 149.331 225.213 149.331 224.296C149.331 223.357 149.321 222.461 149.299 221.608C149.299 220.733 149.278 219.965 149.235 219.304C149.214 218.685 148.99 218.237 148.563 217.96C148.158 217.683 147.55 217.437 146.739 217.224C146.547 217.181 146.377 217.117 146.227 217.032C146.078 216.925 146.003 216.765 146.003 216.552C146.003 216.403 146.078 216.285 146.227 216.2C146.377 216.115 146.526 216.072 146.675 216.072C147.251 216.072 147.721 216.083 148.083 216.104C148.446 216.104 148.777 216.115 149.075 216.136C149.374 216.136 149.705 216.136 150.067 216.136C150.494 216.136 150.857 216.136 151.155 216.136C151.454 216.115 151.774 216.093 152.115 216.072C152.478 216.051 152.926 216.04 153.459 216.04C153.694 216.04 153.875 216.083 154.003 216.168C154.153 216.253 154.227 216.371 154.227 216.52C154.227 216.861 153.961 217.085 153.427 217.192C152.702 217.341 152.169 217.555 151.827 217.832C151.486 218.109 151.315 218.568 151.315 219.208C151.315 220.125 151.305 221.043 151.283 221.96C151.262 222.856 151.23 223.741 151.187 224.616C151.145 225.491 151.102 226.344 151.059 227.176C151.017 227.987 150.985 228.765 150.963 229.512C150.942 230.259 150.931 230.941 150.931 231.56C150.931 232.051 150.963 232.616 151.027 233.256C151.091 233.875 151.155 234.451 151.219 234.984C151.283 235.496 151.315 235.848 151.315 236.04C151.315 236.616 151.23 237.021 151.059 237.256C150.91 237.491 150.686 237.608 150.387 237.608ZM166.563 237.448C165.069 237.448 163.651 237.203 162.307 236.712C160.963 236.2 159.768 235.485 158.723 234.568C157.677 233.629 156.856 232.52 156.259 231.24C155.661 229.939 155.363 228.499 155.363 226.92C155.363 225.469 155.608 224.083 156.099 222.76C156.589 221.416 157.315 220.221 158.275 219.176C159.256 218.131 160.461 217.299 161.891 216.68C163.32 216.061 164.973 215.752 166.851 215.752C168.344 215.752 169.763 216.008 171.107 216.52C172.451 217.011 173.645 217.725 174.691 218.664C175.736 219.581 176.557 220.691 177.155 221.992C177.752 223.272 178.051 224.701 178.051 226.28C178.051 227.709 177.805 229.096 177.315 230.44C176.824 231.784 176.088 232.979 175.107 234.024C174.147 235.069 172.952 235.901 171.523 236.52C170.093 237.139 168.44 237.448 166.563 237.448ZM167.139 235.944C168.269 235.944 169.208 235.603 169.955 234.92C170.723 234.237 171.299 233.299 171.683 232.104C172.067 230.888 172.259 229.501 172.259 227.944C172.259 226.664 172.141 225.395 171.907 224.136C171.672 222.877 171.309 221.736 170.819 220.712C170.328 219.667 169.699 218.835 168.931 218.216C168.184 217.597 167.277 217.288 166.211 217.288C165.101 217.288 164.163 217.629 163.395 218.312C162.648 218.995 162.083 219.933 161.699 221.128C161.336 222.323 161.155 223.699 161.155 225.256C161.155 226.536 161.272 227.805 161.507 229.064C161.741 230.323 162.093 231.475 162.562 232.52C163.053 233.544 163.672 234.376 164.419 235.016C165.187 235.635 166.093 235.944 167.139 235.944Z" fill="#292929"/>
<path d="M64.7936 258.048C64.7296 258.048 64.6656 258.027 64.6016 257.984C64.5376 257.941 64.5056 257.883 64.5056 257.808C64.5056 257.627 64.607 257.509 64.8096 257.456C65.215 257.371 65.4923 257.264 65.6416 257.136C65.791 257.008 65.8656 256.779 65.8656 256.448V249.184C65.8656 248.843 65.7963 248.603 65.6576 248.464C65.5296 248.315 65.279 248.197 64.9056 248.112C64.7776 248.08 64.687 248.032 64.6336 247.968C64.591 247.904 64.5696 247.84 64.5696 247.776C64.5696 247.701 64.5963 247.643 64.6496 247.6C64.7136 247.547 64.7936 247.52 64.8896 247.52C65.1243 247.52 65.3803 247.525 65.6576 247.536C65.935 247.547 66.207 247.563 66.4736 247.584C66.7403 247.595 66.9803 247.6 67.1936 247.6C67.4496 247.6 67.6736 247.589 67.8656 247.568C68.0683 247.536 68.2923 247.509 68.5376 247.488C68.783 247.456 69.103 247.44 69.4976 247.44C70.8096 247.44 71.8496 247.723 72.6176 248.288C73.3856 248.843 73.7696 249.605 73.7696 250.576C73.7696 251.248 73.6256 251.872 73.3376 252.448C73.0496 253.013 72.6123 253.472 72.0256 253.824C71.4496 254.165 70.719 254.336 69.8336 254.336C69.5456 254.336 69.327 254.293 69.1776 254.208C69.0283 254.123 68.9536 254.016 68.9536 253.888C68.9536 253.803 68.991 253.739 69.0656 253.696C69.1403 253.653 69.2043 253.632 69.2576 253.632C69.3856 253.632 69.487 253.648 69.5616 253.68C69.647 253.701 69.759 253.712 69.8976 253.712C70.303 253.712 70.607 253.467 70.8096 252.976C71.023 252.475 71.1296 251.829 71.1296 251.04C71.1296 250.027 70.9856 249.301 70.6976 248.864C70.4203 248.416 70.0203 248.192 69.4976 248.192C69.199 248.192 68.975 248.261 68.8256 248.4C68.6763 248.539 68.6016 248.752 68.6016 249.04L68.5856 256.432C68.5856 256.763 68.6763 256.992 68.8576 257.12C69.0496 257.248 69.375 257.36 69.8336 257.456C69.9296 257.477 70.0043 257.515 70.0576 257.568C70.111 257.611 70.1376 257.685 70.1376 257.792C70.1376 257.867 70.1163 257.925 70.0736 257.968C70.031 258.011 69.967 258.032 69.8816 258.032C69.6576 258.032 69.375 258.027 69.0336 258.016C68.6923 258.005 68.351 257.995 68.0096 257.984C67.679 257.973 67.407 257.968 67.1936 257.968C66.9803 257.968 66.7296 257.973 66.4416 257.984C66.1643 257.995 65.8763 258.005 65.5776 258.016C65.2896 258.037 65.0283 258.048 64.7936 258.048ZM74.7319 258.08C74.6359 258.08 74.5612 258.053 74.5079 258C74.4545 257.947 74.4279 257.888 74.4279 257.824C74.4279 257.664 74.5345 257.552 74.7479 257.488C75.0999 257.381 75.3452 257.269 75.4839 257.152C75.6332 257.035 75.7079 256.811 75.7079 256.48V249.184C75.7079 248.843 75.6385 248.603 75.4999 248.464C75.3719 248.315 75.1212 248.197 74.7479 248.112C74.6199 248.08 74.5292 248.032 74.4759 247.968C74.4332 247.904 74.4119 247.84 74.4119 247.776C74.4119 247.701 74.4385 247.643 74.4919 247.6C74.5559 247.547 74.6359 247.52 74.7319 247.52C74.9665 247.52 75.2225 247.525 75.4999 247.536C75.7772 247.547 76.0492 247.563 76.3159 247.584C76.5825 247.595 76.8225 247.6 77.0359 247.6C77.6332 247.6 78.2732 247.595 78.9559 247.584C79.6385 247.573 80.2412 247.563 80.7639 247.552C81.1052 247.552 81.3825 247.531 81.5959 247.488C81.8199 247.445 81.9532 247.424 81.9959 247.424C82.0812 247.424 82.1665 247.451 82.2519 247.504C82.3479 247.547 82.4012 247.632 82.4119 247.76C82.4545 248.155 82.5079 248.544 82.5719 248.928C82.6465 249.301 82.6839 249.632 82.6839 249.92C82.6839 250.027 82.6625 250.107 82.6199 250.16C82.5772 250.213 82.5292 250.24 82.4759 250.24C82.4225 250.24 82.3639 250.219 82.2999 250.176C82.2359 250.133 82.1825 250.064 82.1399 249.968C82.0225 249.68 81.9159 249.44 81.8199 249.248C81.7345 249.045 81.6332 248.885 81.5159 248.768C81.3985 248.651 81.2492 248.539 81.0679 248.432C80.8865 248.315 80.6465 248.256 80.3479 248.256H79.3399C79.0732 248.256 78.8545 248.32 78.6839 248.448C78.5132 248.576 78.4279 248.757 78.4279 248.992V251.936C78.4279 252.075 78.4652 252.176 78.5399 252.24C78.6145 252.293 78.7159 252.32 78.8439 252.32H80.2039C80.4812 252.32 80.6785 252.219 80.7959 252.016C80.9239 251.813 81.0359 251.584 81.1319 251.328C81.2172 251.136 81.3292 251.04 81.4679 251.04C81.5212 251.04 81.5692 251.072 81.6119 251.136C81.6545 251.2 81.6705 251.291 81.6599 251.408C81.6492 251.557 81.6332 251.707 81.6119 251.856C81.6012 252.005 81.5905 252.155 81.5799 252.304C81.5799 252.443 81.5799 252.587 81.5799 252.736C81.5799 252.875 81.5799 253.019 81.5799 253.168C81.5905 253.307 81.6012 253.451 81.6119 253.6C81.6225 253.749 81.6332 253.904 81.6439 254.064C81.6652 254.224 81.6545 254.341 81.6119 254.416C81.5799 254.48 81.5372 254.512 81.4839 254.512C81.3025 254.512 81.1745 254.384 81.0999 254.128C81.0039 253.787 80.8919 253.525 80.7639 253.344C80.6465 253.163 80.4865 253.072 80.2839 253.072H78.7799C78.6625 253.072 78.5719 253.104 78.5079 253.168C78.4545 253.232 78.4279 253.323 78.4279 253.44V256.464C78.4279 256.763 78.4919 256.976 78.6199 257.104C78.7479 257.221 78.9452 257.28 79.2119 257.28H80.6359C80.8492 257.28 81.0572 257.253 81.2599 257.2C81.4732 257.136 81.6545 257.04 81.8039 256.912C81.9852 256.763 82.1505 256.571 82.2999 256.336C82.4599 256.101 82.5985 255.867 82.7159 255.632C82.7585 255.547 82.8012 255.493 82.8439 255.472C82.8972 255.451 82.9559 255.44 83.0199 255.44C83.0839 255.44 83.1265 255.477 83.1479 255.552C83.1692 255.616 83.1799 255.685 83.1799 255.76C83.1799 255.952 83.1532 256.16 83.0999 256.384C83.0465 256.608 82.9772 256.848 82.8919 257.104C82.8172 257.349 82.7425 257.605 82.6679 257.872C82.6465 257.947 82.5985 257.995 82.5239 258.016C82.4492 258.048 82.3692 258.064 82.2839 258.064C82.2305 258.064 82.0225 258.059 81.6599 258.048C81.2972 258.048 80.8439 258.043 80.2999 258.032C79.7665 258.021 79.2065 258.011 78.6199 258C78.0439 258 77.5159 258 77.0359 258C76.8225 258 76.5772 258.005 76.2999 258.016C76.0225 258.027 75.7452 258.037 75.4679 258.048C75.1905 258.069 74.9452 258.08 74.7319 258.08ZM93.7583 258.336C93.1609 258.336 92.6596 258.261 92.2543 258.112C91.8596 257.963 91.5289 257.771 91.2623 257.536C90.9956 257.291 90.7556 257.024 90.5423 256.736C90.3183 256.427 90.0996 256.117 89.8863 255.808C89.6729 255.488 89.4649 255.152 89.2623 254.8C89.0596 254.437 88.8569 254.037 88.6543 253.6C88.5476 253.365 88.4196 253.205 88.2703 253.12C88.2063 253.077 88.1369 253.051 88.0623 253.04C87.9983 253.019 87.9396 253.008 87.8863 253.008C87.8329 253.008 87.7903 253.04 87.7583 253.104C87.7369 253.157 87.7263 253.232 87.7263 253.328V256.432C87.7263 256.763 87.8169 256.992 87.9983 257.12C88.1903 257.248 88.5156 257.36 88.9743 257.456C89.0703 257.477 89.1449 257.515 89.1983 257.568C89.2516 257.611 89.2783 257.685 89.2783 257.792C89.2783 257.867 89.2569 257.925 89.2143 257.968C89.1716 258.011 89.1076 258.032 89.0223 258.032C88.7983 258.032 88.5156 258.027 88.1743 258.016C87.8329 258.005 87.4916 257.995 87.1503 257.984C86.8196 257.973 86.5476 257.968 86.3343 257.968C86.1209 257.968 85.8703 257.973 85.5823 257.984C85.3049 257.995 85.0169 258.005 84.7183 258.016C84.4303 258.037 84.1689 258.048 83.9342 258.048C83.8703 258.048 83.8063 258.027 83.7423 257.984C83.6783 257.941 83.6463 257.883 83.6463 257.808C83.6463 257.627 83.7476 257.509 83.9503 257.456C84.3556 257.371 84.6329 257.264 84.7823 257.136C84.9316 257.008 85.0063 256.779 85.0063 256.448V249.184C85.0063 248.949 84.9796 248.768 84.9263 248.64C84.8729 248.501 84.7769 248.395 84.6383 248.32C84.4996 248.235 84.3023 248.165 84.0463 248.112C83.9183 248.08 83.8276 248.032 83.7743 247.968C83.7316 247.904 83.7103 247.84 83.7103 247.776C83.7103 247.701 83.7369 247.643 83.7903 247.6C83.8543 247.547 83.9343 247.52 84.0303 247.52C84.3823 247.52 84.6756 247.531 84.9103 247.552C85.1449 247.573 85.3689 247.595 85.5823 247.616C85.7956 247.637 86.0409 247.648 86.3183 247.648C86.5743 247.648 86.7983 247.637 86.9903 247.616C87.1929 247.584 87.4169 247.557 87.6623 247.536C87.9076 247.504 88.2276 247.488 88.6223 247.488C89.8809 247.488 90.8516 247.701 91.5343 248.128C92.2276 248.544 92.5743 249.184 92.5743 250.048C92.5743 250.528 92.4676 250.933 92.2543 251.264C92.0409 251.584 91.7743 251.845 91.4543 252.048C91.1343 252.24 90.8089 252.384 90.4783 252.48C90.4356 252.491 90.4143 252.517 90.4143 252.56C90.4249 252.603 90.4409 252.64 90.4623 252.672C90.7823 253.141 91.0916 253.595 91.3903 254.032C91.6996 254.469 92.0089 254.875 92.3183 255.248C92.6276 255.611 92.9369 255.941 93.2463 256.24C93.6196 256.592 94.0036 256.8 94.3983 256.864C94.8036 256.928 95.1929 256.96 95.5663 256.96C95.7263 256.96 95.8063 257.061 95.8063 257.264C95.8063 257.52 95.7209 257.728 95.5503 257.888C95.3903 258.037 95.1556 258.149 94.8463 258.224C94.5369 258.299 94.1743 258.336 93.7583 258.336ZM88.2863 252.464C88.6703 252.464 88.9849 252.379 89.2303 252.208C89.4756 252.037 89.6569 251.803 89.7743 251.504C89.9023 251.195 89.9663 250.837 89.9663 250.432C89.9663 249.92 89.9023 249.504 89.7743 249.184C89.6463 248.864 89.4596 248.629 89.2143 248.48C88.9796 248.32 88.6916 248.24 88.3503 248.24C88.1369 248.24 87.9769 248.331 87.8703 248.512C87.7743 248.693 87.7263 249.093 87.7263 249.712C87.7263 249.947 87.7263 250.245 87.7263 250.608C87.7263 250.96 87.7263 251.376 87.7263 251.856C87.7263 252.069 87.7743 252.224 87.8703 252.32C87.9769 252.416 88.1156 252.464 88.2863 252.464ZM96.2467 258.048C96.1828 258.048 96.1188 258.027 96.0548 257.984C95.9908 257.941 95.9588 257.883 95.9588 257.808C95.9588 257.627 96.0601 257.509 96.2628 257.456C96.6681 257.371 96.9454 257.264 97.0948 257.136C97.2441 257.008 97.3188 256.779 97.3188 256.448V249.184C97.3188 248.843 97.2494 248.603 97.1108 248.464C96.9828 248.315 96.7321 248.197 96.3588 248.112C96.2308 248.08 96.1401 248.032 96.0868 247.968C96.0441 247.904 96.0228 247.84 96.0228 247.776C96.0228 247.701 96.0494 247.643 96.1028 247.6C96.1668 247.547 96.2468 247.52 96.3428 247.52C96.5774 247.52 96.8334 247.525 97.1108 247.536C97.3881 247.547 97.6601 247.563 97.9268 247.584C98.1934 247.595 98.4334 247.6 98.6468 247.6C99.0948 247.6 99.5801 247.6 100.103 247.6C100.636 247.6 101.143 247.6 101.623 247.6C102.081 247.6 102.497 247.573 102.871 247.52C103.255 247.456 103.564 247.424 103.799 247.424C103.884 247.424 103.969 247.451 104.055 247.504C104.151 247.547 104.204 247.632 104.215 247.76C104.236 248.027 104.252 248.299 104.263 248.576C104.273 248.853 104.279 249.12 104.279 249.376C104.289 249.621 104.295 249.84 104.295 250.032C104.295 250.245 104.225 250.352 104.087 250.352C104.033 250.352 103.969 250.331 103.895 250.288C103.82 250.245 103.772 250.176 103.751 250.08C103.676 249.803 103.591 249.552 103.495 249.328C103.409 249.093 103.292 248.901 103.143 248.752C103.004 248.613 102.839 248.512 102.647 248.448C102.465 248.373 102.236 248.336 101.959 248.336H100.951C100.684 248.336 100.465 248.4 100.295 248.528C100.124 248.656 100.039 248.837 100.039 249.072C100.039 249.253 100.039 249.472 100.039 249.728C100.039 249.973 100.039 250.187 100.039 250.368C100.039 250.603 100.039 250.859 100.039 251.136C100.039 251.413 100.039 251.675 100.039 251.92C100.039 252.059 100.076 252.16 100.151 252.224C100.225 252.277 100.327 252.304 100.455 252.304C100.7 252.304 100.945 252.304 101.191 252.304C101.447 252.304 101.697 252.304 101.943 252.304C102.22 252.304 102.417 252.219 102.535 252.048C102.663 251.877 102.775 251.675 102.871 251.44C102.913 251.344 102.961 251.275 103.015 251.232C103.079 251.179 103.143 251.152 103.207 251.152C103.26 251.152 103.308 251.184 103.351 251.248C103.393 251.312 103.409 251.403 103.399 251.52C103.377 251.755 103.356 251.979 103.335 252.192C103.324 252.395 103.319 252.576 103.319 252.736C103.319 252.949 103.324 253.125 103.335 253.264C103.345 253.403 103.361 253.595 103.383 253.84C103.404 254 103.393 254.117 103.351 254.192C103.319 254.256 103.276 254.288 103.223 254.288C103.148 254.288 103.073 254.251 102.999 254.176C102.924 254.101 102.871 254.011 102.839 253.904C102.743 253.573 102.631 253.349 102.503 253.232C102.385 253.115 102.225 253.056 102.023 253.056C101.905 253.056 101.783 253.056 101.655 253.056C101.527 253.056 101.404 253.056 101.287 253.056C101.137 253.056 100.983 253.056 100.823 253.056C100.663 253.056 100.508 253.056 100.359 253.056C100.241 253.056 100.151 253.088 100.087 253.152C100.033 253.216 100.007 253.307 100.007 253.424C100.007 253.904 100.012 254.405 100.023 254.928C100.033 255.451 100.039 255.952 100.039 256.432C100.039 256.763 100.129 256.992 100.311 257.12C100.503 257.248 100.828 257.36 101.287 257.456C101.383 257.477 101.457 257.515 101.511 257.568C101.564 257.611 101.591 257.685 101.591 257.792C101.591 257.867 101.569 257.925 101.527 257.968C101.484 258.011 101.42 258.032 101.335 258.032C101.111 258.032 100.828 258.027 100.487 258.016C100.145 258.005 99.8041 257.995 99.4628 257.984C99.1321 257.973 98.8601 257.968 98.6468 257.968C98.4334 257.968 98.1828 257.973 97.8948 257.984C97.6174 257.995 97.3294 258.005 97.0308 258.016C96.7428 258.037 96.4814 258.048 96.2467 258.048ZM110.578 258.224C109.831 258.224 109.122 258.101 108.45 257.856C107.778 257.6 107.181 257.243 106.658 256.784C106.135 256.315 105.725 255.76 105.426 255.12C105.127 254.469 104.978 253.749 104.978 252.96C104.978 252.235 105.101 251.541 105.346 250.88C105.591 250.208 105.954 249.611 106.434 249.088C106.925 248.565 107.527 248.149 108.242 247.84C108.957 247.531 109.783 247.376 110.722 247.376C111.469 247.376 112.178 247.504 112.85 247.76C113.522 248.005 114.119 248.363 114.642 248.832C115.165 249.291 115.575 249.845 115.874 250.496C116.173 251.136 116.322 251.851 116.322 252.64C116.322 253.355 116.199 254.048 115.954 254.72C115.709 255.392 115.341 255.989 114.85 256.512C114.37 257.035 113.773 257.451 113.058 257.76C112.343 258.069 111.517 258.224 110.578 258.224ZM110.866 257.472C111.431 257.472 111.901 257.301 112.274 256.96C112.658 256.619 112.946 256.149 113.138 255.552C113.33 254.944 113.426 254.251 113.426 253.472C113.426 252.832 113.367 252.197 113.25 251.568C113.133 250.939 112.951 250.368 112.706 249.856C112.461 249.333 112.146 248.917 111.762 248.608C111.389 248.299 110.935 248.144 110.402 248.144C109.847 248.144 109.378 248.315 108.994 248.656C108.621 248.997 108.338 249.467 108.146 250.064C107.965 250.661 107.874 251.349 107.874 252.128C107.874 252.768 107.933 253.403 108.05 254.032C108.167 254.661 108.343 255.237 108.578 255.76C108.823 256.272 109.133 256.688 109.506 257.008C109.89 257.317 110.343 257.472 110.866 257.472ZM127.071 258.336C126.473 258.336 125.972 258.261 125.567 258.112C125.172 257.963 124.841 257.771 124.575 257.536C124.308 257.291 124.068 257.024 123.855 256.736C123.631 256.427 123.412 256.117 123.199 255.808C122.985 255.488 122.777 255.152 122.575 254.8C122.372 254.437 122.169 254.037 121.967 253.6C121.86 253.365 121.732 253.205 121.583 253.12C121.519 253.077 121.449 253.051 121.375 253.04C121.311 253.019 121.252 253.008 121.199 253.008C121.145 253.008 121.103 253.04 121.071 253.104C121.049 253.157 121.039 253.232 121.039 253.328V256.432C121.039 256.763 121.129 256.992 121.311 257.12C121.503 257.248 121.828 257.36 122.287 257.456C122.383 257.477 122.457 257.515 122.511 257.568C122.564 257.611 122.591 257.685 122.591 257.792C122.591 257.867 122.569 257.925 122.527 257.968C122.484 258.011 122.42 258.032 122.335 258.032C122.111 258.032 121.828 258.027 121.487 258.016C121.145 258.005 120.804 257.995 120.463 257.984C120.132 257.973 119.86 257.968 119.647 257.968C119.433 257.968 119.183 257.973 118.895 257.984C118.617 257.995 118.329 258.005 118.031 258.016C117.743 258.037 117.481 258.048 117.247 258.048C117.183 258.048 117.119 258.027 117.055 257.984C116.991 257.941 116.959 257.883 116.959 257.808C116.959 257.627 117.06 257.509 117.263 257.456C117.668 257.371 117.945 257.264 118.095 257.136C118.244 257.008 118.319 256.779 118.319 256.448V249.184C118.319 248.949 118.292 248.768 118.239 248.64C118.185 248.501 118.089 248.395 117.951 248.32C117.812 248.235 117.615 248.165 117.359 248.112C117.231 248.08 117.14 248.032 117.087 247.968C117.044 247.904 117.023 247.84 117.023 247.776C117.023 247.701 117.049 247.643 117.103 247.6C117.167 247.547 117.247 247.52 117.343 247.52C117.695 247.52 117.988 247.531 118.223 247.552C118.457 247.573 118.681 247.595 118.895 247.616C119.108 247.637 119.353 247.648 119.631 247.648C119.887 247.648 120.111 247.637 120.303 247.616C120.505 247.584 120.729 247.557 120.975 247.536C121.22 247.504 121.54 247.488 121.935 247.488C123.193 247.488 124.164 247.701 124.847 248.128C125.54 248.544 125.887 249.184 125.887 250.048C125.887 250.528 125.78 250.933 125.567 251.264C125.353 251.584 125.087 251.845 124.767 252.048C124.447 252.24 124.121 252.384 123.791 252.48C123.748 252.491 123.727 252.517 123.727 252.56C123.737 252.603 123.753 252.64 123.775 252.672C124.095 253.141 124.404 253.595 124.703 254.032C125.012 254.469 125.321 254.875 125.631 255.248C125.94 255.611 126.249 255.941 126.559 256.24C126.932 256.592 127.316 256.8 127.711 256.864C128.116 256.928 128.505 256.96 128.879 256.96C129.039 256.96 129.119 257.061 129.119 257.264C129.119 257.52 129.033 257.728 128.863 257.888C128.703 258.037 128.468 258.149 128.159 258.224C127.849 258.299 127.487 258.336 127.071 258.336ZM121.599 252.464C121.983 252.464 122.297 252.379 122.543 252.208C122.788 252.037 122.969 251.803 123.087 251.504C123.215 251.195 123.279 250.837 123.279 250.432C123.279 249.92 123.215 249.504 123.087 249.184C122.959 248.864 122.772 248.629 122.527 248.48C122.292 248.32 122.004 248.24 121.663 248.24C121.449 248.24 121.289 248.331 121.183 248.512C121.087 248.693 121.039 249.093 121.039 249.712C121.039 249.947 121.039 250.245 121.039 250.608C121.039 250.96 121.039 251.376 121.039 251.856C121.039 252.069 121.087 252.224 121.183 252.32C121.289 252.416 121.428 252.464 121.599 252.464ZM129.719 258.048C129.591 258.048 129.495 258.027 129.431 257.984C129.378 257.941 129.351 257.883 129.351 257.808C129.351 257.712 129.399 257.653 129.495 257.632C129.591 257.6 129.687 257.563 129.783 257.52C130.029 257.424 130.242 257.269 130.423 257.056C130.615 256.843 130.733 256.576 130.775 256.256C130.829 255.861 130.887 255.323 130.951 254.64C131.015 253.947 131.085 253.179 131.159 252.336C131.234 251.483 131.309 250.619 131.383 249.744C131.394 249.691 131.399 249.616 131.399 249.52C131.399 249.424 131.399 249.317 131.399 249.2C131.399 248.987 131.362 248.821 131.287 248.704C131.223 248.587 131.122 248.491 130.983 248.416C130.866 248.352 130.738 248.293 130.599 248.24C130.461 248.176 130.311 248.123 130.151 248.08C130.023 248.048 129.917 248.005 129.831 247.952C129.757 247.899 129.719 247.824 129.719 247.728C129.719 247.632 129.757 247.568 129.831 247.536C129.917 247.493 130.018 247.472 130.135 247.472C130.306 247.472 130.509 247.477 130.743 247.488C130.989 247.499 131.255 247.509 131.543 247.52C131.831 247.52 132.125 247.525 132.423 247.536C132.733 247.547 133.031 247.552 133.319 247.552C133.405 247.552 133.485 247.584 133.559 247.648C133.634 247.712 133.682 247.776 133.703 247.84C133.789 248.053 133.863 248.251 133.927 248.432C133.991 248.603 134.066 248.795 134.151 249.008L136.455 254.432C136.477 254.475 136.498 254.496 136.519 254.496C136.551 254.496 136.573 254.475 136.583 254.432L138.679 249.392C138.765 248.976 138.829 248.651 138.871 248.416C138.925 248.171 138.973 247.984 139.015 247.856C139.058 247.717 139.149 247.648 139.287 247.648H140.007C140.477 247.627 140.967 247.595 141.479 247.552C142.002 247.499 142.413 247.472 142.711 247.472C142.829 247.472 142.925 247.493 142.999 247.536C143.085 247.568 143.127 247.632 143.127 247.728C143.127 247.824 143.09 247.893 143.015 247.936C142.941 247.979 142.855 248.016 142.759 248.048C142.717 248.059 142.658 248.08 142.583 248.112C142.519 248.144 142.466 248.171 142.423 248.192C142.103 248.341 141.869 248.507 141.719 248.688C141.581 248.869 141.522 249.163 141.543 249.568C141.575 250.347 141.607 251.013 141.639 251.568C141.671 252.123 141.698 252.635 141.719 253.104C141.751 253.573 141.783 254.069 141.815 254.592C141.858 255.104 141.901 255.717 141.943 256.432C141.965 256.699 142.082 256.917 142.295 257.088C142.509 257.248 142.775 257.371 143.095 257.456C143.191 257.488 143.271 257.525 143.335 257.568C143.41 257.611 143.447 257.685 143.447 257.792C143.447 257.867 143.415 257.925 143.351 257.968C143.298 258.011 143.229 258.032 143.143 258.032C142.919 258.032 142.642 258.027 142.311 258.016C141.991 258.005 141.671 257.995 141.351 257.984C141.031 257.973 140.765 257.968 140.551 257.968C140.338 257.968 140.087 257.973 139.799 257.984C139.522 257.995 139.234 258.005 138.935 258.016C138.647 258.037 138.386 258.048 138.151 258.048C138.066 258.048 137.986 258.027 137.911 257.984C137.847 257.941 137.815 257.883 137.815 257.808C137.815 257.712 137.847 257.637 137.911 257.584C137.986 257.52 138.071 257.477 138.167 257.456C138.573 257.371 138.855 257.264 139.015 257.136C139.175 256.997 139.245 256.768 139.223 256.448C139.191 255.808 139.165 255.157 139.143 254.496C139.122 253.835 139.101 253.184 139.079 252.544C139.069 251.893 139.047 251.28 139.015 250.704C139.015 250.64 138.999 250.613 138.967 250.624C138.935 250.624 138.903 250.661 138.871 250.736L135.959 257.952C135.895 258.123 135.805 258.192 135.687 258.16C135.581 258.128 135.506 258.069 135.463 257.984C134.909 256.747 134.338 255.525 133.751 254.32C133.165 253.115 132.642 251.947 132.183 250.816C132.141 250.709 132.082 250.672 132.007 250.704C131.943 250.736 131.906 250.821 131.895 250.96C131.874 251.44 131.858 252 131.847 252.64C131.847 253.28 131.853 253.925 131.863 254.576C131.874 255.227 131.879 255.813 131.879 256.336C131.879 256.635 131.975 256.869 132.167 257.04C132.359 257.211 132.669 257.349 133.095 257.456C133.191 257.477 133.287 257.515 133.383 257.568C133.479 257.611 133.527 257.685 133.527 257.792C133.527 257.867 133.485 257.925 133.399 257.968C133.314 258.011 133.229 258.032 133.143 258.032C132.855 258.032 132.631 258.027 132.471 258.016C132.311 258.005 132.162 258 132.023 258C131.895 257.989 131.719 257.984 131.495 257.984C131.25 257.984 130.989 257.989 130.711 258C130.434 258.011 130.199 258.021 130.007 258.032C129.815 258.043 129.719 258.048 129.719 258.048ZM144.102 258.08C143.984 258.08 143.883 258.059 143.798 258.016C143.723 257.984 143.686 257.915 143.686 257.808C143.686 257.701 143.718 257.627 143.782 257.584C143.856 257.531 143.942 257.488 144.038 257.456C144.358 257.371 144.63 257.237 144.854 257.056C145.088 256.875 145.259 256.667 145.366 256.432C145.622 255.845 145.867 255.264 146.102 254.688C146.336 254.112 146.566 253.541 146.79 252.976C147.014 252.4 147.232 251.824 147.446 251.248C147.67 250.661 147.888 250.075 148.102 249.488C148.283 248.997 148.395 248.651 148.438 248.448C148.48 248.235 148.518 248.123 148.55 248.112C148.763 248.059 148.96 248.011 149.142 247.968C149.323 247.915 149.526 247.851 149.75 247.776C149.952 247.701 150.128 247.611 150.278 247.504C150.438 247.387 150.555 247.291 150.63 247.216C150.683 247.184 150.731 247.163 150.774 247.152C150.827 247.141 150.875 247.179 150.918 247.264C150.96 247.339 150.992 247.413 151.014 247.488C151.046 247.552 151.072 247.627 151.094 247.712C151.307 248.416 151.526 249.125 151.75 249.84C151.984 250.555 152.219 251.28 152.454 252.016C152.688 252.741 152.923 253.472 153.158 254.208C153.403 254.944 153.643 255.685 153.878 256.432C153.931 256.603 154.016 256.757 154.134 256.896C154.262 257.024 154.411 257.136 154.582 257.232C154.752 257.317 154.944 257.392 155.158 257.456C155.254 257.488 155.334 257.525 155.398 257.568C155.472 257.611 155.51 257.685 155.51 257.792C155.51 257.867 155.478 257.925 155.414 257.968C155.36 258.011 155.291 258.032 155.206 258.032C154.982 258.032 154.704 258.027 154.374 258.016C154.054 258.005 153.728 257.995 153.398 257.984C153.078 257.973 152.795 257.968 152.55 257.968C152.336 257.968 152.075 257.973 151.766 257.984C151.456 257.995 151.142 258.005 150.822 258.016C150.502 258.037 150.224 258.048 149.99 258.048C149.904 258.048 149.824 258.027 149.75 257.984C149.686 257.941 149.654 257.883 149.654 257.808C149.654 257.712 149.686 257.637 149.75 257.584C149.824 257.52 149.91 257.477 150.006 257.456C150.411 257.371 150.71 257.259 150.902 257.12C151.094 256.981 151.147 256.757 151.062 256.448C151.008 256.235 150.95 256.027 150.886 255.824C150.832 255.621 150.779 255.419 150.726 255.216C150.672 255.003 150.619 254.795 150.566 254.592C150.544 254.507 150.518 254.443 150.486 254.4C150.454 254.347 150.395 254.32 150.31 254.32H147.526C147.44 254.32 147.376 254.347 147.334 254.4C147.302 254.443 147.275 254.507 147.254 254.592C147.211 254.752 147.163 254.901 147.11 255.04C147.067 255.168 147.024 255.296 146.982 255.424C146.939 255.552 146.896 255.685 146.854 255.824C146.811 255.952 146.768 256.096 146.726 256.256C146.63 256.597 146.646 256.853 146.774 257.024C146.902 257.195 147.216 257.339 147.718 257.456C147.952 257.509 148.07 257.627 148.07 257.808C148.07 257.883 148.043 257.941 147.99 257.984C147.936 258.016 147.851 258.032 147.734 258.032C147.382 258.032 147.072 258.021 146.806 258C146.539 257.989 146.246 257.984 145.926 257.984C145.616 257.984 145.318 258 145.03 258.032C144.752 258.064 144.443 258.08 144.102 258.08ZM147.974 253.392H149.974C150.134 253.392 150.214 253.355 150.214 253.28C150.214 253.237 150.208 253.211 150.198 253.2C150.198 253.179 150.192 253.147 150.182 253.104L149.158 249.568C149.126 249.461 149.094 249.408 149.062 249.408C149.04 249.408 149.008 249.461 148.966 249.568L147.734 253.104C147.712 253.147 147.702 253.189 147.702 253.232C147.702 253.285 147.728 253.328 147.782 253.36C147.846 253.381 147.91 253.392 147.974 253.392ZM166.069 258.304C165.919 258.304 165.685 258.219 165.365 258.048C165.055 257.888 164.725 257.595 164.373 257.168C164.074 256.848 163.775 256.533 163.477 256.224C163.189 255.904 162.895 255.589 162.597 255.28C162.298 254.96 161.999 254.645 161.701 254.336C161.402 254.016 161.103 253.701 160.805 253.392C160.517 253.083 160.223 252.773 159.925 252.464C159.626 252.144 159.327 251.829 159.029 251.52C158.741 251.2 158.447 250.88 158.149 250.56C158.138 250.539 158.111 250.507 158.069 250.464C158.026 250.421 157.994 250.4 157.973 250.4C157.93 250.4 157.898 250.437 157.877 250.512C157.866 250.587 157.861 250.651 157.861 250.704C157.861 251.184 157.866 251.755 157.877 252.416C157.898 253.077 157.914 253.744 157.925 254.416C157.946 255.077 157.957 255.669 157.957 256.192C157.957 256.555 158.069 256.832 158.293 257.024C158.527 257.205 158.858 257.349 159.285 257.456C159.381 257.477 159.477 257.515 159.573 257.568C159.669 257.611 159.717 257.685 159.717 257.792C159.717 257.867 159.674 257.925 159.589 257.968C159.503 258.011 159.418 258.032 159.333 258.032C159.045 258.032 158.805 258.027 158.613 258.016C158.421 258.005 158.239 258 158.069 258C157.909 257.989 157.717 257.984 157.493 257.984C157.247 257.984 157.007 257.989 156.773 258C156.549 258.011 156.362 258.021 156.213 258.032C156.074 258.043 156.005 258.048 156.005 258.048C155.941 258.048 155.861 258.027 155.765 257.984C155.679 257.941 155.637 257.883 155.637 257.808C155.637 257.712 155.674 257.643 155.749 257.6C155.834 257.547 155.925 257.499 156.021 257.456C156.266 257.36 156.453 257.2 156.581 256.976C156.719 256.752 156.799 256.48 156.821 256.16C156.863 255.765 156.906 255.243 156.949 254.592C157.002 253.941 157.05 253.211 157.093 252.4C157.135 251.589 157.157 250.747 157.157 249.872C157.157 249.317 157.018 248.917 156.741 248.672C156.463 248.427 156.127 248.229 155.733 248.08C155.637 248.059 155.541 248.021 155.445 247.968C155.349 247.904 155.301 247.824 155.301 247.728C155.301 247.632 155.338 247.568 155.413 247.536C155.498 247.493 155.599 247.472 155.717 247.472C155.887 247.472 156.095 247.477 156.341 247.488C156.597 247.499 156.869 247.509 157.157 247.52C157.455 247.52 157.759 247.525 158.069 247.536C158.378 247.547 158.677 247.552 158.965 247.552C159.05 247.552 159.114 247.568 159.157 247.6C159.21 247.621 159.253 247.659 159.285 247.712C159.562 248.021 159.839 248.336 160.117 248.656C160.405 248.965 160.687 249.275 160.965 249.584C161.253 249.893 161.535 250.203 161.813 250.512C162.101 250.821 162.383 251.136 162.661 251.456C162.938 251.765 163.215 252.075 163.493 252.384C163.781 252.693 164.063 253.008 164.341 253.328C164.629 253.637 164.911 253.947 165.189 254.256C165.221 254.299 165.258 254.341 165.301 254.384C165.343 254.427 165.381 254.448 165.413 254.448C165.498 254.448 165.541 254.373 165.541 254.224C165.541 253.851 165.541 253.445 165.541 253.008C165.541 252.56 165.541 252.107 165.541 251.648C165.541 251.179 165.535 250.731 165.525 250.304C165.525 249.867 165.514 249.483 165.493 249.152C165.482 248.843 165.37 248.619 165.157 248.48C164.954 248.341 164.65 248.219 164.245 248.112C164.149 248.091 164.063 248.059 163.989 248.016C163.914 247.963 163.877 247.883 163.877 247.776C163.877 247.701 163.914 247.643 163.989 247.6C164.063 247.557 164.138 247.536 164.213 247.536C164.501 247.536 164.735 247.541 164.917 247.552C165.098 247.552 165.263 247.557 165.413 247.568C165.562 247.568 165.727 247.568 165.909 247.568C166.122 247.568 166.303 247.568 166.453 247.568C166.602 247.557 166.762 247.547 166.933 247.536C167.114 247.525 167.338 247.52 167.605 247.52C167.722 247.52 167.813 247.541 167.877 247.584C167.951 247.627 167.989 247.685 167.989 247.76C167.989 247.931 167.855 248.043 167.589 248.096C167.226 248.171 166.959 248.277 166.789 248.416C166.618 248.555 166.533 248.784 166.533 249.104C166.533 249.563 166.527 250.021 166.517 250.48C166.506 250.928 166.49 251.371 166.469 251.808C166.447 252.245 166.426 252.672 166.405 253.088C166.383 253.493 166.367 253.883 166.357 254.256C166.346 254.629 166.341 254.971 166.341 255.28C166.341 255.525 166.357 255.808 166.389 256.128C166.421 256.437 166.453 256.725 166.485 256.992C166.517 257.248 166.533 257.424 166.533 257.52C166.533 257.808 166.49 258.011 166.405 258.128C166.33 258.245 166.218 258.304 166.069 258.304ZM174.62 258.224C173.778 258.224 172.988 258.101 172.252 257.856C171.516 257.6 170.871 257.243 170.316 256.784C169.762 256.315 169.33 255.76 169.02 255.12C168.711 254.469 168.556 253.749 168.556 252.96C168.556 252.235 168.7 251.541 168.988 250.88C169.276 250.208 169.698 249.611 170.252 249.088C170.818 248.565 171.506 248.149 172.316 247.84C173.127 247.531 174.05 247.376 175.084 247.376C175.415 247.376 175.756 247.403 176.108 247.456C176.471 247.509 176.818 247.579 177.148 247.664C177.49 247.749 177.783 247.845 178.028 247.952C178.114 247.995 178.188 248.048 178.252 248.112C178.327 248.176 178.37 248.267 178.38 248.384C178.434 248.768 178.466 249.131 178.476 249.472C178.498 249.803 178.508 250.085 178.508 250.32C178.508 250.448 178.46 250.533 178.364 250.576C178.279 250.619 178.183 250.619 178.076 250.576C177.98 250.533 177.911 250.448 177.868 250.32C177.794 250.107 177.708 249.883 177.612 249.648C177.527 249.413 177.394 249.211 177.212 249.04C176.999 248.816 176.706 248.629 176.332 248.48C175.959 248.331 175.495 248.256 174.94 248.256C174.407 248.256 173.927 248.373 173.5 248.608C173.074 248.832 172.711 249.147 172.412 249.552C172.114 249.947 171.884 250.4 171.724 250.912C171.564 251.413 171.484 251.941 171.484 252.496C171.484 253.211 171.554 253.867 171.692 254.464C171.831 255.051 172.044 255.557 172.332 255.984C172.62 256.411 172.978 256.741 173.404 256.976C173.842 257.2 174.354 257.312 174.94 257.312C175.74 257.312 176.38 257.147 176.86 256.816C177.351 256.485 177.762 255.963 178.092 255.248C178.178 255.056 178.3 254.965 178.46 254.976C178.62 254.987 178.7 255.077 178.7 255.248C178.7 255.397 178.684 255.573 178.652 255.776C178.631 255.968 178.594 256.181 178.54 256.416C178.498 256.64 178.439 256.88 178.364 257.136C178.332 257.253 178.279 257.349 178.204 257.424C178.13 257.499 178.044 257.563 177.948 257.616C177.543 257.797 177.063 257.941 176.508 258.048C175.954 258.165 175.324 258.224 174.62 258.224ZM180.06 258.08C179.964 258.08 179.889 258.053 179.836 258C179.783 257.947 179.756 257.888 179.756 257.824C179.756 257.664 179.863 257.552 180.076 257.488C180.428 257.381 180.673 257.269 180.812 257.152C180.961 257.035 181.036 256.811 181.036 256.48V249.184C181.036 248.843 180.967 248.603 180.828 248.464C180.7 248.315 180.449 248.197 180.076 248.112C179.948 248.08 179.857 248.032 179.804 247.968C179.761 247.904 179.74 247.84 179.74 247.776C179.74 247.701 179.767 247.643 179.82 247.6C179.884 247.547 179.964 247.52 180.06 247.52C180.295 247.52 180.551 247.525 180.828 247.536C181.105 247.547 181.377 247.563 181.644 247.584C181.911 247.595 182.151 247.6 182.364 247.6C182.961 247.6 183.601 247.595 184.284 247.584C184.967 247.573 185.569 247.563 186.092 247.552C186.433 247.552 186.711 247.531 186.924 247.488C187.148 247.445 187.281 247.424 187.324 247.424C187.409 247.424 187.495 247.451 187.58 247.504C187.676 247.547 187.729 247.632 187.74 247.76C187.783 248.155 187.836 248.544 187.9 248.928C187.975 249.301 188.012 249.632 188.012 249.92C188.012 250.027 187.991 250.107 187.948 250.16C187.905 250.213 187.857 250.24 187.804 250.24C187.751 250.24 187.692 250.219 187.628 250.176C187.564 250.133 187.511 250.064 187.468 249.968C187.351 249.68 187.244 249.44 187.148 249.248C187.063 249.045 186.961 248.885 186.844 248.768C186.727 248.651 186.577 248.539 186.396 248.432C186.215 248.315 185.975 248.256 185.676 248.256H184.668C184.401 248.256 184.183 248.32 184.012 248.448C183.841 248.576 183.756 248.757 183.756 248.992V251.936C183.756 252.075 183.793 252.176 183.868 252.24C183.943 252.293 184.044 252.32 184.172 252.32H185.532C185.809 252.32 186.007 252.219 186.124 252.016C186.252 251.813 186.364 251.584 186.46 251.328C186.545 251.136 186.657 251.04 186.796 251.04C186.849 251.04 186.897 251.072 186.94 251.136C186.983 251.2 186.999 251.291 186.988 251.408C186.977 251.557 186.961 251.707 186.94 251.856C186.929 252.005 186.919 252.155 186.908 252.304C186.908 252.443 186.908 252.587 186.908 252.736C186.908 252.875 186.908 253.019 186.908 253.168C186.919 253.307 186.929 253.451 186.94 253.6C186.951 253.749 186.961 253.904 186.972 254.064C186.993 254.224 186.983 254.341 186.94 254.416C186.908 254.48 186.865 254.512 186.812 254.512C186.631 254.512 186.503 254.384 186.428 254.128C186.332 253.787 186.22 253.525 186.092 253.344C185.975 253.163 185.815 253.072 185.612 253.072H184.108C183.991 253.072 183.9 253.104 183.836 253.168C183.783 253.232 183.756 253.323 183.756 253.44V256.464C183.756 256.763 183.82 256.976 183.948 257.104C184.076 257.221 184.273 257.28 184.54 257.28H185.964C186.177 257.28 186.385 257.253 186.588 257.2C186.801 257.136 186.983 257.04 187.132 256.912C187.313 256.763 187.479 256.571 187.628 256.336C187.788 256.101 187.927 255.867 188.044 255.632C188.087 255.547 188.129 255.493 188.172 255.472C188.225 255.451 188.284 255.44 188.348 255.44C188.412 255.44 188.455 255.477 188.476 255.552C188.497 255.616 188.508 255.685 188.508 255.76C188.508 255.952 188.481 256.16 188.428 256.384C188.375 256.608 188.305 256.848 188.22 257.104C188.145 257.349 188.071 257.605 187.996 257.872C187.975 257.947 187.927 257.995 187.852 258.016C187.777 258.048 187.697 258.064 187.612 258.064C187.559 258.064 187.351 258.059 186.988 258.048C186.625 258.048 186.172 258.043 185.628 258.032C185.095 258.021 184.535 258.011 183.948 258C183.372 258 182.844 258 182.364 258C182.151 258 181.905 258.005 181.628 258.016C181.351 258.027 181.073 258.037 180.796 258.048C180.519 258.069 180.273 258.08 180.06 258.08Z" fill="#292929" fill-opacity="0.3"/>
</g>
<defs>
<linearGradient id="paint0_linear_1_76" x1="38" y1="64" x2="192" y2="215" gradientUnits="userSpaceOnUse">
<stop stop-color="#FFD700"/>
<stop offset="0.435023" stop-color="#DEC956"/>
<stop offset="0.705023" stop-color="#ADA578"/>
<stop offset="1" stop-color="#C7AB15"/>
</linearGradient>
<clipPath id="clip0_1_76">
<rect width="254" height="319" fill="white"/>
</clipPath>
</defs>
</svg>
