<svg width="350" height="415" viewBox="0 0 350 415" fill="none" xmlns="http://www.w3.org/2000/svg">
	<g filter="url(#filter0_d_1_76)">
		<g clip-path="url(#clip0_1_76)">
			<rect x="48" y="48" width="254" height="319" rx="23" fill="#EBFFE6" />
			<path d="M122.192 339.2C118.192 339.2 113.792 338.8 108.992 338C104.192 337.467 101.792 335.733 101.792 332.8C101.792 329.6 103.526 327.467 106.992 326.4C110.459 325.333 114.326 324.533 118.592 324C133.792 321.867 147.392 317.733 159.392 311.6C171.392 305.2 180.726 297.733 187.392 289.2C194.326 280.4 197.792 271.467 197.792 262.4C197.792 252.533 195.392 244 190.592 236.8C185.792 229.333 178.059 222.667 167.392 216.8C156.992 210.933 143.392 205.467 126.592 200.4C117.259 197.467 110.859 194.533 107.392 191.6C104.192 188.667 102.592 184.4 102.592 178.8C102.592 175.067 103.392 169.733 104.992 162.8C106.592 155.6 108.326 148.133 110.192 140.4C112.326 132.4 114.326 125.333 116.192 119.2C118.059 112.8 119.126 108.667 119.392 106.8C120.992 99.8667 123.659 94.9333 127.392 92C131.126 89.0667 135.126 87.0667 139.392 86C144.192 84.9333 151.126 83.7333 160.192 82.4C169.526 80.8 179.259 79.2 189.392 77.6C199.526 76 208.459 74.6667 216.192 73.6C224.192 72.5333 229.126 72 230.992 72C233.126 72 234.726 72.9333 235.792 74.8C237.126 76.6666 237.659 78.6666 237.392 80.8C237.126 85.0667 235.792 89.8667 233.392 95.2C230.992 100.267 228.992 104.933 227.392 109.2C225.259 114.8 221.659 119.467 216.592 123.2C211.792 126.933 206.192 129.067 199.792 129.6C195.526 129.867 190.059 130.133 183.392 130.4C176.992 130.4 170.326 130.533 163.392 130.8C156.726 131.067 150.726 131.333 145.392 131.6C140.326 131.6 136.726 131.733 134.592 132C132.726 132.267 131.259 133.2 130.192 134.8C129.126 136.133 128.326 137.733 127.792 139.6C127.259 141.2 126.992 142.533 126.992 143.6C126.992 144.933 127.392 146 128.192 146.8C128.992 147.6 129.926 148.133 130.992 148.4C145.926 150.8 158.992 154.133 170.192 158.4C181.392 162.4 191.792 166.667 201.392 171.2C218.992 179.467 231.526 190 238.992 202.8C246.459 215.6 250.192 229.067 250.192 243.2C250.192 258.133 245.659 272.533 236.592 286.4C227.526 300.267 215.526 311.333 200.592 319.6C195.792 322.267 189.126 325.067 180.592 328C172.059 331.2 162.726 333.867 152.592 336C142.459 338.133 132.326 339.2 122.192 339.2Z" fill="black" fill-opacity="0.03" />
			<path d="M105.241 208.155L109.737 194.309L114.238 208.155H105.241ZM114.278 186.553H105.203L93 220.879L101.093 220.869L103.379 214.248H116.1L118.383 220.869L118.795 220.879H126.471L126.466 220.869H126.473L114.278 186.553ZM253.211 186.704H243.595L237.01 207.533L230.428 186.704H220.811L218.02 220.879H225.426L227.263 196.985L234.017 220.929H239.955L246.763 197.061L248.594 220.879H256V220.871L253.211 186.704ZM203.474 200.073C199.086 198.386 197.949 197.438 197.949 195.457C197.949 193.533 199.528 192.382 202.178 192.382C204.792 192.382 207.99 193.341 211.008 195.02L212.188 188.477C209.425 187.167 206.608 186.302 202.077 186.302C195.05 186.302 190.511 190.212 190.511 196.264C190.511 201.939 193.524 204.056 200.281 206.656C205.204 208.532 206.406 209.529 206.406 211.721C206.406 213.866 204.668 215.199 201.872 215.199C198.7 215.199 194.885 214.119 191.084 212.146L189.945 218.795C193.686 220.467 197.543 221.283 201.723 221.283C209.313 221.283 213.847 217.331 213.847 210.712C213.847 205.54 211.322 202.953 203.474 200.073ZM141.927 215.348H138.406V205.672H141.826C145.658 205.672 147.769 207.425 147.769 210.611C147.769 213.669 145.696 215.348 141.927 215.348ZM138.406 192.233H141.826C146.029 192.233 146.911 194.479 146.911 196.365C146.911 199.14 144.935 200.801 141.626 200.801H138.406V192.233ZM149.141 203.105L148.285 202.832L149.106 202.468C151.291 201.492 153.895 199.471 153.895 195.404C153.895 189.711 149.932 186.704 142.432 186.704H130.914V220.879H142.18C150.581 220.879 155.208 217.429 155.208 211.167C155.208 206.995 153.278 204.433 149.141 203.105ZM171.647 203.378H168.629V192.534H171.748C175.681 192.534 177.843 194.433 177.843 197.88C177.843 201.373 175.585 203.378 171.647 203.378ZM185.636 197.374C185.636 190.495 181.008 186.704 172.607 186.704H160.786V220.879H168.682V208.904H171.586L179 220.869H187.919L179.015 207.126L179.381 206.962C183.534 205.138 185.636 201.914 185.636 197.374ZM160.149 156.453L160.826 161.268C157.562 161.612 154.312 162.047 151.086 162.596L149.745 157.909C153.188 157.305 156.661 156.822 160.149 156.453ZM174.524 155.593V160.459C171.286 160.509 168.05 160.653 164.827 160.906L164.148 156.081C167.595 155.805 171.058 155.641 174.524 155.593ZM178.54 155.593C182.003 155.641 185.466 155.805 188.914 156.081L188.235 160.906C185.012 160.653 181.778 160.509 178.54 160.459V155.593ZM192.913 156.453C196.401 156.822 199.874 157.305 203.317 157.909L201.976 162.596C198.75 162.047 195.499 161.612 192.236 161.268L192.913 156.453ZM148.184 167.019L148.189 167.041L149.217 170.638C158.159 168.908 167.343 168.03 176.532 168.008C185.719 168.03 194.903 168.908 203.845 170.638L204.873 167.041L204.878 167.019L212.569 140.163C212.875 139.099 212.261 137.986 211.198 137.682C210.127 137.374 209.02 137.991 208.715 139.056L204.426 154.032C200.801 153.39 197.146 152.872 193.468 152.48L196.633 129.933C196.79 128.836 196.025 127.822 194.928 127.665C193.825 127.511 192.817 128.277 192.663 129.375L189.47 152.105C185.838 151.807 182.19 151.635 178.54 151.582V124.006C178.54 122.898 177.641 122 176.532 122C175.423 122 174.524 122.898 174.524 124.006V151.582C170.872 151.635 167.227 151.807 163.592 152.105L160.399 129.375C160.245 128.277 159.237 127.511 158.133 127.665C157.037 127.822 156.272 128.836 156.426 129.933L159.593 152.48C155.916 152.872 152.261 153.39 148.636 154.032L144.347 139.056C144.041 137.991 142.932 137.374 141.866 137.682C140.8 137.986 140.187 139.099 140.492 140.163L148.184 167.019ZM195.969 239.014H157.09C155.991 239.014 155.1 239.91 155.1 241.007C155.1 242.107 155.991 243 157.09 243H195.969C197.068 243 197.959 242.107 197.959 241.007C197.959 239.91 197.068 239.014 195.969 239.014Z" fill="url(#paint0_linear_1_76)" />
			<path d="M123.212 285.096C123.084 285.096 122.956 285.053 122.828 284.968C122.7 284.883 122.636 284.765 122.636 284.616C122.636 284.253 122.839 284.019 123.244 283.912C124.055 283.741 124.61 283.528 124.908 283.272C125.207 283.016 125.356 282.557 125.356 281.896V267.368C125.356 266.685 125.218 266.205 124.94 265.928C124.684 265.629 124.183 265.395 123.436 265.224C123.18 265.16 122.999 265.064 122.892 264.936C122.807 264.808 122.764 264.68 122.764 264.552C122.764 264.403 122.818 264.285 122.924 264.2C123.052 264.093 123.212 264.04 123.404 264.04C123.874 264.04 124.386 264.051 124.94 264.072C125.495 264.093 126.039 264.125 126.572 264.168C127.106 264.189 127.586 264.2 128.012 264.2C128.524 264.2 128.972 264.179 129.356 264.136C129.762 264.072 130.21 264.019 130.7 263.976C131.191 263.912 131.831 263.88 132.62 263.88C135.244 263.88 137.324 264.445 138.86 265.576C140.396 266.685 141.164 268.211 141.164 270.152C141.164 271.496 140.876 272.744 140.3 273.896C139.724 275.027 138.85 275.944 137.676 276.648C136.524 277.331 135.063 277.672 133.292 277.672C132.716 277.672 132.279 277.587 131.98 277.416C131.682 277.245 131.532 277.032 131.532 276.776C131.532 276.605 131.607 276.477 131.756 276.392C131.906 276.307 132.034 276.264 132.14 276.264C132.396 276.264 132.599 276.296 132.748 276.36C132.919 276.403 133.143 276.424 133.42 276.424C134.231 276.424 134.839 275.933 135.244 274.952C135.671 273.949 135.884 272.659 135.884 271.08C135.884 269.053 135.596 267.603 135.02 266.728C134.466 265.832 133.666 265.384 132.62 265.384C132.023 265.384 131.575 265.523 131.276 265.8C130.978 266.077 130.828 266.504 130.828 267.08L130.796 281.864C130.796 282.525 130.978 282.984 131.34 283.24C131.724 283.496 132.375 283.72 133.292 283.912C133.484 283.955 133.634 284.029 133.74 284.136C133.847 284.221 133.9 284.371 133.9 284.584C133.9 284.733 133.858 284.851 133.772 284.936C133.687 285.021 133.559 285.064 133.388 285.064C132.94 285.064 132.375 285.053 131.692 285.032C131.01 285.011 130.327 284.989 129.644 284.968C128.983 284.947 128.439 284.936 128.012 284.936C127.586 284.936 127.084 284.947 126.508 284.968C125.954 284.989 125.378 285.011 124.78 285.032C124.204 285.075 123.682 285.096 123.212 285.096ZM143.025 285.096C142.897 285.096 142.769 285.053 142.641 284.968C142.513 284.883 142.449 284.765 142.449 284.616C142.449 284.253 142.651 284.019 143.057 283.912C143.867 283.741 144.422 283.528 144.721 283.272C145.019 283.016 145.169 282.557 145.169 281.896V267.368C145.169 266.685 145.03 266.205 144.753 265.928C144.475 265.651 143.91 265.416 143.057 265.224C142.651 265.117 142.449 264.883 142.449 264.52C142.449 264.371 142.513 264.253 142.641 264.168C142.769 264.083 142.897 264.04 143.025 264.04C143.494 264.04 144.017 264.051 144.593 264.072C145.19 264.093 145.766 264.125 146.321 264.168C146.897 264.189 147.398 264.2 147.825 264.2C148.251 264.2 148.763 264.189 149.361 264.168C149.958 264.147 150.566 264.125 151.185 264.104C151.803 264.083 152.337 264.072 152.785 264.072C152.955 264.072 153.083 264.115 153.169 264.2C153.254 264.264 153.297 264.381 153.297 264.552C153.297 264.765 153.243 264.915 153.137 265C153.03 265.085 152.881 265.16 152.689 265.224C151.814 265.48 151.249 265.747 150.993 266.024C150.737 266.301 150.609 266.76 150.609 267.4V281.864C150.609 282.461 150.747 282.899 151.025 283.176C151.302 283.432 151.857 283.677 152.689 283.912C152.881 283.976 153.03 284.051 153.137 284.136C153.243 284.221 153.297 284.371 153.297 284.584C153.297 284.733 153.254 284.851 153.169 284.936C153.083 285.021 152.955 285.064 152.785 285.064C152.337 285.064 151.803 285.053 151.185 285.032C150.566 285.011 149.958 284.989 149.361 284.968C148.763 284.947 148.251 284.936 147.825 284.936C147.398 284.936 146.897 284.947 146.321 284.968C145.766 284.989 145.19 285.011 144.593 285.032C144.017 285.075 143.494 285.096 143.025 285.096ZM154.453 285.16C154.219 285.16 154.016 285.117 153.845 285.032C153.696 284.968 153.621 284.829 153.621 284.616C153.621 284.403 153.685 284.253 153.813 284.168C153.963 284.061 154.133 283.976 154.325 283.912C154.965 283.741 155.509 283.475 155.957 283.112C156.427 282.749 156.768 282.333 156.981 281.864C157.493 280.691 157.984 279.528 158.453 278.376C158.923 277.224 159.381 276.083 159.829 274.952C160.277 273.8 160.715 272.648 161.141 271.496C161.589 270.323 162.027 269.149 162.453 267.976C162.816 266.995 163.04 266.301 163.125 265.896C163.211 265.469 163.285 265.245 163.349 265.224C163.776 265.117 164.171 265.021 164.533 264.936C164.896 264.829 165.301 264.701 165.749 264.552C166.155 264.403 166.507 264.221 166.805 264.008C167.125 263.773 167.36 263.581 167.509 263.432C167.616 263.368 167.712 263.325 167.797 263.304C167.904 263.283 168 263.357 168.085 263.528C168.171 263.677 168.235 263.827 168.277 263.976C168.341 264.104 168.395 264.253 168.437 264.424C168.864 265.832 169.301 267.251 169.749 268.68C170.219 270.109 170.688 271.56 171.157 273.032C171.627 274.483 172.096 275.944 172.565 277.416C173.056 278.888 173.536 280.371 174.005 281.864C174.112 282.205 174.283 282.515 174.517 282.792C174.773 283.048 175.072 283.272 175.413 283.464C175.755 283.635 176.139 283.784 176.565 283.912C176.757 283.976 176.917 284.051 177.045 284.136C177.195 284.221 177.269 284.371 177.269 284.584C177.269 284.733 177.205 284.851 177.077 284.936C176.971 285.021 176.832 285.064 176.661 285.064C176.213 285.064 175.659 285.053 174.997 285.032C174.357 285.011 173.707 284.989 173.045 284.968C172.405 284.947 171.84 284.936 171.349 284.936C170.923 284.936 170.4 284.947 169.781 284.968C169.163 284.989 168.533 285.011 167.893 285.032C167.253 285.075 166.699 285.096 166.229 285.096C166.059 285.096 165.899 285.053 165.749 284.968C165.621 284.883 165.557 284.765 165.557 284.616C165.557 284.424 165.621 284.275 165.749 284.168C165.899 284.04 166.069 283.955 166.261 283.912C167.072 283.741 167.669 283.517 168.053 283.24C168.437 282.963 168.544 282.515 168.373 281.896C168.267 281.469 168.149 281.053 168.021 280.648C167.915 280.243 167.808 279.837 167.701 279.432C167.595 279.005 167.488 278.589 167.381 278.184C167.339 278.013 167.285 277.885 167.221 277.8C167.157 277.693 167.04 277.64 166.869 277.64H161.301C161.131 277.64 161.003 277.693 160.917 277.8C160.853 277.885 160.8 278.013 160.757 278.184C160.672 278.504 160.576 278.803 160.469 279.08C160.384 279.336 160.299 279.592 160.213 279.848C160.128 280.104 160.043 280.371 159.957 280.648C159.872 280.904 159.787 281.192 159.701 281.512C159.509 282.195 159.541 282.707 159.797 283.048C160.053 283.389 160.683 283.677 161.685 283.912C162.155 284.019 162.389 284.253 162.389 284.616C162.389 284.765 162.336 284.883 162.229 284.968C162.123 285.032 161.952 285.064 161.717 285.064C161.013 285.064 160.395 285.043 159.861 285C159.328 284.979 158.741 284.968 158.101 284.968C157.483 284.968 156.885 285 156.309 285.064C155.755 285.128 155.136 285.16 154.453 285.16ZM162.197 275.784H166.197C166.517 275.784 166.677 275.709 166.677 275.56C166.677 275.475 166.667 275.421 166.645 275.4C166.645 275.357 166.635 275.293 166.613 275.208L164.565 268.136C164.501 267.923 164.437 267.816 164.373 267.816C164.331 267.816 164.267 267.923 164.181 268.136L161.717 275.208C161.675 275.293 161.653 275.379 161.653 275.464C161.653 275.571 161.707 275.656 161.813 275.72C161.941 275.763 162.069 275.784 162.197 275.784ZM198.387 285.608C198.089 285.608 197.619 285.437 196.979 285.096C196.361 284.776 195.699 284.189 194.995 283.336C194.398 282.696 193.801 282.067 193.203 281.448C192.627 280.808 192.041 280.179 191.443 279.56C190.846 278.92 190.249 278.291 189.651 277.672C189.054 277.032 188.457 276.403 187.859 275.784C187.283 275.165 186.697 274.547 186.099 273.928C185.502 273.288 184.905 272.659 184.307 272.04C183.731 271.4 183.145 270.76 182.547 270.12C182.526 270.077 182.473 270.013 182.387 269.928C182.302 269.843 182.238 269.8 182.195 269.8C182.11 269.8 182.046 269.875 182.003 270.024C181.982 270.173 181.971 270.301 181.971 270.408C181.971 271.368 181.982 272.509 182.003 273.832C182.046 275.155 182.078 276.488 182.099 277.832C182.142 279.155 182.163 280.339 182.163 281.384C182.163 282.109 182.387 282.664 182.835 283.048C183.305 283.411 183.966 283.699 184.819 283.912C185.011 283.955 185.203 284.029 185.395 284.136C185.587 284.221 185.683 284.371 185.683 284.584C185.683 284.733 185.598 284.851 185.427 284.936C185.257 285.021 185.086 285.064 184.915 285.064C184.339 285.064 183.859 285.053 183.475 285.032C183.091 285.011 182.729 285 182.387 285C182.067 284.979 181.683 284.968 181.235 284.968C180.745 284.968 180.265 284.979 179.795 285C179.347 285.021 178.974 285.043 178.675 285.064C178.398 285.085 178.259 285.096 178.259 285.096C178.131 285.096 177.971 285.053 177.779 284.968C177.609 284.883 177.523 284.765 177.523 284.616C177.523 284.424 177.598 284.285 177.747 284.2C177.918 284.093 178.099 283.997 178.291 283.912C178.782 283.72 179.155 283.4 179.411 282.952C179.689 282.504 179.849 281.96 179.891 281.32C179.977 280.531 180.062 279.485 180.147 278.184C180.254 276.883 180.35 275.421 180.435 273.8C180.521 272.179 180.563 270.493 180.563 268.744C180.563 267.635 180.286 266.835 179.731 266.344C179.177 265.853 178.505 265.459 177.715 265.16C177.523 265.117 177.331 265.043 177.139 264.936C176.947 264.808 176.851 264.648 176.851 264.456C176.851 264.264 176.926 264.136 177.075 264.072C177.246 263.987 177.449 263.944 177.683 263.944C178.025 263.944 178.441 263.955 178.931 263.976C179.443 263.997 179.987 264.019 180.563 264.04C181.161 264.04 181.769 264.051 182.387 264.072C183.006 264.093 183.603 264.104 184.179 264.104C184.35 264.104 184.478 264.136 184.563 264.2C184.67 264.243 184.755 264.317 184.819 264.424C185.374 265.043 185.929 265.672 186.483 266.312C187.059 266.931 187.625 267.549 188.179 268.168C188.755 268.787 189.321 269.405 189.875 270.024C190.451 270.643 191.017 271.272 191.571 271.912C192.126 272.531 192.681 273.149 193.235 273.768C193.811 274.387 194.377 275.016 194.931 275.656C195.507 276.275 196.073 276.893 196.627 277.512C196.691 277.597 196.766 277.683 196.851 277.768C196.937 277.853 197.011 277.896 197.075 277.896C197.246 277.896 197.331 277.747 197.331 277.448C197.331 276.701 197.331 275.891 197.331 275.016C197.331 274.12 197.331 273.213 197.331 272.296C197.331 271.357 197.321 270.461 197.299 269.608C197.299 268.733 197.278 267.965 197.235 267.304C197.214 266.685 196.99 266.237 196.563 265.96C196.158 265.683 195.55 265.437 194.739 265.224C194.547 265.181 194.377 265.117 194.227 265.032C194.078 264.925 194.003 264.765 194.003 264.552C194.003 264.403 194.078 264.285 194.227 264.2C194.377 264.115 194.526 264.072 194.675 264.072C195.251 264.072 195.721 264.083 196.083 264.104C196.446 264.104 196.777 264.115 197.075 264.136C197.374 264.136 197.705 264.136 198.067 264.136C198.494 264.136 198.857 264.136 199.155 264.136C199.454 264.115 199.774 264.093 200.115 264.072C200.478 264.051 200.926 264.04 201.459 264.04C201.694 264.04 201.875 264.083 202.003 264.168C202.153 264.253 202.227 264.371 202.227 264.52C202.227 264.861 201.961 265.085 201.427 265.192C200.702 265.341 200.169 265.555 199.827 265.832C199.486 266.109 199.315 266.568 199.315 267.208C199.315 268.125 199.305 269.043 199.283 269.96C199.262 270.856 199.23 271.741 199.187 272.616C199.145 273.491 199.102 274.344 199.059 275.176C199.017 275.987 198.985 276.765 198.963 277.512C198.942 278.259 198.931 278.941 198.931 279.56C198.931 280.051 198.963 280.616 199.027 281.256C199.091 281.875 199.155 282.451 199.219 282.984C199.283 283.496 199.315 283.848 199.315 284.04C199.315 284.616 199.23 285.021 199.059 285.256C198.91 285.491 198.686 285.608 198.387 285.608ZM214.563 285.448C213.069 285.448 211.651 285.203 210.307 284.712C208.963 284.2 207.768 283.485 206.723 282.568C205.677 281.629 204.856 280.52 204.259 279.24C203.661 277.939 203.363 276.499 203.363 274.92C203.363 273.469 203.608 272.083 204.099 270.76C204.589 269.416 205.315 268.221 206.275 267.176C207.256 266.131 208.461 265.299 209.891 264.68C211.32 264.061 212.973 263.752 214.851 263.752C216.344 263.752 217.763 264.008 219.107 264.52C220.451 265.011 221.645 265.725 222.691 266.664C223.736 267.581 224.557 268.691 225.155 269.992C225.752 271.272 226.051 272.701 226.051 274.28C226.051 275.709 225.805 277.096 225.315 278.44C224.824 279.784 224.088 280.979 223.107 282.024C222.147 283.069 220.952 283.901 219.523 284.52C218.093 285.139 216.44 285.448 214.563 285.448ZM215.139 283.944C216.269 283.944 217.208 283.603 217.955 282.92C218.723 282.237 219.299 281.299 219.683 280.104C220.067 278.888 220.259 277.501 220.259 275.944C220.259 274.664 220.141 273.395 219.907 272.136C219.672 270.877 219.309 269.736 218.819 268.712C218.328 267.667 217.699 266.835 216.931 266.216C216.184 265.597 215.277 265.288 214.211 265.288C213.101 265.288 212.163 265.629 211.395 266.312C210.648 266.995 210.083 267.933 209.699 269.128C209.336 270.323 209.155 271.699 209.155 273.256C209.155 274.536 209.272 275.805 209.507 277.064C209.741 278.323 210.093 279.475 210.562 280.52C211.053 281.544 211.672 282.376 212.419 283.016C213.187 283.635 214.093 283.944 215.139 283.944Z" fill="#292929" />
			<path d="M112.794 306.048C112.73 306.048 112.666 306.027 112.602 305.984C112.538 305.941 112.506 305.883 112.506 305.808C112.506 305.627 112.607 305.509 112.81 305.456C113.215 305.371 113.492 305.264 113.642 305.136C113.791 305.008 113.866 304.779 113.866 304.448V297.184C113.866 296.843 113.796 296.603 113.658 296.464C113.53 296.315 113.279 296.197 112.906 296.112C112.778 296.08 112.687 296.032 112.634 295.968C112.591 295.904 112.57 295.84 112.57 295.776C112.57 295.701 112.596 295.643 112.65 295.6C112.714 295.547 112.794 295.52 112.89 295.52C113.124 295.52 113.38 295.525 113.658 295.536C113.935 295.547 114.207 295.563 114.474 295.584C114.74 295.595 114.98 295.6 115.194 295.6C115.45 295.6 115.674 295.589 115.866 295.568C116.068 295.536 116.292 295.509 116.538 295.488C116.783 295.456 117.103 295.44 117.498 295.44C118.81 295.44 119.85 295.723 120.618 296.288C121.386 296.843 121.77 297.605 121.77 298.576C121.77 299.248 121.626 299.872 121.338 300.448C121.05 301.013 120.612 301.472 120.026 301.824C119.45 302.165 118.719 302.336 117.834 302.336C117.546 302.336 117.327 302.293 117.178 302.208C117.028 302.123 116.954 302.016 116.954 301.888C116.954 301.803 116.991 301.739 117.066 301.696C117.14 301.653 117.204 301.632 117.258 301.632C117.386 301.632 117.487 301.648 117.562 301.68C117.647 301.701 117.759 301.712 117.898 301.712C118.303 301.712 118.607 301.467 118.81 300.976C119.023 300.475 119.13 299.829 119.13 299.04C119.13 298.027 118.986 297.301 118.698 296.864C118.42 296.416 118.02 296.192 117.498 296.192C117.199 296.192 116.975 296.261 116.826 296.4C116.676 296.539 116.602 296.752 116.602 297.04L116.586 304.432C116.586 304.763 116.676 304.992 116.858 305.12C117.05 305.248 117.375 305.36 117.834 305.456C117.93 305.477 118.004 305.515 118.058 305.568C118.111 305.611 118.138 305.685 118.138 305.792C118.138 305.867 118.116 305.925 118.074 305.968C118.031 306.011 117.967 306.032 117.882 306.032C117.658 306.032 117.375 306.027 117.034 306.016C116.692 306.005 116.351 305.995 116.01 305.984C115.679 305.973 115.407 305.968 115.194 305.968C114.98 305.968 114.73 305.973 114.442 305.984C114.164 305.995 113.876 306.005 113.578 306.016C113.29 306.037 113.028 306.048 112.794 306.048ZM122.732 306.08C122.636 306.08 122.561 306.053 122.508 306C122.455 305.947 122.428 305.888 122.428 305.824C122.428 305.664 122.535 305.552 122.748 305.488C123.1 305.381 123.345 305.269 123.484 305.152C123.633 305.035 123.708 304.811 123.708 304.48V297.184C123.708 296.843 123.639 296.603 123.5 296.464C123.372 296.315 123.121 296.197 122.748 296.112C122.62 296.08 122.529 296.032 122.476 295.968C122.433 295.904 122.412 295.84 122.412 295.776C122.412 295.701 122.439 295.643 122.492 295.6C122.556 295.547 122.636 295.52 122.732 295.52C122.967 295.52 123.223 295.525 123.5 295.536C123.777 295.547 124.049 295.563 124.316 295.584C124.583 295.595 124.823 295.6 125.036 295.6C125.633 295.6 126.273 295.595 126.956 295.584C127.639 295.573 128.241 295.563 128.764 295.552C129.105 295.552 129.383 295.531 129.596 295.488C129.82 295.445 129.953 295.424 129.996 295.424C130.081 295.424 130.167 295.451 130.252 295.504C130.348 295.547 130.401 295.632 130.412 295.76C130.455 296.155 130.508 296.544 130.572 296.928C130.647 297.301 130.684 297.632 130.684 297.92C130.684 298.027 130.663 298.107 130.62 298.16C130.577 298.213 130.529 298.24 130.476 298.24C130.423 298.24 130.364 298.219 130.3 298.176C130.236 298.133 130.183 298.064 130.14 297.968C130.023 297.68 129.916 297.44 129.82 297.248C129.735 297.045 129.633 296.885 129.516 296.768C129.399 296.651 129.249 296.539 129.068 296.432C128.887 296.315 128.647 296.256 128.348 296.256H127.34C127.073 296.256 126.855 296.32 126.684 296.448C126.513 296.576 126.428 296.757 126.428 296.992V299.936C126.428 300.075 126.465 300.176 126.54 300.24C126.615 300.293 126.716 300.32 126.844 300.32H128.204C128.481 300.32 128.679 300.219 128.796 300.016C128.924 299.813 129.036 299.584 129.132 299.328C129.217 299.136 129.329 299.04 129.468 299.04C129.521 299.04 129.569 299.072 129.612 299.136C129.655 299.2 129.671 299.291 129.66 299.408C129.649 299.557 129.633 299.707 129.612 299.856C129.601 300.005 129.591 300.155 129.58 300.304C129.58 300.443 129.58 300.587 129.58 300.736C129.58 300.875 129.58 301.019 129.58 301.168C129.591 301.307 129.601 301.451 129.612 301.6C129.623 301.749 129.633 301.904 129.644 302.064C129.665 302.224 129.655 302.341 129.612 302.416C129.58 302.48 129.537 302.512 129.484 302.512C129.303 302.512 129.175 302.384 129.1 302.128C129.004 301.787 128.892 301.525 128.764 301.344C128.647 301.163 128.487 301.072 128.284 301.072H126.78C126.663 301.072 126.572 301.104 126.508 301.168C126.455 301.232 126.428 301.323 126.428 301.44V304.464C126.428 304.763 126.492 304.976 126.62 305.104C126.748 305.221 126.945 305.28 127.212 305.28H128.636C128.849 305.28 129.057 305.253 129.26 305.2C129.473 305.136 129.655 305.04 129.804 304.912C129.985 304.763 130.151 304.571 130.3 304.336C130.46 304.101 130.599 303.867 130.716 303.632C130.759 303.547 130.801 303.493 130.844 303.472C130.897 303.451 130.956 303.44 131.02 303.44C131.084 303.44 131.127 303.477 131.148 303.552C131.169 303.616 131.18 303.685 131.18 303.76C131.18 303.952 131.153 304.16 131.1 304.384C131.047 304.608 130.977 304.848 130.892 305.104C130.817 305.349 130.743 305.605 130.668 305.872C130.647 305.947 130.599 305.995 130.524 306.016C130.449 306.048 130.369 306.064 130.284 306.064C130.231 306.064 130.023 306.059 129.66 306.048C129.297 306.048 128.844 306.043 128.3 306.032C127.767 306.021 127.207 306.011 126.62 306C126.044 306 125.516 306 125.036 306C124.823 306 124.577 306.005 124.3 306.016C124.023 306.027 123.745 306.037 123.468 306.048C123.191 306.069 122.945 306.08 122.732 306.08ZM141.758 306.336C141.161 306.336 140.66 306.261 140.254 306.112C139.86 305.963 139.529 305.771 139.262 305.536C138.996 305.291 138.756 305.024 138.542 304.736C138.318 304.427 138.1 304.117 137.886 303.808C137.673 303.488 137.465 303.152 137.262 302.8C137.06 302.437 136.857 302.037 136.654 301.6C136.548 301.365 136.42 301.205 136.27 301.12C136.206 301.077 136.137 301.051 136.062 301.04C135.998 301.019 135.94 301.008 135.886 301.008C135.833 301.008 135.79 301.04 135.758 301.104C135.737 301.157 135.726 301.232 135.726 301.328V304.432C135.726 304.763 135.817 304.992 135.998 305.12C136.19 305.248 136.516 305.36 136.974 305.456C137.07 305.477 137.145 305.515 137.198 305.568C137.252 305.611 137.278 305.685 137.278 305.792C137.278 305.867 137.257 305.925 137.214 305.968C137.172 306.011 137.108 306.032 137.022 306.032C136.798 306.032 136.516 306.027 136.174 306.016C135.833 306.005 135.492 305.995 135.15 305.984C134.82 305.973 134.548 305.968 134.334 305.968C134.121 305.968 133.87 305.973 133.582 305.984C133.305 305.995 133.017 306.005 132.718 306.016C132.43 306.037 132.169 306.048 131.934 306.048C131.87 306.048 131.806 306.027 131.742 305.984C131.678 305.941 131.646 305.883 131.646 305.808C131.646 305.627 131.748 305.509 131.95 305.456C132.356 305.371 132.633 305.264 132.782 305.136C132.932 305.008 133.006 304.779 133.006 304.448V297.184C133.006 296.949 132.98 296.768 132.926 296.64C132.873 296.501 132.777 296.395 132.638 296.32C132.5 296.235 132.302 296.165 132.046 296.112C131.918 296.08 131.828 296.032 131.774 295.968C131.732 295.904 131.71 295.84 131.71 295.776C131.71 295.701 131.737 295.643 131.79 295.6C131.854 295.547 131.934 295.52 132.03 295.52C132.382 295.52 132.676 295.531 132.91 295.552C133.145 295.573 133.369 295.595 133.582 295.616C133.796 295.637 134.041 295.648 134.318 295.648C134.574 295.648 134.798 295.637 134.99 295.616C135.193 295.584 135.417 295.557 135.662 295.536C135.908 295.504 136.228 295.488 136.622 295.488C137.881 295.488 138.852 295.701 139.534 296.128C140.228 296.544 140.574 297.184 140.574 298.048C140.574 298.528 140.468 298.933 140.254 299.264C140.041 299.584 139.774 299.845 139.454 300.048C139.134 300.24 138.809 300.384 138.478 300.48C138.436 300.491 138.414 300.517 138.414 300.56C138.425 300.603 138.441 300.64 138.462 300.672C138.782 301.141 139.092 301.595 139.39 302.032C139.7 302.469 140.009 302.875 140.318 303.248C140.628 303.611 140.937 303.941 141.246 304.24C141.62 304.592 142.004 304.8 142.398 304.864C142.804 304.928 143.193 304.96 143.566 304.96C143.726 304.96 143.806 305.061 143.806 305.264C143.806 305.52 143.721 305.728 143.55 305.888C143.39 306.037 143.156 306.149 142.846 306.224C142.537 306.299 142.174 306.336 141.758 306.336ZM136.286 300.464C136.67 300.464 136.985 300.379 137.23 300.208C137.476 300.037 137.657 299.803 137.774 299.504C137.902 299.195 137.966 298.837 137.966 298.432C137.966 297.92 137.902 297.504 137.774 297.184C137.646 296.864 137.46 296.629 137.214 296.48C136.98 296.32 136.692 296.24 136.35 296.24C136.137 296.24 135.977 296.331 135.87 296.512C135.774 296.693 135.726 297.093 135.726 297.712C135.726 297.947 135.726 298.245 135.726 298.608C135.726 298.96 135.726 299.376 135.726 299.856C135.726 300.069 135.774 300.224 135.87 300.32C135.977 300.416 136.116 300.464 136.286 300.464ZM144.247 306.048C144.183 306.048 144.119 306.027 144.055 305.984C143.991 305.941 143.959 305.883 143.959 305.808C143.959 305.627 144.06 305.509 144.263 305.456C144.668 305.371 144.945 305.264 145.095 305.136C145.244 305.008 145.319 304.779 145.319 304.448V297.184C145.319 296.843 145.249 296.603 145.111 296.464C144.983 296.315 144.732 296.197 144.359 296.112C144.231 296.08 144.14 296.032 144.087 295.968C144.044 295.904 144.023 295.84 144.023 295.776C144.023 295.701 144.049 295.643 144.103 295.6C144.167 295.547 144.247 295.52 144.343 295.52C144.577 295.52 144.833 295.525 145.111 295.536C145.388 295.547 145.66 295.563 145.927 295.584C146.193 295.595 146.433 295.6 146.647 295.6C147.095 295.6 147.58 295.6 148.103 295.6C148.636 295.6 149.143 295.6 149.623 295.6C150.081 295.6 150.497 295.573 150.871 295.52C151.255 295.456 151.564 295.424 151.799 295.424C151.884 295.424 151.969 295.451 152.055 295.504C152.151 295.547 152.204 295.632 152.215 295.76C152.236 296.027 152.252 296.299 152.263 296.576C152.273 296.853 152.279 297.12 152.279 297.376C152.289 297.621 152.295 297.84 152.295 298.032C152.295 298.245 152.225 298.352 152.087 298.352C152.033 298.352 151.969 298.331 151.895 298.288C151.82 298.245 151.772 298.176 151.751 298.08C151.676 297.803 151.591 297.552 151.495 297.328C151.409 297.093 151.292 296.901 151.143 296.752C151.004 296.613 150.839 296.512 150.647 296.448C150.465 296.373 150.236 296.336 149.959 296.336H148.951C148.684 296.336 148.465 296.4 148.295 296.528C148.124 296.656 148.039 296.837 148.039 297.072C148.039 297.253 148.039 297.472 148.039 297.728C148.039 297.973 148.039 298.187 148.039 298.368C148.039 298.603 148.039 298.859 148.039 299.136C148.039 299.413 148.039 299.675 148.039 299.92C148.039 300.059 148.076 300.16 148.151 300.224C148.225 300.277 148.327 300.304 148.455 300.304C148.7 300.304 148.945 300.304 149.191 300.304C149.447 300.304 149.697 300.304 149.943 300.304C150.22 300.304 150.417 300.219 150.535 300.048C150.663 299.877 150.775 299.675 150.871 299.44C150.913 299.344 150.961 299.275 151.015 299.232C151.079 299.179 151.143 299.152 151.207 299.152C151.26 299.152 151.308 299.184 151.351 299.248C151.393 299.312 151.409 299.403 151.399 299.52C151.377 299.755 151.356 299.979 151.335 300.192C151.324 300.395 151.319 300.576 151.319 300.736C151.319 300.949 151.324 301.125 151.335 301.264C151.345 301.403 151.361 301.595 151.383 301.84C151.404 302 151.393 302.117 151.351 302.192C151.319 302.256 151.276 302.288 151.223 302.288C151.148 302.288 151.073 302.251 150.999 302.176C150.924 302.101 150.871 302.011 150.839 301.904C150.743 301.573 150.631 301.349 150.503 301.232C150.385 301.115 150.225 301.056 150.023 301.056C149.905 301.056 149.783 301.056 149.655 301.056C149.527 301.056 149.404 301.056 149.287 301.056C149.137 301.056 148.983 301.056 148.823 301.056C148.663 301.056 148.508 301.056 148.359 301.056C148.241 301.056 148.151 301.088 148.087 301.152C148.033 301.216 148.007 301.307 148.007 301.424C148.007 301.904 148.012 302.405 148.023 302.928C148.033 303.451 148.039 303.952 148.039 304.432C148.039 304.763 148.129 304.992 148.311 305.12C148.503 305.248 148.828 305.36 149.287 305.456C149.383 305.477 149.457 305.515 149.511 305.568C149.564 305.611 149.591 305.685 149.591 305.792C149.591 305.867 149.569 305.925 149.527 305.968C149.484 306.011 149.42 306.032 149.335 306.032C149.111 306.032 148.828 306.027 148.487 306.016C148.145 306.005 147.804 305.995 147.463 305.984C147.132 305.973 146.86 305.968 146.647 305.968C146.433 305.968 146.183 305.973 145.895 305.984C145.617 305.995 145.329 306.005 145.031 306.016C144.743 306.037 144.481 306.048 144.247 306.048ZM158.578 306.224C157.831 306.224 157.122 306.101 156.45 305.856C155.778 305.6 155.181 305.243 154.658 304.784C154.135 304.315 153.725 303.76 153.426 303.12C153.127 302.469 152.978 301.749 152.978 300.96C152.978 300.235 153.101 299.541 153.346 298.88C153.591 298.208 153.954 297.611 154.434 297.088C154.925 296.565 155.527 296.149 156.242 295.84C156.957 295.531 157.783 295.376 158.722 295.376C159.469 295.376 160.178 295.504 160.85 295.76C161.522 296.005 162.119 296.363 162.642 296.832C163.165 297.291 163.575 297.845 163.874 298.496C164.173 299.136 164.322 299.851 164.322 300.64C164.322 301.355 164.199 302.048 163.954 302.72C163.709 303.392 163.341 303.989 162.85 304.512C162.37 305.035 161.773 305.451 161.058 305.76C160.343 306.069 159.517 306.224 158.578 306.224ZM158.866 305.472C159.431 305.472 159.901 305.301 160.274 304.96C160.658 304.619 160.946 304.149 161.138 303.552C161.33 302.944 161.426 302.251 161.426 301.472C161.426 300.832 161.367 300.197 161.25 299.568C161.133 298.939 160.951 298.368 160.706 297.856C160.461 297.333 160.146 296.917 159.762 296.608C159.389 296.299 158.935 296.144 158.402 296.144C157.847 296.144 157.378 296.315 156.994 296.656C156.621 296.997 156.338 297.467 156.146 298.064C155.965 298.661 155.874 299.349 155.874 300.128C155.874 300.768 155.933 301.403 156.05 302.032C156.167 302.661 156.343 303.237 156.578 303.76C156.823 304.272 157.133 304.688 157.506 305.008C157.89 305.317 158.343 305.472 158.866 305.472ZM175.071 306.336C174.473 306.336 173.972 306.261 173.567 306.112C173.172 305.963 172.841 305.771 172.575 305.536C172.308 305.291 172.068 305.024 171.855 304.736C171.631 304.427 171.412 304.117 171.199 303.808C170.985 303.488 170.777 303.152 170.575 302.8C170.372 302.437 170.169 302.037 169.967 301.6C169.86 301.365 169.732 301.205 169.583 301.12C169.519 301.077 169.449 301.051 169.375 301.04C169.311 301.019 169.252 301.008 169.199 301.008C169.145 301.008 169.103 301.04 169.071 301.104C169.049 301.157 169.039 301.232 169.039 301.328V304.432C169.039 304.763 169.129 304.992 169.311 305.12C169.503 305.248 169.828 305.36 170.287 305.456C170.383 305.477 170.457 305.515 170.511 305.568C170.564 305.611 170.591 305.685 170.591 305.792C170.591 305.867 170.569 305.925 170.527 305.968C170.484 306.011 170.42 306.032 170.335 306.032C170.111 306.032 169.828 306.027 169.487 306.016C169.145 306.005 168.804 305.995 168.463 305.984C168.132 305.973 167.86 305.968 167.647 305.968C167.433 305.968 167.183 305.973 166.895 305.984C166.617 305.995 166.329 306.005 166.031 306.016C165.743 306.037 165.481 306.048 165.247 306.048C165.183 306.048 165.119 306.027 165.055 305.984C164.991 305.941 164.959 305.883 164.959 305.808C164.959 305.627 165.06 305.509 165.263 305.456C165.668 305.371 165.945 305.264 166.095 305.136C166.244 305.008 166.319 304.779 166.319 304.448V297.184C166.319 296.949 166.292 296.768 166.239 296.64C166.185 296.501 166.089 296.395 165.951 296.32C165.812 296.235 165.615 296.165 165.359 296.112C165.231 296.08 165.14 296.032 165.087 295.968C165.044 295.904 165.023 295.84 165.023 295.776C165.023 295.701 165.049 295.643 165.103 295.6C165.167 295.547 165.247 295.52 165.343 295.52C165.695 295.52 165.988 295.531 166.223 295.552C166.457 295.573 166.681 295.595 166.895 295.616C167.108 295.637 167.353 295.648 167.631 295.648C167.887 295.648 168.111 295.637 168.303 295.616C168.505 295.584 168.729 295.557 168.975 295.536C169.22 295.504 169.54 295.488 169.935 295.488C171.193 295.488 172.164 295.701 172.847 296.128C173.54 296.544 173.887 297.184 173.887 298.048C173.887 298.528 173.78 298.933 173.567 299.264C173.353 299.584 173.087 299.845 172.767 300.048C172.447 300.24 172.121 300.384 171.791 300.48C171.748 300.491 171.727 300.517 171.727 300.56C171.737 300.603 171.753 300.64 171.775 300.672C172.095 301.141 172.404 301.595 172.703 302.032C173.012 302.469 173.321 302.875 173.631 303.248C173.94 303.611 174.249 303.941 174.559 304.24C174.932 304.592 175.316 304.8 175.711 304.864C176.116 304.928 176.505 304.96 176.879 304.96C177.039 304.96 177.119 305.061 177.119 305.264C177.119 305.52 177.033 305.728 176.863 305.888C176.703 306.037 176.468 306.149 176.159 306.224C175.849 306.299 175.487 306.336 175.071 306.336ZM169.599 300.464C169.983 300.464 170.297 300.379 170.543 300.208C170.788 300.037 170.969 299.803 171.087 299.504C171.215 299.195 171.279 298.837 171.279 298.432C171.279 297.92 171.215 297.504 171.087 297.184C170.959 296.864 170.772 296.629 170.527 296.48C170.292 296.32 170.004 296.24 169.663 296.24C169.449 296.24 169.289 296.331 169.183 296.512C169.087 296.693 169.039 297.093 169.039 297.712C169.039 297.947 169.039 298.245 169.039 298.608C169.039 298.96 169.039 299.376 169.039 299.856C169.039 300.069 169.087 300.224 169.183 300.32C169.289 300.416 169.428 300.464 169.599 300.464ZM177.719 306.048C177.591 306.048 177.495 306.027 177.431 305.984C177.378 305.941 177.351 305.883 177.351 305.808C177.351 305.712 177.399 305.653 177.495 305.632C177.591 305.6 177.687 305.563 177.783 305.52C178.029 305.424 178.242 305.269 178.423 305.056C178.615 304.843 178.733 304.576 178.775 304.256C178.829 303.861 178.887 303.323 178.951 302.64C179.015 301.947 179.085 301.179 179.159 300.336C179.234 299.483 179.309 298.619 179.383 297.744C179.394 297.691 179.399 297.616 179.399 297.52C179.399 297.424 179.399 297.317 179.399 297.2C179.399 296.987 179.362 296.821 179.287 296.704C179.223 296.587 179.122 296.491 178.983 296.416C178.866 296.352 178.738 296.293 178.599 296.24C178.461 296.176 178.311 296.123 178.151 296.08C178.023 296.048 177.917 296.005 177.831 295.952C177.757 295.899 177.719 295.824 177.719 295.728C177.719 295.632 177.757 295.568 177.831 295.536C177.917 295.493 178.018 295.472 178.135 295.472C178.306 295.472 178.509 295.477 178.743 295.488C178.989 295.499 179.255 295.509 179.543 295.52C179.831 295.52 180.125 295.525 180.423 295.536C180.733 295.547 181.031 295.552 181.319 295.552C181.405 295.552 181.485 295.584 181.559 295.648C181.634 295.712 181.682 295.776 181.703 295.84C181.789 296.053 181.863 296.251 181.927 296.432C181.991 296.603 182.066 296.795 182.151 297.008L184.455 302.432C184.477 302.475 184.498 302.496 184.519 302.496C184.551 302.496 184.573 302.475 184.583 302.432L186.679 297.392C186.765 296.976 186.829 296.651 186.871 296.416C186.925 296.171 186.973 295.984 187.015 295.856C187.058 295.717 187.149 295.648 187.287 295.648H188.007C188.477 295.627 188.967 295.595 189.479 295.552C190.002 295.499 190.413 295.472 190.711 295.472C190.829 295.472 190.925 295.493 190.999 295.536C191.085 295.568 191.127 295.632 191.127 295.728C191.127 295.824 191.09 295.893 191.015 295.936C190.941 295.979 190.855 296.016 190.759 296.048C190.717 296.059 190.658 296.08 190.583 296.112C190.519 296.144 190.466 296.171 190.423 296.192C190.103 296.341 189.869 296.507 189.719 296.688C189.581 296.869 189.522 297.163 189.543 297.568C189.575 298.347 189.607 299.013 189.639 299.568C189.671 300.123 189.698 300.635 189.719 301.104C189.751 301.573 189.783 302.069 189.815 302.592C189.858 303.104 189.901 303.717 189.943 304.432C189.965 304.699 190.082 304.917 190.295 305.088C190.509 305.248 190.775 305.371 191.095 305.456C191.191 305.488 191.271 305.525 191.335 305.568C191.41 305.611 191.447 305.685 191.447 305.792C191.447 305.867 191.415 305.925 191.351 305.968C191.298 306.011 191.229 306.032 191.143 306.032C190.919 306.032 190.642 306.027 190.311 306.016C189.991 306.005 189.671 305.995 189.351 305.984C189.031 305.973 188.765 305.968 188.551 305.968C188.338 305.968 188.087 305.973 187.799 305.984C187.522 305.995 187.234 306.005 186.935 306.016C186.647 306.037 186.386 306.048 186.151 306.048C186.066 306.048 185.986 306.027 185.911 305.984C185.847 305.941 185.815 305.883 185.815 305.808C185.815 305.712 185.847 305.637 185.911 305.584C185.986 305.52 186.071 305.477 186.167 305.456C186.573 305.371 186.855 305.264 187.015 305.136C187.175 304.997 187.245 304.768 187.223 304.448C187.191 303.808 187.165 303.157 187.143 302.496C187.122 301.835 187.101 301.184 187.079 300.544C187.069 299.893 187.047 299.28 187.015 298.704C187.015 298.64 186.999 298.613 186.967 298.624C186.935 298.624 186.903 298.661 186.871 298.736L183.959 305.952C183.895 306.123 183.805 306.192 183.687 306.16C183.581 306.128 183.506 306.069 183.463 305.984C182.909 304.747 182.338 303.525 181.751 302.32C181.165 301.115 180.642 299.947 180.183 298.816C180.141 298.709 180.082 298.672 180.007 298.704C179.943 298.736 179.906 298.821 179.895 298.96C179.874 299.44 179.858 300 179.847 300.64C179.847 301.28 179.853 301.925 179.863 302.576C179.874 303.227 179.879 303.813 179.879 304.336C179.879 304.635 179.975 304.869 180.167 305.04C180.359 305.211 180.669 305.349 181.095 305.456C181.191 305.477 181.287 305.515 181.383 305.568C181.479 305.611 181.527 305.685 181.527 305.792C181.527 305.867 181.485 305.925 181.399 305.968C181.314 306.011 181.229 306.032 181.143 306.032C180.855 306.032 180.631 306.027 180.471 306.016C180.311 306.005 180.162 306 180.023 306C179.895 305.989 179.719 305.984 179.495 305.984C179.25 305.984 178.989 305.989 178.711 306C178.434 306.011 178.199 306.021 178.007 306.032C177.815 306.043 177.719 306.048 177.719 306.048ZM192.102 306.08C191.984 306.08 191.883 306.059 191.798 306.016C191.723 305.984 191.686 305.915 191.686 305.808C191.686 305.701 191.718 305.627 191.782 305.584C191.856 305.531 191.942 305.488 192.038 305.456C192.358 305.371 192.63 305.237 192.854 305.056C193.088 304.875 193.259 304.667 193.366 304.432C193.622 303.845 193.867 303.264 194.102 302.688C194.336 302.112 194.566 301.541 194.79 300.976C195.014 300.4 195.232 299.824 195.446 299.248C195.67 298.661 195.888 298.075 196.102 297.488C196.283 296.997 196.395 296.651 196.438 296.448C196.48 296.235 196.518 296.123 196.55 296.112C196.763 296.059 196.96 296.011 197.142 295.968C197.323 295.915 197.526 295.851 197.75 295.776C197.952 295.701 198.128 295.611 198.278 295.504C198.438 295.387 198.555 295.291 198.63 295.216C198.683 295.184 198.731 295.163 198.774 295.152C198.827 295.141 198.875 295.179 198.918 295.264C198.96 295.339 198.992 295.413 199.014 295.488C199.046 295.552 199.072 295.627 199.094 295.712C199.307 296.416 199.526 297.125 199.75 297.84C199.984 298.555 200.219 299.28 200.454 300.016C200.688 300.741 200.923 301.472 201.158 302.208C201.403 302.944 201.643 303.685 201.878 304.432C201.931 304.603 202.016 304.757 202.134 304.896C202.262 305.024 202.411 305.136 202.582 305.232C202.752 305.317 202.944 305.392 203.158 305.456C203.254 305.488 203.334 305.525 203.398 305.568C203.472 305.611 203.51 305.685 203.51 305.792C203.51 305.867 203.478 305.925 203.414 305.968C203.36 306.011 203.291 306.032 203.206 306.032C202.982 306.032 202.704 306.027 202.374 306.016C202.054 306.005 201.728 305.995 201.398 305.984C201.078 305.973 200.795 305.968 200.55 305.968C200.336 305.968 200.075 305.973 199.766 305.984C199.456 305.995 199.142 306.005 198.822 306.016C198.502 306.037 198.224 306.048 197.99 306.048C197.904 306.048 197.824 306.027 197.75 305.984C197.686 305.941 197.654 305.883 197.654 305.808C197.654 305.712 197.686 305.637 197.75 305.584C197.824 305.52 197.91 305.477 198.006 305.456C198.411 305.371 198.71 305.259 198.902 305.12C199.094 304.981 199.147 304.757 199.062 304.448C199.008 304.235 198.95 304.027 198.886 303.824C198.832 303.621 198.779 303.419 198.726 303.216C198.672 303.003 198.619 302.795 198.566 302.592C198.544 302.507 198.518 302.443 198.486 302.4C198.454 302.347 198.395 302.32 198.31 302.32H195.526C195.44 302.32 195.376 302.347 195.334 302.4C195.302 302.443 195.275 302.507 195.254 302.592C195.211 302.752 195.163 302.901 195.11 303.04C195.067 303.168 195.024 303.296 194.982 303.424C194.939 303.552 194.896 303.685 194.854 303.824C194.811 303.952 194.768 304.096 194.726 304.256C194.63 304.597 194.646 304.853 194.774 305.024C194.902 305.195 195.216 305.339 195.718 305.456C195.952 305.509 196.07 305.627 196.07 305.808C196.07 305.883 196.043 305.941 195.99 305.984C195.936 306.016 195.851 306.032 195.734 306.032C195.382 306.032 195.072 306.021 194.806 306C194.539 305.989 194.246 305.984 193.926 305.984C193.616 305.984 193.318 306 193.03 306.032C192.752 306.064 192.443 306.08 192.102 306.08ZM195.974 301.392H197.974C198.134 301.392 198.214 301.355 198.214 301.28C198.214 301.237 198.208 301.211 198.198 301.2C198.198 301.179 198.192 301.147 198.182 301.104L197.158 297.568C197.126 297.461 197.094 297.408 197.062 297.408C197.04 297.408 197.008 297.461 196.966 297.568L195.734 301.104C195.712 301.147 195.702 301.189 195.702 301.232C195.702 301.285 195.728 301.328 195.782 301.36C195.846 301.381 195.91 301.392 195.974 301.392ZM214.069 306.304C213.919 306.304 213.685 306.219 213.365 306.048C213.055 305.888 212.725 305.595 212.373 305.168C212.074 304.848 211.775 304.533 211.477 304.224C211.189 303.904 210.895 303.589 210.597 303.28C210.298 302.96 209.999 302.645 209.701 302.336C209.402 302.016 209.103 301.701 208.805 301.392C208.517 301.083 208.223 300.773 207.925 300.464C207.626 300.144 207.327 299.829 207.029 299.52C206.741 299.2 206.447 298.88 206.149 298.56C206.138 298.539 206.111 298.507 206.069 298.464C206.026 298.421 205.994 298.4 205.973 298.4C205.93 298.4 205.898 298.437 205.877 298.512C205.866 298.587 205.861 298.651 205.861 298.704C205.861 299.184 205.866 299.755 205.877 300.416C205.898 301.077 205.914 301.744 205.925 302.416C205.946 303.077 205.957 303.669 205.957 304.192C205.957 304.555 206.069 304.832 206.293 305.024C206.527 305.205 206.858 305.349 207.285 305.456C207.381 305.477 207.477 305.515 207.573 305.568C207.669 305.611 207.717 305.685 207.717 305.792C207.717 305.867 207.674 305.925 207.589 305.968C207.503 306.011 207.418 306.032 207.333 306.032C207.045 306.032 206.805 306.027 206.613 306.016C206.421 306.005 206.239 306 206.069 306C205.909 305.989 205.717 305.984 205.493 305.984C205.247 305.984 205.007 305.989 204.773 306C204.549 306.011 204.362 306.021 204.213 306.032C204.074 306.043 204.005 306.048 204.005 306.048C203.941 306.048 203.861 306.027 203.765 305.984C203.679 305.941 203.637 305.883 203.637 305.808C203.637 305.712 203.674 305.643 203.749 305.6C203.834 305.547 203.925 305.499 204.021 305.456C204.266 305.36 204.453 305.2 204.581 304.976C204.719 304.752 204.799 304.48 204.821 304.16C204.863 303.765 204.906 303.243 204.949 302.592C205.002 301.941 205.05 301.211 205.093 300.4C205.135 299.589 205.157 298.747 205.157 297.872C205.157 297.317 205.018 296.917 204.741 296.672C204.463 296.427 204.127 296.229 203.733 296.08C203.637 296.059 203.541 296.021 203.445 295.968C203.349 295.904 203.301 295.824 203.301 295.728C203.301 295.632 203.338 295.568 203.413 295.536C203.498 295.493 203.599 295.472 203.717 295.472C203.887 295.472 204.095 295.477 204.341 295.488C204.597 295.499 204.869 295.509 205.157 295.52C205.455 295.52 205.759 295.525 206.069 295.536C206.378 295.547 206.677 295.552 206.965 295.552C207.05 295.552 207.114 295.568 207.157 295.6C207.21 295.621 207.253 295.659 207.285 295.712C207.562 296.021 207.839 296.336 208.117 296.656C208.405 296.965 208.687 297.275 208.965 297.584C209.253 297.893 209.535 298.203 209.813 298.512C210.101 298.821 210.383 299.136 210.661 299.456C210.938 299.765 211.215 300.075 211.493 300.384C211.781 300.693 212.063 301.008 212.341 301.328C212.629 301.637 212.911 301.947 213.189 302.256C213.221 302.299 213.258 302.341 213.301 302.384C213.343 302.427 213.381 302.448 213.413 302.448C213.498 302.448 213.541 302.373 213.541 302.224C213.541 301.851 213.541 301.445 213.541 301.008C213.541 300.56 213.541 300.107 213.541 299.648C213.541 299.179 213.535 298.731 213.525 298.304C213.525 297.867 213.514 297.483 213.493 297.152C213.482 296.843 213.37 296.619 213.157 296.48C212.954 296.341 212.65 296.219 212.245 296.112C212.149 296.091 212.063 296.059 211.989 296.016C211.914 295.963 211.877 295.883 211.877 295.776C211.877 295.701 211.914 295.643 211.989 295.6C212.063 295.557 212.138 295.536 212.213 295.536C212.501 295.536 212.735 295.541 212.917 295.552C213.098 295.552 213.263 295.557 213.413 295.568C213.562 295.568 213.727 295.568 213.909 295.568C214.122 295.568 214.303 295.568 214.453 295.568C214.602 295.557 214.762 295.547 214.933 295.536C215.114 295.525 215.338 295.52 215.605 295.52C215.722 295.52 215.813 295.541 215.877 295.584C215.951 295.627 215.989 295.685 215.989 295.76C215.989 295.931 215.855 296.043 215.589 296.096C215.226 296.171 214.959 296.277 214.789 296.416C214.618 296.555 214.533 296.784 214.533 297.104C214.533 297.563 214.527 298.021 214.517 298.48C214.506 298.928 214.49 299.371 214.469 299.808C214.447 300.245 214.426 300.672 214.405 301.088C214.383 301.493 214.367 301.883 214.357 302.256C214.346 302.629 214.341 302.971 214.341 303.28C214.341 303.525 214.357 303.808 214.389 304.128C214.421 304.437 214.453 304.725 214.485 304.992C214.517 305.248 214.533 305.424 214.533 305.52C214.533 305.808 214.49 306.011 214.405 306.128C214.33 306.245 214.218 306.304 214.069 306.304ZM222.62 306.224C221.778 306.224 220.988 306.101 220.252 305.856C219.516 305.6 218.871 305.243 218.316 304.784C217.762 304.315 217.33 303.76 217.02 303.12C216.711 302.469 216.556 301.749 216.556 300.96C216.556 300.235 216.7 299.541 216.988 298.88C217.276 298.208 217.698 297.611 218.252 297.088C218.818 296.565 219.506 296.149 220.316 295.84C221.127 295.531 222.05 295.376 223.084 295.376C223.415 295.376 223.756 295.403 224.108 295.456C224.471 295.509 224.818 295.579 225.148 295.664C225.49 295.749 225.783 295.845 226.028 295.952C226.114 295.995 226.188 296.048 226.252 296.112C226.327 296.176 226.37 296.267 226.38 296.384C226.434 296.768 226.466 297.131 226.476 297.472C226.498 297.803 226.508 298.085 226.508 298.32C226.508 298.448 226.46 298.533 226.364 298.576C226.279 298.619 226.183 298.619 226.076 298.576C225.98 298.533 225.911 298.448 225.868 298.32C225.794 298.107 225.708 297.883 225.612 297.648C225.527 297.413 225.394 297.211 225.212 297.04C224.999 296.816 224.706 296.629 224.332 296.48C223.959 296.331 223.495 296.256 222.94 296.256C222.407 296.256 221.927 296.373 221.5 296.608C221.074 296.832 220.711 297.147 220.412 297.552C220.114 297.947 219.884 298.4 219.724 298.912C219.564 299.413 219.484 299.941 219.484 300.496C219.484 301.211 219.554 301.867 219.692 302.464C219.831 303.051 220.044 303.557 220.332 303.984C220.62 304.411 220.978 304.741 221.404 304.976C221.842 305.2 222.354 305.312 222.94 305.312C223.74 305.312 224.38 305.147 224.86 304.816C225.351 304.485 225.762 303.963 226.092 303.248C226.178 303.056 226.3 302.965 226.46 302.976C226.62 302.987 226.7 303.077 226.7 303.248C226.7 303.397 226.684 303.573 226.652 303.776C226.631 303.968 226.594 304.181 226.54 304.416C226.498 304.64 226.439 304.88 226.364 305.136C226.332 305.253 226.279 305.349 226.204 305.424C226.13 305.499 226.044 305.563 225.948 305.616C225.543 305.797 225.063 305.941 224.508 306.048C223.954 306.165 223.324 306.224 222.62 306.224ZM228.06 306.08C227.964 306.08 227.889 306.053 227.836 306C227.783 305.947 227.756 305.888 227.756 305.824C227.756 305.664 227.863 305.552 228.076 305.488C228.428 305.381 228.673 305.269 228.812 305.152C228.961 305.035 229.036 304.811 229.036 304.48V297.184C229.036 296.843 228.967 296.603 228.828 296.464C228.7 296.315 228.449 296.197 228.076 296.112C227.948 296.08 227.857 296.032 227.804 295.968C227.761 295.904 227.74 295.84 227.74 295.776C227.74 295.701 227.767 295.643 227.82 295.6C227.884 295.547 227.964 295.52 228.06 295.52C228.295 295.52 228.551 295.525 228.828 295.536C229.105 295.547 229.377 295.563 229.644 295.584C229.911 295.595 230.151 295.6 230.364 295.6C230.961 295.6 231.601 295.595 232.284 295.584C232.967 295.573 233.569 295.563 234.092 295.552C234.433 295.552 234.711 295.531 234.924 295.488C235.148 295.445 235.281 295.424 235.324 295.424C235.409 295.424 235.495 295.451 235.58 295.504C235.676 295.547 235.729 295.632 235.74 295.76C235.783 296.155 235.836 296.544 235.9 296.928C235.975 297.301 236.012 297.632 236.012 297.92C236.012 298.027 235.991 298.107 235.948 298.16C235.905 298.213 235.857 298.24 235.804 298.24C235.751 298.24 235.692 298.219 235.628 298.176C235.564 298.133 235.511 298.064 235.468 297.968C235.351 297.68 235.244 297.44 235.148 297.248C235.063 297.045 234.961 296.885 234.844 296.768C234.727 296.651 234.577 296.539 234.396 296.432C234.215 296.315 233.975 296.256 233.676 296.256H232.668C232.401 296.256 232.183 296.32 232.012 296.448C231.841 296.576 231.756 296.757 231.756 296.992V299.936C231.756 300.075 231.793 300.176 231.868 300.24C231.943 300.293 232.044 300.32 232.172 300.32H233.532C233.809 300.32 234.007 300.219 234.124 300.016C234.252 299.813 234.364 299.584 234.46 299.328C234.545 299.136 234.657 299.04 234.796 299.04C234.849 299.04 234.897 299.072 234.94 299.136C234.983 299.2 234.999 299.291 234.988 299.408C234.977 299.557 234.961 299.707 234.94 299.856C234.929 300.005 234.919 300.155 234.908 300.304C234.908 300.443 234.908 300.587 234.908 300.736C234.908 300.875 234.908 301.019 234.908 301.168C234.919 301.307 234.929 301.451 234.94 301.6C234.951 301.749 234.961 301.904 234.972 302.064C234.993 302.224 234.983 302.341 234.94 302.416C234.908 302.48 234.865 302.512 234.812 302.512C234.631 302.512 234.503 302.384 234.428 302.128C234.332 301.787 234.22 301.525 234.092 301.344C233.975 301.163 233.815 301.072 233.612 301.072H232.108C231.991 301.072 231.9 301.104 231.836 301.168C231.783 301.232 231.756 301.323 231.756 301.44V304.464C231.756 304.763 231.82 304.976 231.948 305.104C232.076 305.221 232.273 305.28 232.54 305.28H233.964C234.177 305.28 234.385 305.253 234.588 305.2C234.801 305.136 234.983 305.04 235.132 304.912C235.313 304.763 235.479 304.571 235.628 304.336C235.788 304.101 235.927 303.867 236.044 303.632C236.087 303.547 236.129 303.493 236.172 303.472C236.225 303.451 236.284 303.44 236.348 303.44C236.412 303.44 236.455 303.477 236.476 303.552C236.497 303.616 236.508 303.685 236.508 303.76C236.508 303.952 236.481 304.16 236.428 304.384C236.375 304.608 236.305 304.848 236.22 305.104C236.145 305.349 236.071 305.605 235.996 305.872C235.975 305.947 235.927 305.995 235.852 306.016C235.777 306.048 235.697 306.064 235.612 306.064C235.559 306.064 235.351 306.059 234.988 306.048C234.625 306.048 234.172 306.043 233.628 306.032C233.095 306.021 232.535 306.011 231.948 306C231.372 306 230.844 306 230.364 306C230.151 306 229.905 306.005 229.628 306.016C229.351 306.027 229.073 306.037 228.796 306.048C228.519 306.069 228.273 306.08 228.06 306.08Z" fill="#292929" fill-opacity="0.3" />
		</g>
	</g>
	<defs>
		<filter id="filter0_d_1_76" x="0.799999" y="0.799999" width="348.4" height="413.4" filterUnits="userSpaceOnUse" color-interpolation-filters="sRGB">
			<feFlood flood-opacity="0" result="BackgroundImageFix" />
			<feColorMatrix in="SourceAlpha" type="matrix" values="0 0 0 0 0 0 0 0 0 0 0 0 0 0 0 0 0 0 127 0" result="hardAlpha" />
			<feOffset />
			<feGaussianBlur stdDeviation="23.6" />
			<feComposite in2="hardAlpha" operator="out" />
			<feColorMatrix type="matrix" values="0 0 0 0 0 0 0 0 0 0 0 0 0 0 0 0 0 0 0.07 0" />
			<feBlend mode="normal" in2="BackgroundImageFix" result="effect1_dropShadow_1_76" />
			<feBlend mode="normal" in="SourceGraphic" in2="effect1_dropShadow_1_76" result="shape" />
		</filter>
		<linearGradient id="paint0_linear_1_76" x1="86" y1="112" x2="240" y2="263" gradientUnits="userSpaceOnUse">
			<stop stop-color="#FFD700" />
			<stop offset="0.435023" stop-color="#DEC956" />
			<stop offset="0.705023" stop-color="#ADA578" />
			<stop offset="1" stop-color="#C7AB15" />
		</linearGradient>
		<clipPath id="clip0_1_76">
			<rect x="48" y="48" width="254" height="319" rx="23" fill="white" />
		</clipPath>
	</defs>
</svg>
