<svg width="350" height="415" viewBox="0 0 350 415" fill="none" xmlns="http://www.w3.org/2000/svg">
	<g filter="url(#filter0_d_1_2)">
		<g clip-path="url(#clip0_1_2)">
			<rect x="48" y="48" width="254" height="319" rx="23" fill="#EBFFE6" />
			<path d="M122.192 339.2C118.192 339.2 113.792 338.8 108.992 338C104.192 337.467 101.792 335.733 101.792 332.8C101.792 329.6 103.526 327.467 106.992 326.4C110.459 325.333 114.326 324.533 118.592 324C133.792 321.867 147.392 317.733 159.392 311.6C171.392 305.2 180.726 297.733 187.392 289.2C194.326 280.4 197.792 271.467 197.792 262.4C197.792 252.533 195.392 244 190.592 236.8C185.792 229.333 178.059 222.667 167.392 216.8C156.992 210.933 143.392 205.467 126.592 200.4C117.259 197.467 110.859 194.533 107.392 191.6C104.192 188.667 102.592 184.4 102.592 178.8C102.592 175.067 103.392 169.733 104.992 162.8C106.592 155.6 108.326 148.133 110.192 140.4C112.326 132.4 114.326 125.333 116.192 119.2C118.059 112.8 119.126 108.667 119.392 106.8C120.992 99.8667 123.659 94.9333 127.392 92C131.126 89.0667 135.126 87.0667 139.392 86C144.192 84.9333 151.126 83.7333 160.192 82.4C169.526 80.8 179.259 79.2 189.392 77.6C199.526 76 208.459 74.6667 216.192 73.6C224.192 72.5333 229.126 72 230.992 72C233.126 72 234.726 72.9333 235.792 74.8C237.126 76.6666 237.659 78.6666 237.392 80.8C237.126 85.0667 235.792 89.8667 233.392 95.2C230.992 100.267 228.992 104.933 227.392 109.2C225.259 114.8 221.659 119.467 216.592 123.2C211.792 126.933 206.192 129.067 199.792 129.6C195.526 129.867 190.059 130.133 183.392 130.4C176.992 130.4 170.326 130.533 163.392 130.8C156.726 131.067 150.726 131.333 145.392 131.6C140.326 131.6 136.726 131.733 134.592 132C132.726 132.267 131.259 133.2 130.192 134.8C129.126 136.133 128.326 137.733 127.792 139.6C127.259 141.2 126.992 142.533 126.992 143.6C126.992 144.933 127.392 146 128.192 146.8C128.992 147.6 129.926 148.133 130.992 148.4C145.926 150.8 158.992 154.133 170.192 158.4C181.392 162.4 191.792 166.667 201.392 171.2C218.992 179.467 231.526 190 238.992 202.8C246.459 215.6 250.192 229.067 250.192 243.2C250.192 258.133 245.659 272.533 236.592 286.4C227.526 300.267 215.526 311.333 200.592 319.6C195.792 322.267 189.126 325.067 180.592 328C172.059 331.2 162.726 333.867 152.592 336C142.459 338.133 132.326 339.2 122.192 339.2Z" fill="black" fill-opacity="0.03" />
			<path d="M105.241 208.155L109.737 194.309L114.238 208.155H105.241ZM114.278 186.553H105.203L93 220.879L101.093 220.869L103.379 214.248H116.1L118.383 220.869L118.795 220.879H126.471L126.466 220.869H126.473L114.278 186.553ZM253.211 186.704H243.595L237.01 207.533L230.428 186.704H220.811L218.02 220.879H225.426L227.263 196.985L234.017 220.929H239.955L246.763 197.061L248.594 220.879H256V220.871L253.211 186.704ZM203.474 200.073C199.086 198.386 197.949 197.438 197.949 195.457C197.949 193.533 199.528 192.382 202.178 192.382C204.792 192.382 207.99 193.341 211.008 195.02L212.188 188.477C209.425 187.167 206.608 186.302 202.077 186.302C195.05 186.302 190.511 190.212 190.511 196.264C190.511 201.939 193.524 204.056 200.281 206.656C205.204 208.532 206.406 209.529 206.406 211.721C206.406 213.866 204.668 215.199 201.872 215.199C198.7 215.199 194.885 214.119 191.084 212.146L189.945 218.795C193.686 220.467 197.543 221.283 201.723 221.283C209.313 221.283 213.847 217.331 213.847 210.712C213.847 205.54 211.322 202.953 203.474 200.073ZM141.927 215.348H138.406V205.672H141.826C145.658 205.672 147.769 207.425 147.769 210.611C147.769 213.669 145.696 215.348 141.927 215.348ZM138.406 192.233H141.826C146.029 192.233 146.911 194.479 146.911 196.365C146.911 199.14 144.935 200.801 141.626 200.801H138.406V192.233ZM149.141 203.105L148.285 202.832L149.106 202.468C151.291 201.492 153.895 199.471 153.895 195.404C153.895 189.711 149.932 186.704 142.432 186.704H130.914V220.879H142.18C150.581 220.879 155.208 217.429 155.208 211.167C155.208 206.995 153.278 204.433 149.141 203.105ZM171.647 203.378H168.629V192.534H171.748C175.681 192.534 177.843 194.433 177.843 197.88C177.843 201.373 175.585 203.378 171.647 203.378ZM185.636 197.374C185.636 190.495 181.008 186.704 172.607 186.704H160.786V220.879H168.682V208.904H171.586L179 220.869H187.919L179.015 207.126L179.381 206.962C183.534 205.138 185.636 201.914 185.636 197.374ZM160.149 156.453L160.826 161.268C157.562 161.612 154.312 162.047 151.086 162.596L149.745 157.909C153.188 157.305 156.661 156.822 160.149 156.453ZM174.524 155.593V160.459C171.286 160.509 168.05 160.653 164.827 160.906L164.148 156.081C167.595 155.805 171.058 155.641 174.524 155.593ZM178.54 155.593C182.003 155.641 185.466 155.805 188.914 156.081L188.235 160.906C185.012 160.653 181.778 160.509 178.54 160.459V155.593ZM192.913 156.453C196.401 156.822 199.874 157.305 203.317 157.909L201.976 162.596C198.75 162.047 195.499 161.612 192.236 161.268L192.913 156.453ZM148.184 167.019L148.189 167.041L149.217 170.638C158.159 168.908 167.343 168.03 176.532 168.008C185.719 168.03 194.903 168.908 203.845 170.638L204.873 167.041L204.878 167.019L212.569 140.163C212.875 139.099 212.261 137.986 211.198 137.682C210.127 137.374 209.02 137.991 208.715 139.056L204.426 154.032C200.801 153.39 197.146 152.872 193.468 152.48L196.633 129.933C196.79 128.836 196.025 127.822 194.928 127.665C193.825 127.511 192.817 128.277 192.663 129.375L189.47 152.105C185.838 151.807 182.19 151.635 178.54 151.582V124.006C178.54 122.898 177.641 122 176.532 122C175.423 122 174.524 122.898 174.524 124.006V151.582C170.872 151.635 167.227 151.807 163.592 152.105L160.399 129.375C160.245 128.277 159.237 127.511 158.133 127.665C157.037 127.822 156.272 128.836 156.426 129.933L159.593 152.48C155.916 152.872 152.261 153.39 148.636 154.032L144.347 139.056C144.041 137.991 142.932 137.374 141.866 137.682C140.8 137.986 140.187 139.099 140.492 140.163L148.184 167.019ZM195.969 239.014H157.09C155.991 239.014 155.1 239.91 155.1 241.007C155.1 242.107 155.991 243 157.09 243H195.969C197.068 243 197.959 242.107 197.959 241.007C197.959 239.91 197.068 239.014 195.969 239.014Z" fill="url(#paint0_linear_1_2)" />
			<path d="M83.2937 277.072C83.1017 277.072 82.9577 277.04 82.8617 276.976C82.7817 276.912 82.7417 276.824 82.7417 276.712C82.7417 276.568 82.8137 276.48 82.9577 276.448C83.1017 276.4 83.2457 276.344 83.3897 276.28C83.7577 276.136 84.0777 275.904 84.3497 275.584C84.6377 275.264 84.8137 274.864 84.8777 274.384C84.9577 273.792 85.0457 272.984 85.1417 271.96C85.2377 270.92 85.3417 269.768 85.4537 268.504C85.5657 267.224 85.6777 265.928 85.7897 264.616C85.8057 264.536 85.8137 264.424 85.8137 264.28C85.8137 264.136 85.8137 263.976 85.8137 263.8C85.8137 263.48 85.7577 263.232 85.6457 263.056C85.5497 262.88 85.3977 262.736 85.1897 262.624C85.0137 262.528 84.8217 262.44 84.6137 262.36C84.4057 262.264 84.1817 262.184 83.9417 262.12C83.7497 262.072 83.5897 262.008 83.4617 261.928C83.3497 261.848 83.2937 261.736 83.2937 261.592C83.2937 261.448 83.3497 261.352 83.4617 261.304C83.5897 261.24 83.7417 261.208 83.9177 261.208C84.1737 261.208 84.4777 261.216 84.8297 261.232C85.1977 261.248 85.5977 261.264 86.0297 261.28C86.4617 261.28 86.9017 261.288 87.3497 261.304C87.8137 261.32 88.2617 261.328 88.6937 261.328C88.8217 261.328 88.9417 261.376 89.0537 261.472C89.1657 261.568 89.2377 261.664 89.2697 261.76C89.3977 262.08 89.5097 262.376 89.6057 262.648C89.7017 262.904 89.8137 263.192 89.9417 263.512L93.3977 271.648C93.4297 271.712 93.4617 271.744 93.4937 271.744C93.5417 271.744 93.5737 271.712 93.5897 271.648L96.7337 264.088C96.8617 263.464 96.9577 262.976 97.0217 262.624C97.1017 262.256 97.1737 261.976 97.2377 261.784C97.3017 261.576 97.4377 261.472 97.6457 261.472H98.7257C99.4297 261.44 100.166 261.392 100.934 261.328C101.718 261.248 102.334 261.208 102.782 261.208C102.958 261.208 103.102 261.24 103.214 261.304C103.342 261.352 103.406 261.448 103.406 261.592C103.406 261.736 103.35 261.84 103.238 261.904C103.126 261.968 102.998 262.024 102.854 262.072C102.79 262.088 102.702 262.12 102.59 262.168C102.494 262.216 102.414 262.256 102.35 262.288C101.87 262.512 101.518 262.76 101.294 263.032C101.086 263.304 100.998 263.744 101.03 264.352C101.078 265.52 101.126 266.52 101.174 267.352C101.222 268.184 101.262 268.952 101.294 269.656C101.342 270.36 101.39 271.104 101.438 271.888C101.502 272.656 101.566 273.576 101.63 274.648C101.662 275.048 101.838 275.376 102.158 275.632C102.478 275.872 102.878 276.056 103.358 276.184C103.502 276.232 103.622 276.288 103.718 276.352C103.83 276.416 103.886 276.528 103.886 276.688C103.886 276.8 103.838 276.888 103.742 276.952C103.662 277.016 103.558 277.048 103.43 277.048C103.094 277.048 102.678 277.04 102.182 277.024C101.702 277.008 101.222 276.992 100.742 276.976C100.262 276.96 99.8617 276.952 99.5417 276.952C99.2217 276.952 98.8457 276.96 98.4137 276.976C97.9977 276.992 97.5657 277.008 97.1177 277.024C96.6857 277.056 96.2937 277.072 95.9417 277.072C95.8137 277.072 95.6937 277.04 95.5817 276.976C95.4857 276.912 95.4377 276.824 95.4377 276.712C95.4377 276.568 95.4857 276.456 95.5817 276.376C95.6937 276.28 95.8217 276.216 95.9657 276.184C96.5737 276.056 96.9977 275.896 97.2377 275.704C97.4777 275.496 97.5817 275.152 97.5497 274.672C97.5017 273.712 97.4617 272.736 97.4297 271.744C97.3977 270.752 97.3657 269.776 97.3337 268.816C97.3177 267.84 97.2857 266.92 97.2377 266.056C97.2377 265.96 97.2137 265.92 97.1657 265.936C97.1177 265.936 97.0697 265.992 97.0217 266.104L92.6537 276.928C92.5577 277.184 92.4217 277.288 92.2457 277.24C92.0857 277.192 91.9737 277.104 91.9097 276.976C91.0777 275.12 90.2217 273.288 89.3417 271.48C88.4617 269.672 87.6777 267.92 86.9897 266.224C86.9257 266.064 86.8377 266.008 86.7257 266.056C86.6297 266.104 86.5737 266.232 86.5577 266.44C86.5257 267.16 86.5017 268 86.4857 268.96C86.4857 269.92 86.4937 270.888 86.5097 271.864C86.5257 272.84 86.5337 273.72 86.5337 274.504C86.5337 274.952 86.6777 275.304 86.9657 275.56C87.2537 275.816 87.7177 276.024 88.3577 276.184C88.5017 276.216 88.6457 276.272 88.7897 276.352C88.9337 276.416 89.0057 276.528 89.0057 276.688C89.0057 276.8 88.9417 276.888 88.8137 276.952C88.6857 277.016 88.5577 277.048 88.4297 277.048C87.9977 277.048 87.6617 277.04 87.4217 277.024C87.1817 277.008 86.9577 277 86.7497 277C86.5577 276.984 86.2937 276.976 85.9577 276.976C85.5897 276.976 85.1977 276.984 84.7817 277C84.3657 277.016 84.0137 277.032 83.7257 277.048C83.4377 277.064 83.2937 277.072 83.2937 277.072ZM113.315 277.336C111.795 277.336 110.523 277.064 109.499 276.52C108.491 275.976 107.731 275.224 107.219 274.264C106.707 273.288 106.451 272.152 106.451 270.856V264.136C106.451 263.72 106.347 263.32 106.139 262.936C105.947 262.536 105.635 262.28 105.203 262.168C104.771 262.056 104.555 261.88 104.555 261.64C104.555 261.528 104.611 261.44 104.723 261.376C104.851 261.312 105.003 261.28 105.179 261.28C105.707 261.28 106.267 261.304 106.859 261.352C107.451 261.384 107.987 261.4 108.467 261.4C108.931 261.4 109.507 261.384 110.195 261.352C110.899 261.32 111.499 261.304 111.995 261.304C112.187 261.304 112.339 261.336 112.451 261.4C112.563 261.448 112.619 261.536 112.619 261.664C112.619 261.856 112.483 262 112.211 262.096C111.955 262.176 111.699 262.28 111.443 262.408C111.187 262.52 110.971 262.728 110.795 263.032C110.635 263.32 110.555 263.736 110.555 264.28V270.472C110.555 271.528 110.723 272.4 111.059 273.088C111.395 273.76 111.835 274.256 112.379 274.576C112.939 274.896 113.547 275.056 114.203 275.056C115.611 275.056 116.667 274.656 117.371 273.856C118.075 273.04 118.427 271.76 118.427 270.016C118.427 269.584 118.427 269.112 118.427 268.6C118.443 268.088 118.451 267.568 118.451 267.04C118.467 266.512 118.467 266.016 118.451 265.552C118.435 264.768 118.379 264.176 118.283 263.776C118.187 263.36 118.043 263.048 117.851 262.84C117.675 262.616 117.427 262.424 117.107 262.264C116.931 262.168 116.723 262.088 116.483 262.024C116.243 261.944 116.123 261.824 116.123 261.664C116.123 261.536 116.187 261.448 116.315 261.4C116.443 261.336 116.619 261.304 116.843 261.304C117.467 261.304 117.931 261.32 118.235 261.352C118.539 261.368 118.883 261.376 119.267 261.376C119.571 261.376 119.819 261.368 120.011 261.352C120.219 261.336 120.427 261.32 120.635 261.304C120.859 261.288 121.139 261.28 121.475 261.28C121.651 261.28 121.795 261.304 121.907 261.352C122.019 261.4 122.075 261.496 122.075 261.64C122.075 261.864 121.867 262.04 121.451 262.168C120.891 262.328 120.499 262.584 120.275 262.936C120.067 263.272 119.947 263.744 119.915 264.352C119.867 265.52 119.835 266.6 119.819 267.592C119.803 268.584 119.795 269.6 119.795 270.64C119.795 271.952 119.507 273.112 118.931 274.12C118.355 275.128 117.571 275.92 116.579 276.496C115.603 277.056 114.515 277.336 113.315 277.336ZM127.598 277.336C126.91 277.336 126.238 277.256 125.582 277.096C124.926 276.952 124.31 276.704 123.734 276.352C123.622 276.272 123.51 276.184 123.398 276.088C123.302 275.976 123.23 275.864 123.182 275.752C123.006 275.288 122.886 274.736 122.822 274.096C122.758 273.44 122.742 272.76 122.774 272.056C122.774 271.944 122.814 271.864 122.894 271.816C122.99 271.768 123.102 271.744 123.23 271.744C123.406 271.744 123.518 271.768 123.566 271.816C123.63 271.864 123.694 271.944 123.758 272.056C124.126 273.24 124.662 274.224 125.366 275.008C126.086 275.792 126.934 276.184 127.91 276.184C128.406 276.184 128.806 276.072 129.11 275.848C129.43 275.608 129.662 275.32 129.806 274.984C129.966 274.632 130.046 274.296 130.046 273.976C130.046 273.496 129.95 273.088 129.758 272.752C129.566 272.416 129.27 272.104 128.87 271.816C128.47 271.528 127.95 271.216 127.31 270.88C126.638 270.512 125.982 270.112 125.342 269.68C124.718 269.248 124.206 268.72 123.806 268.096C123.406 267.472 123.206 266.688 123.206 265.744C123.206 264.784 123.462 263.96 123.974 263.272C124.502 262.568 125.198 262.024 126.062 261.64C126.942 261.256 127.902 261.064 128.942 261.064C129.55 261.064 130.142 261.128 130.718 261.256C131.31 261.384 131.782 261.52 132.134 261.664C132.342 261.744 132.486 261.832 132.566 261.928C132.646 262.008 132.726 262.184 132.806 262.456C132.886 262.792 132.942 263.208 132.974 263.704C133.022 264.184 133.046 264.736 133.046 265.36C133.046 265.568 132.894 265.672 132.59 265.672C132.462 265.672 132.334 265.64 132.206 265.576C132.094 265.496 132.022 265.4 131.99 265.288C131.734 264.296 131.334 263.552 130.79 263.056C130.246 262.544 129.582 262.288 128.798 262.288C128.302 262.288 127.894 262.368 127.574 262.528C127.27 262.688 127.038 262.92 126.878 263.224C126.734 263.512 126.662 263.88 126.662 264.328C126.662 264.68 126.79 265.016 127.046 265.336C127.302 265.656 127.67 265.984 128.15 266.32C128.646 266.64 129.222 267 129.878 267.4C130.806 267.944 131.526 268.472 132.038 268.984C132.55 269.496 132.91 270.032 133.118 270.592C133.326 271.136 133.43 271.76 133.43 272.464C133.43 273.6 133.182 274.528 132.686 275.248C132.206 275.968 131.526 276.496 130.646 276.832C129.782 277.168 128.766 277.336 127.598 277.336ZM135.062 277.072C134.966 277.072 134.87 277.04 134.774 276.976C134.678 276.912 134.63 276.824 134.63 276.712C134.63 276.44 134.782 276.264 135.086 276.184C135.694 276.056 136.11 275.896 136.334 275.704C136.558 275.512 136.67 275.168 136.67 274.672V263.776C136.67 263.264 136.566 262.904 136.358 262.696C136.15 262.488 135.726 262.312 135.086 262.168C134.782 262.088 134.63 261.912 134.63 261.64C134.63 261.528 134.678 261.44 134.774 261.376C134.87 261.312 134.966 261.28 135.062 261.28C135.414 261.28 135.806 261.288 136.238 261.304C136.686 261.32 137.118 261.344 137.534 261.376C137.966 261.392 138.342 261.4 138.662 261.4C138.982 261.4 139.366 261.392 139.814 261.376C140.262 261.36 140.718 261.344 141.182 261.328C141.646 261.312 142.046 261.304 142.382 261.304C142.51 261.304 142.606 261.336 142.67 261.4C142.734 261.448 142.766 261.536 142.766 261.664C142.766 261.824 142.726 261.936 142.646 262C142.566 262.064 142.454 262.12 142.31 262.168C141.654 262.36 141.23 262.56 141.038 262.768C140.846 262.976 140.75 263.32 140.75 263.8V274.648C140.75 275.096 140.854 275.424 141.062 275.632C141.27 275.824 141.686 276.008 142.31 276.184C142.454 276.232 142.566 276.288 142.646 276.352C142.726 276.416 142.766 276.528 142.766 276.688C142.766 276.8 142.734 276.888 142.67 276.952C142.606 277.016 142.51 277.048 142.382 277.048C142.046 277.048 141.646 277.04 141.182 277.024C140.718 277.008 140.262 276.992 139.814 276.976C139.366 276.96 138.982 276.952 138.662 276.952C138.342 276.952 137.966 276.96 137.534 276.976C137.118 276.992 136.686 277.008 136.238 277.024C135.806 277.056 135.414 277.072 135.062 277.072ZM152.825 277.336C151.561 277.336 150.377 277.152 149.273 276.784C148.169 276.4 147.201 275.864 146.369 275.176C145.537 274.472 144.889 273.64 144.425 272.68C143.961 271.704 143.729 270.624 143.729 269.44C143.729 268.352 143.945 267.312 144.377 266.32C144.809 265.312 145.441 264.416 146.273 263.632C147.121 262.848 148.153 262.224 149.369 261.76C150.585 261.296 151.969 261.064 153.521 261.064C154.017 261.064 154.529 261.104 155.057 261.184C155.601 261.264 156.121 261.368 156.617 261.496C157.129 261.624 157.569 261.768 157.937 261.928C158.065 261.992 158.177 262.072 158.273 262.168C158.385 262.264 158.449 262.4 158.465 262.576C158.545 263.152 158.593 263.696 158.609 264.208C158.641 264.704 158.657 265.128 158.657 265.48C158.657 265.672 158.585 265.8 158.441 265.864C158.313 265.928 158.169 265.928 158.009 265.864C157.865 265.8 157.761 265.672 157.697 265.48C157.585 265.16 157.457 264.824 157.313 264.472C157.185 264.12 156.985 263.816 156.713 263.56C156.393 263.224 155.953 262.944 155.393 262.72C154.833 262.496 154.137 262.384 153.305 262.384C152.505 262.384 151.785 262.56 151.145 262.912C150.505 263.248 149.961 263.72 149.513 264.328C149.065 264.92 148.721 265.6 148.481 266.368C148.241 267.12 148.121 267.912 148.121 268.744C148.121 269.816 148.225 270.8 148.433 271.696C148.641 272.576 148.961 273.336 149.393 273.976C149.825 274.616 150.361 275.112 151.001 275.464C151.657 275.8 152.425 275.968 153.305 275.968C154.505 275.968 155.465 275.72 156.185 275.224C156.921 274.728 157.537 273.944 158.033 272.872C158.161 272.584 158.345 272.448 158.585 272.464C158.825 272.48 158.945 272.616 158.945 272.872C158.945 273.096 158.921 273.36 158.873 273.664C158.841 273.952 158.785 274.272 158.705 274.624C158.641 274.96 158.553 275.32 158.441 275.704C158.393 275.88 158.313 276.024 158.201 276.136C158.089 276.248 157.961 276.344 157.817 276.424C157.209 276.696 156.489 276.912 155.657 277.072C154.825 277.248 153.881 277.336 152.825 277.336ZM170.923 277.072C170.827 277.072 170.715 277.04 170.587 276.976C170.475 276.912 170.419 276.824 170.419 276.712C170.419 276.568 170.467 276.456 170.563 276.376C170.675 276.28 170.803 276.216 170.947 276.184C171.555 276.056 171.987 275.896 172.243 275.704C172.515 275.512 172.651 275.168 172.651 274.672V264.64C172.651 264.032 172.635 263.592 172.603 263.32C172.571 263.032 172.531 262.848 172.483 262.768C172.435 262.672 172.371 262.608 172.291 262.576C172.179 262.496 172.003 262.448 171.763 262.432C171.539 262.416 171.387 262.408 171.307 262.408H170.899C170.371 262.408 169.867 262.544 169.387 262.816C168.907 263.088 168.523 263.416 168.235 263.8C168.155 263.912 168.035 264.072 167.875 264.28C167.715 264.488 167.547 264.672 167.371 264.832C167.195 264.992 167.019 265.072 166.843 265.072C166.699 265.072 166.595 265.032 166.531 264.952C166.483 264.856 166.459 264.752 166.459 264.64C166.459 264.432 166.515 264.216 166.627 263.992C166.947 263.368 167.179 262.832 167.323 262.384C167.483 261.936 167.587 261.416 167.635 260.824C167.667 260.6 167.739 260.44 167.851 260.344C167.963 260.248 168.099 260.2 168.259 260.2C168.387 260.2 168.515 260.304 168.643 260.512C168.771 260.72 168.915 260.888 169.075 261.016C169.251 261.144 169.531 261.24 169.915 261.304C170.299 261.368 170.595 261.4 170.803 261.4L179.971 261.376C180.339 261.376 180.651 261.336 180.907 261.256C181.179 261.176 181.371 261.104 181.483 261.04C181.755 260.88 181.971 260.704 182.131 260.512C182.291 260.32 182.475 260.224 182.683 260.224C182.795 260.224 182.867 260.256 182.899 260.32C182.947 260.384 182.971 260.48 182.971 260.608C182.971 260.672 182.963 260.744 182.947 260.824C182.947 260.904 182.939 260.984 182.923 261.064C182.843 261.384 182.755 261.704 182.659 262.024C182.579 262.328 182.507 262.624 182.443 262.912C182.395 263.2 182.371 263.488 182.371 263.776V264.28C182.371 264.568 182.339 264.792 182.275 264.952C182.227 265.096 182.123 265.168 181.963 265.168C181.803 265.168 181.667 265.096 181.555 264.952C181.459 264.808 181.355 264.568 181.243 264.232C181.035 263.592 180.755 263.128 180.403 262.84C180.051 262.552 179.531 262.408 178.843 262.408H177.859C177.603 262.408 177.387 262.472 177.211 262.6C177.051 262.728 176.931 262.976 176.851 263.344C176.771 263.696 176.731 264.224 176.731 264.928V274.648C176.731 275.096 176.851 275.424 177.091 275.632C177.347 275.824 177.787 276.008 178.411 276.184C178.555 276.232 178.675 276.288 178.771 276.352C178.883 276.416 178.939 276.528 178.939 276.688C178.939 276.8 178.891 276.888 178.795 276.952C178.715 277.016 178.611 277.048 178.483 277.048C178.147 277.048 177.739 277.04 177.259 277.024C176.779 277.008 176.299 276.992 175.819 276.976C175.355 276.96 174.963 276.952 174.643 276.952C174.323 276.952 173.939 276.96 173.491 276.976C173.043 276.992 172.587 277.008 172.123 277.024C171.675 277.056 171.275 277.072 170.923 277.072ZM183.647 277.072C183.551 277.072 183.455 277.04 183.359 276.976C183.263 276.912 183.215 276.824 183.215 276.712C183.215 276.44 183.367 276.264 183.671 276.184C184.215 276.056 184.591 275.896 184.799 275.704C185.007 275.512 185.111 275.168 185.111 274.672V263.776C185.111 263.264 185.007 262.904 184.799 262.696C184.607 262.488 184.231 262.312 183.671 262.168C183.367 262.088 183.215 261.912 183.215 261.64C183.215 261.528 183.263 261.44 183.359 261.376C183.455 261.312 183.551 261.28 183.647 261.28C183.999 261.28 184.383 261.288 184.799 261.304C185.215 261.32 185.623 261.344 186.023 261.376C186.423 261.392 186.783 261.4 187.103 261.4C187.423 261.4 187.807 261.392 188.255 261.376C188.703 261.36 189.159 261.344 189.623 261.328C190.087 261.312 190.487 261.304 190.823 261.304C191.079 261.304 191.207 261.424 191.207 261.664C191.207 261.824 191.167 261.936 191.087 262C191.007 262.064 190.895 262.12 190.751 262.168C190.095 262.36 189.671 262.56 189.479 262.768C189.287 262.976 189.191 263.32 189.191 263.8V268.048C189.191 268.176 189.223 268.272 189.287 268.336C189.367 268.384 189.463 268.408 189.575 268.408H195.359C195.583 268.408 195.695 268.288 195.695 268.048V263.8C195.695 263.32 195.599 262.976 195.407 262.768C195.215 262.56 194.791 262.36 194.135 262.168C193.991 262.12 193.879 262.064 193.799 262C193.719 261.936 193.679 261.824 193.679 261.664C193.679 261.424 193.807 261.304 194.063 261.304C194.399 261.304 194.799 261.312 195.263 261.328C195.727 261.344 196.183 261.36 196.631 261.376C197.095 261.392 197.479 261.4 197.783 261.4C198.103 261.4 198.463 261.392 198.863 261.376C199.263 261.344 199.671 261.32 200.087 261.304C200.503 261.288 200.887 261.28 201.239 261.28C201.335 261.28 201.431 261.312 201.527 261.376C201.623 261.44 201.671 261.528 201.671 261.64C201.671 261.912 201.519 262.088 201.215 262.168C200.655 262.312 200.271 262.488 200.063 262.696C199.871 262.904 199.775 263.264 199.775 263.776V274.672C199.775 275.168 199.879 275.512 200.087 275.704C200.295 275.896 200.671 276.056 201.215 276.184C201.519 276.264 201.671 276.44 201.671 276.712C201.671 276.824 201.623 276.912 201.527 276.976C201.431 277.04 201.335 277.072 201.239 277.072C200.935 277.072 200.575 277.056 200.159 277.024C199.743 277.008 199.319 276.992 198.887 276.976C198.471 276.96 198.103 276.952 197.783 276.952C197.479 276.952 197.095 276.96 196.631 276.976C196.183 276.992 195.727 277.008 195.263 277.024C194.799 277.04 194.399 277.048 194.063 277.048C193.951 277.048 193.855 277.016 193.775 276.952C193.711 276.888 193.679 276.8 193.679 276.688C193.679 276.528 193.719 276.416 193.799 276.352C193.879 276.288 193.991 276.232 194.135 276.184C194.759 276.008 195.175 275.824 195.383 275.632C195.591 275.424 195.695 275.096 195.695 274.648V270.184C195.695 270.056 195.671 269.96 195.623 269.896C195.575 269.816 195.487 269.776 195.359 269.776H189.575C189.319 269.776 189.191 269.912 189.191 270.184V274.648C189.191 275.096 189.295 275.424 189.503 275.632C189.711 275.824 190.127 276.008 190.751 276.184C190.895 276.232 191.007 276.288 191.087 276.352C191.167 276.416 191.207 276.528 191.207 276.688C191.207 276.8 191.175 276.888 191.111 276.952C191.047 277.016 190.951 277.048 190.823 277.048C190.487 277.048 190.087 277.04 189.623 277.024C189.159 277.008 188.703 276.992 188.255 276.976C187.807 276.96 187.423 276.952 187.103 276.952C186.783 276.952 186.407 276.96 185.975 276.976C185.559 276.992 185.143 277.008 184.727 277.024C184.311 277.056 183.951 277.072 183.647 277.072ZM202.867 277.12C202.723 277.12 202.611 277.08 202.531 277C202.451 276.92 202.411 276.832 202.411 276.736C202.411 276.496 202.571 276.328 202.891 276.232C203.419 276.072 203.787 275.904 203.995 275.728C204.219 275.552 204.331 275.216 204.331 274.72V263.776C204.331 263.264 204.227 262.904 204.019 262.696C203.827 262.472 203.451 262.296 202.891 262.168C202.699 262.12 202.563 262.048 202.483 261.952C202.419 261.856 202.387 261.76 202.387 261.664C202.387 261.552 202.427 261.464 202.507 261.4C202.603 261.32 202.723 261.28 202.867 261.28C203.219 261.28 203.603 261.288 204.019 261.304C204.435 261.32 204.843 261.344 205.243 261.376C205.643 261.392 206.003 261.4 206.323 261.4C207.219 261.4 208.179 261.392 209.203 261.376C210.227 261.36 211.131 261.344 211.915 261.328C212.427 261.328 212.843 261.296 213.163 261.232C213.499 261.168 213.699 261.136 213.763 261.136C213.891 261.136 214.019 261.176 214.147 261.256C214.291 261.32 214.371 261.448 214.387 261.64C214.451 262.232 214.531 262.816 214.627 263.392C214.739 263.952 214.795 264.448 214.795 264.88C214.795 265.04 214.763 265.16 214.699 265.24C214.635 265.32 214.563 265.36 214.483 265.36C214.403 265.36 214.315 265.328 214.219 265.264C214.123 265.2 214.043 265.096 213.979 264.952C213.803 264.52 213.643 264.16 213.499 263.872C213.371 263.568 213.219 263.328 213.043 263.152C212.867 262.976 212.643 262.808 212.371 262.648C212.099 262.472 211.739 262.384 211.291 262.384H209.779C209.379 262.384 209.051 262.48 208.795 262.672C208.539 262.864 208.411 263.136 208.411 263.488V267.904C208.411 268.112 208.467 268.264 208.579 268.36C208.691 268.44 208.843 268.48 209.035 268.48H211.075C211.491 268.48 211.787 268.328 211.963 268.024C212.155 267.72 212.323 267.376 212.467 266.992C212.595 266.704 212.763 266.56 212.971 266.56C213.051 266.56 213.123 266.608 213.187 266.704C213.251 266.8 213.275 266.936 213.259 267.112C213.243 267.336 213.219 267.56 213.187 267.784C213.171 268.008 213.155 268.232 213.139 268.456C213.139 268.664 213.139 268.88 213.139 269.104C213.139 269.312 213.139 269.528 213.139 269.752C213.155 269.96 213.171 270.176 213.187 270.4C213.203 270.624 213.219 270.856 213.235 271.096C213.267 271.336 213.251 271.512 213.187 271.624C213.139 271.72 213.075 271.768 212.995 271.768C212.723 271.768 212.531 271.576 212.419 271.192C212.275 270.68 212.107 270.288 211.915 270.016C211.739 269.744 211.499 269.608 211.195 269.608H208.939C208.763 269.608 208.627 269.656 208.531 269.752C208.451 269.848 208.411 269.984 208.411 270.16V274.696C208.411 275.144 208.507 275.464 208.699 275.656C208.891 275.832 209.187 275.92 209.587 275.92H211.723C212.043 275.92 212.355 275.88 212.659 275.8C212.979 275.704 213.251 275.56 213.475 275.368C213.747 275.144 213.995 274.856 214.219 274.504C214.459 274.152 214.667 273.8 214.843 273.448C214.907 273.32 214.971 273.24 215.035 273.208C215.115 273.176 215.203 273.16 215.299 273.16C215.395 273.16 215.459 273.216 215.491 273.328C215.523 273.424 215.539 273.528 215.539 273.64C215.539 273.928 215.499 274.24 215.419 274.576C215.339 274.912 215.235 275.272 215.107 275.656C214.995 276.024 214.883 276.408 214.771 276.808C214.739 276.92 214.667 276.992 214.555 277.024C214.443 277.072 214.323 277.096 214.195 277.096C214.115 277.096 213.803 277.088 213.259 277.072C212.715 277.072 212.035 277.064 211.219 277.048C210.419 277.032 209.579 277.016 208.699 277C207.835 277 207.043 277 206.323 277C206.003 277 205.635 277.008 205.219 277.024C204.803 277.04 204.387 277.056 203.971 277.072C203.555 277.104 203.187 277.12 202.867 277.12ZM224.879 277.336C223.759 277.336 222.695 277.152 221.687 276.784C220.679 276.4 219.783 275.864 218.999 275.176C218.215 274.472 217.599 273.64 217.151 272.68C216.703 271.704 216.479 270.624 216.479 269.44C216.479 268.352 216.663 267.312 217.031 266.32C217.399 265.312 217.943 264.416 218.663 263.632C219.399 262.848 220.303 262.224 221.375 261.76C222.447 261.296 223.687 261.064 225.095 261.064C226.215 261.064 227.279 261.256 228.287 261.64C229.295 262.008 230.191 262.544 230.975 263.248C231.759 263.936 232.375 264.768 232.823 265.744C233.271 266.704 233.495 267.776 233.495 268.96C233.495 270.032 233.311 271.072 232.943 272.08C232.575 273.088 232.023 273.984 231.287 274.768C230.567 275.552 229.671 276.176 228.599 276.64C227.527 277.104 226.287 277.336 224.879 277.336ZM225.311 276.208C226.159 276.208 226.863 275.952 227.423 275.44C227.999 274.928 228.431 274.224 228.719 273.328C229.007 272.416 229.151 271.376 229.151 270.208C229.151 269.248 229.063 268.296 228.887 267.352C228.711 266.408 228.439 265.552 228.071 264.784C227.703 264 227.231 263.376 226.655 262.912C226.095 262.448 225.415 262.216 224.615 262.216C223.783 262.216 223.079 262.472 222.503 262.984C221.943 263.496 221.519 264.2 221.231 265.096C220.959 265.992 220.823 267.024 220.823 268.192C220.823 269.152 220.911 270.104 221.087 271.048C221.263 271.992 221.527 272.856 221.879 273.64C222.247 274.408 222.711 275.032 223.271 275.512C223.847 275.976 224.527 276.208 225.311 276.208ZM249.618 277.504C248.722 277.504 247.97 277.392 247.362 277.168C246.77 276.944 246.274 276.656 245.874 276.304C245.474 275.936 245.114 275.536 244.794 275.104C244.458 274.64 244.13 274.176 243.81 273.712C243.49 273.232 243.178 272.728 242.874 272.2C242.57 271.656 242.266 271.056 241.962 270.4C241.802 270.048 241.61 269.808 241.386 269.68C241.29 269.616 241.186 269.576 241.074 269.56C240.978 269.528 240.89 269.512 240.81 269.512C240.73 269.512 240.666 269.56 240.618 269.656C240.586 269.736 240.57 269.848 240.57 269.992V274.648C240.57 275.144 240.706 275.488 240.978 275.68C241.266 275.872 241.754 276.04 242.442 276.184C242.586 276.216 242.698 276.272 242.778 276.352C242.858 276.416 242.898 276.528 242.898 276.688C242.898 276.8 242.866 276.888 242.802 276.952C242.738 277.016 242.642 277.048 242.514 277.048C242.178 277.048 241.754 277.04 241.242 277.024C240.73 277.008 240.218 276.992 239.706 276.976C239.21 276.96 238.802 276.952 238.482 276.952C238.162 276.952 237.786 276.96 237.354 276.976C236.938 276.992 236.506 277.008 236.058 277.024C235.626 277.056 235.234 277.072 234.882 277.072C234.786 277.072 234.69 277.04 234.594 276.976C234.498 276.912 234.45 276.824 234.45 276.712C234.45 276.44 234.602 276.264 234.906 276.184C235.514 276.056 235.93 275.896 236.154 275.704C236.378 275.512 236.49 275.168 236.49 274.672V263.776C236.49 263.424 236.45 263.152 236.37 262.96C236.29 262.752 236.146 262.592 235.938 262.48C235.73 262.352 235.434 262.248 235.05 262.168C234.858 262.12 234.722 262.048 234.642 261.952C234.578 261.856 234.546 261.76 234.546 261.664C234.546 261.552 234.586 261.464 234.666 261.4C234.762 261.32 234.882 261.28 235.026 261.28C235.554 261.28 235.994 261.296 236.346 261.328C236.698 261.36 237.034 261.392 237.354 261.424C237.674 261.456 238.042 261.472 238.458 261.472C238.842 261.472 239.178 261.456 239.466 261.424C239.77 261.376 240.106 261.336 240.474 261.304C240.842 261.256 241.322 261.232 241.914 261.232C243.802 261.232 245.258 261.552 246.282 262.192C247.322 262.816 247.842 263.776 247.842 265.072C247.842 265.792 247.682 266.4 247.362 266.896C247.042 267.376 246.642 267.768 246.162 268.072C245.682 268.36 245.194 268.576 244.698 268.72C244.634 268.736 244.602 268.776 244.602 268.84C244.618 268.904 244.642 268.96 244.674 269.008C245.154 269.712 245.618 270.392 246.066 271.048C246.53 271.704 246.994 272.312 247.458 272.872C247.922 273.416 248.386 273.912 248.85 274.36C249.41 274.888 249.986 275.2 250.578 275.296C251.186 275.392 251.77 275.44 252.33 275.44C252.57 275.44 252.69 275.592 252.69 275.896C252.69 276.28 252.562 276.592 252.306 276.832C252.066 277.056 251.714 277.224 251.25 277.336C250.786 277.448 250.242 277.504 249.618 277.504ZM241.41 268.696C241.986 268.696 242.458 268.568 242.826 268.312C243.194 268.056 243.466 267.704 243.642 267.256C243.834 266.792 243.93 266.256 243.93 265.648C243.93 264.88 243.834 264.256 243.642 263.776C243.45 263.296 243.17 262.944 242.802 262.72C242.45 262.48 242.018 262.36 241.506 262.36C241.186 262.36 240.946 262.496 240.786 262.768C240.642 263.04 240.57 263.64 240.57 264.568C240.57 264.92 240.57 265.368 240.57 265.912C240.57 266.44 240.57 267.064 240.57 267.784C240.57 268.104 240.642 268.336 240.786 268.48C240.946 268.624 241.154 268.696 241.41 268.696ZM255.317 277.144C255.109 277.144 254.941 277.104 254.813 277.024C254.701 276.944 254.645 276.848 254.645 276.736C254.645 276.592 254.717 276.48 254.861 276.4C255.005 276.304 255.165 276.24 255.341 276.208C255.949 276.08 256.365 275.864 256.589 275.56C256.813 275.256 256.925 274.856 256.925 274.36V271.096C256.925 270.488 256.845 270 256.685 269.632C256.541 269.264 256.357 268.896 256.133 268.528L252.989 263.704C252.845 263.48 252.693 263.272 252.533 263.08C252.373 262.872 252.181 262.688 251.957 262.528C251.749 262.368 251.485 262.248 251.165 262.168C251.021 262.12 250.893 262.064 250.781 262C250.685 261.936 250.637 261.824 250.637 261.664C250.637 261.536 250.685 261.448 250.781 261.4C250.877 261.336 250.981 261.304 251.093 261.304C251.845 261.304 252.541 261.328 253.181 261.376C253.821 261.424 254.501 261.448 255.221 261.448C255.781 261.448 256.309 261.424 256.805 261.376C257.317 261.312 257.869 261.28 258.461 261.28C258.589 261.28 258.725 261.312 258.869 261.376C259.029 261.44 259.109 261.528 259.109 261.64C259.109 261.784 259.029 261.904 258.869 262C258.725 262.08 258.581 262.136 258.437 262.168C257.957 262.28 257.613 262.4 257.405 262.528C257.197 262.656 257.093 262.856 257.093 263.128C257.093 263.384 257.181 263.664 257.357 263.968L259.877 268.264C259.989 268.472 260.117 268.576 260.261 268.576C260.325 268.576 260.381 268.552 260.429 268.504C260.493 268.44 260.557 268.36 260.621 268.264C261.005 267.576 261.373 266.896 261.725 266.224C262.077 265.536 262.421 264.824 262.757 264.088C262.821 263.96 262.877 263.816 262.925 263.656C262.973 263.48 262.997 263.32 262.997 263.176C262.997 262.856 262.853 262.616 262.565 262.456C262.277 262.28 261.965 262.184 261.629 262.168C261.469 262.152 261.309 262.096 261.149 262C260.989 261.904 260.909 261.784 260.909 261.64C260.909 261.528 260.981 261.448 261.125 261.4C261.285 261.336 261.445 261.304 261.605 261.304C262.085 261.304 262.525 261.328 262.925 261.376C263.325 261.408 263.749 261.424 264.197 261.424C264.597 261.424 264.981 261.392 265.349 261.328C265.717 261.264 266.141 261.232 266.621 261.232C266.797 261.232 266.957 261.264 267.101 261.328C267.261 261.376 267.341 261.48 267.341 261.64C267.341 261.8 267.269 261.912 267.125 261.976C266.997 262.024 266.861 262.072 266.717 262.12C266.237 262.248 265.821 262.448 265.469 262.72C265.117 262.992 264.845 263.296 264.653 263.632C264.413 264.032 264.165 264.44 263.909 264.856C263.653 265.256 263.397 265.656 263.141 266.056C262.901 266.456 262.653 266.856 262.397 267.256C262.157 267.656 261.917 268.064 261.677 268.48C261.565 268.688 261.453 268.912 261.341 269.152C261.245 269.392 261.165 269.656 261.101 269.944C261.037 270.216 261.005 270.52 261.005 270.856V274.336C261.005 274.944 261.109 275.368 261.317 275.608C261.541 275.832 261.965 276.032 262.589 276.208C262.765 276.256 262.925 276.312 263.069 276.376C263.213 276.44 263.285 276.552 263.285 276.712C263.285 276.824 263.221 276.92 263.093 277C262.981 277.08 262.837 277.12 262.661 277.12C262.325 277.12 261.925 277.104 261.461 277.072C260.997 277.04 260.533 277.008 260.069 276.976C259.621 276.944 259.237 276.928 258.917 276.928C258.597 276.928 258.221 276.944 257.789 276.976C257.373 277.008 256.941 277.04 256.493 277.072C256.061 277.12 255.669 277.144 255.317 277.144Z" fill="#292929" />
		</g>
	</g>
	<defs>
		<filter id="filter0_d_1_2" x="0.799999" y="0.799999" width="348.4" height="413.4" filterUnits="userSpaceOnUse" color-interpolation-filters="sRGB">
			<feFlood flood-opacity="0" result="BackgroundImageFix" />
			<feColorMatrix in="SourceAlpha" type="matrix" values="0 0 0 0 0 0 0 0 0 0 0 0 0 0 0 0 0 0 127 0" result="hardAlpha" />
			<feOffset />
			<feGaussianBlur stdDeviation="23.6" />
			<feComposite in2="hardAlpha" operator="out" />
			<feColorMatrix type="matrix" values="0 0 0 0 0 0 0 0 0 0 0 0 0 0 0 0 0 0 0.07 0" />
			<feBlend mode="normal" in2="BackgroundImageFix" result="effect1_dropShadow_1_2" />
			<feBlend mode="normal" in="SourceGraphic" in2="effect1_dropShadow_1_2" result="shape" />
		</filter>
		<linearGradient id="paint0_linear_1_2" x1="86" y1="112" x2="240" y2="263" gradientUnits="userSpaceOnUse">
			<stop stop-color="#FFD700" />
			<stop offset="0.435023" stop-color="#DEC956" />
			<stop offset="0.705023" stop-color="#ADA578" />
			<stop offset="1" stop-color="#C7AB15" />
		</linearGradient>
		<clipPath id="clip0_1_2">
			<rect x="48" y="48" width="254" height="319" rx="23" fill="white" />
		</clipPath>
	</defs>
</svg>
