<svg width="254" height="319" viewBox="0 0 254 319" fill="none" xmlns="http://www.w3.org/2000/svg">
<g clip-path="url(#clip0_1_2)">
<rect width="254" height="319" fill="#EBFFE6"/>
<path d="M74.1922 291.2C70.1922 291.2 65.7922 290.8 60.9922 290C56.1922 289.467 53.7922 287.733 53.7922 284.8C53.7922 281.6 55.5255 279.467 58.9922 278.4C62.4589 277.333 66.3255 276.533 70.5922 276C85.7922 273.867 99.3922 269.733 111.392 263.6C123.392 257.2 132.726 249.733 139.392 241.2C146.326 232.4 149.792 223.467 149.792 214.4C149.792 204.533 147.392 196 142.592 188.8C137.792 181.333 130.059 174.667 119.392 168.8C108.992 162.933 95.3922 157.467 78.5922 152.4C69.2589 149.467 62.8589 146.533 59.3922 143.6C56.1922 140.667 54.5922 136.4 54.5922 130.8C54.5922 127.067 55.3922 121.733 56.9922 114.8C58.5922 107.6 60.3255 100.133 62.1922 92.4C64.3255 84.4 66.3255 77.3333 68.1922 71.2C70.0589 64.8 71.1255 60.6667 71.3922 58.8C72.9922 51.8667 75.6589 46.9333 79.3922 44C83.1255 41.0667 87.1255 39.0667 91.3922 38C96.1922 36.9333 103.126 35.7333 112.192 34.4C121.526 32.8 131.259 31.2 141.392 29.6C151.526 28 160.459 26.6667 168.192 25.6C176.192 24.5333 181.126 24 182.992 24C185.126 24 186.726 24.9333 187.792 26.8C189.126 28.6666 189.659 30.6666 189.392 32.8C189.126 37.0667 187.792 41.8667 185.392 47.2C182.992 52.2667 180.992 56.9333 179.392 61.2C177.259 66.8 173.659 71.4667 168.592 75.2C163.792 78.9333 158.192 81.0667 151.792 81.6C147.526 81.8667 142.059 82.1333 135.392 82.4C128.992 82.4 122.326 82.5333 115.392 82.8C108.726 83.0667 102.726 83.3333 97.3922 83.6C92.3255 83.6 88.7255 83.7333 86.5922 84C84.7255 84.2667 83.2589 85.2 82.1922 86.8C81.1255 88.1333 80.3255 89.7333 79.7922 91.6C79.2589 93.2 78.9922 94.5333 78.9922 95.6C78.9922 96.9333 79.3922 98 80.1922 98.8C80.9922 99.6 81.9255 100.133 82.9922 100.4C97.9255 102.8 110.992 106.133 122.192 110.4C133.392 114.4 143.792 118.667 153.392 123.2C170.992 131.467 183.526 142 190.992 154.8C198.459 167.6 202.192 181.067 202.192 195.2C202.192 210.133 197.659 224.533 188.592 238.4C179.526 252.267 167.526 263.333 152.592 271.6C147.792 274.267 141.126 277.067 132.592 280C124.059 283.2 114.726 285.867 104.592 288C94.4589 290.133 84.3255 291.2 74.1922 291.2Z" fill="black" fill-opacity="0.03"/>
<path d="M57.2406 160.155L61.7367 146.309L66.2379 160.155H57.2406ZM66.2783 138.553H57.2027L45 172.879L53.093 172.869L55.379 166.248H68.0995L70.3829 172.869L70.7947 172.879H78.4709L78.4659 172.869H78.4735L66.2783 138.553ZM205.211 138.704H195.595L189.01 159.533L182.428 138.704H172.811L170.02 172.879H177.426L179.263 148.985L186.017 172.929H191.955L198.763 149.061L200.594 172.879H208V172.871L205.211 138.704ZM155.474 152.073C151.086 150.386 149.949 149.438 149.949 147.457C149.949 145.533 151.528 144.382 154.178 144.382C156.792 144.382 159.99 145.341 163.008 147.02L164.188 140.477C161.425 139.167 158.608 138.302 154.077 138.302C147.05 138.302 142.511 142.212 142.511 148.264C142.511 153.939 145.524 156.056 152.281 158.656C157.204 160.532 158.406 161.529 158.406 163.721C158.406 165.866 156.668 167.199 153.872 167.199C150.7 167.199 146.885 166.119 143.084 164.146L141.945 170.795C145.686 172.467 149.543 173.283 153.723 173.283C161.313 173.283 165.847 169.331 165.847 162.712C165.847 157.54 163.322 154.953 155.474 152.073ZM93.927 167.348H90.4059V157.672H93.826C97.6578 157.672 99.7695 159.425 99.7695 162.611C99.7695 165.669 97.6957 167.348 93.927 167.348ZM90.4059 144.233H93.826C98.0291 144.233 98.9107 146.479 98.9107 148.365C98.9107 151.14 96.9354 152.801 93.6264 152.801H90.4059V144.233ZM101.141 155.105L100.285 154.832L101.106 154.468C103.291 153.492 105.895 151.471 105.895 147.404C105.895 141.711 101.932 138.704 94.4322 138.704H82.914V172.879H94.1796C102.581 172.879 107.208 169.429 107.208 163.167C107.208 158.995 105.278 156.433 101.141 155.105ZM123.647 155.378H120.629V144.534H123.748C127.681 144.534 129.843 146.433 129.843 149.88C129.843 153.373 127.585 155.378 123.647 155.378ZM137.636 149.374C137.636 142.495 133.008 138.704 124.607 138.704H112.786V172.879H120.682V160.904H123.586L131 172.869H139.919L131.015 159.126L131.381 158.962C135.534 157.138 137.636 153.914 137.636 149.374ZM112.149 108.453L112.826 113.268C109.562 113.612 106.312 114.047 103.086 114.596L101.745 109.909C105.188 109.305 108.661 108.822 112.149 108.453ZM126.524 107.593V112.459C123.286 112.509 120.05 112.653 116.827 112.906L116.148 108.081C119.595 107.805 123.058 107.641 126.524 107.593ZM130.54 107.593C134.003 107.641 137.466 107.805 140.914 108.081L140.235 112.906C137.012 112.653 133.778 112.509 130.54 112.459V107.593ZM144.913 108.453C148.401 108.822 151.874 109.305 155.317 109.909L153.976 114.596C150.75 114.047 147.499 113.612 144.236 113.268L144.913 108.453ZM100.184 119.019L100.189 119.041L101.217 122.638C110.159 120.908 119.343 120.03 128.532 120.008C137.719 120.03 146.903 120.908 155.845 122.638L156.873 119.041L156.878 119.019L164.569 92.1633C164.875 91.0986 164.261 89.9858 163.198 89.6823C162.127 89.3738 161.02 89.9909 160.715 91.0556L156.426 106.032C152.801 105.39 149.146 104.872 145.468 104.48L148.633 81.9335C148.79 80.8359 148.025 79.8218 146.928 79.665C145.825 79.5107 144.817 80.277 144.663 81.3746L141.47 104.105C137.838 103.807 134.19 103.635 130.54 103.582V76.0055C130.54 74.8978 129.641 74 128.532 74C127.423 74 126.524 74.8978 126.524 76.0055V103.582C122.872 103.635 119.227 103.807 115.592 104.105L112.399 81.3746C112.245 80.277 111.237 79.5107 110.133 79.665C109.037 79.8218 108.272 80.8359 108.426 81.9335L111.593 104.48C107.916 104.872 104.261 105.39 100.636 106.032L96.3469 91.0556C96.0412 89.9909 94.9323 89.3738 93.8664 89.6823C92.8005 89.9858 92.1867 91.0986 92.4923 92.1633L100.184 119.019ZM147.969 191.014H109.09C107.991 191.014 107.1 191.91 107.1 193.007C107.1 194.107 107.991 195 109.09 195H147.969C149.068 195 149.959 194.107 149.959 193.007C149.959 191.91 149.068 191.014 147.969 191.014Z" fill="url(#paint0_linear_1_2)"/>
<path d="M35.2937 229.072C35.1017 229.072 34.9577 229.04 34.8617 228.976C34.7817 228.912 34.7417 228.824 34.7417 228.712C34.7417 228.568 34.8137 228.48 34.9577 228.448C35.1017 228.4 35.2457 228.344 35.3897 228.28C35.7577 228.136 36.0777 227.904 36.3497 227.584C36.6377 227.264 36.8137 226.864 36.8777 226.384C36.9577 225.792 37.0457 224.984 37.1417 223.96C37.2377 222.92 37.3417 221.768 37.4537 220.504C37.5657 219.224 37.6777 217.928 37.7897 216.616C37.8057 216.536 37.8137 216.424 37.8137 216.28C37.8137 216.136 37.8137 215.976 37.8137 215.8C37.8137 215.48 37.7577 215.232 37.6457 215.056C37.5497 214.88 37.3977 214.736 37.1897 214.624C37.0137 214.528 36.8217 214.44 36.6137 214.36C36.4057 214.264 36.1817 214.184 35.9417 214.12C35.7497 214.072 35.5897 214.008 35.4617 213.928C35.3497 213.848 35.2937 213.736 35.2937 213.592C35.2937 213.448 35.3497 213.352 35.4617 213.304C35.5897 213.24 35.7417 213.208 35.9177 213.208C36.1737 213.208 36.4777 213.216 36.8297 213.232C37.1977 213.248 37.5977 213.264 38.0297 213.28C38.4617 213.28 38.9017 213.288 39.3497 213.304C39.8137 213.32 40.2617 213.328 40.6937 213.328C40.8217 213.328 40.9417 213.376 41.0537 213.472C41.1657 213.568 41.2377 213.664 41.2697 213.76C41.3977 214.08 41.5097 214.376 41.6057 214.648C41.7017 214.904 41.8137 215.192 41.9417 215.512L45.3977 223.648C45.4297 223.712 45.4617 223.744 45.4937 223.744C45.5417 223.744 45.5737 223.712 45.5897 223.648L48.7337 216.088C48.8617 215.464 48.9577 214.976 49.0217 214.624C49.1017 214.256 49.1737 213.976 49.2377 213.784C49.3017 213.576 49.4377 213.472 49.6457 213.472H50.7257C51.4297 213.44 52.1657 213.392 52.9337 213.328C53.7177 213.248 54.3337 213.208 54.7817 213.208C54.9577 213.208 55.1017 213.24 55.2137 213.304C55.3417 213.352 55.4057 213.448 55.4057 213.592C55.4057 213.736 55.3497 213.84 55.2377 213.904C55.1257 213.968 54.9977 214.024 54.8537 214.072C54.7897 214.088 54.7017 214.12 54.5897 214.168C54.4937 214.216 54.4137 214.256 54.3497 214.288C53.8697 214.512 53.5177 214.76 53.2937 215.032C53.0857 215.304 52.9977 215.744 53.0297 216.352C53.0777 217.52 53.1257 218.52 53.1737 219.352C53.2217 220.184 53.2617 220.952 53.2937 221.656C53.3417 222.36 53.3897 223.104 53.4377 223.888C53.5017 224.656 53.5657 225.576 53.6297 226.648C53.6617 227.048 53.8377 227.376 54.1577 227.632C54.4777 227.872 54.8777 228.056 55.3577 228.184C55.5017 228.232 55.6217 228.288 55.7177 228.352C55.8297 228.416 55.8857 228.528 55.8857 228.688C55.8857 228.8 55.8377 228.888 55.7417 228.952C55.6617 229.016 55.5577 229.048 55.4297 229.048C55.0937 229.048 54.6777 229.04 54.1817 229.024C53.7017 229.008 53.2217 228.992 52.7417 228.976C52.2617 228.96 51.8617 228.952 51.5417 228.952C51.2217 228.952 50.8457 228.96 50.4137 228.976C49.9977 228.992 49.5657 229.008 49.1177 229.024C48.6857 229.056 48.2937 229.072 47.9417 229.072C47.8137 229.072 47.6937 229.04 47.5817 228.976C47.4857 228.912 47.4377 228.824 47.4377 228.712C47.4377 228.568 47.4857 228.456 47.5817 228.376C47.6937 228.28 47.8217 228.216 47.9657 228.184C48.5737 228.056 48.9977 227.896 49.2377 227.704C49.4777 227.496 49.5817 227.152 49.5497 226.672C49.5017 225.712 49.4617 224.736 49.4297 223.744C49.3977 222.752 49.3657 221.776 49.3337 220.816C49.3177 219.84 49.2857 218.92 49.2377 218.056C49.2377 217.96 49.2137 217.92 49.1657 217.936C49.1177 217.936 49.0697 217.992 49.0217 218.104L44.6537 228.928C44.5577 229.184 44.4217 229.288 44.2457 229.24C44.0857 229.192 43.9737 229.104 43.9097 228.976C43.0777 227.12 42.2217 225.288 41.3417 223.48C40.4617 221.672 39.6777 219.92 38.9897 218.224C38.9257 218.064 38.8377 218.008 38.7257 218.056C38.6297 218.104 38.5737 218.232 38.5577 218.44C38.5257 219.16 38.5017 220 38.4857 220.96C38.4857 221.92 38.4937 222.888 38.5097 223.864C38.5257 224.84 38.5337 225.72 38.5337 226.504C38.5337 226.952 38.6777 227.304 38.9657 227.56C39.2537 227.816 39.7177 228.024 40.3577 228.184C40.5017 228.216 40.6457 228.272 40.7897 228.352C40.9337 228.416 41.0057 228.528 41.0057 228.688C41.0057 228.8 40.9417 228.888 40.8137 228.952C40.6857 229.016 40.5577 229.048 40.4297 229.048C39.9977 229.048 39.6617 229.04 39.4217 229.024C39.1817 229.008 38.9577 229 38.7497 229C38.5577 228.984 38.2937 228.976 37.9577 228.976C37.5897 228.976 37.1977 228.984 36.7817 229C36.3657 229.016 36.0137 229.032 35.7257 229.048C35.4377 229.064 35.2937 229.072 35.2937 229.072ZM65.3153 229.336C63.7953 229.336 62.5233 229.064 61.4993 228.52C60.4913 227.976 59.7313 227.224 59.2193 226.264C58.7073 225.288 58.4513 224.152 58.4513 222.856V216.136C58.4513 215.72 58.3473 215.32 58.1393 214.936C57.9473 214.536 57.6353 214.28 57.2033 214.168C56.7713 214.056 56.5553 213.88 56.5553 213.64C56.5553 213.528 56.6113 213.44 56.7233 213.376C56.8513 213.312 57.0033 213.28 57.1793 213.28C57.7073 213.28 58.2673 213.304 58.8593 213.352C59.4513 213.384 59.9873 213.4 60.4673 213.4C60.9313 213.4 61.5073 213.384 62.1953 213.352C62.8993 213.32 63.4993 213.304 63.9953 213.304C64.1873 213.304 64.3393 213.336 64.4513 213.4C64.5633 213.448 64.6193 213.536 64.6193 213.664C64.6193 213.856 64.4833 214 64.2113 214.096C63.9553 214.176 63.6993 214.28 63.4433 214.408C63.1873 214.52 62.9713 214.728 62.7953 215.032C62.6353 215.32 62.5553 215.736 62.5553 216.28V222.472C62.5553 223.528 62.7233 224.4 63.0593 225.088C63.3953 225.76 63.8353 226.256 64.3793 226.576C64.9393 226.896 65.5473 227.056 66.2033 227.056C67.6113 227.056 68.6673 226.656 69.3713 225.856C70.0753 225.04 70.4273 223.76 70.4273 222.016C70.4273 221.584 70.4273 221.112 70.4273 220.6C70.4433 220.088 70.4513 219.568 70.4513 219.04C70.4673 218.512 70.4673 218.016 70.4513 217.552C70.4353 216.768 70.3793 216.176 70.2833 215.776C70.1873 215.36 70.0433 215.048 69.8513 214.84C69.6753 214.616 69.4273 214.424 69.1073 214.264C68.9313 214.168 68.7233 214.088 68.4833 214.024C68.2433 213.944 68.1233 213.824 68.1233 213.664C68.1233 213.536 68.1873 213.448 68.3153 213.4C68.4433 213.336 68.6193 213.304 68.8433 213.304C69.4673 213.304 69.9313 213.32 70.2353 213.352C70.5393 213.368 70.8833 213.376 71.2673 213.376C71.5713 213.376 71.8193 213.368 72.0113 213.352C72.2193 213.336 72.4273 213.32 72.6353 213.304C72.8593 213.288 73.1393 213.28 73.4753 213.28C73.6513 213.28 73.7953 213.304 73.9073 213.352C74.0193 213.4 74.0753 213.496 74.0753 213.64C74.0753 213.864 73.8673 214.04 73.4513 214.168C72.8913 214.328 72.4993 214.584 72.2753 214.936C72.0673 215.272 71.9473 215.744 71.9153 216.352C71.8673 217.52 71.8353 218.6 71.8193 219.592C71.8033 220.584 71.7953 221.6 71.7953 222.64C71.7953 223.952 71.5073 225.112 70.9313 226.12C70.3553 227.128 69.5713 227.92 68.5793 228.496C67.6033 229.056 66.5153 229.336 65.3153 229.336ZM79.5975 229.336C78.9095 229.336 78.2375 229.256 77.5815 229.096C76.9255 228.952 76.3095 228.704 75.7335 228.352C75.6215 228.272 75.5095 228.184 75.3975 228.088C75.3015 227.976 75.2295 227.864 75.1815 227.752C75.0055 227.288 74.8855 226.736 74.8215 226.096C74.7575 225.44 74.7415 224.76 74.7735 224.056C74.7735 223.944 74.8135 223.864 74.8935 223.816C74.9895 223.768 75.1015 223.744 75.2295 223.744C75.4055 223.744 75.5175 223.768 75.5655 223.816C75.6295 223.864 75.6935 223.944 75.7575 224.056C76.1255 225.24 76.6615 226.224 77.3655 227.008C78.0855 227.792 78.9335 228.184 79.9095 228.184C80.4055 228.184 80.8055 228.072 81.1095 227.848C81.4295 227.608 81.6615 227.32 81.8055 226.984C81.9655 226.632 82.0455 226.296 82.0455 225.976C82.0455 225.496 81.9495 225.088 81.7575 224.752C81.5655 224.416 81.2695 224.104 80.8695 223.816C80.4695 223.528 79.9495 223.216 79.3095 222.88C78.6375 222.512 77.9815 222.112 77.3415 221.68C76.7175 221.248 76.2055 220.72 75.8055 220.096C75.4055 219.472 75.2055 218.688 75.2055 217.744C75.2055 216.784 75.4615 215.96 75.9735 215.272C76.5015 214.568 77.1975 214.024 78.0615 213.64C78.9415 213.256 79.9015 213.064 80.9415 213.064C81.5495 213.064 82.1415 213.128 82.7175 213.256C83.3095 213.384 83.7815 213.52 84.1335 213.664C84.3415 213.744 84.4855 213.832 84.5655 213.928C84.6455 214.008 84.7255 214.184 84.8055 214.456C84.8855 214.792 84.9415 215.208 84.9735 215.704C85.0215 216.184 85.0455 216.736 85.0455 217.36C85.0455 217.568 84.8935 217.672 84.5895 217.672C84.4615 217.672 84.3335 217.64 84.2055 217.576C84.0935 217.496 84.0215 217.4 83.9895 217.288C83.7335 216.296 83.3335 215.552 82.7895 215.056C82.2455 214.544 81.5815 214.288 80.7975 214.288C80.3015 214.288 79.8935 214.368 79.5735 214.528C79.2695 214.688 79.0375 214.92 78.8775 215.224C78.7335 215.512 78.6615 215.88 78.6615 216.328C78.6615 216.68 78.7895 217.016 79.0455 217.336C79.3015 217.656 79.6695 217.984 80.1495 218.32C80.6455 218.64 81.2215 219 81.8775 219.4C82.8055 219.944 83.5255 220.472 84.0375 220.984C84.5495 221.496 84.9095 222.032 85.1175 222.592C85.3255 223.136 85.4295 223.76 85.4295 224.464C85.4295 225.6 85.1815 226.528 84.6855 227.248C84.2055 227.968 83.5255 228.496 82.6455 228.832C81.7815 229.168 80.7655 229.336 79.5975 229.336ZM87.0615 229.072C86.9655 229.072 86.8695 229.04 86.7735 228.976C86.6775 228.912 86.6295 228.824 86.6295 228.712C86.6295 228.44 86.7815 228.264 87.0855 228.184C87.6935 228.056 88.1095 227.896 88.3335 227.704C88.5575 227.512 88.6695 227.168 88.6695 226.672V215.776C88.6695 215.264 88.5655 214.904 88.3575 214.696C88.1495 214.488 87.7255 214.312 87.0855 214.168C86.7815 214.088 86.6295 213.912 86.6295 213.64C86.6295 213.528 86.6775 213.44 86.7735 213.376C86.8695 213.312 86.9655 213.28 87.0615 213.28C87.4135 213.28 87.8055 213.288 88.2375 213.304C88.6855 213.32 89.1175 213.344 89.5335 213.376C89.9655 213.392 90.3415 213.4 90.6615 213.4C90.9815 213.4 91.3655 213.392 91.8135 213.376C92.2615 213.36 92.7175 213.344 93.1815 213.328C93.6455 213.312 94.0455 213.304 94.3815 213.304C94.5095 213.304 94.6055 213.336 94.6695 213.4C94.7335 213.448 94.7655 213.536 94.7655 213.664C94.7655 213.824 94.7255 213.936 94.6455 214C94.5655 214.064 94.4535 214.12 94.3095 214.168C93.6535 214.36 93.2295 214.56 93.0375 214.768C92.8455 214.976 92.7495 215.32 92.7495 215.8V226.648C92.7495 227.096 92.8535 227.424 93.0615 227.632C93.2695 227.824 93.6855 228.008 94.3095 228.184C94.4535 228.232 94.5655 228.288 94.6455 228.352C94.7255 228.416 94.7655 228.528 94.7655 228.688C94.7655 228.8 94.7335 228.888 94.6695 228.952C94.6055 229.016 94.5095 229.048 94.3815 229.048C94.0455 229.048 93.6455 229.04 93.1815 229.024C92.7175 229.008 92.2615 228.992 91.8135 228.976C91.3655 228.96 90.9815 228.952 90.6615 228.952C90.3415 228.952 89.9655 228.96 89.5335 228.976C89.1175 228.992 88.6855 229.008 88.2375 229.024C87.8055 229.056 87.4135 229.072 87.0615 229.072ZM104.825 229.336C103.561 229.336 102.377 229.152 101.273 228.784C100.169 228.4 99.2009 227.864 98.3689 227.176C97.5369 226.472 96.8889 225.64 96.4249 224.68C95.9609 223.704 95.7289 222.624 95.7289 221.44C95.7289 220.352 95.9449 219.312 96.3769 218.32C96.8089 217.312 97.4409 216.416 98.2729 215.632C99.1209 214.848 100.153 214.224 101.369 213.76C102.585 213.296 103.969 213.064 105.521 213.064C106.017 213.064 106.529 213.104 107.057 213.184C107.601 213.264 108.121 213.368 108.617 213.496C109.129 213.624 109.569 213.768 109.937 213.928C110.065 213.992 110.177 214.072 110.273 214.168C110.385 214.264 110.449 214.4 110.465 214.576C110.545 215.152 110.593 215.696 110.609 216.208C110.641 216.704 110.657 217.128 110.657 217.48C110.657 217.672 110.585 217.8 110.441 217.864C110.313 217.928 110.169 217.928 110.009 217.864C109.865 217.8 109.761 217.672 109.697 217.48C109.585 217.16 109.457 216.824 109.313 216.472C109.185 216.12 108.985 215.816 108.713 215.56C108.393 215.224 107.953 214.944 107.393 214.72C106.833 214.496 106.137 214.384 105.305 214.384C104.505 214.384 103.785 214.56 103.145 214.912C102.505 215.248 101.961 215.72 101.513 216.328C101.065 216.92 100.721 217.6 100.481 218.368C100.241 219.12 100.121 219.912 100.121 220.744C100.121 221.816 100.225 222.8 100.433 223.696C100.641 224.576 100.961 225.336 101.393 225.976C101.825 226.616 102.361 227.112 103.001 227.464C103.657 227.8 104.425 227.968 105.305 227.968C106.505 227.968 107.465 227.72 108.185 227.224C108.921 226.728 109.537 225.944 110.033 224.872C110.161 224.584 110.345 224.448 110.585 224.464C110.825 224.48 110.945 224.616 110.945 224.872C110.945 225.096 110.921 225.36 110.873 225.664C110.841 225.952 110.785 226.272 110.705 226.624C110.641 226.96 110.553 227.32 110.441 227.704C110.393 227.88 110.313 228.024 110.201 228.136C110.089 228.248 109.961 228.344 109.817 228.424C109.209 228.696 108.489 228.912 107.657 229.072C106.825 229.248 105.881 229.336 104.825 229.336ZM122.923 229.072C122.827 229.072 122.715 229.04 122.587 228.976C122.475 228.912 122.419 228.824 122.419 228.712C122.419 228.568 122.467 228.456 122.563 228.376C122.675 228.28 122.803 228.216 122.947 228.184C123.555 228.056 123.987 227.896 124.243 227.704C124.515 227.512 124.651 227.168 124.651 226.672V216.64C124.651 216.032 124.635 215.592 124.603 215.32C124.571 215.032 124.531 214.848 124.483 214.768C124.435 214.672 124.371 214.608 124.291 214.576C124.179 214.496 124.003 214.448 123.763 214.432C123.539 214.416 123.387 214.408 123.307 214.408H122.899C122.371 214.408 121.867 214.544 121.387 214.816C120.907 215.088 120.523 215.416 120.235 215.8C120.155 215.912 120.035 216.072 119.875 216.28C119.715 216.488 119.547 216.672 119.371 216.832C119.195 216.992 119.019 217.072 118.843 217.072C118.699 217.072 118.595 217.032 118.531 216.952C118.483 216.856 118.459 216.752 118.459 216.64C118.459 216.432 118.515 216.216 118.627 215.992C118.947 215.368 119.179 214.832 119.323 214.384C119.483 213.936 119.587 213.416 119.635 212.824C119.667 212.6 119.739 212.44 119.851 212.344C119.963 212.248 120.099 212.2 120.259 212.2C120.387 212.2 120.515 212.304 120.643 212.512C120.771 212.72 120.915 212.888 121.075 213.016C121.251 213.144 121.531 213.24 121.915 213.304C122.299 213.368 122.595 213.4 122.803 213.4L131.971 213.376C132.339 213.376 132.651 213.336 132.907 213.256C133.179 213.176 133.371 213.104 133.483 213.04C133.755 212.88 133.971 212.704 134.131 212.512C134.291 212.32 134.475 212.224 134.683 212.224C134.795 212.224 134.867 212.256 134.899 212.32C134.947 212.384 134.971 212.48 134.971 212.608C134.971 212.672 134.963 212.744 134.947 212.824C134.947 212.904 134.939 212.984 134.923 213.064C134.843 213.384 134.755 213.704 134.659 214.024C134.579 214.328 134.507 214.624 134.443 214.912C134.395 215.2 134.371 215.488 134.371 215.776V216.28C134.371 216.568 134.339 216.792 134.275 216.952C134.227 217.096 134.123 217.168 133.963 217.168C133.803 217.168 133.667 217.096 133.555 216.952C133.459 216.808 133.355 216.568 133.243 216.232C133.035 215.592 132.755 215.128 132.403 214.84C132.051 214.552 131.531 214.408 130.843 214.408H129.859C129.603 214.408 129.387 214.472 129.211 214.6C129.051 214.728 128.931 214.976 128.851 215.344C128.771 215.696 128.731 216.224 128.731 216.928V226.648C128.731 227.096 128.851 227.424 129.091 227.632C129.347 227.824 129.787 228.008 130.411 228.184C130.555 228.232 130.675 228.288 130.771 228.352C130.883 228.416 130.939 228.528 130.939 228.688C130.939 228.8 130.891 228.888 130.795 228.952C130.715 229.016 130.611 229.048 130.483 229.048C130.147 229.048 129.739 229.04 129.259 229.024C128.779 229.008 128.299 228.992 127.819 228.976C127.355 228.96 126.963 228.952 126.643 228.952C126.323 228.952 125.939 228.96 125.491 228.976C125.043 228.992 124.587 229.008 124.123 229.024C123.675 229.056 123.275 229.072 122.923 229.072ZM135.647 229.072C135.551 229.072 135.455 229.04 135.359 228.976C135.263 228.912 135.215 228.824 135.215 228.712C135.215 228.44 135.367 228.264 135.671 228.184C136.215 228.056 136.591 227.896 136.799 227.704C137.007 227.512 137.111 227.168 137.111 226.672V215.776C137.111 215.264 137.007 214.904 136.799 214.696C136.607 214.488 136.231 214.312 135.671 214.168C135.367 214.088 135.215 213.912 135.215 213.64C135.215 213.528 135.263 213.44 135.359 213.376C135.455 213.312 135.551 213.28 135.647 213.28C135.999 213.28 136.383 213.288 136.799 213.304C137.215 213.32 137.623 213.344 138.023 213.376C138.423 213.392 138.783 213.4 139.103 213.4C139.423 213.4 139.807 213.392 140.255 213.376C140.703 213.36 141.159 213.344 141.623 213.328C142.087 213.312 142.487 213.304 142.823 213.304C143.079 213.304 143.207 213.424 143.207 213.664C143.207 213.824 143.167 213.936 143.087 214C143.007 214.064 142.895 214.12 142.751 214.168C142.095 214.36 141.671 214.56 141.479 214.768C141.287 214.976 141.191 215.32 141.191 215.8V220.048C141.191 220.176 141.223 220.272 141.287 220.336C141.367 220.384 141.463 220.408 141.575 220.408H147.359C147.583 220.408 147.695 220.288 147.695 220.048V215.8C147.695 215.32 147.599 214.976 147.407 214.768C147.215 214.56 146.791 214.36 146.135 214.168C145.991 214.12 145.879 214.064 145.799 214C145.719 213.936 145.679 213.824 145.679 213.664C145.679 213.424 145.807 213.304 146.063 213.304C146.399 213.304 146.799 213.312 147.263 213.328C147.727 213.344 148.183 213.36 148.631 213.376C149.095 213.392 149.479 213.4 149.783 213.4C150.103 213.4 150.463 213.392 150.863 213.376C151.263 213.344 151.671 213.32 152.087 213.304C152.503 213.288 152.887 213.28 153.239 213.28C153.335 213.28 153.431 213.312 153.527 213.376C153.623 213.44 153.671 213.528 153.671 213.64C153.671 213.912 153.519 214.088 153.215 214.168C152.655 214.312 152.271 214.488 152.063 214.696C151.871 214.904 151.775 215.264 151.775 215.776V226.672C151.775 227.168 151.879 227.512 152.087 227.704C152.295 227.896 152.671 228.056 153.215 228.184C153.519 228.264 153.671 228.44 153.671 228.712C153.671 228.824 153.623 228.912 153.527 228.976C153.431 229.04 153.335 229.072 153.239 229.072C152.935 229.072 152.575 229.056 152.159 229.024C151.743 229.008 151.319 228.992 150.887 228.976C150.471 228.96 150.103 228.952 149.783 228.952C149.479 228.952 149.095 228.96 148.631 228.976C148.183 228.992 147.727 229.008 147.263 229.024C146.799 229.04 146.399 229.048 146.063 229.048C145.951 229.048 145.855 229.016 145.775 228.952C145.711 228.888 145.679 228.8 145.679 228.688C145.679 228.528 145.719 228.416 145.799 228.352C145.879 228.288 145.991 228.232 146.135 228.184C146.759 228.008 147.175 227.824 147.383 227.632C147.591 227.424 147.695 227.096 147.695 226.648V222.184C147.695 222.056 147.671 221.96 147.623 221.896C147.575 221.816 147.487 221.776 147.359 221.776H141.575C141.319 221.776 141.191 221.912 141.191 222.184V226.648C141.191 227.096 141.295 227.424 141.503 227.632C141.711 227.824 142.127 228.008 142.751 228.184C142.895 228.232 143.007 228.288 143.087 228.352C143.167 228.416 143.207 228.528 143.207 228.688C143.207 228.8 143.175 228.888 143.111 228.952C143.047 229.016 142.951 229.048 142.823 229.048C142.487 229.048 142.087 229.04 141.623 229.024C141.159 229.008 140.703 228.992 140.255 228.976C139.807 228.96 139.423 228.952 139.103 228.952C138.783 228.952 138.407 228.96 137.975 228.976C137.559 228.992 137.143 229.008 136.727 229.024C136.311 229.056 135.951 229.072 135.647 229.072ZM154.867 229.12C154.723 229.12 154.611 229.08 154.531 229C154.451 228.92 154.411 228.832 154.411 228.736C154.411 228.496 154.571 228.328 154.891 228.232C155.419 228.072 155.787 227.904 155.995 227.728C156.219 227.552 156.331 227.216 156.331 226.72V215.776C156.331 215.264 156.227 214.904 156.019 214.696C155.827 214.472 155.451 214.296 154.891 214.168C154.699 214.12 154.563 214.048 154.483 213.952C154.419 213.856 154.387 213.76 154.387 213.664C154.387 213.552 154.427 213.464 154.507 213.4C154.603 213.32 154.723 213.28 154.867 213.28C155.219 213.28 155.603 213.288 156.019 213.304C156.435 213.32 156.843 213.344 157.243 213.376C157.643 213.392 158.003 213.4 158.323 213.4C159.219 213.4 160.179 213.392 161.203 213.376C162.227 213.36 163.131 213.344 163.915 213.328C164.427 213.328 164.843 213.296 165.163 213.232C165.499 213.168 165.699 213.136 165.763 213.136C165.891 213.136 166.019 213.176 166.147 213.256C166.291 213.32 166.371 213.448 166.387 213.64C166.451 214.232 166.531 214.816 166.627 215.392C166.739 215.952 166.795 216.448 166.795 216.88C166.795 217.04 166.763 217.16 166.699 217.24C166.635 217.32 166.563 217.36 166.483 217.36C166.403 217.36 166.315 217.328 166.219 217.264C166.123 217.2 166.043 217.096 165.979 216.952C165.803 216.52 165.643 216.16 165.499 215.872C165.371 215.568 165.219 215.328 165.043 215.152C164.867 214.976 164.643 214.808 164.371 214.648C164.099 214.472 163.739 214.384 163.291 214.384H161.779C161.379 214.384 161.051 214.48 160.795 214.672C160.539 214.864 160.411 215.136 160.411 215.488V219.904C160.411 220.112 160.467 220.264 160.579 220.36C160.691 220.44 160.843 220.48 161.035 220.48H163.075C163.491 220.48 163.787 220.328 163.963 220.024C164.155 219.72 164.323 219.376 164.467 218.992C164.595 218.704 164.763 218.56 164.971 218.56C165.051 218.56 165.123 218.608 165.187 218.704C165.251 218.8 165.275 218.936 165.259 219.112C165.243 219.336 165.219 219.56 165.187 219.784C165.171 220.008 165.155 220.232 165.139 220.456C165.139 220.664 165.139 220.88 165.139 221.104C165.139 221.312 165.139 221.528 165.139 221.752C165.155 221.96 165.171 222.176 165.187 222.4C165.203 222.624 165.219 222.856 165.235 223.096C165.267 223.336 165.251 223.512 165.187 223.624C165.139 223.72 165.075 223.768 164.995 223.768C164.723 223.768 164.531 223.576 164.419 223.192C164.275 222.68 164.107 222.288 163.915 222.016C163.739 221.744 163.499 221.608 163.195 221.608H160.939C160.763 221.608 160.627 221.656 160.531 221.752C160.451 221.848 160.411 221.984 160.411 222.16V226.696C160.411 227.144 160.507 227.464 160.699 227.656C160.891 227.832 161.187 227.92 161.587 227.92H163.723C164.043 227.92 164.355 227.88 164.659 227.8C164.979 227.704 165.251 227.56 165.475 227.368C165.747 227.144 165.995 226.856 166.219 226.504C166.459 226.152 166.667 225.8 166.843 225.448C166.907 225.32 166.971 225.24 167.035 225.208C167.115 225.176 167.203 225.16 167.299 225.16C167.395 225.16 167.459 225.216 167.491 225.328C167.523 225.424 167.539 225.528 167.539 225.64C167.539 225.928 167.499 226.24 167.419 226.576C167.339 226.912 167.235 227.272 167.107 227.656C166.995 228.024 166.883 228.408 166.771 228.808C166.739 228.92 166.667 228.992 166.555 229.024C166.443 229.072 166.323 229.096 166.195 229.096C166.115 229.096 165.803 229.088 165.259 229.072C164.715 229.072 164.035 229.064 163.219 229.048C162.419 229.032 161.579 229.016 160.699 229C159.835 229 159.043 229 158.323 229C158.003 229 157.635 229.008 157.219 229.024C156.803 229.04 156.387 229.056 155.971 229.072C155.555 229.104 155.187 229.12 154.867 229.12ZM176.879 229.336C175.759 229.336 174.695 229.152 173.687 228.784C172.679 228.4 171.783 227.864 170.999 227.176C170.215 226.472 169.599 225.64 169.151 224.68C168.703 223.704 168.479 222.624 168.479 221.44C168.479 220.352 168.663 219.312 169.031 218.32C169.399 217.312 169.943 216.416 170.663 215.632C171.399 214.848 172.303 214.224 173.375 213.76C174.447 213.296 175.687 213.064 177.095 213.064C178.215 213.064 179.279 213.256 180.287 213.64C181.295 214.008 182.191 214.544 182.975 215.248C183.759 215.936 184.375 216.768 184.823 217.744C185.271 218.704 185.495 219.776 185.495 220.96C185.495 222.032 185.311 223.072 184.943 224.08C184.575 225.088 184.023 225.984 183.287 226.768C182.567 227.552 181.671 228.176 180.599 228.64C179.527 229.104 178.287 229.336 176.879 229.336ZM177.311 228.208C178.159 228.208 178.863 227.952 179.423 227.44C179.999 226.928 180.431 226.224 180.719 225.328C181.007 224.416 181.151 223.376 181.151 222.208C181.151 221.248 181.063 220.296 180.887 219.352C180.711 218.408 180.439 217.552 180.071 216.784C179.703 216 179.231 215.376 178.655 214.912C178.095 214.448 177.415 214.216 176.615 214.216C175.783 214.216 175.079 214.472 174.503 214.984C173.943 215.496 173.519 216.2 173.231 217.096C172.959 217.992 172.823 219.024 172.823 220.192C172.823 221.152 172.911 222.104 173.087 223.048C173.263 223.992 173.527 224.856 173.879 225.64C174.247 226.408 174.711 227.032 175.271 227.512C175.847 227.976 176.527 228.208 177.311 228.208ZM201.618 229.504C200.722 229.504 199.97 229.392 199.362 229.168C198.77 228.944 198.274 228.656 197.874 228.304C197.474 227.936 197.114 227.536 196.794 227.104C196.458 226.64 196.13 226.176 195.81 225.712C195.49 225.232 195.178 224.728 194.874 224.2C194.57 223.656 194.266 223.056 193.962 222.4C193.802 222.048 193.61 221.808 193.386 221.68C193.29 221.616 193.186 221.576 193.074 221.56C192.978 221.528 192.89 221.512 192.81 221.512C192.73 221.512 192.666 221.56 192.618 221.656C192.586 221.736 192.57 221.848 192.57 221.992V226.648C192.57 227.144 192.706 227.488 192.978 227.68C193.266 227.872 193.754 228.04 194.442 228.184C194.586 228.216 194.698 228.272 194.778 228.352C194.858 228.416 194.898 228.528 194.898 228.688C194.898 228.8 194.866 228.888 194.802 228.952C194.738 229.016 194.642 229.048 194.514 229.048C194.178 229.048 193.754 229.04 193.242 229.024C192.73 229.008 192.218 228.992 191.706 228.976C191.21 228.96 190.802 228.952 190.482 228.952C190.162 228.952 189.786 228.96 189.354 228.976C188.938 228.992 188.506 229.008 188.058 229.024C187.626 229.056 187.234 229.072 186.882 229.072C186.786 229.072 186.69 229.04 186.594 228.976C186.498 228.912 186.45 228.824 186.45 228.712C186.45 228.44 186.602 228.264 186.906 228.184C187.514 228.056 187.93 227.896 188.154 227.704C188.378 227.512 188.49 227.168 188.49 226.672V215.776C188.49 215.424 188.45 215.152 188.37 214.96C188.29 214.752 188.146 214.592 187.938 214.48C187.73 214.352 187.434 214.248 187.05 214.168C186.858 214.12 186.722 214.048 186.642 213.952C186.578 213.856 186.546 213.76 186.546 213.664C186.546 213.552 186.586 213.464 186.666 213.4C186.762 213.32 186.882 213.28 187.026 213.28C187.554 213.28 187.994 213.296 188.346 213.328C188.698 213.36 189.034 213.392 189.354 213.424C189.674 213.456 190.042 213.472 190.458 213.472C190.842 213.472 191.178 213.456 191.466 213.424C191.77 213.376 192.106 213.336 192.474 213.304C192.842 213.256 193.322 213.232 193.914 213.232C195.802 213.232 197.258 213.552 198.282 214.192C199.322 214.816 199.842 215.776 199.842 217.072C199.842 217.792 199.682 218.4 199.362 218.896C199.042 219.376 198.642 219.768 198.162 220.072C197.682 220.36 197.194 220.576 196.698 220.72C196.634 220.736 196.602 220.776 196.602 220.84C196.618 220.904 196.642 220.96 196.674 221.008C197.154 221.712 197.618 222.392 198.066 223.048C198.53 223.704 198.994 224.312 199.458 224.872C199.922 225.416 200.386 225.912 200.85 226.36C201.41 226.888 201.986 227.2 202.578 227.296C203.186 227.392 203.77 227.44 204.33 227.44C204.57 227.44 204.69 227.592 204.69 227.896C204.69 228.28 204.562 228.592 204.306 228.832C204.066 229.056 203.714 229.224 203.25 229.336C202.786 229.448 202.242 229.504 201.618 229.504ZM193.41 220.696C193.986 220.696 194.458 220.568 194.826 220.312C195.194 220.056 195.466 219.704 195.642 219.256C195.834 218.792 195.93 218.256 195.93 217.648C195.93 216.88 195.834 216.256 195.642 215.776C195.45 215.296 195.17 214.944 194.802 214.72C194.45 214.48 194.018 214.36 193.506 214.36C193.186 214.36 192.946 214.496 192.786 214.768C192.642 215.04 192.57 215.64 192.57 216.568C192.57 216.92 192.57 217.368 192.57 217.912C192.57 218.44 192.57 219.064 192.57 219.784C192.57 220.104 192.642 220.336 192.786 220.48C192.946 220.624 193.154 220.696 193.41 220.696ZM207.317 229.144C207.109 229.144 206.941 229.104 206.813 229.024C206.701 228.944 206.645 228.848 206.645 228.736C206.645 228.592 206.717 228.48 206.861 228.4C207.005 228.304 207.165 228.24 207.341 228.208C207.949 228.08 208.365 227.864 208.589 227.56C208.813 227.256 208.925 226.856 208.925 226.36V223.096C208.925 222.488 208.845 222 208.685 221.632C208.541 221.264 208.357 220.896 208.133 220.528L204.989 215.704C204.845 215.48 204.693 215.272 204.533 215.08C204.373 214.872 204.181 214.688 203.957 214.528C203.749 214.368 203.485 214.248 203.165 214.168C203.021 214.12 202.893 214.064 202.781 214C202.685 213.936 202.637 213.824 202.637 213.664C202.637 213.536 202.685 213.448 202.781 213.4C202.877 213.336 202.981 213.304 203.093 213.304C203.845 213.304 204.541 213.328 205.181 213.376C205.821 213.424 206.501 213.448 207.221 213.448C207.781 213.448 208.309 213.424 208.805 213.376C209.317 213.312 209.869 213.28 210.461 213.28C210.589 213.28 210.725 213.312 210.869 213.376C211.029 213.44 211.109 213.528 211.109 213.64C211.109 213.784 211.029 213.904 210.869 214C210.725 214.08 210.581 214.136 210.437 214.168C209.957 214.28 209.613 214.4 209.405 214.528C209.197 214.656 209.093 214.856 209.093 215.128C209.093 215.384 209.181 215.664 209.357 215.968L211.877 220.264C211.989 220.472 212.117 220.576 212.261 220.576C212.325 220.576 212.381 220.552 212.429 220.504C212.493 220.44 212.557 220.36 212.621 220.264C213.005 219.576 213.373 218.896 213.725 218.224C214.077 217.536 214.421 216.824 214.757 216.088C214.821 215.96 214.877 215.816 214.925 215.656C214.973 215.48 214.997 215.32 214.997 215.176C214.997 214.856 214.853 214.616 214.565 214.456C214.277 214.28 213.965 214.184 213.629 214.168C213.469 214.152 213.309 214.096 213.149 214C212.989 213.904 212.909 213.784 212.909 213.64C212.909 213.528 212.981 213.448 213.125 213.4C213.285 213.336 213.445 213.304 213.605 213.304C214.085 213.304 214.525 213.328 214.925 213.376C215.325 213.408 215.749 213.424 216.197 213.424C216.597 213.424 216.981 213.392 217.349 213.328C217.717 213.264 218.141 213.232 218.621 213.232C218.797 213.232 218.957 213.264 219.101 213.328C219.261 213.376 219.341 213.48 219.341 213.64C219.341 213.8 219.269 213.912 219.125 213.976C218.997 214.024 218.861 214.072 218.717 214.12C218.237 214.248 217.821 214.448 217.469 214.72C217.117 214.992 216.845 215.296 216.653 215.632C216.413 216.032 216.165 216.44 215.909 216.856C215.653 217.256 215.397 217.656 215.141 218.056C214.901 218.456 214.653 218.856 214.397 219.256C214.157 219.656 213.917 220.064 213.677 220.48C213.565 220.688 213.453 220.912 213.341 221.152C213.245 221.392 213.165 221.656 213.101 221.944C213.037 222.216 213.005 222.52 213.005 222.856V226.336C213.005 226.944 213.109 227.368 213.317 227.608C213.541 227.832 213.965 228.032 214.589 228.208C214.765 228.256 214.925 228.312 215.069 228.376C215.213 228.44 215.285 228.552 215.285 228.712C215.285 228.824 215.221 228.92 215.093 229C214.981 229.08 214.837 229.12 214.661 229.12C214.325 229.12 213.925 229.104 213.461 229.072C212.997 229.04 212.533 229.008 212.069 228.976C211.621 228.944 211.237 228.928 210.917 228.928C210.597 228.928 210.221 228.944 209.789 228.976C209.373 229.008 208.941 229.04 208.493 229.072C208.061 229.12 207.669 229.144 207.317 229.144Z" fill="#292929"/>
</g>
<defs>
<linearGradient id="paint0_linear_1_2" x1="38" y1="64" x2="192" y2="215" gradientUnits="userSpaceOnUse">
<stop stop-color="#FFD700"/>
<stop offset="0.435023" stop-color="#DEC956"/>
<stop offset="0.705023" stop-color="#ADA578"/>
<stop offset="1" stop-color="#C7AB15"/>
</linearGradient>
<clipPath id="clip0_1_2">
<rect width="254" height="319" fill="white"/>
</clipPath>
</defs>
</svg>
