<svg width="350" height="415" viewBox="0 0 350 415" fill="none" xmlns="http://www.w3.org/2000/svg">
	<g filter="url(#filter0_d_1_80)">
		<g clip-path="url(#clip0_1_80)">
			<rect x="48" y="48" width="254" height="319" rx="23" fill="#EBFFE6" />
			<path d="M174.992 329.2C159.526 329.2 145.392 326.533 132.592 321.2C119.792 315.867 109.526 308.533 101.792 299.2C94.3255 289.6 90.5922 278.667 90.5922 266.4C90.5922 256.267 93.6589 248 99.7922 241.6C105.926 234.933 113.392 229.2 122.192 224.4C130.992 219.6 139.392 214.933 147.392 210.4C149.792 209.067 150.592 207.867 149.792 206.8C149.259 205.733 147.926 204.533 145.792 203.2C137.792 197.067 130.192 190.533 122.992 183.6C116.059 176.4 110.326 168.533 105.792 160C101.259 151.467 98.9922 142.133 98.9922 132C98.9922 119.467 103.259 108.8 111.792 100C120.592 91.2 131.659 84.4 144.992 79.6C158.592 74.8 172.592 72.4 186.992 72.4C199.792 72.4 211.926 74.8 223.392 79.6C235.126 84.4 244.592 91.0666 251.792 99.6C258.992 108.133 262.592 118.133 262.592 129.6C262.592 140 260.059 148.533 254.992 155.2C249.926 161.867 244.192 166.667 237.792 169.6C235.126 170.667 232.192 172 228.992 173.6C226.059 174.933 223.392 176.267 220.992 177.6C216.726 180.267 214.592 182.267 214.592 183.6C214.592 184.933 215.926 186.533 218.592 188.4C228.459 194.533 237.259 200.8 244.992 207.2C252.992 213.333 259.259 220.133 263.792 227.6C268.592 235.067 270.992 243.733 270.992 253.6C270.992 269.067 266.592 282.533 257.792 294C249.259 305.2 237.792 313.867 223.392 320C208.992 326.133 192.859 329.2 174.992 329.2ZM182.192 310.8C191.526 310.8 198.992 307.467 204.592 300.8C210.459 294.133 213.392 286.133 213.392 276.8C213.392 269.867 211.126 263.067 206.592 256.4C202.326 249.733 196.992 243.467 190.592 237.6C184.459 231.467 178.592 226.267 172.992 222C171.659 220.667 170.592 219.733 169.792 219.2C168.992 218.4 168.059 218 166.992 218C166.459 218 164.726 219.067 161.792 221.2C156.726 226.267 153.259 232.267 151.392 239.2C149.526 245.867 148.592 254.267 148.592 264.4C148.592 272.133 149.926 279.6 152.592 286.8C155.526 293.733 159.526 299.467 164.592 304C169.659 308.533 175.526 310.8 182.192 310.8ZM198.192 170C201.392 166.267 203.659 160.4 204.992 152.4C206.592 144.4 207.392 136.267 207.392 128C207.392 118.133 205.392 109.6 201.392 102.4C197.659 94.9333 190.992 91.2 181.392 91.2C176.326 91.2 171.792 92.4 167.792 94.8C163.792 97.2 160.592 100.533 158.192 104.8C155.792 109.067 154.592 114.133 154.592 120C154.592 126.933 156.326 133.333 159.792 139.2C163.259 144.8 167.659 150.133 172.992 155.2C178.326 160.267 183.792 165.067 189.392 169.6C191.259 170.933 192.859 171.733 194.192 172C195.792 172 197.126 171.333 198.192 170Z" fill="black" fill-opacity="0.03" />
			<path d="M105.241 208.155L109.737 194.309L114.238 208.155H105.241ZM114.278 186.553H105.203L93 220.879L101.093 220.869L103.379 214.248H116.1L118.383 220.869L118.795 220.879H126.471L126.466 220.869H126.473L114.278 186.553ZM253.211 186.704H243.595L237.01 207.533L230.428 186.704H220.811L218.02 220.879H225.426L227.263 196.985L234.017 220.929H239.955L246.763 197.061L248.594 220.879H256V220.871L253.211 186.704ZM203.474 200.073C199.086 198.386 197.949 197.438 197.949 195.457C197.949 193.533 199.528 192.382 202.178 192.382C204.792 192.382 207.99 193.341 211.008 195.02L212.188 188.477C209.425 187.167 206.608 186.302 202.077 186.302C195.05 186.302 190.511 190.212 190.511 196.264C190.511 201.939 193.524 204.056 200.281 206.656C205.204 208.532 206.406 209.529 206.406 211.721C206.406 213.866 204.668 215.199 201.872 215.199C198.7 215.199 194.885 214.119 191.084 212.146L189.945 218.795C193.686 220.467 197.543 221.283 201.723 221.283C209.313 221.283 213.847 217.331 213.847 210.712C213.847 205.54 211.322 202.953 203.474 200.073ZM141.927 215.348H138.406V205.672H141.826C145.658 205.672 147.769 207.425 147.769 210.611C147.769 213.669 145.696 215.348 141.927 215.348ZM138.406 192.233H141.826C146.029 192.233 146.911 194.479 146.911 196.365C146.911 199.14 144.935 200.801 141.626 200.801H138.406V192.233ZM149.141 203.105L148.285 202.832L149.106 202.468C151.291 201.492 153.895 199.471 153.895 195.404C153.895 189.711 149.932 186.704 142.432 186.704H130.914V220.879H142.18C150.581 220.879 155.208 217.429 155.208 211.167C155.208 206.995 153.278 204.433 149.141 203.105ZM171.647 203.378H168.629V192.534H171.748C175.681 192.534 177.843 194.433 177.843 197.88C177.843 201.373 175.585 203.378 171.647 203.378ZM185.636 197.374C185.636 190.495 181.008 186.704 172.607 186.704H160.786V220.879H168.682V208.904H171.586L179 220.869H187.919L179.015 207.126L179.381 206.962C183.534 205.138 185.636 201.914 185.636 197.374ZM160.149 156.453L160.826 161.268C157.562 161.612 154.312 162.047 151.086 162.596L149.745 157.909C153.188 157.305 156.661 156.822 160.149 156.453ZM174.524 155.593V160.459C171.286 160.509 168.05 160.653 164.827 160.906L164.148 156.081C167.595 155.805 171.058 155.641 174.524 155.593ZM178.54 155.593C182.003 155.641 185.466 155.805 188.914 156.081L188.235 160.906C185.012 160.653 181.778 160.509 178.54 160.459V155.593ZM192.913 156.453C196.401 156.822 199.874 157.305 203.317 157.909L201.976 162.596C198.75 162.047 195.499 161.612 192.236 161.268L192.913 156.453ZM148.184 167.019L148.189 167.041L149.217 170.638C158.159 168.908 167.343 168.03 176.532 168.008C185.719 168.03 194.903 168.908 203.845 170.638L204.873 167.041L204.878 167.019L212.569 140.163C212.875 139.099 212.261 137.986 211.198 137.682C210.127 137.374 209.02 137.991 208.715 139.056L204.426 154.032C200.801 153.39 197.146 152.872 193.468 152.48L196.633 129.933C196.79 128.836 196.025 127.822 194.928 127.665C193.825 127.511 192.817 128.277 192.663 129.375L189.47 152.105C185.838 151.807 182.19 151.635 178.54 151.582V124.006C178.54 122.898 177.641 122 176.532 122C175.423 122 174.524 122.898 174.524 124.006V151.582C170.872 151.635 167.227 151.807 163.592 152.105L160.399 129.375C160.245 128.277 159.237 127.511 158.133 127.665C157.037 127.822 156.272 128.836 156.426 129.933L159.593 152.48C155.916 152.872 152.261 153.39 148.636 154.032L144.347 139.056C144.041 137.991 142.932 137.374 141.866 137.682C140.8 137.986 140.187 139.099 140.492 140.163L148.184 167.019ZM195.969 239.014H157.09C155.991 239.014 155.1 239.91 155.1 241.007C155.1 242.107 155.991 243 157.09 243H195.969C197.068 243 197.959 242.107 197.959 241.007C197.959 239.91 197.068 239.014 195.969 239.014Z" fill="url(#paint0_linear_1_80)" />
			<path d="M112.823 285.448C111.905 285.448 111.009 285.341 110.135 285.128C109.26 284.936 108.439 284.605 107.671 284.136C107.521 284.029 107.372 283.912 107.223 283.784C107.095 283.635 106.999 283.485 106.935 283.336C106.7 282.717 106.54 281.981 106.455 281.128C106.369 280.253 106.348 279.347 106.391 278.408C106.391 278.259 106.444 278.152 106.551 278.088C106.679 278.024 106.828 277.992 106.999 277.992C107.233 277.992 107.383 278.024 107.447 278.088C107.532 278.152 107.617 278.259 107.703 278.408C108.193 279.987 108.908 281.299 109.847 282.344C110.807 283.389 111.937 283.912 113.239 283.912C113.9 283.912 114.433 283.763 114.839 283.464C115.265 283.144 115.575 282.76 115.767 282.312C115.98 281.843 116.087 281.395 116.087 280.968C116.087 280.328 115.959 279.784 115.703 279.336C115.447 278.888 115.052 278.472 114.519 278.088C113.985 277.704 113.292 277.288 112.439 276.84C111.543 276.349 110.668 275.816 109.815 275.24C108.983 274.664 108.3 273.96 107.767 273.128C107.233 272.296 106.967 271.251 106.967 269.992C106.967 268.712 107.308 267.613 107.991 266.696C108.695 265.757 109.623 265.032 110.775 264.52C111.948 264.008 113.228 263.752 114.615 263.752C115.425 263.752 116.215 263.837 116.983 264.008C117.772 264.179 118.401 264.36 118.871 264.552C119.148 264.659 119.34 264.776 119.447 264.904C119.553 265.011 119.66 265.245 119.767 265.608C119.873 266.056 119.948 266.611 119.991 267.272C120.055 267.912 120.087 268.648 120.087 269.48C120.087 269.757 119.884 269.896 119.479 269.896C119.308 269.896 119.137 269.853 118.967 269.768C118.817 269.661 118.721 269.533 118.679 269.384C118.337 268.061 117.804 267.069 117.079 266.408C116.353 265.725 115.468 265.384 114.423 265.384C113.761 265.384 113.217 265.491 112.791 265.704C112.385 265.917 112.076 266.227 111.863 266.632C111.671 267.016 111.575 267.507 111.575 268.104C111.575 268.573 111.745 269.021 112.087 269.448C112.428 269.875 112.919 270.312 113.559 270.76C114.22 271.187 114.988 271.667 115.863 272.2C117.1 272.925 118.06 273.629 118.743 274.312C119.425 274.995 119.905 275.709 120.183 276.456C120.46 277.181 120.599 278.013 120.599 278.952C120.599 280.467 120.268 281.704 119.607 282.664C118.967 283.624 118.06 284.328 116.887 284.776C115.735 285.224 114.38 285.448 112.823 285.448ZM122.775 285.096C122.647 285.096 122.519 285.053 122.391 284.968C122.263 284.883 122.199 284.765 122.199 284.616C122.199 284.253 122.401 284.019 122.807 283.912C123.617 283.741 124.172 283.528 124.471 283.272C124.769 283.016 124.919 282.557 124.919 281.896V267.368C124.919 266.685 124.78 266.205 124.503 265.928C124.225 265.651 123.66 265.416 122.807 265.224C122.401 265.117 122.199 264.883 122.199 264.52C122.199 264.371 122.263 264.253 122.391 264.168C122.519 264.083 122.647 264.04 122.775 264.04C123.244 264.04 123.767 264.051 124.343 264.072C124.94 264.093 125.516 264.125 126.071 264.168C126.647 264.189 127.148 264.2 127.575 264.2C128.001 264.2 128.513 264.189 129.111 264.168C129.708 264.147 130.316 264.125 130.935 264.104C131.553 264.083 132.087 264.072 132.535 264.072C132.705 264.072 132.833 264.115 132.919 264.2C133.004 264.264 133.047 264.381 133.047 264.552C133.047 264.765 132.993 264.915 132.887 265C132.78 265.085 132.631 265.16 132.439 265.224C131.564 265.48 130.999 265.747 130.743 266.024C130.487 266.301 130.359 266.76 130.359 267.4V281.864C130.359 282.461 130.497 282.899 130.775 283.176C131.052 283.432 131.607 283.677 132.439 283.912C132.631 283.976 132.78 284.051 132.887 284.136C132.993 284.221 133.047 284.371 133.047 284.584C133.047 284.733 133.004 284.851 132.919 284.936C132.833 285.021 132.705 285.064 132.535 285.064C132.087 285.064 131.553 285.053 130.935 285.032C130.316 285.011 129.708 284.989 129.111 284.968C128.513 284.947 128.001 284.936 127.575 284.936C127.148 284.936 126.647 284.947 126.071 284.968C125.516 284.989 124.94 285.011 124.343 285.032C123.767 285.075 123.244 285.096 122.775 285.096ZM155.387 285.608C155.089 285.608 154.619 285.437 153.979 285.096C153.361 284.776 152.699 284.189 151.995 283.336C151.398 282.696 150.801 282.067 150.203 281.448C149.627 280.808 149.041 280.179 148.443 279.56C147.846 278.92 147.249 278.291 146.651 277.672C146.054 277.032 145.457 276.403 144.859 275.784C144.283 275.165 143.697 274.547 143.099 273.928C142.502 273.288 141.905 272.659 141.307 272.04C140.731 271.4 140.145 270.76 139.547 270.12C139.526 270.077 139.473 270.013 139.387 269.928C139.302 269.843 139.238 269.8 139.195 269.8C139.11 269.8 139.046 269.875 139.003 270.024C138.982 270.173 138.971 270.301 138.971 270.408C138.971 271.368 138.982 272.509 139.003 273.832C139.046 275.155 139.078 276.488 139.099 277.832C139.142 279.155 139.163 280.339 139.163 281.384C139.163 282.109 139.387 282.664 139.835 283.048C140.305 283.411 140.966 283.699 141.819 283.912C142.011 283.955 142.203 284.029 142.395 284.136C142.587 284.221 142.683 284.371 142.683 284.584C142.683 284.733 142.598 284.851 142.427 284.936C142.257 285.021 142.086 285.064 141.915 285.064C141.339 285.064 140.859 285.053 140.475 285.032C140.091 285.011 139.729 285 139.387 285C139.067 284.979 138.683 284.968 138.235 284.968C137.745 284.968 137.265 284.979 136.795 285C136.347 285.021 135.974 285.043 135.675 285.064C135.398 285.085 135.259 285.096 135.259 285.096C135.131 285.096 134.971 285.053 134.779 284.968C134.609 284.883 134.523 284.765 134.523 284.616C134.523 284.424 134.598 284.285 134.747 284.2C134.918 284.093 135.099 283.997 135.291 283.912C135.782 283.72 136.155 283.4 136.411 282.952C136.689 282.504 136.849 281.96 136.891 281.32C136.977 280.531 137.062 279.485 137.147 278.184C137.254 276.883 137.35 275.421 137.435 273.8C137.521 272.179 137.563 270.493 137.563 268.744C137.563 267.635 137.286 266.835 136.731 266.344C136.177 265.853 135.505 265.459 134.715 265.16C134.523 265.117 134.331 265.043 134.139 264.936C133.947 264.808 133.851 264.648 133.851 264.456C133.851 264.264 133.926 264.136 134.075 264.072C134.246 263.987 134.449 263.944 134.683 263.944C135.025 263.944 135.441 263.955 135.931 263.976C136.443 263.997 136.987 264.019 137.563 264.04C138.161 264.04 138.769 264.051 139.387 264.072C140.006 264.093 140.603 264.104 141.179 264.104C141.35 264.104 141.478 264.136 141.563 264.2C141.67 264.243 141.755 264.317 141.819 264.424C142.374 265.043 142.929 265.672 143.483 266.312C144.059 266.931 144.625 267.549 145.179 268.168C145.755 268.787 146.321 269.405 146.875 270.024C147.451 270.643 148.017 271.272 148.571 271.912C149.126 272.531 149.681 273.149 150.235 273.768C150.811 274.387 151.377 275.016 151.931 275.656C152.507 276.275 153.073 276.893 153.627 277.512C153.691 277.597 153.766 277.683 153.851 277.768C153.937 277.853 154.011 277.896 154.075 277.896C154.246 277.896 154.331 277.747 154.331 277.448C154.331 276.701 154.331 275.891 154.331 275.016C154.331 274.12 154.331 273.213 154.331 272.296C154.331 271.357 154.321 270.461 154.299 269.608C154.299 268.733 154.278 267.965 154.235 267.304C154.214 266.685 153.99 266.237 153.563 265.96C153.158 265.683 152.55 265.437 151.739 265.224C151.547 265.181 151.377 265.117 151.227 265.032C151.078 264.925 151.003 264.765 151.003 264.552C151.003 264.403 151.078 264.285 151.227 264.2C151.377 264.115 151.526 264.072 151.675 264.072C152.251 264.072 152.721 264.083 153.083 264.104C153.446 264.104 153.777 264.115 154.075 264.136C154.374 264.136 154.705 264.136 155.067 264.136C155.494 264.136 155.857 264.136 156.155 264.136C156.454 264.115 156.774 264.093 157.115 264.072C157.478 264.051 157.926 264.04 158.459 264.04C158.694 264.04 158.875 264.083 159.003 264.168C159.153 264.253 159.227 264.371 159.227 264.52C159.227 264.861 158.961 265.085 158.427 265.192C157.702 265.341 157.169 265.555 156.827 265.832C156.486 266.109 156.315 266.568 156.315 267.208C156.315 268.125 156.305 269.043 156.283 269.96C156.262 270.856 156.23 271.741 156.187 272.616C156.145 273.491 156.102 274.344 156.059 275.176C156.017 275.987 155.985 276.765 155.963 277.512C155.942 278.259 155.931 278.941 155.931 279.56C155.931 280.051 155.963 280.616 156.027 281.256C156.091 281.875 156.155 282.451 156.219 282.984C156.283 283.496 156.315 283.848 156.315 284.04C156.315 284.616 156.23 285.021 156.059 285.256C155.91 285.491 155.686 285.608 155.387 285.608ZM171.595 285.448C170.037 285.448 168.576 285.203 167.211 284.712C165.867 284.2 164.672 283.485 163.627 282.568C162.603 281.629 161.803 280.52 161.227 279.24C160.651 277.939 160.363 276.499 160.363 274.92C160.363 273.469 160.64 272.083 161.195 270.76C161.749 269.416 162.549 268.221 163.595 267.176C164.661 266.131 165.941 265.299 167.435 264.68C168.949 264.061 170.645 263.752 172.523 263.752C172.971 263.752 173.483 263.784 174.059 263.848C174.635 263.912 175.221 263.997 175.819 264.104C176.437 264.211 177.013 264.339 177.547 264.488C178.101 264.616 178.571 264.755 178.955 264.904C179.147 264.989 179.307 265.096 179.435 265.224C179.563 265.352 179.637 265.533 179.659 265.768C179.765 266.536 179.851 267.261 179.915 267.944C180 268.605 180.043 269.171 180.043 269.64C180.043 269.853 179.989 270.013 179.883 270.12C179.797 270.227 179.669 270.28 179.499 270.28C179.243 270.28 179.051 270.227 178.923 270.12C178.816 269.992 178.709 269.832 178.603 269.64C178.411 269.213 178.176 268.765 177.899 268.296C177.621 267.805 177.301 267.379 176.939 267.016C176.661 266.739 176.352 266.493 176.01 266.28C175.669 266.045 175.264 265.864 174.795 265.736C174.325 265.587 173.76 265.512 173.099 265.512C171.968 265.512 170.965 265.747 170.091 266.216C169.237 266.664 168.523 267.293 167.947 268.104C167.371 268.893 166.933 269.8 166.635 270.824C166.357 271.827 166.219 272.883 166.219 273.992C166.219 275.421 166.325 276.733 166.539 277.928C166.773 279.101 167.125 280.115 167.595 280.968C168.085 281.821 168.704 282.483 169.451 282.952C170.197 283.4 171.093 283.624 172.139 283.624C172.523 283.624 172.864 283.549 173.163 283.4C173.483 283.229 173.749 283.069 173.963 282.92C174.176 282.771 174.336 282.515 174.443 282.152C174.571 281.789 174.645 281.384 174.667 280.936C174.688 280.744 174.699 280.467 174.699 280.104C174.699 279.72 174.699 279.347 174.699 278.984C174.72 278.6 174.731 278.312 174.731 278.12C174.731 277.885 174.667 277.672 174.539 277.48C174.432 277.267 174.219 277.096 173.899 276.968C173.685 276.883 173.472 276.808 173.259 276.744C173.067 276.659 172.864 276.595 172.651 276.552C172.459 276.488 172.267 276.435 172.075 276.392C171.883 276.349 171.701 276.264 171.531 276.136C171.36 276.008 171.275 275.848 171.275 275.656C171.275 275.507 171.349 275.389 171.499 275.304C171.648 275.219 171.808 275.176 171.979 275.176C172.448 275.176 172.992 275.187 173.611 275.208C174.251 275.229 174.88 275.261 175.499 275.304C176.117 275.325 176.64 275.336 177.067 275.336C177.685 275.336 178.368 275.315 179.115 275.272C179.883 275.229 180.597 275.208 181.259 275.208C181.429 275.208 181.557 275.251 181.643 275.336C181.728 275.4 181.771 275.517 181.771 275.688C181.771 275.901 181.717 276.061 181.611 276.168C181.504 276.253 181.355 276.317 181.163 276.36C180.523 276.531 180.085 276.733 179.851 276.968C179.637 277.181 179.488 277.501 179.403 277.928C179.317 278.397 179.253 278.813 179.211 279.176C179.189 279.517 179.179 279.901 179.179 280.328V281.416C179.179 281.523 179.221 281.629 179.307 281.736C179.413 281.843 179.52 281.949 179.627 282.056C179.733 282.163 179.808 282.28 179.851 282.408C179.915 282.515 179.947 282.632 179.947 282.76C179.947 282.909 179.893 283.059 179.787 283.208C179.68 283.336 179.509 283.421 179.275 283.464C179.104 283.485 178.805 283.603 178.378 283.816C177.973 284.008 177.451 284.232 176.811 284.488C176.171 284.744 175.413 284.968 174.539 285.16C173.664 285.352 172.683 285.448 171.595 285.448ZM183.556 285.096C183.428 285.096 183.3 285.053 183.172 284.968C183.044 284.883 182.98 284.765 182.98 284.616C182.98 284.253 183.183 284.019 183.588 283.912C184.399 283.741 184.953 283.528 185.252 283.272C185.551 283.016 185.7 282.557 185.7 281.896V267.368C185.7 266.685 185.561 266.205 185.284 265.928C185.007 265.651 184.441 265.416 183.588 265.224C183.183 265.117 182.98 264.883 182.98 264.52C182.98 264.371 183.044 264.253 183.172 264.168C183.3 264.083 183.428 264.04 183.556 264.04C184.025 264.04 184.548 264.051 185.124 264.072C185.721 264.093 186.297 264.125 186.852 264.168C187.428 264.189 187.929 264.2 188.356 264.2C188.783 264.2 189.295 264.189 189.892 264.168C190.489 264.147 191.097 264.125 191.716 264.104C192.335 264.083 192.868 264.072 193.316 264.072C193.487 264.072 193.615 264.115 193.7 264.2C193.785 264.264 193.828 264.381 193.828 264.552C193.828 264.765 193.775 264.915 193.668 265C193.561 265.085 193.412 265.16 193.22 265.224C192.345 265.48 191.78 265.747 191.524 266.024C191.268 266.301 191.14 266.76 191.14 267.4V281.864C191.14 282.461 191.279 282.899 191.556 283.176C191.833 283.432 192.388 283.677 193.22 283.912C193.412 283.976 193.561 284.051 193.668 284.136C193.775 284.221 193.828 284.371 193.828 284.584C193.828 284.733 193.785 284.851 193.7 284.936C193.615 285.021 193.487 285.064 193.316 285.064C192.868 285.064 192.335 285.053 191.716 285.032C191.097 285.011 190.489 284.989 189.892 284.968C189.295 284.947 188.783 284.936 188.356 284.936C187.929 284.936 187.428 284.947 186.852 284.968C186.297 284.989 185.721 285.011 185.124 285.032C184.548 285.075 184.025 285.096 183.556 285.096ZM216.169 285.608C215.87 285.608 215.401 285.437 214.761 285.096C214.142 284.776 213.481 284.189 212.777 283.336C212.179 282.696 211.582 282.067 210.985 281.448C210.409 280.808 209.822 280.179 209.225 279.56C208.627 278.92 208.03 278.291 207.433 277.672C206.835 277.032 206.238 276.403 205.641 275.784C205.065 275.165 204.478 274.547 203.881 273.928C203.283 273.288 202.686 272.659 202.089 272.04C201.513 271.4 200.926 270.76 200.329 270.12C200.307 270.077 200.254 270.013 200.169 269.928C200.083 269.843 200.019 269.8 199.977 269.8C199.891 269.8 199.827 269.875 199.785 270.024C199.763 270.173 199.753 270.301 199.753 270.408C199.753 271.368 199.763 272.509 199.785 273.832C199.827 275.155 199.859 276.488 199.881 277.832C199.923 279.155 199.945 280.339 199.945 281.384C199.945 282.109 200.169 282.664 200.617 283.048C201.086 283.411 201.747 283.699 202.601 283.912C202.793 283.955 202.985 284.029 203.177 284.136C203.369 284.221 203.465 284.371 203.465 284.584C203.465 284.733 203.379 284.851 203.209 284.936C203.038 285.021 202.867 285.064 202.697 285.064C202.121 285.064 201.641 285.053 201.257 285.032C200.873 285.011 200.51 285 200.169 285C199.849 284.979 199.465 284.968 199.016 284.968C198.526 284.968 198.046 284.979 197.577 285C197.129 285.021 196.755 285.043 196.457 285.064C196.179 285.085 196.041 285.096 196.041 285.096C195.913 285.096 195.753 285.053 195.561 284.968C195.39 284.883 195.305 284.765 195.305 284.616C195.305 284.424 195.379 284.285 195.529 284.2C195.699 284.093 195.881 283.997 196.073 283.912C196.563 283.72 196.937 283.4 197.193 282.952C197.47 282.504 197.63 281.96 197.673 281.32C197.758 280.531 197.843 279.485 197.929 278.184C198.035 276.883 198.131 275.421 198.217 273.8C198.302 272.179 198.345 270.493 198.345 268.744C198.345 267.635 198.067 266.835 197.513 266.344C196.958 265.853 196.286 265.459 195.497 265.16C195.305 265.117 195.113 265.043 194.921 264.936C194.729 264.808 194.633 264.648 194.633 264.456C194.633 264.264 194.707 264.136 194.857 264.072C195.027 263.987 195.23 263.944 195.465 263.944C195.806 263.944 196.222 263.955 196.713 263.976C197.225 263.997 197.769 264.019 198.345 264.04C198.942 264.04 199.55 264.051 200.169 264.072C200.787 264.093 201.385 264.104 201.961 264.104C202.131 264.104 202.259 264.136 202.345 264.2C202.451 264.243 202.537 264.317 202.601 264.424C203.155 265.043 203.71 265.672 204.265 266.312C204.841 266.931 205.406 267.549 205.961 268.168C206.537 268.787 207.102 269.405 207.657 270.024C208.233 270.643 208.798 271.272 209.353 271.912C209.907 272.531 210.462 273.149 211.017 273.768C211.593 274.387 212.158 275.016 212.713 275.656C213.289 276.275 213.854 276.893 214.409 277.512C214.473 277.597 214.547 277.683 214.633 277.768C214.718 277.853 214.793 277.896 214.857 277.896C215.027 277.896 215.113 277.747 215.113 277.448C215.113 276.701 215.113 275.891 215.113 275.016C215.113 274.12 215.113 273.213 215.113 272.296C215.113 271.357 215.102 270.461 215.081 269.608C215.081 268.733 215.059 267.965 215.017 267.304C214.995 266.685 214.771 266.237 214.345 265.96C213.939 265.683 213.331 265.437 212.521 265.224C212.329 265.181 212.158 265.117 212.009 265.032C211.859 264.925 211.785 264.765 211.785 264.552C211.785 264.403 211.859 264.285 212.009 264.2C212.158 264.115 212.307 264.072 212.457 264.072C213.033 264.072 213.502 264.083 213.865 264.104C214.227 264.104 214.558 264.115 214.857 264.136C215.155 264.136 215.486 264.136 215.849 264.136C216.275 264.136 216.638 264.136 216.937 264.136C217.235 264.115 217.555 264.093 217.897 264.072C218.259 264.051 218.707 264.04 219.241 264.04C219.475 264.04 219.657 264.083 219.785 264.168C219.934 264.253 220.009 264.371 220.009 264.52C220.009 264.861 219.742 265.085 219.209 265.192C218.483 265.341 217.95 265.555 217.609 265.832C217.267 266.109 217.097 266.568 217.097 267.208C217.097 268.125 217.086 269.043 217.065 269.96C217.043 270.856 217.011 271.741 216.969 272.616C216.926 273.491 216.883 274.344 216.841 275.176C216.798 275.987 216.766 276.765 216.745 277.512C216.723 278.259 216.713 278.941 216.713 279.56C216.713 280.051 216.745 280.616 216.809 281.256C216.873 281.875 216.937 282.451 217.001 282.984C217.065 283.496 217.097 283.848 217.097 284.04C217.097 284.616 217.011 285.021 216.841 285.256C216.691 285.491 216.467 285.608 216.169 285.608ZM232.376 285.448C230.818 285.448 229.357 285.203 227.992 284.712C226.648 284.2 225.453 283.485 224.408 282.568C223.384 281.629 222.584 280.52 222.008 279.24C221.432 277.939 221.144 276.499 221.144 274.92C221.144 273.469 221.421 272.083 221.976 270.76C222.53 269.416 223.33 268.221 224.376 267.176C225.442 266.131 226.722 265.299 228.216 264.68C229.73 264.061 231.426 263.752 233.304 263.752C233.752 263.752 234.264 263.784 234.84 263.848C235.416 263.912 236.002 263.997 236.6 264.104C237.218 264.211 237.794 264.339 238.328 264.488C238.882 264.616 239.352 264.755 239.736 264.904C239.928 264.989 240.088 265.096 240.216 265.224C240.344 265.352 240.418 265.533 240.44 265.768C240.546 266.536 240.632 267.261 240.696 267.944C240.781 268.605 240.824 269.171 240.824 269.64C240.824 269.853 240.77 270.013 240.664 270.12C240.578 270.227 240.45 270.28 240.28 270.28C240.024 270.28 239.832 270.227 239.704 270.12C239.597 269.992 239.49 269.832 239.384 269.64C239.192 269.213 238.957 268.765 238.68 268.296C238.402 267.805 238.082 267.379 237.72 267.016C237.442 266.739 237.133 266.493 236.792 266.28C236.45 266.045 236.045 265.864 235.576 265.736C235.106 265.587 234.541 265.512 233.88 265.512C232.749 265.512 231.746 265.747 230.872 266.216C230.018 266.664 229.304 267.293 228.728 268.104C228.152 268.893 227.714 269.8 227.416 270.824C227.138 271.827 227 272.883 227 273.992C227 275.421 227.106 276.733 227.32 277.928C227.554 279.101 227.906 280.115 228.376 280.968C228.866 281.821 229.485 282.483 230.232 282.952C230.978 283.4 231.874 283.624 232.92 283.624C233.304 283.624 233.645 283.549 233.944 283.4C234.264 283.229 234.53 283.069 234.744 282.92C234.957 282.771 235.117 282.515 235.224 282.152C235.352 281.789 235.426 281.384 235.448 280.936C235.469 280.744 235.48 280.467 235.48 280.104C235.48 279.72 235.48 279.347 235.48 278.984C235.501 278.6 235.512 278.312 235.512 278.12C235.512 277.885 235.448 277.672 235.32 277.48C235.213 277.267 235 277.096 234.68 276.968C234.466 276.883 234.253 276.808 234.04 276.744C233.848 276.659 233.645 276.595 233.432 276.552C233.24 276.488 233.048 276.435 232.856 276.392C232.664 276.349 232.482 276.264 232.312 276.136C232.141 276.008 232.056 275.848 232.056 275.656C232.056 275.507 232.13 275.389 232.28 275.304C232.429 275.219 232.589 275.176 232.76 275.176C233.229 275.176 233.773 275.187 234.392 275.208C235.032 275.229 235.661 275.261 236.28 275.304C236.898 275.325 237.421 275.336 237.848 275.336C238.466 275.336 239.149 275.315 239.896 275.272C240.664 275.229 241.378 275.208 242.04 275.208C242.21 275.208 242.338 275.251 242.424 275.336C242.509 275.4 242.552 275.517 242.552 275.688C242.552 275.901 242.498 276.061 242.392 276.168C242.285 276.253 242.136 276.317 241.944 276.36C241.304 276.531 240.866 276.733 240.632 276.968C240.418 277.181 240.269 277.501 240.184 277.928C240.098 278.397 240.034 278.813 239.992 279.176C239.97 279.517 239.96 279.901 239.96 280.328V281.416C239.96 281.523 240.002 281.629 240.088 281.736C240.194 281.843 240.301 281.949 240.408 282.056C240.514 282.163 240.589 282.28 240.632 282.408C240.696 282.515 240.728 282.632 240.728 282.76C240.728 282.909 240.674 283.059 240.568 283.208C240.461 283.336 240.29 283.421 240.056 283.464C239.885 283.485 239.586 283.603 239.16 283.816C238.754 284.008 238.232 284.232 237.592 284.488C236.952 284.744 236.194 284.968 235.32 285.16C234.445 285.352 233.464 285.448 232.376 285.448Z" fill="#292929" />
			<path d="M112.794 306.048C112.73 306.048 112.666 306.027 112.602 305.984C112.538 305.941 112.506 305.883 112.506 305.808C112.506 305.627 112.607 305.509 112.81 305.456C113.215 305.371 113.492 305.264 113.642 305.136C113.791 305.008 113.866 304.779 113.866 304.448V297.184C113.866 296.843 113.796 296.603 113.658 296.464C113.53 296.315 113.279 296.197 112.906 296.112C112.778 296.08 112.687 296.032 112.634 295.968C112.591 295.904 112.57 295.84 112.57 295.776C112.57 295.701 112.596 295.643 112.65 295.6C112.714 295.547 112.794 295.52 112.89 295.52C113.124 295.52 113.38 295.525 113.658 295.536C113.935 295.547 114.207 295.563 114.474 295.584C114.74 295.595 114.98 295.6 115.194 295.6C115.45 295.6 115.674 295.589 115.866 295.568C116.068 295.536 116.292 295.509 116.538 295.488C116.783 295.456 117.103 295.44 117.498 295.44C118.81 295.44 119.85 295.723 120.618 296.288C121.386 296.843 121.77 297.605 121.77 298.576C121.77 299.248 121.626 299.872 121.338 300.448C121.05 301.013 120.612 301.472 120.026 301.824C119.45 302.165 118.719 302.336 117.834 302.336C117.546 302.336 117.327 302.293 117.178 302.208C117.028 302.123 116.954 302.016 116.954 301.888C116.954 301.803 116.991 301.739 117.066 301.696C117.14 301.653 117.204 301.632 117.258 301.632C117.386 301.632 117.487 301.648 117.562 301.68C117.647 301.701 117.759 301.712 117.898 301.712C118.303 301.712 118.607 301.467 118.81 300.976C119.023 300.475 119.13 299.829 119.13 299.04C119.13 298.027 118.986 297.301 118.698 296.864C118.42 296.416 118.02 296.192 117.498 296.192C117.199 296.192 116.975 296.261 116.826 296.4C116.676 296.539 116.602 296.752 116.602 297.04L116.586 304.432C116.586 304.763 116.676 304.992 116.858 305.12C117.05 305.248 117.375 305.36 117.834 305.456C117.93 305.477 118.004 305.515 118.058 305.568C118.111 305.611 118.138 305.685 118.138 305.792C118.138 305.867 118.116 305.925 118.074 305.968C118.031 306.011 117.967 306.032 117.882 306.032C117.658 306.032 117.375 306.027 117.034 306.016C116.692 306.005 116.351 305.995 116.01 305.984C115.679 305.973 115.407 305.968 115.194 305.968C114.98 305.968 114.73 305.973 114.442 305.984C114.164 305.995 113.876 306.005 113.578 306.016C113.29 306.037 113.028 306.048 112.794 306.048ZM122.732 306.08C122.636 306.08 122.561 306.053 122.508 306C122.455 305.947 122.428 305.888 122.428 305.824C122.428 305.664 122.535 305.552 122.748 305.488C123.1 305.381 123.345 305.269 123.484 305.152C123.633 305.035 123.708 304.811 123.708 304.48V297.184C123.708 296.843 123.639 296.603 123.5 296.464C123.372 296.315 123.121 296.197 122.748 296.112C122.62 296.08 122.529 296.032 122.476 295.968C122.433 295.904 122.412 295.84 122.412 295.776C122.412 295.701 122.439 295.643 122.492 295.6C122.556 295.547 122.636 295.52 122.732 295.52C122.967 295.52 123.223 295.525 123.5 295.536C123.777 295.547 124.049 295.563 124.316 295.584C124.583 295.595 124.823 295.6 125.036 295.6C125.633 295.6 126.273 295.595 126.956 295.584C127.639 295.573 128.241 295.563 128.764 295.552C129.105 295.552 129.383 295.531 129.596 295.488C129.82 295.445 129.953 295.424 129.996 295.424C130.081 295.424 130.167 295.451 130.252 295.504C130.348 295.547 130.401 295.632 130.412 295.76C130.455 296.155 130.508 296.544 130.572 296.928C130.647 297.301 130.684 297.632 130.684 297.92C130.684 298.027 130.663 298.107 130.62 298.16C130.577 298.213 130.529 298.24 130.476 298.24C130.423 298.24 130.364 298.219 130.3 298.176C130.236 298.133 130.183 298.064 130.14 297.968C130.023 297.68 129.916 297.44 129.82 297.248C129.735 297.045 129.633 296.885 129.516 296.768C129.399 296.651 129.249 296.539 129.068 296.432C128.887 296.315 128.647 296.256 128.348 296.256H127.34C127.073 296.256 126.855 296.32 126.684 296.448C126.513 296.576 126.428 296.757 126.428 296.992V299.936C126.428 300.075 126.465 300.176 126.54 300.24C126.615 300.293 126.716 300.32 126.844 300.32H128.204C128.481 300.32 128.679 300.219 128.796 300.016C128.924 299.813 129.036 299.584 129.132 299.328C129.217 299.136 129.329 299.04 129.468 299.04C129.521 299.04 129.569 299.072 129.612 299.136C129.655 299.2 129.671 299.291 129.66 299.408C129.649 299.557 129.633 299.707 129.612 299.856C129.601 300.005 129.591 300.155 129.58 300.304C129.58 300.443 129.58 300.587 129.58 300.736C129.58 300.875 129.58 301.019 129.58 301.168C129.591 301.307 129.601 301.451 129.612 301.6C129.623 301.749 129.633 301.904 129.644 302.064C129.665 302.224 129.655 302.341 129.612 302.416C129.58 302.48 129.537 302.512 129.484 302.512C129.303 302.512 129.175 302.384 129.1 302.128C129.004 301.787 128.892 301.525 128.764 301.344C128.647 301.163 128.487 301.072 128.284 301.072H126.78C126.663 301.072 126.572 301.104 126.508 301.168C126.455 301.232 126.428 301.323 126.428 301.44V304.464C126.428 304.763 126.492 304.976 126.62 305.104C126.748 305.221 126.945 305.28 127.212 305.28H128.636C128.849 305.28 129.057 305.253 129.26 305.2C129.473 305.136 129.655 305.04 129.804 304.912C129.985 304.763 130.151 304.571 130.3 304.336C130.46 304.101 130.599 303.867 130.716 303.632C130.759 303.547 130.801 303.493 130.844 303.472C130.897 303.451 130.956 303.44 131.02 303.44C131.084 303.44 131.127 303.477 131.148 303.552C131.169 303.616 131.18 303.685 131.18 303.76C131.18 303.952 131.153 304.16 131.1 304.384C131.047 304.608 130.977 304.848 130.892 305.104C130.817 305.349 130.743 305.605 130.668 305.872C130.647 305.947 130.599 305.995 130.524 306.016C130.449 306.048 130.369 306.064 130.284 306.064C130.231 306.064 130.023 306.059 129.66 306.048C129.297 306.048 128.844 306.043 128.3 306.032C127.767 306.021 127.207 306.011 126.62 306C126.044 306 125.516 306 125.036 306C124.823 306 124.577 306.005 124.3 306.016C124.023 306.027 123.745 306.037 123.468 306.048C123.191 306.069 122.945 306.08 122.732 306.08ZM141.758 306.336C141.161 306.336 140.66 306.261 140.254 306.112C139.86 305.963 139.529 305.771 139.262 305.536C138.996 305.291 138.756 305.024 138.542 304.736C138.318 304.427 138.1 304.117 137.886 303.808C137.673 303.488 137.465 303.152 137.262 302.8C137.06 302.437 136.857 302.037 136.654 301.6C136.548 301.365 136.42 301.205 136.27 301.12C136.206 301.077 136.137 301.051 136.062 301.04C135.998 301.019 135.94 301.008 135.886 301.008C135.833 301.008 135.79 301.04 135.758 301.104C135.737 301.157 135.726 301.232 135.726 301.328V304.432C135.726 304.763 135.817 304.992 135.998 305.12C136.19 305.248 136.516 305.36 136.974 305.456C137.07 305.477 137.145 305.515 137.198 305.568C137.252 305.611 137.278 305.685 137.278 305.792C137.278 305.867 137.257 305.925 137.214 305.968C137.172 306.011 137.108 306.032 137.022 306.032C136.798 306.032 136.516 306.027 136.174 306.016C135.833 306.005 135.492 305.995 135.15 305.984C134.82 305.973 134.548 305.968 134.334 305.968C134.121 305.968 133.87 305.973 133.582 305.984C133.305 305.995 133.017 306.005 132.718 306.016C132.43 306.037 132.169 306.048 131.934 306.048C131.87 306.048 131.806 306.027 131.742 305.984C131.678 305.941 131.646 305.883 131.646 305.808C131.646 305.627 131.748 305.509 131.95 305.456C132.356 305.371 132.633 305.264 132.782 305.136C132.932 305.008 133.006 304.779 133.006 304.448V297.184C133.006 296.949 132.98 296.768 132.926 296.64C132.873 296.501 132.777 296.395 132.638 296.32C132.5 296.235 132.302 296.165 132.046 296.112C131.918 296.08 131.828 296.032 131.774 295.968C131.732 295.904 131.71 295.84 131.71 295.776C131.71 295.701 131.737 295.643 131.79 295.6C131.854 295.547 131.934 295.52 132.03 295.52C132.382 295.52 132.676 295.531 132.91 295.552C133.145 295.573 133.369 295.595 133.582 295.616C133.796 295.637 134.041 295.648 134.318 295.648C134.574 295.648 134.798 295.637 134.99 295.616C135.193 295.584 135.417 295.557 135.662 295.536C135.908 295.504 136.228 295.488 136.622 295.488C137.881 295.488 138.852 295.701 139.534 296.128C140.228 296.544 140.574 297.184 140.574 298.048C140.574 298.528 140.468 298.933 140.254 299.264C140.041 299.584 139.774 299.845 139.454 300.048C139.134 300.24 138.809 300.384 138.478 300.48C138.436 300.491 138.414 300.517 138.414 300.56C138.425 300.603 138.441 300.64 138.462 300.672C138.782 301.141 139.092 301.595 139.39 302.032C139.7 302.469 140.009 302.875 140.318 303.248C140.628 303.611 140.937 303.941 141.246 304.24C141.62 304.592 142.004 304.8 142.398 304.864C142.804 304.928 143.193 304.96 143.566 304.96C143.726 304.96 143.806 305.061 143.806 305.264C143.806 305.52 143.721 305.728 143.55 305.888C143.39 306.037 143.156 306.149 142.846 306.224C142.537 306.299 142.174 306.336 141.758 306.336ZM136.286 300.464C136.67 300.464 136.985 300.379 137.23 300.208C137.476 300.037 137.657 299.803 137.774 299.504C137.902 299.195 137.966 298.837 137.966 298.432C137.966 297.92 137.902 297.504 137.774 297.184C137.646 296.864 137.46 296.629 137.214 296.48C136.98 296.32 136.692 296.24 136.35 296.24C136.137 296.24 135.977 296.331 135.87 296.512C135.774 296.693 135.726 297.093 135.726 297.712C135.726 297.947 135.726 298.245 135.726 298.608C135.726 298.96 135.726 299.376 135.726 299.856C135.726 300.069 135.774 300.224 135.87 300.32C135.977 300.416 136.116 300.464 136.286 300.464ZM144.247 306.048C144.183 306.048 144.119 306.027 144.055 305.984C143.991 305.941 143.959 305.883 143.959 305.808C143.959 305.627 144.06 305.509 144.263 305.456C144.668 305.371 144.945 305.264 145.095 305.136C145.244 305.008 145.319 304.779 145.319 304.448V297.184C145.319 296.843 145.249 296.603 145.111 296.464C144.983 296.315 144.732 296.197 144.359 296.112C144.231 296.08 144.14 296.032 144.087 295.968C144.044 295.904 144.023 295.84 144.023 295.776C144.023 295.701 144.049 295.643 144.103 295.6C144.167 295.547 144.247 295.52 144.343 295.52C144.577 295.52 144.833 295.525 145.111 295.536C145.388 295.547 145.66 295.563 145.927 295.584C146.193 295.595 146.433 295.6 146.647 295.6C147.095 295.6 147.58 295.6 148.103 295.6C148.636 295.6 149.143 295.6 149.623 295.6C150.081 295.6 150.497 295.573 150.871 295.52C151.255 295.456 151.564 295.424 151.799 295.424C151.884 295.424 151.969 295.451 152.055 295.504C152.151 295.547 152.204 295.632 152.215 295.76C152.236 296.027 152.252 296.299 152.263 296.576C152.273 296.853 152.279 297.12 152.279 297.376C152.289 297.621 152.295 297.84 152.295 298.032C152.295 298.245 152.225 298.352 152.087 298.352C152.033 298.352 151.969 298.331 151.895 298.288C151.82 298.245 151.772 298.176 151.751 298.08C151.676 297.803 151.591 297.552 151.495 297.328C151.409 297.093 151.292 296.901 151.143 296.752C151.004 296.613 150.839 296.512 150.647 296.448C150.465 296.373 150.236 296.336 149.959 296.336H148.951C148.684 296.336 148.465 296.4 148.295 296.528C148.124 296.656 148.039 296.837 148.039 297.072C148.039 297.253 148.039 297.472 148.039 297.728C148.039 297.973 148.039 298.187 148.039 298.368C148.039 298.603 148.039 298.859 148.039 299.136C148.039 299.413 148.039 299.675 148.039 299.92C148.039 300.059 148.076 300.16 148.151 300.224C148.225 300.277 148.327 300.304 148.455 300.304C148.7 300.304 148.945 300.304 149.191 300.304C149.447 300.304 149.697 300.304 149.943 300.304C150.22 300.304 150.417 300.219 150.535 300.048C150.663 299.877 150.775 299.675 150.871 299.44C150.913 299.344 150.961 299.275 151.015 299.232C151.079 299.179 151.143 299.152 151.207 299.152C151.26 299.152 151.308 299.184 151.351 299.248C151.393 299.312 151.409 299.403 151.399 299.52C151.377 299.755 151.356 299.979 151.335 300.192C151.324 300.395 151.319 300.576 151.319 300.736C151.319 300.949 151.324 301.125 151.335 301.264C151.345 301.403 151.361 301.595 151.383 301.84C151.404 302 151.393 302.117 151.351 302.192C151.319 302.256 151.276 302.288 151.223 302.288C151.148 302.288 151.073 302.251 150.999 302.176C150.924 302.101 150.871 302.011 150.839 301.904C150.743 301.573 150.631 301.349 150.503 301.232C150.385 301.115 150.225 301.056 150.023 301.056C149.905 301.056 149.783 301.056 149.655 301.056C149.527 301.056 149.404 301.056 149.287 301.056C149.137 301.056 148.983 301.056 148.823 301.056C148.663 301.056 148.508 301.056 148.359 301.056C148.241 301.056 148.151 301.088 148.087 301.152C148.033 301.216 148.007 301.307 148.007 301.424C148.007 301.904 148.012 302.405 148.023 302.928C148.033 303.451 148.039 303.952 148.039 304.432C148.039 304.763 148.129 304.992 148.311 305.12C148.503 305.248 148.828 305.36 149.287 305.456C149.383 305.477 149.457 305.515 149.511 305.568C149.564 305.611 149.591 305.685 149.591 305.792C149.591 305.867 149.569 305.925 149.527 305.968C149.484 306.011 149.42 306.032 149.335 306.032C149.111 306.032 148.828 306.027 148.487 306.016C148.145 306.005 147.804 305.995 147.463 305.984C147.132 305.973 146.86 305.968 146.647 305.968C146.433 305.968 146.183 305.973 145.895 305.984C145.617 305.995 145.329 306.005 145.031 306.016C144.743 306.037 144.481 306.048 144.247 306.048ZM158.578 306.224C157.831 306.224 157.122 306.101 156.45 305.856C155.778 305.6 155.181 305.243 154.658 304.784C154.135 304.315 153.725 303.76 153.426 303.12C153.127 302.469 152.978 301.749 152.978 300.96C152.978 300.235 153.101 299.541 153.346 298.88C153.591 298.208 153.954 297.611 154.434 297.088C154.925 296.565 155.527 296.149 156.242 295.84C156.957 295.531 157.783 295.376 158.722 295.376C159.469 295.376 160.178 295.504 160.85 295.76C161.522 296.005 162.119 296.363 162.642 296.832C163.165 297.291 163.575 297.845 163.874 298.496C164.173 299.136 164.322 299.851 164.322 300.64C164.322 301.355 164.199 302.048 163.954 302.72C163.709 303.392 163.341 303.989 162.85 304.512C162.37 305.035 161.773 305.451 161.058 305.76C160.343 306.069 159.517 306.224 158.578 306.224ZM158.866 305.472C159.431 305.472 159.901 305.301 160.274 304.96C160.658 304.619 160.946 304.149 161.138 303.552C161.33 302.944 161.426 302.251 161.426 301.472C161.426 300.832 161.367 300.197 161.25 299.568C161.133 298.939 160.951 298.368 160.706 297.856C160.461 297.333 160.146 296.917 159.762 296.608C159.389 296.299 158.935 296.144 158.402 296.144C157.847 296.144 157.378 296.315 156.994 296.656C156.621 296.997 156.338 297.467 156.146 298.064C155.965 298.661 155.874 299.349 155.874 300.128C155.874 300.768 155.933 301.403 156.05 302.032C156.167 302.661 156.343 303.237 156.578 303.76C156.823 304.272 157.133 304.688 157.506 305.008C157.89 305.317 158.343 305.472 158.866 305.472ZM175.071 306.336C174.473 306.336 173.972 306.261 173.567 306.112C173.172 305.963 172.841 305.771 172.575 305.536C172.308 305.291 172.068 305.024 171.855 304.736C171.631 304.427 171.412 304.117 171.199 303.808C170.985 303.488 170.777 303.152 170.575 302.8C170.372 302.437 170.169 302.037 169.967 301.6C169.86 301.365 169.732 301.205 169.583 301.12C169.519 301.077 169.449 301.051 169.375 301.04C169.311 301.019 169.252 301.008 169.199 301.008C169.145 301.008 169.103 301.04 169.071 301.104C169.049 301.157 169.039 301.232 169.039 301.328V304.432C169.039 304.763 169.129 304.992 169.311 305.12C169.503 305.248 169.828 305.36 170.287 305.456C170.383 305.477 170.457 305.515 170.511 305.568C170.564 305.611 170.591 305.685 170.591 305.792C170.591 305.867 170.569 305.925 170.527 305.968C170.484 306.011 170.42 306.032 170.335 306.032C170.111 306.032 169.828 306.027 169.487 306.016C169.145 306.005 168.804 305.995 168.463 305.984C168.132 305.973 167.86 305.968 167.647 305.968C167.433 305.968 167.183 305.973 166.895 305.984C166.617 305.995 166.329 306.005 166.031 306.016C165.743 306.037 165.481 306.048 165.247 306.048C165.183 306.048 165.119 306.027 165.055 305.984C164.991 305.941 164.959 305.883 164.959 305.808C164.959 305.627 165.06 305.509 165.263 305.456C165.668 305.371 165.945 305.264 166.095 305.136C166.244 305.008 166.319 304.779 166.319 304.448V297.184C166.319 296.949 166.292 296.768 166.239 296.64C166.185 296.501 166.089 296.395 165.951 296.32C165.812 296.235 165.615 296.165 165.359 296.112C165.231 296.08 165.14 296.032 165.087 295.968C165.044 295.904 165.023 295.84 165.023 295.776C165.023 295.701 165.049 295.643 165.103 295.6C165.167 295.547 165.247 295.52 165.343 295.52C165.695 295.52 165.988 295.531 166.223 295.552C166.457 295.573 166.681 295.595 166.895 295.616C167.108 295.637 167.353 295.648 167.631 295.648C167.887 295.648 168.111 295.637 168.303 295.616C168.505 295.584 168.729 295.557 168.975 295.536C169.22 295.504 169.54 295.488 169.935 295.488C171.193 295.488 172.164 295.701 172.847 296.128C173.54 296.544 173.887 297.184 173.887 298.048C173.887 298.528 173.78 298.933 173.567 299.264C173.353 299.584 173.087 299.845 172.767 300.048C172.447 300.24 172.121 300.384 171.791 300.48C171.748 300.491 171.727 300.517 171.727 300.56C171.737 300.603 171.753 300.64 171.775 300.672C172.095 301.141 172.404 301.595 172.703 302.032C173.012 302.469 173.321 302.875 173.631 303.248C173.94 303.611 174.249 303.941 174.559 304.24C174.932 304.592 175.316 304.8 175.711 304.864C176.116 304.928 176.505 304.96 176.879 304.96C177.039 304.96 177.119 305.061 177.119 305.264C177.119 305.52 177.033 305.728 176.863 305.888C176.703 306.037 176.468 306.149 176.159 306.224C175.849 306.299 175.487 306.336 175.071 306.336ZM169.599 300.464C169.983 300.464 170.297 300.379 170.543 300.208C170.788 300.037 170.969 299.803 171.087 299.504C171.215 299.195 171.279 298.837 171.279 298.432C171.279 297.92 171.215 297.504 171.087 297.184C170.959 296.864 170.772 296.629 170.527 296.48C170.292 296.32 170.004 296.24 169.663 296.24C169.449 296.24 169.289 296.331 169.183 296.512C169.087 296.693 169.039 297.093 169.039 297.712C169.039 297.947 169.039 298.245 169.039 298.608C169.039 298.96 169.039 299.376 169.039 299.856C169.039 300.069 169.087 300.224 169.183 300.32C169.289 300.416 169.428 300.464 169.599 300.464ZM177.719 306.048C177.591 306.048 177.495 306.027 177.431 305.984C177.378 305.941 177.351 305.883 177.351 305.808C177.351 305.712 177.399 305.653 177.495 305.632C177.591 305.6 177.687 305.563 177.783 305.52C178.029 305.424 178.242 305.269 178.423 305.056C178.615 304.843 178.733 304.576 178.775 304.256C178.829 303.861 178.887 303.323 178.951 302.64C179.015 301.947 179.085 301.179 179.159 300.336C179.234 299.483 179.309 298.619 179.383 297.744C179.394 297.691 179.399 297.616 179.399 297.52C179.399 297.424 179.399 297.317 179.399 297.2C179.399 296.987 179.362 296.821 179.287 296.704C179.223 296.587 179.122 296.491 178.983 296.416C178.866 296.352 178.738 296.293 178.599 296.24C178.461 296.176 178.311 296.123 178.151 296.08C178.023 296.048 177.917 296.005 177.831 295.952C177.757 295.899 177.719 295.824 177.719 295.728C177.719 295.632 177.757 295.568 177.831 295.536C177.917 295.493 178.018 295.472 178.135 295.472C178.306 295.472 178.509 295.477 178.743 295.488C178.989 295.499 179.255 295.509 179.543 295.52C179.831 295.52 180.125 295.525 180.423 295.536C180.733 295.547 181.031 295.552 181.319 295.552C181.405 295.552 181.485 295.584 181.559 295.648C181.634 295.712 181.682 295.776 181.703 295.84C181.789 296.053 181.863 296.251 181.927 296.432C181.991 296.603 182.066 296.795 182.151 297.008L184.455 302.432C184.477 302.475 184.498 302.496 184.519 302.496C184.551 302.496 184.573 302.475 184.583 302.432L186.679 297.392C186.765 296.976 186.829 296.651 186.871 296.416C186.925 296.171 186.973 295.984 187.015 295.856C187.058 295.717 187.149 295.648 187.287 295.648H188.007C188.477 295.627 188.967 295.595 189.479 295.552C190.002 295.499 190.413 295.472 190.711 295.472C190.829 295.472 190.925 295.493 190.999 295.536C191.085 295.568 191.127 295.632 191.127 295.728C191.127 295.824 191.09 295.893 191.015 295.936C190.941 295.979 190.855 296.016 190.759 296.048C190.717 296.059 190.658 296.08 190.583 296.112C190.519 296.144 190.466 296.171 190.423 296.192C190.103 296.341 189.869 296.507 189.719 296.688C189.581 296.869 189.522 297.163 189.543 297.568C189.575 298.347 189.607 299.013 189.639 299.568C189.671 300.123 189.698 300.635 189.719 301.104C189.751 301.573 189.783 302.069 189.815 302.592C189.858 303.104 189.901 303.717 189.943 304.432C189.965 304.699 190.082 304.917 190.295 305.088C190.509 305.248 190.775 305.371 191.095 305.456C191.191 305.488 191.271 305.525 191.335 305.568C191.41 305.611 191.447 305.685 191.447 305.792C191.447 305.867 191.415 305.925 191.351 305.968C191.298 306.011 191.229 306.032 191.143 306.032C190.919 306.032 190.642 306.027 190.311 306.016C189.991 306.005 189.671 305.995 189.351 305.984C189.031 305.973 188.765 305.968 188.551 305.968C188.338 305.968 188.087 305.973 187.799 305.984C187.522 305.995 187.234 306.005 186.935 306.016C186.647 306.037 186.386 306.048 186.151 306.048C186.066 306.048 185.986 306.027 185.911 305.984C185.847 305.941 185.815 305.883 185.815 305.808C185.815 305.712 185.847 305.637 185.911 305.584C185.986 305.52 186.071 305.477 186.167 305.456C186.573 305.371 186.855 305.264 187.015 305.136C187.175 304.997 187.245 304.768 187.223 304.448C187.191 303.808 187.165 303.157 187.143 302.496C187.122 301.835 187.101 301.184 187.079 300.544C187.069 299.893 187.047 299.28 187.015 298.704C187.015 298.64 186.999 298.613 186.967 298.624C186.935 298.624 186.903 298.661 186.871 298.736L183.959 305.952C183.895 306.123 183.805 306.192 183.687 306.16C183.581 306.128 183.506 306.069 183.463 305.984C182.909 304.747 182.338 303.525 181.751 302.32C181.165 301.115 180.642 299.947 180.183 298.816C180.141 298.709 180.082 298.672 180.007 298.704C179.943 298.736 179.906 298.821 179.895 298.96C179.874 299.44 179.858 300 179.847 300.64C179.847 301.28 179.853 301.925 179.863 302.576C179.874 303.227 179.879 303.813 179.879 304.336C179.879 304.635 179.975 304.869 180.167 305.04C180.359 305.211 180.669 305.349 181.095 305.456C181.191 305.477 181.287 305.515 181.383 305.568C181.479 305.611 181.527 305.685 181.527 305.792C181.527 305.867 181.485 305.925 181.399 305.968C181.314 306.011 181.229 306.032 181.143 306.032C180.855 306.032 180.631 306.027 180.471 306.016C180.311 306.005 180.162 306 180.023 306C179.895 305.989 179.719 305.984 179.495 305.984C179.25 305.984 178.989 305.989 178.711 306C178.434 306.011 178.199 306.021 178.007 306.032C177.815 306.043 177.719 306.048 177.719 306.048ZM192.102 306.08C191.984 306.08 191.883 306.059 191.798 306.016C191.723 305.984 191.686 305.915 191.686 305.808C191.686 305.701 191.718 305.627 191.782 305.584C191.856 305.531 191.942 305.488 192.038 305.456C192.358 305.371 192.63 305.237 192.854 305.056C193.088 304.875 193.259 304.667 193.366 304.432C193.622 303.845 193.867 303.264 194.102 302.688C194.336 302.112 194.566 301.541 194.79 300.976C195.014 300.4 195.232 299.824 195.446 299.248C195.67 298.661 195.888 298.075 196.102 297.488C196.283 296.997 196.395 296.651 196.438 296.448C196.48 296.235 196.518 296.123 196.55 296.112C196.763 296.059 196.96 296.011 197.142 295.968C197.323 295.915 197.526 295.851 197.75 295.776C197.952 295.701 198.128 295.611 198.278 295.504C198.438 295.387 198.555 295.291 198.63 295.216C198.683 295.184 198.731 295.163 198.774 295.152C198.827 295.141 198.875 295.179 198.918 295.264C198.96 295.339 198.992 295.413 199.014 295.488C199.046 295.552 199.072 295.627 199.094 295.712C199.307 296.416 199.526 297.125 199.75 297.84C199.984 298.555 200.219 299.28 200.454 300.016C200.688 300.741 200.923 301.472 201.158 302.208C201.403 302.944 201.643 303.685 201.878 304.432C201.931 304.603 202.016 304.757 202.134 304.896C202.262 305.024 202.411 305.136 202.582 305.232C202.752 305.317 202.944 305.392 203.158 305.456C203.254 305.488 203.334 305.525 203.398 305.568C203.472 305.611 203.51 305.685 203.51 305.792C203.51 305.867 203.478 305.925 203.414 305.968C203.36 306.011 203.291 306.032 203.206 306.032C202.982 306.032 202.704 306.027 202.374 306.016C202.054 306.005 201.728 305.995 201.398 305.984C201.078 305.973 200.795 305.968 200.55 305.968C200.336 305.968 200.075 305.973 199.766 305.984C199.456 305.995 199.142 306.005 198.822 306.016C198.502 306.037 198.224 306.048 197.99 306.048C197.904 306.048 197.824 306.027 197.75 305.984C197.686 305.941 197.654 305.883 197.654 305.808C197.654 305.712 197.686 305.637 197.75 305.584C197.824 305.52 197.91 305.477 198.006 305.456C198.411 305.371 198.71 305.259 198.902 305.12C199.094 304.981 199.147 304.757 199.062 304.448C199.008 304.235 198.95 304.027 198.886 303.824C198.832 303.621 198.779 303.419 198.726 303.216C198.672 303.003 198.619 302.795 198.566 302.592C198.544 302.507 198.518 302.443 198.486 302.4C198.454 302.347 198.395 302.32 198.31 302.32H195.526C195.44 302.32 195.376 302.347 195.334 302.4C195.302 302.443 195.275 302.507 195.254 302.592C195.211 302.752 195.163 302.901 195.11 303.04C195.067 303.168 195.024 303.296 194.982 303.424C194.939 303.552 194.896 303.685 194.854 303.824C194.811 303.952 194.768 304.096 194.726 304.256C194.63 304.597 194.646 304.853 194.774 305.024C194.902 305.195 195.216 305.339 195.718 305.456C195.952 305.509 196.07 305.627 196.07 305.808C196.07 305.883 196.043 305.941 195.99 305.984C195.936 306.016 195.851 306.032 195.734 306.032C195.382 306.032 195.072 306.021 194.806 306C194.539 305.989 194.246 305.984 193.926 305.984C193.616 305.984 193.318 306 193.03 306.032C192.752 306.064 192.443 306.08 192.102 306.08ZM195.974 301.392H197.974C198.134 301.392 198.214 301.355 198.214 301.28C198.214 301.237 198.208 301.211 198.198 301.2C198.198 301.179 198.192 301.147 198.182 301.104L197.158 297.568C197.126 297.461 197.094 297.408 197.062 297.408C197.04 297.408 197.008 297.461 196.966 297.568L195.734 301.104C195.712 301.147 195.702 301.189 195.702 301.232C195.702 301.285 195.728 301.328 195.782 301.36C195.846 301.381 195.91 301.392 195.974 301.392ZM214.069 306.304C213.919 306.304 213.685 306.219 213.365 306.048C213.055 305.888 212.725 305.595 212.373 305.168C212.074 304.848 211.775 304.533 211.477 304.224C211.189 303.904 210.895 303.589 210.597 303.28C210.298 302.96 209.999 302.645 209.701 302.336C209.402 302.016 209.103 301.701 208.805 301.392C208.517 301.083 208.223 300.773 207.925 300.464C207.626 300.144 207.327 299.829 207.029 299.52C206.741 299.2 206.447 298.88 206.149 298.56C206.138 298.539 206.111 298.507 206.069 298.464C206.026 298.421 205.994 298.4 205.973 298.4C205.93 298.4 205.898 298.437 205.877 298.512C205.866 298.587 205.861 298.651 205.861 298.704C205.861 299.184 205.866 299.755 205.877 300.416C205.898 301.077 205.914 301.744 205.925 302.416C205.946 303.077 205.957 303.669 205.957 304.192C205.957 304.555 206.069 304.832 206.293 305.024C206.527 305.205 206.858 305.349 207.285 305.456C207.381 305.477 207.477 305.515 207.573 305.568C207.669 305.611 207.717 305.685 207.717 305.792C207.717 305.867 207.674 305.925 207.589 305.968C207.503 306.011 207.418 306.032 207.333 306.032C207.045 306.032 206.805 306.027 206.613 306.016C206.421 306.005 206.239 306 206.069 306C205.909 305.989 205.717 305.984 205.493 305.984C205.247 305.984 205.007 305.989 204.773 306C204.549 306.011 204.362 306.021 204.213 306.032C204.074 306.043 204.005 306.048 204.005 306.048C203.941 306.048 203.861 306.027 203.765 305.984C203.679 305.941 203.637 305.883 203.637 305.808C203.637 305.712 203.674 305.643 203.749 305.6C203.834 305.547 203.925 305.499 204.021 305.456C204.266 305.36 204.453 305.2 204.581 304.976C204.719 304.752 204.799 304.48 204.821 304.16C204.863 303.765 204.906 303.243 204.949 302.592C205.002 301.941 205.05 301.211 205.093 300.4C205.135 299.589 205.157 298.747 205.157 297.872C205.157 297.317 205.018 296.917 204.741 296.672C204.463 296.427 204.127 296.229 203.733 296.08C203.637 296.059 203.541 296.021 203.445 295.968C203.349 295.904 203.301 295.824 203.301 295.728C203.301 295.632 203.338 295.568 203.413 295.536C203.498 295.493 203.599 295.472 203.717 295.472C203.887 295.472 204.095 295.477 204.341 295.488C204.597 295.499 204.869 295.509 205.157 295.52C205.455 295.52 205.759 295.525 206.069 295.536C206.378 295.547 206.677 295.552 206.965 295.552C207.05 295.552 207.114 295.568 207.157 295.6C207.21 295.621 207.253 295.659 207.285 295.712C207.562 296.021 207.839 296.336 208.117 296.656C208.405 296.965 208.687 297.275 208.965 297.584C209.253 297.893 209.535 298.203 209.813 298.512C210.101 298.821 210.383 299.136 210.661 299.456C210.938 299.765 211.215 300.075 211.493 300.384C211.781 300.693 212.063 301.008 212.341 301.328C212.629 301.637 212.911 301.947 213.189 302.256C213.221 302.299 213.258 302.341 213.301 302.384C213.343 302.427 213.381 302.448 213.413 302.448C213.498 302.448 213.541 302.373 213.541 302.224C213.541 301.851 213.541 301.445 213.541 301.008C213.541 300.56 213.541 300.107 213.541 299.648C213.541 299.179 213.535 298.731 213.525 298.304C213.525 297.867 213.514 297.483 213.493 297.152C213.482 296.843 213.37 296.619 213.157 296.48C212.954 296.341 212.65 296.219 212.245 296.112C212.149 296.091 212.063 296.059 211.989 296.016C211.914 295.963 211.877 295.883 211.877 295.776C211.877 295.701 211.914 295.643 211.989 295.6C212.063 295.557 212.138 295.536 212.213 295.536C212.501 295.536 212.735 295.541 212.917 295.552C213.098 295.552 213.263 295.557 213.413 295.568C213.562 295.568 213.727 295.568 213.909 295.568C214.122 295.568 214.303 295.568 214.453 295.568C214.602 295.557 214.762 295.547 214.933 295.536C215.114 295.525 215.338 295.52 215.605 295.52C215.722 295.52 215.813 295.541 215.877 295.584C215.951 295.627 215.989 295.685 215.989 295.76C215.989 295.931 215.855 296.043 215.589 296.096C215.226 296.171 214.959 296.277 214.789 296.416C214.618 296.555 214.533 296.784 214.533 297.104C214.533 297.563 214.527 298.021 214.517 298.48C214.506 298.928 214.49 299.371 214.469 299.808C214.447 300.245 214.426 300.672 214.405 301.088C214.383 301.493 214.367 301.883 214.357 302.256C214.346 302.629 214.341 302.971 214.341 303.28C214.341 303.525 214.357 303.808 214.389 304.128C214.421 304.437 214.453 304.725 214.485 304.992C214.517 305.248 214.533 305.424 214.533 305.52C214.533 305.808 214.49 306.011 214.405 306.128C214.33 306.245 214.218 306.304 214.069 306.304ZM222.62 306.224C221.778 306.224 220.988 306.101 220.252 305.856C219.516 305.6 218.871 305.243 218.316 304.784C217.762 304.315 217.33 303.76 217.02 303.12C216.711 302.469 216.556 301.749 216.556 300.96C216.556 300.235 216.7 299.541 216.988 298.88C217.276 298.208 217.698 297.611 218.252 297.088C218.818 296.565 219.506 296.149 220.316 295.84C221.127 295.531 222.05 295.376 223.084 295.376C223.415 295.376 223.756 295.403 224.108 295.456C224.471 295.509 224.818 295.579 225.148 295.664C225.49 295.749 225.783 295.845 226.028 295.952C226.114 295.995 226.188 296.048 226.252 296.112C226.327 296.176 226.37 296.267 226.38 296.384C226.434 296.768 226.466 297.131 226.476 297.472C226.498 297.803 226.508 298.085 226.508 298.32C226.508 298.448 226.46 298.533 226.364 298.576C226.279 298.619 226.183 298.619 226.076 298.576C225.98 298.533 225.911 298.448 225.868 298.32C225.794 298.107 225.708 297.883 225.612 297.648C225.527 297.413 225.394 297.211 225.212 297.04C224.999 296.816 224.706 296.629 224.332 296.48C223.959 296.331 223.495 296.256 222.94 296.256C222.407 296.256 221.927 296.373 221.5 296.608C221.074 296.832 220.711 297.147 220.412 297.552C220.114 297.947 219.884 298.4 219.724 298.912C219.564 299.413 219.484 299.941 219.484 300.496C219.484 301.211 219.554 301.867 219.692 302.464C219.831 303.051 220.044 303.557 220.332 303.984C220.62 304.411 220.978 304.741 221.404 304.976C221.842 305.2 222.354 305.312 222.94 305.312C223.74 305.312 224.38 305.147 224.86 304.816C225.351 304.485 225.762 303.963 226.092 303.248C226.178 303.056 226.3 302.965 226.46 302.976C226.62 302.987 226.7 303.077 226.7 303.248C226.7 303.397 226.684 303.573 226.652 303.776C226.631 303.968 226.594 304.181 226.54 304.416C226.498 304.64 226.439 304.88 226.364 305.136C226.332 305.253 226.279 305.349 226.204 305.424C226.13 305.499 226.044 305.563 225.948 305.616C225.543 305.797 225.063 305.941 224.508 306.048C223.954 306.165 223.324 306.224 222.62 306.224ZM228.06 306.08C227.964 306.08 227.889 306.053 227.836 306C227.783 305.947 227.756 305.888 227.756 305.824C227.756 305.664 227.863 305.552 228.076 305.488C228.428 305.381 228.673 305.269 228.812 305.152C228.961 305.035 229.036 304.811 229.036 304.48V297.184C229.036 296.843 228.967 296.603 228.828 296.464C228.7 296.315 228.449 296.197 228.076 296.112C227.948 296.08 227.857 296.032 227.804 295.968C227.761 295.904 227.74 295.84 227.74 295.776C227.74 295.701 227.767 295.643 227.82 295.6C227.884 295.547 227.964 295.52 228.06 295.52C228.295 295.52 228.551 295.525 228.828 295.536C229.105 295.547 229.377 295.563 229.644 295.584C229.911 295.595 230.151 295.6 230.364 295.6C230.961 295.6 231.601 295.595 232.284 295.584C232.967 295.573 233.569 295.563 234.092 295.552C234.433 295.552 234.711 295.531 234.924 295.488C235.148 295.445 235.281 295.424 235.324 295.424C235.409 295.424 235.495 295.451 235.58 295.504C235.676 295.547 235.729 295.632 235.74 295.76C235.783 296.155 235.836 296.544 235.9 296.928C235.975 297.301 236.012 297.632 236.012 297.92C236.012 298.027 235.991 298.107 235.948 298.16C235.905 298.213 235.857 298.24 235.804 298.24C235.751 298.24 235.692 298.219 235.628 298.176C235.564 298.133 235.511 298.064 235.468 297.968C235.351 297.68 235.244 297.44 235.148 297.248C235.063 297.045 234.961 296.885 234.844 296.768C234.727 296.651 234.577 296.539 234.396 296.432C234.215 296.315 233.975 296.256 233.676 296.256H232.668C232.401 296.256 232.183 296.32 232.012 296.448C231.841 296.576 231.756 296.757 231.756 296.992V299.936C231.756 300.075 231.793 300.176 231.868 300.24C231.943 300.293 232.044 300.32 232.172 300.32H233.532C233.809 300.32 234.007 300.219 234.124 300.016C234.252 299.813 234.364 299.584 234.46 299.328C234.545 299.136 234.657 299.04 234.796 299.04C234.849 299.04 234.897 299.072 234.94 299.136C234.983 299.2 234.999 299.291 234.988 299.408C234.977 299.557 234.961 299.707 234.94 299.856C234.929 300.005 234.919 300.155 234.908 300.304C234.908 300.443 234.908 300.587 234.908 300.736C234.908 300.875 234.908 301.019 234.908 301.168C234.919 301.307 234.929 301.451 234.94 301.6C234.951 301.749 234.961 301.904 234.972 302.064C234.993 302.224 234.983 302.341 234.94 302.416C234.908 302.48 234.865 302.512 234.812 302.512C234.631 302.512 234.503 302.384 234.428 302.128C234.332 301.787 234.22 301.525 234.092 301.344C233.975 301.163 233.815 301.072 233.612 301.072H232.108C231.991 301.072 231.9 301.104 231.836 301.168C231.783 301.232 231.756 301.323 231.756 301.44V304.464C231.756 304.763 231.82 304.976 231.948 305.104C232.076 305.221 232.273 305.28 232.54 305.28H233.964C234.177 305.28 234.385 305.253 234.588 305.2C234.801 305.136 234.983 305.04 235.132 304.912C235.313 304.763 235.479 304.571 235.628 304.336C235.788 304.101 235.927 303.867 236.044 303.632C236.087 303.547 236.129 303.493 236.172 303.472C236.225 303.451 236.284 303.44 236.348 303.44C236.412 303.44 236.455 303.477 236.476 303.552C236.497 303.616 236.508 303.685 236.508 303.76C236.508 303.952 236.481 304.16 236.428 304.384C236.375 304.608 236.305 304.848 236.22 305.104C236.145 305.349 236.071 305.605 235.996 305.872C235.975 305.947 235.927 305.995 235.852 306.016C235.777 306.048 235.697 306.064 235.612 306.064C235.559 306.064 235.351 306.059 234.988 306.048C234.625 306.048 234.172 306.043 233.628 306.032C233.095 306.021 232.535 306.011 231.948 306C231.372 306 230.844 306 230.364 306C230.151 306 229.905 306.005 229.628 306.016C229.351 306.027 229.073 306.037 228.796 306.048C228.519 306.069 228.273 306.08 228.06 306.08Z" fill="#292929" fill-opacity="0.3" />
		</g>
	</g>
	<defs>
		<filter id="filter0_d_1_80" x="0.799999" y="0.799999" width="348.4" height="413.4" filterUnits="userSpaceOnUse" color-interpolation-filters="sRGB">
			<feFlood flood-opacity="0" result="BackgroundImageFix" />
			<feColorMatrix in="SourceAlpha" type="matrix" values="0 0 0 0 0 0 0 0 0 0 0 0 0 0 0 0 0 0 127 0" result="hardAlpha" />
			<feOffset />
			<feGaussianBlur stdDeviation="23.6" />
			<feComposite in2="hardAlpha" operator="out" />
			<feColorMatrix type="matrix" values="0 0 0 0 0 0 0 0 0 0 0 0 0 0 0 0 0 0 0.07 0" />
			<feBlend mode="normal" in2="BackgroundImageFix" result="effect1_dropShadow_1_80" />
			<feBlend mode="normal" in="SourceGraphic" in2="effect1_dropShadow_1_80" result="shape" />
		</filter>
		<linearGradient id="paint0_linear_1_80" x1="86" y1="112" x2="240" y2="263" gradientUnits="userSpaceOnUse">
			<stop stop-color="#FFD700" />
			<stop offset="0.435023" stop-color="#DEC956" />
			<stop offset="0.705023" stop-color="#ADA578" />
			<stop offset="1" stop-color="#C7AB15" />
		</linearGradient>
		<clipPath id="clip0_1_80">
			<rect x="48" y="48" width="254" height="319" rx="23" fill="white" />
		</clipPath>
	</defs>
</svg>
