<svg width="350" height="415" viewBox="0 0 350 415" fill="none" xmlns="http://www.w3.org/2000/svg">
	<g filter="url(#filter0_d_1_2853)">
		<g clip-path="url(#clip0_1_2853)">
			<rect x="48" y="48" width="254" height="319" rx="23" fill="#EBFFE6" />
			<path d="M53.7438 268.72C52.7838 268.72 51.9038 268.4 51.1038 267.76C50.4638 267.12 50.1438 266.4 50.1438 265.6C50.1438 263.84 51.4238 262.64 53.9838 262C59.4238 260.4 63.9838 259.04 67.6638 257.92C71.3438 256.64 74.0638 254.88 75.8238 252.64C77.7438 250.24 78.7038 246.88 78.7038 242.56V152.56C78.7038 149.36 77.7438 146.88 75.8238 145.12C73.9038 143.36 71.3438 142.16 68.1438 141.52C65.1038 140.72 61.8238 140.16 58.3038 139.84C56.8638 139.68 55.4238 139.28 53.9838 138.64C52.7038 137.84 52.0638 136.72 52.0638 135.28C52.0638 133.84 52.7038 132.72 53.9838 131.92C55.2638 130.96 56.7838 130.4 58.5438 130.24C66.5438 129.28 73.6638 127.92 79.9038 126.16C86.3038 124.24 92.6238 120.72 98.8638 115.6C99.0238 115.44 99.2638 115.36 99.5838 115.36C99.9038 115.2 100.224 115.12 100.544 115.12C101.504 115.12 102.304 115.36 102.944 115.84C103.744 116.32 104.144 116.88 104.144 117.52C103.824 119.76 103.504 122.24 103.184 124.96C103.024 127.68 102.944 130.88 102.944 134.56V244.72C102.944 248.4 103.744 251.28 105.344 253.36C107.104 255.28 109.744 256.88 113.264 258.16C116.944 259.28 121.744 260.56 127.664 262C128.784 262.32 129.744 262.8 130.544 263.44C131.344 263.92 131.744 264.72 131.744 265.84C131.744 267.76 130.624 268.72 128.384 268.72C124.224 268.72 119.984 268.56 115.664 268.24C111.504 268.08 107.344 267.92 103.184 267.76C99.1838 267.6 95.1838 267.52 91.1838 267.52C87.1838 267.52 83.1038 267.6 78.9438 267.76C74.7838 267.92 70.5438 268.08 66.2238 268.24C62.0638 268.56 57.9038 268.72 53.7438 268.72ZM183.121 271.36C178.001 271.36 173.121 270.64 168.481 269.2C164.001 267.76 160.081 265.68 156.721 262.96C155.601 260.88 154.801 257.6 154.321 253.12C153.841 248.64 153.601 244.56 153.601 240.88C153.601 239.28 154.801 238.48 157.201 238.48C158.161 238.48 158.961 238.72 159.601 239.2C160.401 239.52 160.881 240 161.041 240.64C163.441 248.16 166.801 253.84 171.121 257.68C175.441 261.52 180.161 263.44 185.281 263.44C189.761 263.44 193.441 262 196.321 259.12C199.201 256.08 200.641 252.48 200.641 248.32C200.641 244 199.121 240.4 196.081 237.52C193.041 234.48 188.401 231.04 182.161 227.2C177.041 224.16 172.641 221.2 168.961 218.32C165.281 215.28 162.481 212 160.561 208.48C158.641 204.8 157.681 200.64 157.681 196C157.681 190.4 159.041 185.44 161.761 181.12C164.641 176.8 168.641 173.36 173.761 170.8C178.881 168.24 185.041 166.96 192.241 166.96C197.361 166.96 201.681 167.52 205.201 168.64C208.881 169.6 211.521 170.64 213.121 171.76C214.401 173.52 215.441 176.4 216.241 180.4C217.201 184.4 217.681 188.4 217.681 192.4C217.681 193.68 216.641 194.32 214.561 194.32C213.601 194.32 212.561 194.08 211.441 193.6C210.481 193.12 209.841 192.48 209.521 191.68C207.441 186.08 204.801 181.84 201.601 178.96C198.561 176.08 194.801 174.64 190.321 174.64C186.481 174.64 183.041 175.84 180.001 178.24C176.961 180.48 175.441 183.76 175.441 188.08C175.441 191.76 176.721 195.04 179.281 197.92C182.001 200.64 186.241 203.6 192.001 206.8C201.601 212.08 208.641 217.12 213.121 221.92C217.761 226.56 220.081 232.8 220.081 240.64C220.081 249.92 216.721 257.36 210.001 262.96C203.441 268.56 194.481 271.36 183.121 271.36ZM275.266 271.36C266.466 271.36 259.666 268.88 254.866 263.92C250.226 258.96 247.906 251.68 247.906 242.08V186.4C247.906 185.12 247.346 184.24 246.226 183.76C245.266 183.12 243.266 182.8 240.226 182.8H238.306C237.346 182.8 236.546 182.16 235.906 180.88C235.266 179.44 234.946 178.08 234.946 176.8C234.946 176.48 235.106 176.08 235.426 175.6C235.906 174.96 236.306 174.56 236.626 174.4C239.986 172.32 243.266 170.08 246.466 167.68C249.826 165.12 252.866 162.56 255.586 160C258.466 157.44 260.866 155.2 262.786 153.28C263.746 152.48 264.546 151.76 265.186 151.12C265.826 150.48 266.626 150.16 267.586 150.16C268.546 150.16 269.346 150.4 269.986 150.88C270.786 151.36 271.106 152.32 270.946 153.76L269.506 165.52C269.346 167.44 269.746 168.72 270.706 169.36C271.826 170 273.346 170.32 275.266 170.32H303.106C303.586 170.32 304.066 170.88 304.546 172C305.026 173.12 305.266 174.24 305.266 175.36C305.266 177.12 305.026 178.8 304.546 180.4C304.066 182 303.506 182.8 302.866 182.8H279.586C275.586 182.8 272.946 183.2 271.666 184C270.546 184.8 269.986 186.64 269.986 189.52V236.08C269.986 242.8 271.346 248 274.066 251.68C276.786 255.2 280.626 256.96 285.586 256.96C290.226 256.96 293.746 256.56 296.146 255.76C298.546 254.96 300.706 254 302.626 252.88C303.106 252.56 303.506 252.4 303.826 252.4C304.626 252.4 305.106 252.8 305.266 253.6C305.586 254.4 305.746 255.28 305.746 256.24C305.746 257.2 304.306 258.88 301.426 261.28C298.546 263.68 294.786 265.92 290.146 268C285.506 270.24 280.546 271.36 275.266 271.36Z" fill="black" fill-opacity="0.03" />
			<path d="M203.444 178.109C203.444 193.24 190.907 205.507 175.443 205.507C159.978 205.507 147.441 193.24 147.441 178.109C147.441 166.269 155.118 156.182 165.868 152.356C168.855 151.292 172.079 150.712 175.443 150.712C182.317 150.712 188.614 153.136 193.487 157.158C199.576 162.184 203.444 169.705 203.444 178.109Z" fill="url(#paint0_linear_1_2853)" />
			<path d="M165.868 152.356C168.855 151.292 172.079 150.712 175.443 150.712C182.317 150.712 188.614 153.136 193.487 157.158C198.663 159.04 202.477 160.828 205.459 163.605C209.715 166.659 212.435 171.208 213.92 178.109C214.8 184.442 213.555 187.75 211.301 193.42C207.144 201.358 202.474 205.959 196.998 209.334C191.812 212.695 186.079 214.996 178.061 215.378H172.824C167.435 215.071 162.306 214.577 157.715 211.752C150.605 208.409 145.616 203.274 141.599 196.643C139.039 192.53 137.781 185.776 138.376 178.109C140.854 166.05 146.602 160.668 158.722 152.356L173.025 142.05V140.438H168.392C158.543 147.468 153.031 151.196 143.815 157.964C129.487 169.392 126.141 178.644 126.893 192.211C127.383 199.278 129.359 203.791 132.332 208.126C134.888 211.351 136.991 214.172 139.584 216.586C146.058 222.615 153.476 226.262 163.154 228.472C166.137 229.5 168.921 229.525 172.824 229.882H178.061C188.915 229.013 196.663 226.548 202.84 222.63C208.802 219.381 213.594 215.457 217.336 209.939C220.79 205.447 222.76 200.038 223.388 193.42C223.295 184.593 222.25 177.032 218.352 171.059C214.105 163.291 207.745 158.569 201.027 154.942C194.841 151.957 187.439 150.341 178.061 150.108L172.824 150.309C169.846 150.736 168.391 151.281 165.868 152.356Z" fill="url(#paint1_linear_1_2853)" />
			<path fill-rule="evenodd" clip-rule="evenodd" d="M114 137.819H236.684V241.768H114V137.819ZM234.468 239.149H116.417V140.438H234.468V239.149Z" fill="url(#paint2_linear_1_2853)" />
			<path d="M172.824 140.237H178.061V261.913H172.824V140.237Z" fill="url(#paint3_linear_1_2853)" />
			<path d="M178.061 261.107C178.061 268.228 172.289 274 165.169 274C158.048 274 152.276 268.228 152.276 261.107C152.276 253.987 158.048 248.214 165.169 248.214C172.289 248.214 178.061 253.987 178.061 261.107Z" fill="url(#paint4_linear_1_2853)" />
			<path d="M173.025 249.826L172.219 250.43L170.809 251.639L173.227 253.049C173.629 253.251 174.476 253.613 174.637 253.452C174.798 253.291 175.241 251.639 175.443 250.833L173.025 249.826Z" fill="url(#paint5_linear_1_2853)" />
			<path fill-rule="evenodd" clip-rule="evenodd" d="M172.219 137.819C172.38 137.819 172.555 137.416 172.824 137.215V100.349C174.073 92.0903 176.621 87.5301 180.076 84.6361C182.747 82.3982 186.126 80.9136 190.954 81.01C195.518 80.8383 199.409 82.9046 201.833 85.039C203.295 86.5499 204.221 88.4803 205.459 90.6797C206.561 93.2248 207.664 96.206 207.473 100.349C207.228 104.12 206.552 107.507 205.454 110.623C200.526 121.545 192.157 129.009 179.472 137.819H172.219ZM178.061 100.349V133.79C193.697 121.687 202.341 114.882 202.638 100.349C201.766 94.3414 200.716 90.3161 197.804 87.8593C196.198 86.5048 194.166 85.3912 190.954 85.2405C188.073 85.1688 185.852 86.6384 184.105 87.8593C180.832 90.1473 179.225 93.778 178.061 100.349Z" fill="url(#paint6_linear_1_2853)" />
			<path d="M116.801 306.108C116.657 306.108 116.513 306.06 116.369 305.964C116.225 305.868 116.153 305.736 116.153 305.568C116.153 305.16 116.381 304.896 116.837 304.776C117.749 304.584 118.373 304.344 118.709 304.056C119.045 303.768 119.213 303.252 119.213 302.508V286.164C119.213 285.396 119.057 284.856 118.745 284.544C118.457 284.208 117.893 283.944 117.053 283.752C116.765 283.68 116.561 283.572 116.441 283.428C116.345 283.284 116.297 283.14 116.297 282.996C116.297 282.828 116.357 282.696 116.477 282.6C116.621 282.48 116.801 282.42 117.017 282.42C117.545 282.42 118.121 282.432 118.745 282.456C119.369 282.48 119.981 282.516 120.581 282.564C121.181 282.588 121.721 282.6 122.201 282.6C122.777 282.6 123.281 282.576 123.713 282.528C124.169 282.456 124.673 282.396 125.225 282.348C125.777 282.276 126.497 282.24 127.385 282.24C130.337 282.24 132.677 282.876 134.405 284.148C136.133 285.396 136.997 287.112 136.997 289.296C136.997 290.808 136.673 292.212 136.025 293.508C135.377 294.78 134.393 295.812 133.073 296.604C131.777 297.372 130.133 297.756 128.141 297.756C127.493 297.756 127.001 297.66 126.665 297.468C126.329 297.276 126.161 297.036 126.161 296.748C126.161 296.556 126.245 296.412 126.413 296.316C126.581 296.22 126.725 296.172 126.845 296.172C127.133 296.172 127.361 296.208 127.529 296.28C127.721 296.328 127.973 296.352 128.285 296.352C129.197 296.352 129.881 295.8 130.337 294.696C130.817 293.568 131.057 292.116 131.057 290.34C131.057 288.06 130.733 286.428 130.085 285.444C129.461 284.436 128.561 283.932 127.385 283.932C126.713 283.932 126.209 284.088 125.873 284.4C125.537 284.712 125.369 285.192 125.369 285.84L125.333 302.472C125.333 303.216 125.537 303.732 125.945 304.02C126.377 304.308 127.109 304.56 128.141 304.776C128.357 304.824 128.525 304.908 128.645 305.028C128.765 305.124 128.825 305.292 128.825 305.532C128.825 305.7 128.777 305.832 128.681 305.928C128.585 306.024 128.441 306.072 128.249 306.072C127.745 306.072 127.109 306.06 126.341 306.036C125.573 306.012 124.805 305.988 124.037 305.964C123.293 305.94 122.681 305.928 122.201 305.928C121.721 305.928 121.157 305.94 120.509 305.964C119.885 305.988 119.237 306.012 118.565 306.036C117.917 306.084 117.329 306.108 116.801 306.108ZM139.09 306.108C138.946 306.108 138.802 306.06 138.658 305.964C138.514 305.868 138.442 305.736 138.442 305.568C138.442 305.16 138.67 304.896 139.126 304.776C140.038 304.584 140.662 304.344 140.998 304.056C141.334 303.768 141.502 303.252 141.502 302.508V286.164C141.502 285.396 141.346 284.856 141.034 284.544C140.722 284.232 140.086 283.968 139.126 283.752C138.67 283.632 138.442 283.368 138.442 282.96C138.442 282.792 138.514 282.66 138.658 282.564C138.802 282.468 138.946 282.42 139.09 282.42C139.618 282.42 140.206 282.432 140.854 282.456C141.526 282.48 142.174 282.516 142.798 282.564C143.446 282.588 144.01 282.6 144.49 282.6C144.97 282.6 145.546 282.588 146.218 282.564C146.89 282.54 147.574 282.516 148.27 282.492C148.966 282.468 149.566 282.456 150.07 282.456C150.262 282.456 150.406 282.504 150.502 282.6C150.598 282.672 150.646 282.804 150.646 282.996C150.646 283.236 150.586 283.404 150.466 283.5C150.346 283.596 150.178 283.68 149.962 283.752C148.978 284.04 148.342 284.34 148.054 284.652C147.766 284.964 147.622 285.48 147.622 286.2V302.472C147.622 303.144 147.778 303.636 148.09 303.948C148.402 304.236 149.026 304.512 149.962 304.776C150.178 304.848 150.346 304.932 150.466 305.028C150.586 305.124 150.646 305.292 150.646 305.532C150.646 305.7 150.598 305.832 150.502 305.928C150.406 306.024 150.262 306.072 150.07 306.072C149.566 306.072 148.966 306.06 148.27 306.036C147.574 306.012 146.89 305.988 146.218 305.964C145.546 305.94 144.97 305.928 144.49 305.928C144.01 305.928 143.446 305.94 142.798 305.964C142.174 305.988 141.526 306.012 140.854 306.036C140.206 306.084 139.618 306.108 139.09 306.108ZM151.947 306.18C151.683 306.18 151.455 306.132 151.263 306.036C151.095 305.964 151.011 305.808 151.011 305.568C151.011 305.328 151.083 305.16 151.227 305.064C151.395 304.944 151.587 304.848 151.803 304.776C152.523 304.584 153.135 304.284 153.639 303.876C154.167 303.468 154.551 303 154.791 302.472C155.367 301.152 155.919 299.844 156.447 298.548C156.975 297.252 157.491 295.968 157.995 294.696C158.499 293.4 158.991 292.104 159.471 290.808C159.975 289.488 160.467 288.168 160.947 286.848C161.355 285.744 161.607 284.964 161.703 284.508C161.799 284.028 161.883 283.776 161.955 283.752C162.435 283.632 162.879 283.524 163.287 283.428C163.695 283.308 164.151 283.164 164.655 282.996C165.111 282.828 165.507 282.624 165.843 282.384C166.203 282.12 166.467 281.904 166.635 281.736C166.755 281.664 166.863 281.616 166.959 281.592C167.079 281.568 167.187 281.652 167.283 281.844C167.379 282.012 167.451 282.18 167.499 282.348C167.571 282.492 167.631 282.66 167.679 282.852C168.159 284.436 168.651 286.032 169.155 287.64C169.683 289.248 170.211 290.88 170.739 292.536C171.267 294.168 171.795 295.812 172.323 297.468C172.875 299.124 173.415 300.792 173.943 302.472C174.063 302.856 174.255 303.204 174.519 303.516C174.807 303.804 175.143 304.056 175.527 304.272C175.911 304.464 176.343 304.632 176.823 304.776C177.039 304.848 177.219 304.932 177.363 305.028C177.531 305.124 177.615 305.292 177.615 305.532C177.615 305.7 177.543 305.832 177.399 305.928C177.279 306.024 177.123 306.072 176.931 306.072C176.427 306.072 175.803 306.06 175.059 306.036C174.339 306.012 173.607 305.988 172.863 305.964C172.143 305.94 171.507 305.928 170.955 305.928C170.475 305.928 169.887 305.94 169.191 305.964C168.495 305.988 167.787 306.012 167.067 306.036C166.347 306.084 165.723 306.108 165.195 306.108C165.003 306.108 164.823 306.06 164.655 305.964C164.511 305.868 164.439 305.736 164.439 305.568C164.439 305.352 164.511 305.184 164.655 305.064C164.823 304.92 165.015 304.824 165.231 304.776C166.143 304.584 166.815 304.332 167.247 304.02C167.679 303.708 167.799 303.204 167.607 302.508C167.487 302.028 167.355 301.56 167.211 301.104C167.091 300.648 166.971 300.192 166.851 299.736C166.731 299.256 166.611 298.788 166.491 298.332C166.443 298.14 166.383 297.996 166.311 297.9C166.239 297.78 166.107 297.72 165.915 297.72H159.651C159.459 297.72 159.315 297.78 159.219 297.9C159.147 297.996 159.087 298.14 159.039 298.332C158.943 298.692 158.835 299.028 158.715 299.34C158.619 299.628 158.523 299.916 158.427 300.204C158.331 300.492 158.235 300.792 158.139 301.104C158.043 301.392 157.947 301.716 157.851 302.076C157.635 302.844 157.671 303.42 157.959 303.804C158.247 304.188 158.955 304.512 160.083 304.776C160.611 304.896 160.875 305.16 160.875 305.568C160.875 305.736 160.815 305.868 160.695 305.964C160.575 306.036 160.383 306.072 160.119 306.072C159.327 306.072 158.631 306.048 158.031 306C157.431 305.976 156.771 305.964 156.051 305.964C155.355 305.964 154.683 306 154.035 306.072C153.411 306.144 152.715 306.18 151.947 306.18ZM160.659 295.632H165.159C165.519 295.632 165.699 295.548 165.699 295.38C165.699 295.284 165.687 295.224 165.663 295.2C165.663 295.152 165.651 295.08 165.627 294.984L163.323 287.028C163.251 286.788 163.179 286.668 163.107 286.668C163.059 286.668 162.987 286.788 162.891 287.028L160.119 294.984C160.071 295.08 160.047 295.176 160.047 295.272C160.047 295.392 160.107 295.488 160.227 295.56C160.371 295.608 160.515 295.632 160.659 295.632ZM201.373 306.684C201.037 306.684 200.509 306.492 199.789 306.108C199.093 305.748 198.349 305.088 197.557 304.128C196.885 303.408 196.213 302.7 195.541 302.004C194.893 301.284 194.233 300.576 193.561 299.88C192.889 299.16 192.217 298.452 191.545 297.756C190.873 297.036 190.201 296.328 189.529 295.632C188.881 294.936 188.221 294.24 187.549 293.544C186.877 292.824 186.205 292.116 185.533 291.42C184.885 290.7 184.225 289.98 183.553 289.26C183.529 289.212 183.469 289.14 183.373 289.044C183.277 288.948 183.205 288.9 183.157 288.9C183.061 288.9 182.989 288.984 182.941 289.152C182.917 289.32 182.905 289.464 182.905 289.584C182.905 290.664 182.917 291.948 182.941 293.436C182.989 294.924 183.025 296.424 183.049 297.936C183.097 299.424 183.121 300.756 183.121 301.932C183.121 302.748 183.373 303.372 183.877 303.804C184.405 304.212 185.149 304.536 186.109 304.776C186.325 304.824 186.541 304.908 186.757 305.028C186.973 305.124 187.081 305.292 187.081 305.532C187.081 305.7 186.985 305.832 186.793 305.928C186.601 306.024 186.409 306.072 186.217 306.072C185.569 306.072 185.029 306.06 184.597 306.036C184.165 306.012 183.757 306 183.373 306C183.013 305.976 182.581 305.964 182.077 305.964C181.525 305.964 180.985 305.976 180.457 306C179.953 306.024 179.533 306.048 179.197 306.072C178.885 306.096 178.729 306.108 178.729 306.108C178.585 306.108 178.405 306.06 178.189 305.964C177.997 305.868 177.901 305.736 177.901 305.568C177.901 305.352 177.985 305.196 178.153 305.1C178.345 304.98 178.549 304.872 178.765 304.776C179.317 304.56 179.737 304.2 180.025 303.696C180.337 303.192 180.517 302.58 180.565 301.86C180.661 300.972 180.757 299.796 180.853 298.332C180.973 296.868 181.081 295.224 181.177 293.4C181.273 291.576 181.321 289.68 181.321 287.712C181.321 286.464 181.009 285.564 180.385 285.012C179.761 284.46 179.005 284.016 178.117 283.68C177.901 283.632 177.685 283.548 177.469 283.428C177.253 283.284 177.145 283.104 177.145 282.888C177.145 282.672 177.229 282.528 177.397 282.456C177.589 282.36 177.817 282.312 178.081 282.312C178.465 282.312 178.933 282.324 179.485 282.348C180.061 282.372 180.673 282.396 181.321 282.42C181.993 282.42 182.677 282.432 183.373 282.456C184.069 282.48 184.741 282.492 185.389 282.492C185.581 282.492 185.725 282.528 185.821 282.6C185.941 282.648 186.037 282.732 186.109 282.852C186.733 283.548 187.357 284.256 187.981 284.976C188.629 285.672 189.265 286.368 189.889 287.064C190.537 287.76 191.173 288.456 191.797 289.152C192.445 289.848 193.081 290.556 193.705 291.276C194.329 291.972 194.953 292.668 195.577 293.364C196.225 294.06 196.861 294.768 197.485 295.488C198.133 296.184 198.769 296.88 199.393 297.576C199.465 297.672 199.549 297.768 199.645 297.864C199.741 297.96 199.825 298.008 199.897 298.008C200.089 298.008 200.185 297.84 200.185 297.504C200.185 296.664 200.185 295.752 200.185 294.768C200.185 293.76 200.185 292.74 200.185 291.708C200.185 290.652 200.173 289.644 200.149 288.684C200.149 287.7 200.125 286.836 200.077 286.092C200.053 285.396 199.801 284.892 199.321 284.58C198.865 284.268 198.181 283.992 197.269 283.752C197.053 283.704 196.861 283.632 196.693 283.536C196.525 283.416 196.441 283.236 196.441 282.996C196.441 282.828 196.525 282.696 196.693 282.6C196.861 282.504 197.029 282.456 197.197 282.456C197.845 282.456 198.373 282.468 198.781 282.492C199.189 282.492 199.561 282.504 199.897 282.528C200.233 282.528 200.605 282.528 201.013 282.528C201.493 282.528 201.901 282.528 202.237 282.528C202.573 282.504 202.933 282.48 203.317 282.456C203.725 282.432 204.229 282.42 204.829 282.42C205.093 282.42 205.297 282.468 205.441 282.564C205.609 282.66 205.693 282.792 205.693 282.96C205.693 283.344 205.393 283.596 204.793 283.716C203.977 283.884 203.377 284.124 202.993 284.436C202.609 284.748 202.417 285.264 202.417 285.984C202.417 287.016 202.405 288.048 202.381 289.08C202.357 290.088 202.321 291.084 202.273 292.068C202.225 293.052 202.177 294.012 202.129 294.948C202.081 295.86 202.045 296.736 202.021 297.576C201.997 298.416 201.985 299.184 201.985 299.88C201.985 300.432 202.021 301.068 202.093 301.788C202.165 302.484 202.237 303.132 202.309 303.732C202.381 304.308 202.417 304.704 202.417 304.92C202.417 305.568 202.321 306.024 202.129 306.288C201.961 306.552 201.709 306.684 201.373 306.684ZM219.57 306.504C217.89 306.504 216.294 306.228 214.782 305.676C213.27 305.1 211.926 304.296 210.75 303.264C209.574 302.208 208.65 300.96 207.978 299.52C207.306 298.056 206.97 296.436 206.97 294.66C206.97 293.028 207.246 291.468 207.798 289.98C208.35 288.468 209.166 287.124 210.246 285.948C211.35 284.772 212.706 283.836 214.314 283.14C215.922 282.444 217.782 282.096 219.894 282.096C221.574 282.096 223.17 282.384 224.682 282.96C226.194 283.512 227.538 284.316 228.714 285.372C229.89 286.404 230.814 287.652 231.486 289.116C232.158 290.556 232.494 292.164 232.494 293.94C232.494 295.548 232.218 297.108 231.666 298.62C231.114 300.132 230.286 301.476 229.182 302.652C228.102 303.828 226.758 304.764 225.15 305.46C223.542 306.156 221.682 306.504 219.57 306.504ZM220.218 304.812C221.49 304.812 222.546 304.428 223.386 303.66C224.25 302.892 224.898 301.836 225.33 300.492C225.762 299.124 225.978 297.564 225.978 295.812C225.978 294.372 225.846 292.944 225.582 291.528C225.318 290.112 224.91 288.828 224.358 287.676C223.806 286.5 223.098 285.564 222.234 284.868C221.394 284.172 220.374 283.824 219.174 283.824C217.926 283.824 216.87 284.208 216.006 284.976C215.166 285.744 214.53 286.8 214.098 288.144C213.69 289.488 213.486 291.036 213.486 292.788C213.486 294.228 213.618 295.656 213.882 297.072C214.146 298.488 214.542 299.784 215.07 300.96C215.622 302.112 216.318 303.048 217.158 303.768C218.022 304.464 219.042 304.812 220.218 304.812Z" fill="#292929" />
			<path d="M112.794 327.048C112.73 327.048 112.666 327.027 112.602 326.984C112.538 326.941 112.506 326.883 112.506 326.808C112.506 326.627 112.607 326.509 112.81 326.456C113.215 326.371 113.492 326.264 113.642 326.136C113.791 326.008 113.866 325.779 113.866 325.448V318.184C113.866 317.843 113.796 317.603 113.658 317.464C113.53 317.315 113.279 317.197 112.906 317.112C112.778 317.08 112.687 317.032 112.634 316.968C112.591 316.904 112.57 316.84 112.57 316.776C112.57 316.701 112.596 316.643 112.65 316.6C112.714 316.547 112.794 316.52 112.89 316.52C113.124 316.52 113.38 316.525 113.658 316.536C113.935 316.547 114.207 316.563 114.474 316.584C114.74 316.595 114.98 316.6 115.194 316.6C115.45 316.6 115.674 316.589 115.866 316.568C116.068 316.536 116.292 316.509 116.538 316.488C116.783 316.456 117.103 316.44 117.498 316.44C118.81 316.44 119.85 316.723 120.618 317.288C121.386 317.843 121.77 318.605 121.77 319.576C121.77 320.248 121.626 320.872 121.338 321.448C121.05 322.013 120.612 322.472 120.026 322.824C119.45 323.165 118.719 323.336 117.834 323.336C117.546 323.336 117.327 323.293 117.178 323.208C117.028 323.123 116.954 323.016 116.954 322.888C116.954 322.803 116.991 322.739 117.066 322.696C117.14 322.653 117.204 322.632 117.258 322.632C117.386 322.632 117.487 322.648 117.562 322.68C117.647 322.701 117.759 322.712 117.898 322.712C118.303 322.712 118.607 322.467 118.81 321.976C119.023 321.475 119.13 320.829 119.13 320.04C119.13 319.027 118.986 318.301 118.698 317.864C118.42 317.416 118.02 317.192 117.498 317.192C117.199 317.192 116.975 317.261 116.826 317.4C116.676 317.539 116.602 317.752 116.602 318.04L116.586 325.432C116.586 325.763 116.676 325.992 116.858 326.12C117.05 326.248 117.375 326.36 117.834 326.456C117.93 326.477 118.004 326.515 118.058 326.568C118.111 326.611 118.138 326.685 118.138 326.792C118.138 326.867 118.116 326.925 118.074 326.968C118.031 327.011 117.967 327.032 117.882 327.032C117.658 327.032 117.375 327.027 117.034 327.016C116.692 327.005 116.351 326.995 116.01 326.984C115.679 326.973 115.407 326.968 115.194 326.968C114.98 326.968 114.73 326.973 114.442 326.984C114.164 326.995 113.876 327.005 113.578 327.016C113.29 327.037 113.028 327.048 112.794 327.048ZM122.732 327.08C122.636 327.08 122.561 327.053 122.508 327C122.455 326.947 122.428 326.888 122.428 326.824C122.428 326.664 122.535 326.552 122.748 326.488C123.1 326.381 123.345 326.269 123.484 326.152C123.633 326.035 123.708 325.811 123.708 325.48V318.184C123.708 317.843 123.639 317.603 123.5 317.464C123.372 317.315 123.121 317.197 122.748 317.112C122.62 317.08 122.529 317.032 122.476 316.968C122.433 316.904 122.412 316.84 122.412 316.776C122.412 316.701 122.439 316.643 122.492 316.6C122.556 316.547 122.636 316.52 122.732 316.52C122.967 316.52 123.223 316.525 123.5 316.536C123.777 316.547 124.049 316.563 124.316 316.584C124.583 316.595 124.823 316.6 125.036 316.6C125.633 316.6 126.273 316.595 126.956 316.584C127.639 316.573 128.241 316.563 128.764 316.552C129.105 316.552 129.383 316.531 129.596 316.488C129.82 316.445 129.953 316.424 129.996 316.424C130.081 316.424 130.167 316.451 130.252 316.504C130.348 316.547 130.401 316.632 130.412 316.76C130.455 317.155 130.508 317.544 130.572 317.928C130.647 318.301 130.684 318.632 130.684 318.92C130.684 319.027 130.663 319.107 130.62 319.16C130.577 319.213 130.529 319.24 130.476 319.24C130.423 319.24 130.364 319.219 130.3 319.176C130.236 319.133 130.183 319.064 130.14 318.968C130.023 318.68 129.916 318.44 129.82 318.248C129.735 318.045 129.633 317.885 129.516 317.768C129.399 317.651 129.249 317.539 129.068 317.432C128.887 317.315 128.647 317.256 128.348 317.256H127.34C127.073 317.256 126.855 317.32 126.684 317.448C126.513 317.576 126.428 317.757 126.428 317.992V320.936C126.428 321.075 126.465 321.176 126.54 321.24C126.615 321.293 126.716 321.32 126.844 321.32H128.204C128.481 321.32 128.679 321.219 128.796 321.016C128.924 320.813 129.036 320.584 129.132 320.328C129.217 320.136 129.329 320.04 129.468 320.04C129.521 320.04 129.569 320.072 129.612 320.136C129.655 320.2 129.671 320.291 129.66 320.408C129.649 320.557 129.633 320.707 129.612 320.856C129.601 321.005 129.591 321.155 129.58 321.304C129.58 321.443 129.58 321.587 129.58 321.736C129.58 321.875 129.58 322.019 129.58 322.168C129.591 322.307 129.601 322.451 129.612 322.6C129.623 322.749 129.633 322.904 129.644 323.064C129.665 323.224 129.655 323.341 129.612 323.416C129.58 323.48 129.537 323.512 129.484 323.512C129.303 323.512 129.175 323.384 129.1 323.128C129.004 322.787 128.892 322.525 128.764 322.344C128.647 322.163 128.487 322.072 128.284 322.072H126.78C126.663 322.072 126.572 322.104 126.508 322.168C126.455 322.232 126.428 322.323 126.428 322.44V325.464C126.428 325.763 126.492 325.976 126.62 326.104C126.748 326.221 126.945 326.28 127.212 326.28H128.636C128.849 326.28 129.057 326.253 129.26 326.2C129.473 326.136 129.655 326.04 129.804 325.912C129.985 325.763 130.151 325.571 130.3 325.336C130.46 325.101 130.599 324.867 130.716 324.632C130.759 324.547 130.801 324.493 130.844 324.472C130.897 324.451 130.956 324.44 131.02 324.44C131.084 324.44 131.127 324.477 131.148 324.552C131.169 324.616 131.18 324.685 131.18 324.76C131.18 324.952 131.153 325.16 131.1 325.384C131.047 325.608 130.977 325.848 130.892 326.104C130.817 326.349 130.743 326.605 130.668 326.872C130.647 326.947 130.599 326.995 130.524 327.016C130.449 327.048 130.369 327.064 130.284 327.064C130.231 327.064 130.023 327.059 129.66 327.048C129.297 327.048 128.844 327.043 128.3 327.032C127.767 327.021 127.207 327.011 126.62 327C126.044 327 125.516 327 125.036 327C124.823 327 124.577 327.005 124.3 327.016C124.023 327.027 123.745 327.037 123.468 327.048C123.191 327.069 122.945 327.08 122.732 327.08ZM141.758 327.336C141.161 327.336 140.66 327.261 140.254 327.112C139.86 326.963 139.529 326.771 139.262 326.536C138.996 326.291 138.756 326.024 138.542 325.736C138.318 325.427 138.1 325.117 137.886 324.808C137.673 324.488 137.465 324.152 137.262 323.8C137.06 323.437 136.857 323.037 136.654 322.6C136.548 322.365 136.42 322.205 136.27 322.12C136.206 322.077 136.137 322.051 136.062 322.04C135.998 322.019 135.94 322.008 135.886 322.008C135.833 322.008 135.79 322.04 135.758 322.104C135.737 322.157 135.726 322.232 135.726 322.328V325.432C135.726 325.763 135.817 325.992 135.998 326.12C136.19 326.248 136.516 326.36 136.974 326.456C137.07 326.477 137.145 326.515 137.198 326.568C137.252 326.611 137.278 326.685 137.278 326.792C137.278 326.867 137.257 326.925 137.214 326.968C137.172 327.011 137.108 327.032 137.022 327.032C136.798 327.032 136.516 327.027 136.174 327.016C135.833 327.005 135.492 326.995 135.15 326.984C134.82 326.973 134.548 326.968 134.334 326.968C134.121 326.968 133.87 326.973 133.582 326.984C133.305 326.995 133.017 327.005 132.718 327.016C132.43 327.037 132.169 327.048 131.934 327.048C131.87 327.048 131.806 327.027 131.742 326.984C131.678 326.941 131.646 326.883 131.646 326.808C131.646 326.627 131.748 326.509 131.95 326.456C132.356 326.371 132.633 326.264 132.782 326.136C132.932 326.008 133.006 325.779 133.006 325.448V318.184C133.006 317.949 132.98 317.768 132.926 317.64C132.873 317.501 132.777 317.395 132.638 317.32C132.5 317.235 132.302 317.165 132.046 317.112C131.918 317.08 131.828 317.032 131.774 316.968C131.732 316.904 131.71 316.84 131.71 316.776C131.71 316.701 131.737 316.643 131.79 316.6C131.854 316.547 131.934 316.52 132.03 316.52C132.382 316.52 132.676 316.531 132.91 316.552C133.145 316.573 133.369 316.595 133.582 316.616C133.796 316.637 134.041 316.648 134.318 316.648C134.574 316.648 134.798 316.637 134.99 316.616C135.193 316.584 135.417 316.557 135.662 316.536C135.908 316.504 136.228 316.488 136.622 316.488C137.881 316.488 138.852 316.701 139.534 317.128C140.228 317.544 140.574 318.184 140.574 319.048C140.574 319.528 140.468 319.933 140.254 320.264C140.041 320.584 139.774 320.845 139.454 321.048C139.134 321.24 138.809 321.384 138.478 321.48C138.436 321.491 138.414 321.517 138.414 321.56C138.425 321.603 138.441 321.64 138.462 321.672C138.782 322.141 139.092 322.595 139.39 323.032C139.7 323.469 140.009 323.875 140.318 324.248C140.628 324.611 140.937 324.941 141.246 325.24C141.62 325.592 142.004 325.8 142.398 325.864C142.804 325.928 143.193 325.96 143.566 325.96C143.726 325.96 143.806 326.061 143.806 326.264C143.806 326.52 143.721 326.728 143.55 326.888C143.39 327.037 143.156 327.149 142.846 327.224C142.537 327.299 142.174 327.336 141.758 327.336ZM136.286 321.464C136.67 321.464 136.985 321.379 137.23 321.208C137.476 321.037 137.657 320.803 137.774 320.504C137.902 320.195 137.966 319.837 137.966 319.432C137.966 318.92 137.902 318.504 137.774 318.184C137.646 317.864 137.46 317.629 137.214 317.48C136.98 317.32 136.692 317.24 136.35 317.24C136.137 317.24 135.977 317.331 135.87 317.512C135.774 317.693 135.726 318.093 135.726 318.712C135.726 318.947 135.726 319.245 135.726 319.608C135.726 319.96 135.726 320.376 135.726 320.856C135.726 321.069 135.774 321.224 135.87 321.32C135.977 321.416 136.116 321.464 136.286 321.464ZM144.247 327.048C144.183 327.048 144.119 327.027 144.055 326.984C143.991 326.941 143.959 326.883 143.959 326.808C143.959 326.627 144.06 326.509 144.263 326.456C144.668 326.371 144.945 326.264 145.095 326.136C145.244 326.008 145.319 325.779 145.319 325.448V318.184C145.319 317.843 145.249 317.603 145.111 317.464C144.983 317.315 144.732 317.197 144.359 317.112C144.231 317.08 144.14 317.032 144.087 316.968C144.044 316.904 144.023 316.84 144.023 316.776C144.023 316.701 144.049 316.643 144.103 316.6C144.167 316.547 144.247 316.52 144.343 316.52C144.577 316.52 144.833 316.525 145.111 316.536C145.388 316.547 145.66 316.563 145.927 316.584C146.193 316.595 146.433 316.6 146.647 316.6C147.095 316.6 147.58 316.6 148.103 316.6C148.636 316.6 149.143 316.6 149.623 316.6C150.081 316.6 150.497 316.573 150.871 316.52C151.255 316.456 151.564 316.424 151.799 316.424C151.884 316.424 151.969 316.451 152.055 316.504C152.151 316.547 152.204 316.632 152.215 316.76C152.236 317.027 152.252 317.299 152.263 317.576C152.273 317.853 152.279 318.12 152.279 318.376C152.289 318.621 152.295 318.84 152.295 319.032C152.295 319.245 152.225 319.352 152.087 319.352C152.033 319.352 151.969 319.331 151.895 319.288C151.82 319.245 151.772 319.176 151.751 319.08C151.676 318.803 151.591 318.552 151.495 318.328C151.409 318.093 151.292 317.901 151.143 317.752C151.004 317.613 150.839 317.512 150.647 317.448C150.465 317.373 150.236 317.336 149.959 317.336H148.951C148.684 317.336 148.465 317.4 148.295 317.528C148.124 317.656 148.039 317.837 148.039 318.072C148.039 318.253 148.039 318.472 148.039 318.728C148.039 318.973 148.039 319.187 148.039 319.368C148.039 319.603 148.039 319.859 148.039 320.136C148.039 320.413 148.039 320.675 148.039 320.92C148.039 321.059 148.076 321.16 148.151 321.224C148.225 321.277 148.327 321.304 148.455 321.304C148.7 321.304 148.945 321.304 149.191 321.304C149.447 321.304 149.697 321.304 149.943 321.304C150.22 321.304 150.417 321.219 150.535 321.048C150.663 320.877 150.775 320.675 150.871 320.44C150.913 320.344 150.961 320.275 151.015 320.232C151.079 320.179 151.143 320.152 151.207 320.152C151.26 320.152 151.308 320.184 151.351 320.248C151.393 320.312 151.409 320.403 151.399 320.52C151.377 320.755 151.356 320.979 151.335 321.192C151.324 321.395 151.319 321.576 151.319 321.736C151.319 321.949 151.324 322.125 151.335 322.264C151.345 322.403 151.361 322.595 151.383 322.84C151.404 323 151.393 323.117 151.351 323.192C151.319 323.256 151.276 323.288 151.223 323.288C151.148 323.288 151.073 323.251 150.999 323.176C150.924 323.101 150.871 323.011 150.839 322.904C150.743 322.573 150.631 322.349 150.503 322.232C150.385 322.115 150.225 322.056 150.023 322.056C149.905 322.056 149.783 322.056 149.655 322.056C149.527 322.056 149.404 322.056 149.287 322.056C149.137 322.056 148.983 322.056 148.823 322.056C148.663 322.056 148.508 322.056 148.359 322.056C148.241 322.056 148.151 322.088 148.087 322.152C148.033 322.216 148.007 322.307 148.007 322.424C148.007 322.904 148.012 323.405 148.023 323.928C148.033 324.451 148.039 324.952 148.039 325.432C148.039 325.763 148.129 325.992 148.311 326.12C148.503 326.248 148.828 326.36 149.287 326.456C149.383 326.477 149.457 326.515 149.511 326.568C149.564 326.611 149.591 326.685 149.591 326.792C149.591 326.867 149.569 326.925 149.527 326.968C149.484 327.011 149.42 327.032 149.335 327.032C149.111 327.032 148.828 327.027 148.487 327.016C148.145 327.005 147.804 326.995 147.463 326.984C147.132 326.973 146.86 326.968 146.647 326.968C146.433 326.968 146.183 326.973 145.895 326.984C145.617 326.995 145.329 327.005 145.031 327.016C144.743 327.037 144.481 327.048 144.247 327.048ZM158.578 327.224C157.831 327.224 157.122 327.101 156.45 326.856C155.778 326.6 155.181 326.243 154.658 325.784C154.135 325.315 153.725 324.76 153.426 324.12C153.127 323.469 152.978 322.749 152.978 321.96C152.978 321.235 153.101 320.541 153.346 319.88C153.591 319.208 153.954 318.611 154.434 318.088C154.925 317.565 155.527 317.149 156.242 316.84C156.957 316.531 157.783 316.376 158.722 316.376C159.469 316.376 160.178 316.504 160.85 316.76C161.522 317.005 162.119 317.363 162.642 317.832C163.165 318.291 163.575 318.845 163.874 319.496C164.173 320.136 164.322 320.851 164.322 321.64C164.322 322.355 164.199 323.048 163.954 323.72C163.709 324.392 163.341 324.989 162.85 325.512C162.37 326.035 161.773 326.451 161.058 326.76C160.343 327.069 159.517 327.224 158.578 327.224ZM158.866 326.472C159.431 326.472 159.901 326.301 160.274 325.96C160.658 325.619 160.946 325.149 161.138 324.552C161.33 323.944 161.426 323.251 161.426 322.472C161.426 321.832 161.367 321.197 161.25 320.568C161.133 319.939 160.951 319.368 160.706 318.856C160.461 318.333 160.146 317.917 159.762 317.608C159.389 317.299 158.935 317.144 158.402 317.144C157.847 317.144 157.378 317.315 156.994 317.656C156.621 317.997 156.338 318.467 156.146 319.064C155.965 319.661 155.874 320.349 155.874 321.128C155.874 321.768 155.933 322.403 156.05 323.032C156.167 323.661 156.343 324.237 156.578 324.76C156.823 325.272 157.133 325.688 157.506 326.008C157.89 326.317 158.343 326.472 158.866 326.472ZM175.071 327.336C174.473 327.336 173.972 327.261 173.567 327.112C173.172 326.963 172.841 326.771 172.575 326.536C172.308 326.291 172.068 326.024 171.855 325.736C171.631 325.427 171.412 325.117 171.199 324.808C170.985 324.488 170.777 324.152 170.575 323.8C170.372 323.437 170.169 323.037 169.967 322.6C169.86 322.365 169.732 322.205 169.583 322.12C169.519 322.077 169.449 322.051 169.375 322.04C169.311 322.019 169.252 322.008 169.199 322.008C169.145 322.008 169.103 322.04 169.071 322.104C169.049 322.157 169.039 322.232 169.039 322.328V325.432C169.039 325.763 169.129 325.992 169.311 326.12C169.503 326.248 169.828 326.36 170.287 326.456C170.383 326.477 170.457 326.515 170.511 326.568C170.564 326.611 170.591 326.685 170.591 326.792C170.591 326.867 170.569 326.925 170.527 326.968C170.484 327.011 170.42 327.032 170.335 327.032C170.111 327.032 169.828 327.027 169.487 327.016C169.145 327.005 168.804 326.995 168.463 326.984C168.132 326.973 167.86 326.968 167.647 326.968C167.433 326.968 167.183 326.973 166.895 326.984C166.617 326.995 166.329 327.005 166.031 327.016C165.743 327.037 165.481 327.048 165.247 327.048C165.183 327.048 165.119 327.027 165.055 326.984C164.991 326.941 164.959 326.883 164.959 326.808C164.959 326.627 165.06 326.509 165.263 326.456C165.668 326.371 165.945 326.264 166.095 326.136C166.244 326.008 166.319 325.779 166.319 325.448V318.184C166.319 317.949 166.292 317.768 166.239 317.64C166.185 317.501 166.089 317.395 165.951 317.32C165.812 317.235 165.615 317.165 165.359 317.112C165.231 317.08 165.14 317.032 165.087 316.968C165.044 316.904 165.023 316.84 165.023 316.776C165.023 316.701 165.049 316.643 165.103 316.6C165.167 316.547 165.247 316.52 165.343 316.52C165.695 316.52 165.988 316.531 166.223 316.552C166.457 316.573 166.681 316.595 166.895 316.616C167.108 316.637 167.353 316.648 167.631 316.648C167.887 316.648 168.111 316.637 168.303 316.616C168.505 316.584 168.729 316.557 168.975 316.536C169.22 316.504 169.54 316.488 169.935 316.488C171.193 316.488 172.164 316.701 172.847 317.128C173.54 317.544 173.887 318.184 173.887 319.048C173.887 319.528 173.78 319.933 173.567 320.264C173.353 320.584 173.087 320.845 172.767 321.048C172.447 321.24 172.121 321.384 171.791 321.48C171.748 321.491 171.727 321.517 171.727 321.56C171.737 321.603 171.753 321.64 171.775 321.672C172.095 322.141 172.404 322.595 172.703 323.032C173.012 323.469 173.321 323.875 173.631 324.248C173.94 324.611 174.249 324.941 174.559 325.24C174.932 325.592 175.316 325.8 175.711 325.864C176.116 325.928 176.505 325.96 176.879 325.96C177.039 325.96 177.119 326.061 177.119 326.264C177.119 326.52 177.033 326.728 176.863 326.888C176.703 327.037 176.468 327.149 176.159 327.224C175.849 327.299 175.487 327.336 175.071 327.336ZM169.599 321.464C169.983 321.464 170.297 321.379 170.543 321.208C170.788 321.037 170.969 320.803 171.087 320.504C171.215 320.195 171.279 319.837 171.279 319.432C171.279 318.92 171.215 318.504 171.087 318.184C170.959 317.864 170.772 317.629 170.527 317.48C170.292 317.32 170.004 317.24 169.663 317.24C169.449 317.24 169.289 317.331 169.183 317.512C169.087 317.693 169.039 318.093 169.039 318.712C169.039 318.947 169.039 319.245 169.039 319.608C169.039 319.96 169.039 320.376 169.039 320.856C169.039 321.069 169.087 321.224 169.183 321.32C169.289 321.416 169.428 321.464 169.599 321.464ZM177.719 327.048C177.591 327.048 177.495 327.027 177.431 326.984C177.378 326.941 177.351 326.883 177.351 326.808C177.351 326.712 177.399 326.653 177.495 326.632C177.591 326.6 177.687 326.563 177.783 326.52C178.029 326.424 178.242 326.269 178.423 326.056C178.615 325.843 178.733 325.576 178.775 325.256C178.829 324.861 178.887 324.323 178.951 323.64C179.015 322.947 179.085 322.179 179.159 321.336C179.234 320.483 179.309 319.619 179.383 318.744C179.394 318.691 179.399 318.616 179.399 318.52C179.399 318.424 179.399 318.317 179.399 318.2C179.399 317.987 179.362 317.821 179.287 317.704C179.223 317.587 179.122 317.491 178.983 317.416C178.866 317.352 178.738 317.293 178.599 317.24C178.461 317.176 178.311 317.123 178.151 317.08C178.023 317.048 177.917 317.005 177.831 316.952C177.757 316.899 177.719 316.824 177.719 316.728C177.719 316.632 177.757 316.568 177.831 316.536C177.917 316.493 178.018 316.472 178.135 316.472C178.306 316.472 178.509 316.477 178.743 316.488C178.989 316.499 179.255 316.509 179.543 316.52C179.831 316.52 180.125 316.525 180.423 316.536C180.733 316.547 181.031 316.552 181.319 316.552C181.405 316.552 181.485 316.584 181.559 316.648C181.634 316.712 181.682 316.776 181.703 316.84C181.789 317.053 181.863 317.251 181.927 317.432C181.991 317.603 182.066 317.795 182.151 318.008L184.455 323.432C184.477 323.475 184.498 323.496 184.519 323.496C184.551 323.496 184.573 323.475 184.583 323.432L186.679 318.392C186.765 317.976 186.829 317.651 186.871 317.416C186.925 317.171 186.973 316.984 187.015 316.856C187.058 316.717 187.149 316.648 187.287 316.648H188.007C188.477 316.627 188.967 316.595 189.479 316.552C190.002 316.499 190.413 316.472 190.711 316.472C190.829 316.472 190.925 316.493 190.999 316.536C191.085 316.568 191.127 316.632 191.127 316.728C191.127 316.824 191.09 316.893 191.015 316.936C190.941 316.979 190.855 317.016 190.759 317.048C190.717 317.059 190.658 317.08 190.583 317.112C190.519 317.144 190.466 317.171 190.423 317.192C190.103 317.341 189.869 317.507 189.719 317.688C189.581 317.869 189.522 318.163 189.543 318.568C189.575 319.347 189.607 320.013 189.639 320.568C189.671 321.123 189.698 321.635 189.719 322.104C189.751 322.573 189.783 323.069 189.815 323.592C189.858 324.104 189.901 324.717 189.943 325.432C189.965 325.699 190.082 325.917 190.295 326.088C190.509 326.248 190.775 326.371 191.095 326.456C191.191 326.488 191.271 326.525 191.335 326.568C191.41 326.611 191.447 326.685 191.447 326.792C191.447 326.867 191.415 326.925 191.351 326.968C191.298 327.011 191.229 327.032 191.143 327.032C190.919 327.032 190.642 327.027 190.311 327.016C189.991 327.005 189.671 326.995 189.351 326.984C189.031 326.973 188.765 326.968 188.551 326.968C188.338 326.968 188.087 326.973 187.799 326.984C187.522 326.995 187.234 327.005 186.935 327.016C186.647 327.037 186.386 327.048 186.151 327.048C186.066 327.048 185.986 327.027 185.911 326.984C185.847 326.941 185.815 326.883 185.815 326.808C185.815 326.712 185.847 326.637 185.911 326.584C185.986 326.52 186.071 326.477 186.167 326.456C186.573 326.371 186.855 326.264 187.015 326.136C187.175 325.997 187.245 325.768 187.223 325.448C187.191 324.808 187.165 324.157 187.143 323.496C187.122 322.835 187.101 322.184 187.079 321.544C187.069 320.893 187.047 320.28 187.015 319.704C187.015 319.64 186.999 319.613 186.967 319.624C186.935 319.624 186.903 319.661 186.871 319.736L183.959 326.952C183.895 327.123 183.805 327.192 183.687 327.16C183.581 327.128 183.506 327.069 183.463 326.984C182.909 325.747 182.338 324.525 181.751 323.32C181.165 322.115 180.642 320.947 180.183 319.816C180.141 319.709 180.082 319.672 180.007 319.704C179.943 319.736 179.906 319.821 179.895 319.96C179.874 320.44 179.858 321 179.847 321.64C179.847 322.28 179.853 322.925 179.863 323.576C179.874 324.227 179.879 324.813 179.879 325.336C179.879 325.635 179.975 325.869 180.167 326.04C180.359 326.211 180.669 326.349 181.095 326.456C181.191 326.477 181.287 326.515 181.383 326.568C181.479 326.611 181.527 326.685 181.527 326.792C181.527 326.867 181.485 326.925 181.399 326.968C181.314 327.011 181.229 327.032 181.143 327.032C180.855 327.032 180.631 327.027 180.471 327.016C180.311 327.005 180.162 327 180.023 327C179.895 326.989 179.719 326.984 179.495 326.984C179.25 326.984 178.989 326.989 178.711 327C178.434 327.011 178.199 327.021 178.007 327.032C177.815 327.043 177.719 327.048 177.719 327.048ZM192.102 327.08C191.984 327.08 191.883 327.059 191.798 327.016C191.723 326.984 191.686 326.915 191.686 326.808C191.686 326.701 191.718 326.627 191.782 326.584C191.856 326.531 191.942 326.488 192.038 326.456C192.358 326.371 192.63 326.237 192.854 326.056C193.088 325.875 193.259 325.667 193.366 325.432C193.622 324.845 193.867 324.264 194.102 323.688C194.336 323.112 194.566 322.541 194.79 321.976C195.014 321.4 195.232 320.824 195.446 320.248C195.67 319.661 195.888 319.075 196.102 318.488C196.283 317.997 196.395 317.651 196.438 317.448C196.48 317.235 196.518 317.123 196.55 317.112C196.763 317.059 196.96 317.011 197.142 316.968C197.323 316.915 197.526 316.851 197.75 316.776C197.952 316.701 198.128 316.611 198.278 316.504C198.438 316.387 198.555 316.291 198.63 316.216C198.683 316.184 198.731 316.163 198.774 316.152C198.827 316.141 198.875 316.179 198.918 316.264C198.96 316.339 198.992 316.413 199.014 316.488C199.046 316.552 199.072 316.627 199.094 316.712C199.307 317.416 199.526 318.125 199.75 318.84C199.984 319.555 200.219 320.28 200.454 321.016C200.688 321.741 200.923 322.472 201.158 323.208C201.403 323.944 201.643 324.685 201.878 325.432C201.931 325.603 202.016 325.757 202.134 325.896C202.262 326.024 202.411 326.136 202.582 326.232C202.752 326.317 202.944 326.392 203.158 326.456C203.254 326.488 203.334 326.525 203.398 326.568C203.472 326.611 203.51 326.685 203.51 326.792C203.51 326.867 203.478 326.925 203.414 326.968C203.36 327.011 203.291 327.032 203.206 327.032C202.982 327.032 202.704 327.027 202.374 327.016C202.054 327.005 201.728 326.995 201.398 326.984C201.078 326.973 200.795 326.968 200.55 326.968C200.336 326.968 200.075 326.973 199.766 326.984C199.456 326.995 199.142 327.005 198.822 327.016C198.502 327.037 198.224 327.048 197.99 327.048C197.904 327.048 197.824 327.027 197.75 326.984C197.686 326.941 197.654 326.883 197.654 326.808C197.654 326.712 197.686 326.637 197.75 326.584C197.824 326.52 197.91 326.477 198.006 326.456C198.411 326.371 198.71 326.259 198.902 326.12C199.094 325.981 199.147 325.757 199.062 325.448C199.008 325.235 198.95 325.027 198.886 324.824C198.832 324.621 198.779 324.419 198.726 324.216C198.672 324.003 198.619 323.795 198.566 323.592C198.544 323.507 198.518 323.443 198.486 323.4C198.454 323.347 198.395 323.32 198.31 323.32H195.526C195.44 323.32 195.376 323.347 195.334 323.4C195.302 323.443 195.275 323.507 195.254 323.592C195.211 323.752 195.163 323.901 195.11 324.04C195.067 324.168 195.024 324.296 194.982 324.424C194.939 324.552 194.896 324.685 194.854 324.824C194.811 324.952 194.768 325.096 194.726 325.256C194.63 325.597 194.646 325.853 194.774 326.024C194.902 326.195 195.216 326.339 195.718 326.456C195.952 326.509 196.07 326.627 196.07 326.808C196.07 326.883 196.043 326.941 195.99 326.984C195.936 327.016 195.851 327.032 195.734 327.032C195.382 327.032 195.072 327.021 194.806 327C194.539 326.989 194.246 326.984 193.926 326.984C193.616 326.984 193.318 327 193.03 327.032C192.752 327.064 192.443 327.08 192.102 327.08ZM195.974 322.392H197.974C198.134 322.392 198.214 322.355 198.214 322.28C198.214 322.237 198.208 322.211 198.198 322.2C198.198 322.179 198.192 322.147 198.182 322.104L197.158 318.568C197.126 318.461 197.094 318.408 197.062 318.408C197.04 318.408 197.008 318.461 196.966 318.568L195.734 322.104C195.712 322.147 195.702 322.189 195.702 322.232C195.702 322.285 195.728 322.328 195.782 322.36C195.846 322.381 195.91 322.392 195.974 322.392ZM214.069 327.304C213.919 327.304 213.685 327.219 213.365 327.048C213.055 326.888 212.725 326.595 212.373 326.168C212.074 325.848 211.775 325.533 211.477 325.224C211.189 324.904 210.895 324.589 210.597 324.28C210.298 323.96 209.999 323.645 209.701 323.336C209.402 323.016 209.103 322.701 208.805 322.392C208.517 322.083 208.223 321.773 207.925 321.464C207.626 321.144 207.327 320.829 207.029 320.52C206.741 320.2 206.447 319.88 206.149 319.56C206.138 319.539 206.111 319.507 206.069 319.464C206.026 319.421 205.994 319.4 205.973 319.4C205.93 319.4 205.898 319.437 205.877 319.512C205.866 319.587 205.861 319.651 205.861 319.704C205.861 320.184 205.866 320.755 205.877 321.416C205.898 322.077 205.914 322.744 205.925 323.416C205.946 324.077 205.957 324.669 205.957 325.192C205.957 325.555 206.069 325.832 206.293 326.024C206.527 326.205 206.858 326.349 207.285 326.456C207.381 326.477 207.477 326.515 207.573 326.568C207.669 326.611 207.717 326.685 207.717 326.792C207.717 326.867 207.674 326.925 207.589 326.968C207.503 327.011 207.418 327.032 207.333 327.032C207.045 327.032 206.805 327.027 206.613 327.016C206.421 327.005 206.239 327 206.069 327C205.909 326.989 205.717 326.984 205.493 326.984C205.247 326.984 205.007 326.989 204.773 327C204.549 327.011 204.362 327.021 204.213 327.032C204.074 327.043 204.005 327.048 204.005 327.048C203.941 327.048 203.861 327.027 203.765 326.984C203.679 326.941 203.637 326.883 203.637 326.808C203.637 326.712 203.674 326.643 203.749 326.6C203.834 326.547 203.925 326.499 204.021 326.456C204.266 326.36 204.453 326.2 204.581 325.976C204.719 325.752 204.799 325.48 204.821 325.16C204.863 324.765 204.906 324.243 204.949 323.592C205.002 322.941 205.05 322.211 205.093 321.4C205.135 320.589 205.157 319.747 205.157 318.872C205.157 318.317 205.018 317.917 204.741 317.672C204.463 317.427 204.127 317.229 203.733 317.08C203.637 317.059 203.541 317.021 203.445 316.968C203.349 316.904 203.301 316.824 203.301 316.728C203.301 316.632 203.338 316.568 203.413 316.536C203.498 316.493 203.599 316.472 203.717 316.472C203.887 316.472 204.095 316.477 204.341 316.488C204.597 316.499 204.869 316.509 205.157 316.52C205.455 316.52 205.759 316.525 206.069 316.536C206.378 316.547 206.677 316.552 206.965 316.552C207.05 316.552 207.114 316.568 207.157 316.6C207.21 316.621 207.253 316.659 207.285 316.712C207.562 317.021 207.839 317.336 208.117 317.656C208.405 317.965 208.687 318.275 208.965 318.584C209.253 318.893 209.535 319.203 209.813 319.512C210.101 319.821 210.383 320.136 210.661 320.456C210.938 320.765 211.215 321.075 211.493 321.384C211.781 321.693 212.063 322.008 212.341 322.328C212.629 322.637 212.911 322.947 213.189 323.256C213.221 323.299 213.258 323.341 213.301 323.384C213.343 323.427 213.381 323.448 213.413 323.448C213.498 323.448 213.541 323.373 213.541 323.224C213.541 322.851 213.541 322.445 213.541 322.008C213.541 321.56 213.541 321.107 213.541 320.648C213.541 320.179 213.535 319.731 213.525 319.304C213.525 318.867 213.514 318.483 213.493 318.152C213.482 317.843 213.37 317.619 213.157 317.48C212.954 317.341 212.65 317.219 212.245 317.112C212.149 317.091 212.063 317.059 211.989 317.016C211.914 316.963 211.877 316.883 211.877 316.776C211.877 316.701 211.914 316.643 211.989 316.6C212.063 316.557 212.138 316.536 212.213 316.536C212.501 316.536 212.735 316.541 212.917 316.552C213.098 316.552 213.263 316.557 213.413 316.568C213.562 316.568 213.727 316.568 213.909 316.568C214.122 316.568 214.303 316.568 214.453 316.568C214.602 316.557 214.762 316.547 214.933 316.536C215.114 316.525 215.338 316.52 215.605 316.52C215.722 316.52 215.813 316.541 215.877 316.584C215.951 316.627 215.989 316.685 215.989 316.76C215.989 316.931 215.855 317.043 215.589 317.096C215.226 317.171 214.959 317.277 214.789 317.416C214.618 317.555 214.533 317.784 214.533 318.104C214.533 318.563 214.527 319.021 214.517 319.48C214.506 319.928 214.49 320.371 214.469 320.808C214.447 321.245 214.426 321.672 214.405 322.088C214.383 322.493 214.367 322.883 214.357 323.256C214.346 323.629 214.341 323.971 214.341 324.28C214.341 324.525 214.357 324.808 214.389 325.128C214.421 325.437 214.453 325.725 214.485 325.992C214.517 326.248 214.533 326.424 214.533 326.52C214.533 326.808 214.49 327.011 214.405 327.128C214.33 327.245 214.218 327.304 214.069 327.304ZM222.62 327.224C221.778 327.224 220.988 327.101 220.252 326.856C219.516 326.6 218.871 326.243 218.316 325.784C217.762 325.315 217.33 324.76 217.02 324.12C216.711 323.469 216.556 322.749 216.556 321.96C216.556 321.235 216.7 320.541 216.988 319.88C217.276 319.208 217.698 318.611 218.252 318.088C218.818 317.565 219.506 317.149 220.316 316.84C221.127 316.531 222.05 316.376 223.084 316.376C223.415 316.376 223.756 316.403 224.108 316.456C224.471 316.509 224.818 316.579 225.148 316.664C225.49 316.749 225.783 316.845 226.028 316.952C226.114 316.995 226.188 317.048 226.252 317.112C226.327 317.176 226.37 317.267 226.38 317.384C226.434 317.768 226.466 318.131 226.476 318.472C226.498 318.803 226.508 319.085 226.508 319.32C226.508 319.448 226.46 319.533 226.364 319.576C226.279 319.619 226.183 319.619 226.076 319.576C225.98 319.533 225.911 319.448 225.868 319.32C225.794 319.107 225.708 318.883 225.612 318.648C225.527 318.413 225.394 318.211 225.212 318.04C224.999 317.816 224.706 317.629 224.332 317.48C223.959 317.331 223.495 317.256 222.94 317.256C222.407 317.256 221.927 317.373 221.5 317.608C221.074 317.832 220.711 318.147 220.412 318.552C220.114 318.947 219.884 319.4 219.724 319.912C219.564 320.413 219.484 320.941 219.484 321.496C219.484 322.211 219.554 322.867 219.692 323.464C219.831 324.051 220.044 324.557 220.332 324.984C220.62 325.411 220.978 325.741 221.404 325.976C221.842 326.2 222.354 326.312 222.94 326.312C223.74 326.312 224.38 326.147 224.86 325.816C225.351 325.485 225.762 324.963 226.092 324.248C226.178 324.056 226.3 323.965 226.46 323.976C226.62 323.987 226.7 324.077 226.7 324.248C226.7 324.397 226.684 324.573 226.652 324.776C226.631 324.968 226.594 325.181 226.54 325.416C226.498 325.64 226.439 325.88 226.364 326.136C226.332 326.253 226.279 326.349 226.204 326.424C226.13 326.499 226.044 326.563 225.948 326.616C225.543 326.797 225.063 326.941 224.508 327.048C223.954 327.165 223.324 327.224 222.62 327.224ZM228.06 327.08C227.964 327.08 227.889 327.053 227.836 327C227.783 326.947 227.756 326.888 227.756 326.824C227.756 326.664 227.863 326.552 228.076 326.488C228.428 326.381 228.673 326.269 228.812 326.152C228.961 326.035 229.036 325.811 229.036 325.48V318.184C229.036 317.843 228.967 317.603 228.828 317.464C228.7 317.315 228.449 317.197 228.076 317.112C227.948 317.08 227.857 317.032 227.804 316.968C227.761 316.904 227.74 316.84 227.74 316.776C227.74 316.701 227.767 316.643 227.82 316.6C227.884 316.547 227.964 316.52 228.06 316.52C228.295 316.52 228.551 316.525 228.828 316.536C229.105 316.547 229.377 316.563 229.644 316.584C229.911 316.595 230.151 316.6 230.364 316.6C230.961 316.6 231.601 316.595 232.284 316.584C232.967 316.573 233.569 316.563 234.092 316.552C234.433 316.552 234.711 316.531 234.924 316.488C235.148 316.445 235.281 316.424 235.324 316.424C235.409 316.424 235.495 316.451 235.58 316.504C235.676 316.547 235.729 316.632 235.74 316.76C235.783 317.155 235.836 317.544 235.9 317.928C235.975 318.301 236.012 318.632 236.012 318.92C236.012 319.027 235.991 319.107 235.948 319.16C235.905 319.213 235.857 319.24 235.804 319.24C235.751 319.24 235.692 319.219 235.628 319.176C235.564 319.133 235.511 319.064 235.468 318.968C235.351 318.68 235.244 318.44 235.148 318.248C235.063 318.045 234.961 317.885 234.844 317.768C234.727 317.651 234.577 317.539 234.396 317.432C234.215 317.315 233.975 317.256 233.676 317.256H232.668C232.401 317.256 232.183 317.32 232.012 317.448C231.841 317.576 231.756 317.757 231.756 317.992V320.936C231.756 321.075 231.793 321.176 231.868 321.24C231.943 321.293 232.044 321.32 232.172 321.32H233.532C233.809 321.32 234.007 321.219 234.124 321.016C234.252 320.813 234.364 320.584 234.46 320.328C234.545 320.136 234.657 320.04 234.796 320.04C234.849 320.04 234.897 320.072 234.94 320.136C234.983 320.2 234.999 320.291 234.988 320.408C234.977 320.557 234.961 320.707 234.94 320.856C234.929 321.005 234.919 321.155 234.908 321.304C234.908 321.443 234.908 321.587 234.908 321.736C234.908 321.875 234.908 322.019 234.908 322.168C234.919 322.307 234.929 322.451 234.94 322.6C234.951 322.749 234.961 322.904 234.972 323.064C234.993 323.224 234.983 323.341 234.94 323.416C234.908 323.48 234.865 323.512 234.812 323.512C234.631 323.512 234.503 323.384 234.428 323.128C234.332 322.787 234.22 322.525 234.092 322.344C233.975 322.163 233.815 322.072 233.612 322.072H232.108C231.991 322.072 231.9 322.104 231.836 322.168C231.783 322.232 231.756 322.323 231.756 322.44V325.464C231.756 325.763 231.82 325.976 231.948 326.104C232.076 326.221 232.273 326.28 232.54 326.28H233.964C234.177 326.28 234.385 326.253 234.588 326.2C234.801 326.136 234.983 326.04 235.132 325.912C235.313 325.763 235.479 325.571 235.628 325.336C235.788 325.101 235.927 324.867 236.044 324.632C236.087 324.547 236.129 324.493 236.172 324.472C236.225 324.451 236.284 324.44 236.348 324.44C236.412 324.44 236.455 324.477 236.476 324.552C236.497 324.616 236.508 324.685 236.508 324.76C236.508 324.952 236.481 325.16 236.428 325.384C236.375 325.608 236.305 325.848 236.22 326.104C236.145 326.349 236.071 326.605 235.996 326.872C235.975 326.947 235.927 326.995 235.852 327.016C235.777 327.048 235.697 327.064 235.612 327.064C235.559 327.064 235.351 327.059 234.988 327.048C234.625 327.048 234.172 327.043 233.628 327.032C233.095 327.021 232.535 327.011 231.948 327C231.372 327 230.844 327 230.364 327C230.151 327 229.905 327.005 229.628 327.016C229.351 327.027 229.073 327.037 228.796 327.048C228.519 327.069 228.273 327.08 228.06 327.08Z" fill="#292929" fill-opacity="0.3" />
		</g>
	</g>
	<defs>
		<filter id="filter0_d_1_2853" x="0.799999" y="0.799999" width="348.4" height="413.4" filterUnits="userSpaceOnUse" color-interpolation-filters="sRGB">
			<feFlood flood-opacity="0" result="BackgroundImageFix" />
			<feColorMatrix in="SourceAlpha" type="matrix" values="0 0 0 0 0 0 0 0 0 0 0 0 0 0 0 0 0 0 127 0" result="hardAlpha" />
			<feOffset />
			<feGaussianBlur stdDeviation="23.6" />
			<feComposite in2="hardAlpha" operator="out" />
			<feColorMatrix type="matrix" values="0 0 0 0 0 0 0 0 0 0 0 0 0 0 0 0 0 0 0.07 0" />
			<feBlend mode="normal" in2="BackgroundImageFix" result="effect1_dropShadow_1_2853" />
			<feBlend mode="normal" in="SourceGraphic" in2="effect1_dropShadow_1_2853" result="shape" />
		</filter>
		<linearGradient id="paint0_linear_1_2853" x1="120.5" y1="326.5" x2="310.959" y2="224.711" gradientUnits="userSpaceOnUse">
			<stop stop-color="#FFD700" />
			<stop offset="0.302268" stop-color="#DEC956" />
			<stop offset="0.578532" stop-color="#69C3B3" />
			<stop offset="0.783532" stop-color="#ADA578" />
			<stop offset="1" stop-color="#C7AB15" />
		</linearGradient>
		<linearGradient id="paint1_linear_1_2853" x1="120.5" y1="326.5" x2="310.959" y2="224.711" gradientUnits="userSpaceOnUse">
			<stop stop-color="#FFD700" />
			<stop offset="0.302268" stop-color="#DEC956" />
			<stop offset="0.578532" stop-color="#69C3B3" />
			<stop offset="0.783532" stop-color="#ADA578" />
			<stop offset="1" stop-color="#C7AB15" />
		</linearGradient>
		<linearGradient id="paint2_linear_1_2853" x1="120.5" y1="326.5" x2="310.959" y2="224.711" gradientUnits="userSpaceOnUse">
			<stop stop-color="#FFD700" />
			<stop offset="0.302268" stop-color="#DEC956" />
			<stop offset="0.578532" stop-color="#69C3B3" />
			<stop offset="0.783532" stop-color="#ADA578" />
			<stop offset="1" stop-color="#C7AB15" />
		</linearGradient>
		<linearGradient id="paint3_linear_1_2853" x1="120.5" y1="326.5" x2="310.959" y2="224.711" gradientUnits="userSpaceOnUse">
			<stop stop-color="#FFD700" />
			<stop offset="0.302268" stop-color="#DEC956" />
			<stop offset="0.578532" stop-color="#69C3B3" />
			<stop offset="0.783532" stop-color="#ADA578" />
			<stop offset="1" stop-color="#C7AB15" />
		</linearGradient>
		<linearGradient id="paint4_linear_1_2853" x1="120.5" y1="326.5" x2="310.959" y2="224.711" gradientUnits="userSpaceOnUse">
			<stop stop-color="#FFD700" />
			<stop offset="0.302268" stop-color="#DEC956" />
			<stop offset="0.578532" stop-color="#69C3B3" />
			<stop offset="0.783532" stop-color="#ADA578" />
			<stop offset="1" stop-color="#C7AB15" />
		</linearGradient>
		<linearGradient id="paint5_linear_1_2853" x1="120.5" y1="326.5" x2="310.959" y2="224.711" gradientUnits="userSpaceOnUse">
			<stop stop-color="#FFD700" />
			<stop offset="0.302268" stop-color="#DEC956" />
			<stop offset="0.578532" stop-color="#69C3B3" />
			<stop offset="0.783532" stop-color="#ADA578" />
			<stop offset="1" stop-color="#C7AB15" />
		</linearGradient>
		<linearGradient id="paint6_linear_1_2853" x1="120.5" y1="326.5" x2="310.959" y2="224.711" gradientUnits="userSpaceOnUse">
			<stop stop-color="#FFD700" />
			<stop offset="0.302268" stop-color="#DEC956" />
			<stop offset="0.578532" stop-color="#69C3B3" />
			<stop offset="0.783532" stop-color="#ADA578" />
			<stop offset="1" stop-color="#C7AB15" />
		</linearGradient>
		<clipPath id="clip0_1_2853">
			<rect x="48" y="48" width="254" height="319" rx="23" fill="white" />
		</clipPath>
	</defs>
</svg>
