<svg width="350" height="415" viewBox="0 0 350 415" fill="none" xmlns="http://www.w3.org/2000/svg">
	<g filter="url(#filter0_d_1_2841)">
		<g clip-path="url(#clip0_1_2841)">
			<rect x="48" y="48" width="254" height="319" rx="23" fill="#EBFFE6" />
			<path d="M61.6766 252.84C56.7566 252.84 53.0966 252.18 50.6966 250.86C48.4166 249.54 47.2766 247.8 47.2766 245.64C47.2766 243.36 47.6966 241.44 48.5366 239.88C49.3766 238.32 50.7566 237.54 52.6766 237.54C53.3966 237.54 54.4166 237.9 55.7366 238.62C57.0566 239.22 58.3166 239.94 59.5166 240.78C61.1966 241.74 62.9966 242.7 64.9166 243.66C66.9566 244.62 69.1166 245.1 71.3966 245.1C77.9966 245.1 83.7566 243.3 88.6766 239.7C93.5966 236.1 97.4366 231.48 100.197 225.84C102.957 220.08 104.337 214.02 104.337 207.66C104.337 203.34 103.377 199.68 101.457 196.68C99.5366 193.68 96.4166 192.18 92.0966 192.18C90.2966 192.18 88.3166 192.48 86.1566 193.08C83.9966 193.68 81.9566 194.46 80.0366 195.42C79.4366 195.54 78.7766 195.54 78.0566 195.42C77.4566 195.18 77.1566 194.58 77.1566 193.62C77.1566 192.42 77.6366 191.34 78.5966 190.38C79.5566 189.42 80.6966 188.58 82.0166 187.86C83.3366 187.14 84.4766 186.54 85.4366 186.06C88.5566 184.86 91.7966 183.36 95.1566 181.56C98.6366 179.64 101.877 177.42 104.877 174.9C107.877 172.26 110.277 169.38 112.077 166.26C113.997 163.14 114.957 159.84 114.957 156.36C114.957 152.76 113.937 149.76 111.897 147.36C109.857 144.96 107.097 143.76 103.617 143.76C98.8166 143.76 94.6766 144.9 91.1966 147.18C87.8366 149.46 84.6566 152.82 81.6566 157.26C81.0566 158.1 80.5166 158.82 80.0366 159.42C79.6766 159.9 79.0766 160.14 78.2366 160.14C77.7566 160.14 77.0366 159.54 76.0766 158.34C75.2366 157.02 74.8166 155.76 74.8166 154.56C74.8166 153.12 75.8966 151.2 78.0566 148.8C80.3366 146.28 83.3366 143.82 87.0566 141.42C90.7766 138.9 94.7966 136.8 99.1166 135.12C103.437 133.44 107.637 132.6 111.717 132.6C116.037 132.6 119.877 133.38 123.237 134.94C126.597 136.5 129.177 138.66 130.977 141.42C132.897 144.06 133.857 147.06 133.857 150.42C133.857 153.66 133.017 156.78 131.337 159.78C129.657 162.66 127.437 165.42 124.677 168.06C121.917 170.7 118.797 173.16 115.317 175.44C111.957 177.6 108.477 179.46 104.877 181.02C104.517 181.14 104.277 181.38 104.157 181.74C104.037 181.98 104.217 182.16 104.697 182.28C108.417 182.76 111.837 183.84 114.957 185.52C118.077 187.2 120.537 189.6 122.337 192.72C124.257 195.72 125.217 199.38 125.217 203.7C125.217 208.5 123.897 213.36 121.257 218.28C118.737 223.08 115.197 227.64 110.637 231.96C106.197 236.28 101.157 240.06 95.5166 243.3C90.2366 246.42 84.6566 248.76 78.7766 250.32C72.8966 252 67.1966 252.84 61.6766 252.84ZM147.909 248.88C147.069 248.88 146.109 248.64 145.029 248.16C144.069 247.68 143.169 246.96 142.329 246C141.609 245.16 141.249 244.26 141.249 243.3C141.249 241.98 141.549 240.48 142.149 238.8C142.749 237 143.529 234.78 144.489 232.14L161.589 187.68C162.189 186.24 162.369 184.98 162.129 183.9C162.009 182.7 161.349 182.1 160.149 182.1C158.229 182.1 156.489 182.4 154.929 183C153.369 183.6 151.989 184.32 150.789 185.16C150.069 185.64 149.349 185.76 148.629 185.52C147.909 185.28 147.549 184.68 147.549 183.72C147.429 182.28 148.029 180.72 149.349 179.04C150.789 177.36 152.589 175.86 154.749 174.54C156.549 173.22 158.649 172.2 161.049 171.48C163.449 170.64 165.849 170.22 168.249 170.22C171.609 170.22 173.829 171.12 174.909 172.92C175.989 174.6 176.289 176.94 175.809 179.94C175.449 182.82 174.489 186.12 172.929 189.84L165.189 208.74C164.709 209.58 164.829 210.12 165.549 210.36C166.389 210.6 166.989 210.36 167.349 209.64C171.909 201.6 176.469 194.64 181.029 188.76C185.709 182.76 190.089 178.08 194.169 174.72C198.369 171.36 202.149 169.68 205.509 169.68C208.869 169.68 211.269 170.64 212.709 172.56C214.269 174.48 215.049 176.82 215.049 179.58C215.049 182.1 214.509 184.62 213.429 187.14C212.469 189.66 211.149 191.76 209.469 193.44C207.909 195 206.289 195.78 204.609 195.78C203.409 195.78 202.509 195.18 201.909 193.98C201.429 192.78 201.069 191.1 200.829 188.94C200.709 187.14 200.349 185.64 199.749 184.44C199.269 183.12 198.369 182.46 197.049 182.46C195.489 182.46 193.689 183.48 191.649 185.52C189.609 187.44 187.149 190.5 184.269 194.7C183.069 196.38 181.449 198.78 179.409 201.9C177.369 204.9 175.209 208.26 172.929 211.98C170.649 215.7 168.369 219.42 166.089 223.14C163.809 226.86 161.829 230.22 160.149 233.22C157.269 238.38 154.929 242.28 153.129 244.92C151.329 247.56 149.589 248.88 147.909 248.88ZM220.687 248.52C216.967 248.52 213.907 247.26 211.507 244.74C209.107 242.1 207.907 238.8 207.907 234.84C207.907 230.28 208.867 225.3 210.787 219.9C212.707 214.38 215.287 208.8 218.527 203.16C221.887 197.4 225.727 192.06 230.047 187.14C234.967 181.5 239.827 177.18 244.627 174.18C249.547 171.06 254.047 169.5 258.127 169.5C260.167 169.5 261.907 169.92 263.347 170.76C264.907 171.48 267.187 172.8 270.187 174.72C272.107 175.92 273.247 176.64 273.607 176.88C273.967 177 274.087 177.06 273.967 177.06C274.447 177.06 274.807 176.58 275.047 175.62L285.847 139.8C286.327 138.36 286.627 137.28 286.747 136.56C286.987 135.84 287.107 135.42 287.107 135.3C287.227 135.06 287.227 134.88 287.107 134.76C287.107 134.52 287.107 134.28 287.107 134.04C287.107 132.84 286.687 131.82 285.847 130.98C285.007 130.02 283.507 129.18 281.347 128.46C279.067 127.5 277.687 126.9 277.207 126.66C276.727 126.42 276.487 126.12 276.487 125.76C276.487 124.92 276.907 124.26 277.747 123.78C278.707 123.3 280.267 122.82 282.427 122.34C284.107 121.98 286.027 121.62 288.187 121.26C290.467 120.78 292.627 120.42 294.667 120.18C296.827 119.82 298.687 119.52 300.247 119.28C301.927 119.04 303.067 118.92 303.667 118.92C305.587 118.92 306.547 119.76 306.547 121.44C306.547 122.28 306.487 123.06 306.367 123.78C306.247 124.5 305.947 125.46 305.467 126.66L275.047 226.2C274.927 227.04 274.747 227.82 274.507 228.54C274.387 229.26 274.327 229.98 274.327 230.7C274.327 232.86 275.047 233.94 276.487 233.94C277.807 233.94 279.487 233.4 281.527 232.32C283.567 231.12 285.667 229.62 287.827 227.82C289.987 225.9 291.847 223.92 293.407 221.88C293.767 221.52 294.007 221.34 294.127 221.34C294.247 221.22 294.427 221.16 294.667 221.16C295.867 221.16 296.347 221.76 296.107 222.96C296.107 224.4 295.387 226.26 293.947 228.54C292.507 230.7 290.587 232.92 288.187 235.2C285.907 237.48 283.387 239.64 280.627 241.68C277.987 243.72 275.347 245.34 272.707 246.54C270.187 247.86 268.027 248.52 266.227 248.52C264.787 248.52 263.347 248.1 261.907 247.26C260.467 246.42 259.267 245.34 258.307 244.02C257.347 242.58 256.867 241.14 256.867 239.7C256.867 239.1 257.107 237.6 257.587 235.2C257.947 233.88 258.427 232.26 259.027 230.34C259.627 228.42 260.227 226.56 260.827 224.76C261.427 222.96 261.847 221.64 262.087 220.8C262.327 219.96 262.327 220.02 262.087 220.98C262.327 220.14 262.267 219.54 261.907 219.18C261.547 218.82 261.187 218.94 260.827 219.54C252.547 229.86 245.287 237.3 239.047 241.86C232.807 246.3 226.687 248.52 220.687 248.52ZM230.407 236.82C233.287 236.82 236.527 235.74 240.127 233.58C243.727 231.3 247.267 228.36 250.747 224.76C254.227 221.04 257.467 216.96 260.467 212.52C263.467 208.08 265.807 203.7 267.487 199.38C269.287 194.94 270.187 190.86 270.187 187.14C270.187 183.78 269.467 181.14 268.027 179.22C266.587 177.3 264.487 176.34 261.727 176.34C259.207 176.34 256.267 177.6 252.907 180.12C249.667 182.64 246.367 185.94 243.007 190.02C239.767 194.1 236.707 198.54 233.827 203.34C231.067 208.14 228.787 212.94 226.987 217.74C225.307 222.54 224.467 226.74 224.467 230.34C224.467 232.74 224.887 234.42 225.727 235.38C226.687 236.34 228.247 236.82 230.407 236.82Z" fill="black" fill-opacity="0.03" />
			<path d="M203.444 178.109C203.444 193.24 190.907 205.507 175.443 205.507C159.978 205.507 147.441 193.24 147.441 178.109C147.441 166.269 155.118 156.182 165.868 152.356C168.855 151.292 172.079 150.712 175.443 150.712C182.317 150.712 188.614 153.136 193.487 157.158C199.576 162.184 203.444 169.705 203.444 178.109Z" fill="url(#paint0_linear_1_2841)" />
			<path d="M165.868 152.356C168.855 151.292 172.079 150.712 175.443 150.712C182.317 150.712 188.614 153.136 193.487 157.158C198.663 159.04 202.477 160.828 205.459 163.605C209.715 166.659 212.435 171.208 213.92 178.109C214.8 184.442 213.555 187.75 211.301 193.42C207.144 201.358 202.474 205.959 196.998 209.334C191.812 212.695 186.079 214.996 178.061 215.378H172.824C167.435 215.071 162.306 214.577 157.715 211.752C150.605 208.409 145.616 203.274 141.599 196.643C139.039 192.53 137.781 185.776 138.376 178.109C140.854 166.05 146.602 160.668 158.722 152.356L173.025 142.05V140.438H168.392C158.543 147.468 153.031 151.196 143.815 157.964C129.487 169.392 126.141 178.644 126.893 192.211C127.383 199.278 129.359 203.791 132.332 208.126C134.888 211.351 136.991 214.172 139.584 216.586C146.058 222.615 153.476 226.262 163.154 228.472C166.137 229.5 168.921 229.525 172.824 229.882H178.061C188.915 229.013 196.663 226.548 202.84 222.63C208.802 219.381 213.594 215.457 217.336 209.939C220.79 205.447 222.76 200.038 223.388 193.42C223.295 184.593 222.25 177.032 218.352 171.059C214.105 163.291 207.745 158.569 201.027 154.942C194.841 151.957 187.439 150.341 178.061 150.108L172.824 150.309C169.846 150.736 168.391 151.281 165.868 152.356Z" fill="url(#paint1_linear_1_2841)" />
			<path fill-rule="evenodd" clip-rule="evenodd" d="M114 137.819H236.684V241.768H114V137.819ZM234.468 239.149H116.417V140.438H234.468V239.149Z" fill="url(#paint2_linear_1_2841)" />
			<path d="M172.824 140.237H178.061V261.913H172.824V140.237Z" fill="url(#paint3_linear_1_2841)" />
			<path d="M178.061 261.107C178.061 268.228 172.289 274 165.169 274C158.048 274 152.276 268.228 152.276 261.107C152.276 253.987 158.048 248.214 165.169 248.214C172.289 248.214 178.061 253.987 178.061 261.107Z" fill="url(#paint4_linear_1_2841)" />
			<path d="M173.025 249.826L172.219 250.43L170.809 251.639L173.227 253.049C173.629 253.251 174.476 253.613 174.637 253.452C174.798 253.291 175.241 251.639 175.443 250.833L173.025 249.826Z" fill="url(#paint5_linear_1_2841)" />
			<path fill-rule="evenodd" clip-rule="evenodd" d="M172.219 137.819C172.38 137.819 172.555 137.416 172.824 137.215V100.349C174.073 92.0903 176.621 87.5301 180.076 84.6361C182.747 82.3982 186.126 80.9136 190.954 81.01C195.518 80.8383 199.409 82.9046 201.833 85.039C203.295 86.5499 204.221 88.4803 205.459 90.6797C206.561 93.2248 207.664 96.206 207.473 100.349C207.228 104.12 206.552 107.507 205.454 110.623C200.526 121.545 192.157 129.009 179.472 137.819H172.219ZM178.061 100.349V133.79C193.697 121.687 202.341 114.882 202.638 100.349C201.766 94.3414 200.716 90.3161 197.804 87.8593C196.198 86.5048 194.166 85.3912 190.954 85.2405C188.073 85.1688 185.852 86.6384 184.105 87.8593C180.832 90.1473 179.225 93.778 178.061 100.349Z" fill="url(#paint6_linear_1_2841)" />
			<path d="M105.113 306.504C104.081 306.504 103.073 306.384 102.089 306.144C101.105 305.928 100.181 305.556 99.3171 305.028C99.1491 304.908 98.9811 304.776 98.8131 304.632C98.6691 304.464 98.5611 304.296 98.4891 304.128C98.2251 303.432 98.0451 302.604 97.9491 301.644C97.8531 300.66 97.8291 299.64 97.8771 298.584C97.8771 298.416 97.9371 298.296 98.0571 298.224C98.2011 298.152 98.3691 298.116 98.5611 298.116C98.8251 298.116 98.9931 298.152 99.0651 298.224C99.1611 298.296 99.2571 298.416 99.3531 298.584C99.9051 300.36 100.709 301.836 101.765 303.012C102.845 304.188 104.117 304.776 105.581 304.776C106.325 304.776 106.925 304.608 107.381 304.272C107.861 303.912 108.209 303.48 108.425 302.976C108.665 302.448 108.785 301.944 108.785 301.464C108.785 300.744 108.641 300.132 108.353 299.628C108.065 299.124 107.621 298.656 107.021 298.224C106.421 297.792 105.641 297.324 104.681 296.82C103.673 296.268 102.689 295.668 101.729 295.02C100.793 294.372 100.025 293.58 99.4251 292.644C98.8251 291.708 98.5251 290.532 98.5251 289.116C98.5251 287.676 98.9091 286.44 99.6771 285.408C100.469 284.352 101.513 283.536 102.809 282.96C104.129 282.384 105.569 282.096 107.129 282.096C108.041 282.096 108.929 282.192 109.793 282.384C110.681 282.576 111.389 282.78 111.917 282.996C112.229 283.116 112.445 283.248 112.565 283.392C112.685 283.512 112.805 283.776 112.925 284.184C113.045 284.688 113.129 285.312 113.177 286.056C113.249 286.776 113.285 287.604 113.285 288.54C113.285 288.852 113.057 289.008 112.601 289.008C112.409 289.008 112.217 288.96 112.025 288.864C111.857 288.744 111.749 288.6 111.701 288.432C111.317 286.944 110.717 285.828 109.901 285.084C109.085 284.316 108.089 283.932 106.913 283.932C106.169 283.932 105.557 284.052 105.077 284.292C104.621 284.532 104.273 284.88 104.033 285.336C103.817 285.768 103.709 286.32 103.709 286.992C103.709 287.52 103.901 288.024 104.285 288.504C104.669 288.984 105.221 289.476 105.941 289.98C106.685 290.46 107.549 291 108.533 291.6C109.925 292.416 111.005 293.208 111.773 293.976C112.541 294.744 113.081 295.548 113.393 296.388C113.705 297.204 113.861 298.14 113.861 299.196C113.861 300.9 113.489 302.292 112.745 303.372C112.025 304.452 111.005 305.244 109.685 305.748C108.389 306.252 106.865 306.504 105.113 306.504ZM116.309 306.108C116.165 306.108 116.021 306.06 115.877 305.964C115.733 305.868 115.661 305.736 115.661 305.568C115.661 305.16 115.889 304.896 116.345 304.776C117.257 304.584 117.881 304.344 118.217 304.056C118.553 303.768 118.721 303.252 118.721 302.508V286.164C118.721 285.396 118.565 284.856 118.253 284.544C117.941 284.232 117.305 283.968 116.345 283.752C115.889 283.632 115.661 283.368 115.661 282.96C115.661 282.792 115.733 282.66 115.877 282.564C116.021 282.468 116.165 282.42 116.309 282.42C116.837 282.42 117.425 282.432 118.073 282.456C118.745 282.48 119.393 282.516 120.017 282.564C120.665 282.588 121.229 282.6 121.709 282.6C122.189 282.6 122.765 282.588 123.437 282.564C124.109 282.54 124.793 282.516 125.489 282.492C126.185 282.468 126.785 282.456 127.289 282.456C127.481 282.456 127.625 282.504 127.721 282.6C127.817 282.672 127.865 282.804 127.865 282.996C127.865 283.236 127.805 283.404 127.685 283.5C127.565 283.596 127.397 283.68 127.181 283.752C126.197 284.04 125.561 284.34 125.273 284.652C124.985 284.964 124.841 285.48 124.841 286.2V302.472C124.841 303.144 124.997 303.636 125.309 303.948C125.621 304.236 126.245 304.512 127.181 304.776C127.397 304.848 127.565 304.932 127.685 305.028C127.805 305.124 127.865 305.292 127.865 305.532C127.865 305.7 127.817 305.832 127.721 305.928C127.625 306.024 127.481 306.072 127.289 306.072C126.785 306.072 126.185 306.06 125.489 306.036C124.793 306.012 124.109 305.988 123.437 305.964C122.765 305.94 122.189 305.928 121.709 305.928C121.229 305.928 120.665 305.94 120.017 305.964C119.393 305.988 118.745 306.012 118.073 306.036C117.425 306.084 116.837 306.108 116.309 306.108ZM152.998 306.684C152.662 306.684 152.134 306.492 151.414 306.108C150.718 305.748 149.974 305.088 149.182 304.128C148.51 303.408 147.838 302.7 147.166 302.004C146.518 301.284 145.858 300.576 145.186 299.88C144.514 299.16 143.842 298.452 143.17 297.756C142.498 297.036 141.826 296.328 141.154 295.632C140.506 294.936 139.846 294.24 139.174 293.544C138.502 292.824 137.83 292.116 137.158 291.42C136.51 290.7 135.85 289.98 135.178 289.26C135.154 289.212 135.094 289.14 134.998 289.044C134.902 288.948 134.83 288.9 134.782 288.9C134.686 288.9 134.614 288.984 134.566 289.152C134.542 289.32 134.53 289.464 134.53 289.584C134.53 290.664 134.542 291.948 134.566 293.436C134.614 294.924 134.65 296.424 134.674 297.936C134.722 299.424 134.746 300.756 134.746 301.932C134.746 302.748 134.998 303.372 135.502 303.804C136.03 304.212 136.774 304.536 137.734 304.776C137.95 304.824 138.166 304.908 138.382 305.028C138.598 305.124 138.706 305.292 138.706 305.532C138.706 305.7 138.61 305.832 138.418 305.928C138.226 306.024 138.034 306.072 137.842 306.072C137.194 306.072 136.654 306.06 136.222 306.036C135.79 306.012 135.382 306 134.998 306C134.638 305.976 134.206 305.964 133.702 305.964C133.15 305.964 132.61 305.976 132.082 306C131.578 306.024 131.158 306.048 130.822 306.072C130.51 306.096 130.354 306.108 130.354 306.108C130.21 306.108 130.03 306.06 129.814 305.964C129.622 305.868 129.526 305.736 129.526 305.568C129.526 305.352 129.61 305.196 129.778 305.1C129.97 304.98 130.174 304.872 130.39 304.776C130.942 304.56 131.362 304.2 131.65 303.696C131.962 303.192 132.142 302.58 132.19 301.86C132.286 300.972 132.382 299.796 132.478 298.332C132.598 296.868 132.706 295.224 132.802 293.4C132.898 291.576 132.946 289.68 132.946 287.712C132.946 286.464 132.634 285.564 132.01 285.012C131.386 284.46 130.63 284.016 129.742 283.68C129.526 283.632 129.31 283.548 129.094 283.428C128.878 283.284 128.77 283.104 128.77 282.888C128.77 282.672 128.854 282.528 129.022 282.456C129.214 282.36 129.442 282.312 129.706 282.312C130.09 282.312 130.558 282.324 131.11 282.348C131.686 282.372 132.298 282.396 132.946 282.42C133.618 282.42 134.302 282.432 134.998 282.456C135.694 282.48 136.366 282.492 137.014 282.492C137.206 282.492 137.35 282.528 137.446 282.6C137.566 282.648 137.662 282.732 137.734 282.852C138.358 283.548 138.982 284.256 139.606 284.976C140.254 285.672 140.89 286.368 141.514 287.064C142.162 287.76 142.798 288.456 143.422 289.152C144.07 289.848 144.706 290.556 145.33 291.276C145.954 291.972 146.578 292.668 147.202 293.364C147.85 294.06 148.486 294.768 149.11 295.488C149.758 296.184 150.394 296.88 151.018 297.576C151.09 297.672 151.174 297.768 151.27 297.864C151.366 297.96 151.45 298.008 151.522 298.008C151.714 298.008 151.81 297.84 151.81 297.504C151.81 296.664 151.81 295.752 151.81 294.768C151.81 293.76 151.81 292.74 151.81 291.708C151.81 290.652 151.798 289.644 151.774 288.684C151.774 287.7 151.75 286.836 151.702 286.092C151.678 285.396 151.426 284.892 150.946 284.58C150.49 284.268 149.806 283.992 148.894 283.752C148.678 283.704 148.486 283.632 148.318 283.536C148.15 283.416 148.066 283.236 148.066 282.996C148.066 282.828 148.15 282.696 148.318 282.6C148.486 282.504 148.654 282.456 148.822 282.456C149.47 282.456 149.998 282.468 150.406 282.492C150.814 282.492 151.186 282.504 151.522 282.528C151.858 282.528 152.23 282.528 152.638 282.528C153.118 282.528 153.526 282.528 153.862 282.528C154.198 282.504 154.558 282.48 154.942 282.456C155.35 282.432 155.854 282.42 156.454 282.42C156.718 282.42 156.922 282.468 157.066 282.564C157.234 282.66 157.318 282.792 157.318 282.96C157.318 283.344 157.018 283.596 156.418 283.716C155.602 283.884 155.002 284.124 154.618 284.436C154.234 284.748 154.042 285.264 154.042 285.984C154.042 287.016 154.03 288.048 154.006 289.08C153.982 290.088 153.946 291.084 153.898 292.068C153.85 293.052 153.802 294.012 153.754 294.948C153.706 295.86 153.67 296.736 153.646 297.576C153.622 298.416 153.61 299.184 153.61 299.88C153.61 300.432 153.646 301.068 153.718 301.788C153.79 302.484 153.862 303.132 153.934 303.732C154.006 304.308 154.042 304.704 154.042 304.92C154.042 305.568 153.946 306.024 153.754 306.288C153.586 306.552 153.334 306.684 152.998 306.684ZM171.231 306.504C169.479 306.504 167.835 306.228 166.299 305.676C164.787 305.1 163.443 304.296 162.267 303.264C161.115 302.208 160.215 300.96 159.567 299.52C158.919 298.056 158.595 296.436 158.595 294.66C158.595 293.028 158.907 291.468 159.531 289.98C160.155 288.468 161.055 287.124 162.231 285.948C163.431 284.772 164.871 283.836 166.551 283.14C168.255 282.444 170.163 282.096 172.275 282.096C172.779 282.096 173.355 282.132 174.003 282.204C174.651 282.276 175.311 282.372 175.983 282.492C176.679 282.612 177.327 282.756 177.927 282.924C178.551 283.068 179.079 283.224 179.511 283.392C179.727 283.488 179.907 283.608 180.051 283.752C180.195 283.896 180.279 284.1 180.303 284.364C180.423 285.228 180.519 286.044 180.591 286.812C180.687 287.556 180.735 288.192 180.735 288.72C180.735 288.96 180.675 289.14 180.555 289.26C180.459 289.38 180.315 289.44 180.123 289.44C179.835 289.44 179.619 289.38 179.475 289.26C179.355 289.116 179.235 288.936 179.115 288.72C178.899 288.24 178.635 287.736 178.323 287.208C178.011 286.656 177.651 286.176 177.243 285.768C176.931 285.456 176.583 285.18 176.199 284.94C175.815 284.676 175.359 284.472 174.831 284.328C174.303 284.16 173.667 284.076 172.923 284.076C171.651 284.076 170.523 284.34 169.539 284.868C168.579 285.372 167.775 286.08 167.127 286.992C166.479 287.88 165.987 288.9 165.651 290.052C165.339 291.18 165.183 292.368 165.183 293.616C165.183 295.224 165.303 296.7 165.543 298.044C165.807 299.364 166.203 300.504 166.731 301.464C167.283 302.424 167.979 303.168 168.819 303.696C169.659 304.2 170.667 304.452 171.843 304.452C172.275 304.452 172.659 304.368 172.995 304.2C173.355 304.008 173.655 303.828 173.895 303.66C174.135 303.492 174.315 303.204 174.435 302.796C174.579 302.388 174.663 301.932 174.687 301.428C174.711 301.212 174.723 300.9 174.723 300.492C174.723 300.06 174.723 299.64 174.723 299.232C174.747 298.8 174.759 298.476 174.759 298.26C174.759 297.996 174.687 297.756 174.543 297.54C174.423 297.3 174.183 297.108 173.823 296.964C173.583 296.868 173.343 296.784 173.103 296.712C172.887 296.616 172.659 296.544 172.419 296.496C172.203 296.424 171.987 296.364 171.771 296.316C171.555 296.268 171.351 296.172 171.159 296.028C170.967 295.884 170.871 295.704 170.871 295.488C170.871 295.32 170.955 295.188 171.123 295.092C171.291 294.996 171.471 294.948 171.663 294.948C172.191 294.948 172.803 294.96 173.499 294.984C174.219 295.008 174.927 295.044 175.623 295.092C176.319 295.116 176.907 295.128 177.387 295.128C178.083 295.128 178.851 295.104 179.691 295.056C180.555 295.008 181.359 294.984 182.103 294.984C182.295 294.984 182.439 295.032 182.535 295.128C182.631 295.2 182.679 295.332 182.679 295.524C182.679 295.764 182.619 295.944 182.499 296.064C182.379 296.16 182.211 296.232 181.995 296.28C181.275 296.472 180.783 296.7 180.519 296.964C180.279 297.204 180.111 297.564 180.015 298.044C179.919 298.572 179.847 299.04 179.799 299.448C179.775 299.832 179.763 300.264 179.763 300.744V301.968C179.763 302.088 179.811 302.208 179.907 302.328C180.027 302.448 180.147 302.568 180.267 302.688C180.387 302.808 180.471 302.94 180.519 303.084C180.591 303.204 180.627 303.336 180.627 303.48C180.627 303.648 180.567 303.816 180.447 303.984C180.327 304.128 180.135 304.224 179.871 304.272C179.679 304.296 179.343 304.428 178.863 304.668C178.407 304.884 177.819 305.136 177.099 305.424C176.379 305.712 175.527 305.964 174.543 306.18C173.559 306.396 172.455 306.504 171.231 306.504ZM184.688 306.108C184.544 306.108 184.4 306.06 184.256 305.964C184.112 305.868 184.04 305.736 184.04 305.568C184.04 305.16 184.268 304.896 184.724 304.776C185.636 304.584 186.26 304.344 186.596 304.056C186.932 303.768 187.1 303.252 187.1 302.508V286.164C187.1 285.396 186.944 284.856 186.632 284.544C186.32 284.232 185.684 283.968 184.724 283.752C184.268 283.632 184.04 283.368 184.04 282.96C184.04 282.792 184.112 282.66 184.256 282.564C184.4 282.468 184.544 282.42 184.688 282.42C185.216 282.42 185.804 282.432 186.452 282.456C187.124 282.48 187.772 282.516 188.396 282.564C189.044 282.588 189.608 282.6 190.088 282.6C190.568 282.6 191.144 282.588 191.816 282.564C192.488 282.54 193.172 282.516 193.868 282.492C194.564 282.468 195.164 282.456 195.668 282.456C195.86 282.456 196.004 282.504 196.1 282.6C196.196 282.672 196.244 282.804 196.244 282.996C196.244 283.236 196.184 283.404 196.064 283.5C195.944 283.596 195.776 283.68 195.56 283.752C194.576 284.04 193.94 284.34 193.652 284.652C193.364 284.964 193.22 285.48 193.22 286.2V302.472C193.22 303.144 193.376 303.636 193.688 303.948C194 304.236 194.624 304.512 195.56 304.776C195.776 304.848 195.944 304.932 196.064 305.028C196.184 305.124 196.244 305.292 196.244 305.532C196.244 305.7 196.196 305.832 196.1 305.928C196.004 306.024 195.86 306.072 195.668 306.072C195.164 306.072 194.564 306.06 193.868 306.036C193.172 306.012 192.488 305.988 191.816 305.964C191.144 305.94 190.568 305.928 190.088 305.928C189.608 305.928 189.044 305.94 188.396 305.964C187.772 305.988 187.124 306.012 186.452 306.036C185.804 306.084 185.216 306.108 184.688 306.108ZM221.377 306.684C221.041 306.684 220.513 306.492 219.793 306.108C219.097 305.748 218.353 305.088 217.561 304.128C216.889 303.408 216.217 302.7 215.545 302.004C214.897 301.284 214.237 300.576 213.565 299.88C212.893 299.16 212.221 298.452 211.549 297.756C210.877 297.036 210.205 296.328 209.533 295.632C208.885 294.936 208.225 294.24 207.553 293.544C206.881 292.824 206.209 292.116 205.537 291.42C204.889 290.7 204.229 289.98 203.557 289.26C203.533 289.212 203.473 289.14 203.377 289.044C203.281 288.948 203.209 288.9 203.161 288.9C203.065 288.9 202.993 288.984 202.945 289.152C202.921 289.32 202.909 289.464 202.909 289.584C202.909 290.664 202.921 291.948 202.945 293.436C202.993 294.924 203.029 296.424 203.053 297.936C203.101 299.424 203.125 300.756 203.125 301.932C203.125 302.748 203.377 303.372 203.881 303.804C204.409 304.212 205.153 304.536 206.113 304.776C206.329 304.824 206.545 304.908 206.761 305.028C206.977 305.124 207.085 305.292 207.085 305.532C207.085 305.7 206.989 305.832 206.797 305.928C206.605 306.024 206.413 306.072 206.221 306.072C205.573 306.072 205.033 306.06 204.601 306.036C204.169 306.012 203.761 306 203.377 306C203.017 305.976 202.585 305.964 202.081 305.964C201.529 305.964 200.989 305.976 200.461 306C199.957 306.024 199.537 306.048 199.201 306.072C198.889 306.096 198.733 306.108 198.733 306.108C198.589 306.108 198.409 306.06 198.193 305.964C198.001 305.868 197.905 305.736 197.905 305.568C197.905 305.352 197.989 305.196 198.157 305.1C198.349 304.98 198.553 304.872 198.769 304.776C199.321 304.56 199.741 304.2 200.029 303.696C200.341 303.192 200.521 302.58 200.569 301.86C200.665 300.972 200.761 299.796 200.857 298.332C200.977 296.868 201.085 295.224 201.181 293.4C201.277 291.576 201.325 289.68 201.325 287.712C201.325 286.464 201.013 285.564 200.389 285.012C199.765 284.46 199.009 284.016 198.121 283.68C197.905 283.632 197.689 283.548 197.473 283.428C197.257 283.284 197.149 283.104 197.149 282.888C197.149 282.672 197.233 282.528 197.401 282.456C197.593 282.36 197.821 282.312 198.085 282.312C198.469 282.312 198.937 282.324 199.489 282.348C200.065 282.372 200.677 282.396 201.325 282.42C201.997 282.42 202.681 282.432 203.377 282.456C204.073 282.48 204.745 282.492 205.393 282.492C205.585 282.492 205.729 282.528 205.825 282.6C205.945 282.648 206.041 282.732 206.113 282.852C206.737 283.548 207.361 284.256 207.985 284.976C208.633 285.672 209.269 286.368 209.893 287.064C210.541 287.76 211.177 288.456 211.801 289.152C212.449 289.848 213.085 290.556 213.709 291.276C214.333 291.972 214.957 292.668 215.581 293.364C216.229 294.06 216.865 294.768 217.489 295.488C218.137 296.184 218.773 296.88 219.397 297.576C219.469 297.672 219.553 297.768 219.649 297.864C219.745 297.96 219.829 298.008 219.901 298.008C220.093 298.008 220.189 297.84 220.189 297.504C220.189 296.664 220.189 295.752 220.189 294.768C220.189 293.76 220.189 292.74 220.189 291.708C220.189 290.652 220.177 289.644 220.153 288.684C220.153 287.7 220.129 286.836 220.081 286.092C220.057 285.396 219.805 284.892 219.325 284.58C218.869 284.268 218.185 283.992 217.273 283.752C217.057 283.704 216.865 283.632 216.697 283.536C216.529 283.416 216.445 283.236 216.445 282.996C216.445 282.828 216.529 282.696 216.697 282.6C216.865 282.504 217.033 282.456 217.201 282.456C217.849 282.456 218.377 282.468 218.785 282.492C219.193 282.492 219.565 282.504 219.901 282.528C220.237 282.528 220.609 282.528 221.017 282.528C221.497 282.528 221.905 282.528 222.241 282.528C222.577 282.504 222.937 282.48 223.321 282.456C223.729 282.432 224.233 282.42 224.833 282.42C225.097 282.42 225.301 282.468 225.445 282.564C225.613 282.66 225.697 282.792 225.697 282.96C225.697 283.344 225.397 283.596 224.797 283.716C223.981 283.884 223.381 284.124 222.997 284.436C222.613 284.748 222.421 285.264 222.421 285.984C222.421 287.016 222.409 288.048 222.385 289.08C222.361 290.088 222.325 291.084 222.277 292.068C222.229 293.052 222.181 294.012 222.133 294.948C222.085 295.86 222.049 296.736 222.025 297.576C222.001 298.416 221.989 299.184 221.989 299.88C221.989 300.432 222.025 301.068 222.097 301.788C222.169 302.484 222.241 303.132 222.313 303.732C222.385 304.308 222.421 304.704 222.421 304.92C222.421 305.568 222.325 306.024 222.133 306.288C221.965 306.552 221.713 306.684 221.377 306.684ZM239.61 306.504C237.858 306.504 236.214 306.228 234.678 305.676C233.166 305.1 231.822 304.296 230.646 303.264C229.494 302.208 228.594 300.96 227.946 299.52C227.298 298.056 226.974 296.436 226.974 294.66C226.974 293.028 227.286 291.468 227.91 289.98C228.534 288.468 229.434 287.124 230.61 285.948C231.81 284.772 233.25 283.836 234.93 283.14C236.634 282.444 238.542 282.096 240.654 282.096C241.158 282.096 241.734 282.132 242.382 282.204C243.03 282.276 243.69 282.372 244.362 282.492C245.058 282.612 245.706 282.756 246.306 282.924C246.93 283.068 247.458 283.224 247.89 283.392C248.106 283.488 248.286 283.608 248.43 283.752C248.574 283.896 248.658 284.1 248.682 284.364C248.802 285.228 248.898 286.044 248.97 286.812C249.066 287.556 249.114 288.192 249.114 288.72C249.114 288.96 249.054 289.14 248.934 289.26C248.838 289.38 248.694 289.44 248.502 289.44C248.214 289.44 247.998 289.38 247.854 289.26C247.734 289.116 247.614 288.936 247.494 288.72C247.278 288.24 247.014 287.736 246.702 287.208C246.39 286.656 246.03 286.176 245.622 285.768C245.31 285.456 244.962 285.18 244.578 284.94C244.194 284.676 243.738 284.472 243.21 284.328C242.682 284.16 242.046 284.076 241.302 284.076C240.03 284.076 238.902 284.34 237.918 284.868C236.958 285.372 236.154 286.08 235.506 286.992C234.858 287.88 234.366 288.9 234.03 290.052C233.718 291.18 233.562 292.368 233.562 293.616C233.562 295.224 233.682 296.7 233.922 298.044C234.186 299.364 234.582 300.504 235.11 301.464C235.662 302.424 236.358 303.168 237.198 303.696C238.038 304.2 239.046 304.452 240.222 304.452C240.654 304.452 241.038 304.368 241.374 304.2C241.734 304.008 242.034 303.828 242.274 303.66C242.514 303.492 242.694 303.204 242.814 302.796C242.958 302.388 243.042 301.932 243.066 301.428C243.09 301.212 243.102 300.9 243.102 300.492C243.102 300.06 243.102 299.64 243.102 299.232C243.126 298.8 243.138 298.476 243.138 298.26C243.138 297.996 243.066 297.756 242.922 297.54C242.802 297.3 242.562 297.108 242.202 296.964C241.962 296.868 241.722 296.784 241.482 296.712C241.266 296.616 241.038 296.544 240.798 296.496C240.582 296.424 240.366 296.364 240.15 296.316C239.934 296.268 239.73 296.172 239.538 296.028C239.346 295.884 239.25 295.704 239.25 295.488C239.25 295.32 239.334 295.188 239.502 295.092C239.67 294.996 239.85 294.948 240.042 294.948C240.57 294.948 241.182 294.96 241.878 294.984C242.598 295.008 243.306 295.044 244.002 295.092C244.698 295.116 245.286 295.128 245.766 295.128C246.462 295.128 247.23 295.104 248.07 295.056C248.934 295.008 249.738 294.984 250.482 294.984C250.674 294.984 250.818 295.032 250.914 295.128C251.01 295.2 251.058 295.332 251.058 295.524C251.058 295.764 250.998 295.944 250.878 296.064C250.758 296.16 250.59 296.232 250.374 296.28C249.654 296.472 249.162 296.7 248.898 296.964C248.658 297.204 248.49 297.564 248.394 298.044C248.298 298.572 248.226 299.04 248.178 299.448C248.154 299.832 248.142 300.264 248.142 300.744V301.968C248.142 302.088 248.19 302.208 248.286 302.328C248.406 302.448 248.526 302.568 248.646 302.688C248.766 302.808 248.85 302.94 248.898 303.084C248.97 303.204 249.006 303.336 249.006 303.48C249.006 303.648 248.946 303.816 248.826 303.984C248.706 304.128 248.514 304.224 248.25 304.272C248.058 304.296 247.722 304.428 247.242 304.668C246.786 304.884 246.198 305.136 245.478 305.424C244.758 305.712 243.906 305.964 242.922 306.18C241.938 306.396 240.834 306.504 239.61 306.504Z" fill="#292929" />
			<path d="M112.794 327.048C112.73 327.048 112.666 327.027 112.602 326.984C112.538 326.941 112.506 326.883 112.506 326.808C112.506 326.627 112.607 326.509 112.81 326.456C113.215 326.371 113.492 326.264 113.642 326.136C113.791 326.008 113.866 325.779 113.866 325.448V318.184C113.866 317.843 113.796 317.603 113.658 317.464C113.53 317.315 113.279 317.197 112.906 317.112C112.778 317.08 112.687 317.032 112.634 316.968C112.591 316.904 112.57 316.84 112.57 316.776C112.57 316.701 112.596 316.643 112.65 316.6C112.714 316.547 112.794 316.52 112.89 316.52C113.124 316.52 113.38 316.525 113.658 316.536C113.935 316.547 114.207 316.563 114.474 316.584C114.74 316.595 114.98 316.6 115.194 316.6C115.45 316.6 115.674 316.589 115.866 316.568C116.068 316.536 116.292 316.509 116.538 316.488C116.783 316.456 117.103 316.44 117.498 316.44C118.81 316.44 119.85 316.723 120.618 317.288C121.386 317.843 121.77 318.605 121.77 319.576C121.77 320.248 121.626 320.872 121.338 321.448C121.05 322.013 120.612 322.472 120.026 322.824C119.45 323.165 118.719 323.336 117.834 323.336C117.546 323.336 117.327 323.293 117.178 323.208C117.028 323.123 116.954 323.016 116.954 322.888C116.954 322.803 116.991 322.739 117.066 322.696C117.14 322.653 117.204 322.632 117.258 322.632C117.386 322.632 117.487 322.648 117.562 322.68C117.647 322.701 117.759 322.712 117.898 322.712C118.303 322.712 118.607 322.467 118.81 321.976C119.023 321.475 119.13 320.829 119.13 320.04C119.13 319.027 118.986 318.301 118.698 317.864C118.42 317.416 118.02 317.192 117.498 317.192C117.199 317.192 116.975 317.261 116.826 317.4C116.676 317.539 116.602 317.752 116.602 318.04L116.586 325.432C116.586 325.763 116.676 325.992 116.858 326.12C117.05 326.248 117.375 326.36 117.834 326.456C117.93 326.477 118.004 326.515 118.058 326.568C118.111 326.611 118.138 326.685 118.138 326.792C118.138 326.867 118.116 326.925 118.074 326.968C118.031 327.011 117.967 327.032 117.882 327.032C117.658 327.032 117.375 327.027 117.034 327.016C116.692 327.005 116.351 326.995 116.01 326.984C115.679 326.973 115.407 326.968 115.194 326.968C114.98 326.968 114.73 326.973 114.442 326.984C114.164 326.995 113.876 327.005 113.578 327.016C113.29 327.037 113.028 327.048 112.794 327.048ZM122.732 327.08C122.636 327.08 122.561 327.053 122.508 327C122.455 326.947 122.428 326.888 122.428 326.824C122.428 326.664 122.535 326.552 122.748 326.488C123.1 326.381 123.345 326.269 123.484 326.152C123.633 326.035 123.708 325.811 123.708 325.48V318.184C123.708 317.843 123.639 317.603 123.5 317.464C123.372 317.315 123.121 317.197 122.748 317.112C122.62 317.08 122.529 317.032 122.476 316.968C122.433 316.904 122.412 316.84 122.412 316.776C122.412 316.701 122.439 316.643 122.492 316.6C122.556 316.547 122.636 316.52 122.732 316.52C122.967 316.52 123.223 316.525 123.5 316.536C123.777 316.547 124.049 316.563 124.316 316.584C124.583 316.595 124.823 316.6 125.036 316.6C125.633 316.6 126.273 316.595 126.956 316.584C127.639 316.573 128.241 316.563 128.764 316.552C129.105 316.552 129.383 316.531 129.596 316.488C129.82 316.445 129.953 316.424 129.996 316.424C130.081 316.424 130.167 316.451 130.252 316.504C130.348 316.547 130.401 316.632 130.412 316.76C130.455 317.155 130.508 317.544 130.572 317.928C130.647 318.301 130.684 318.632 130.684 318.92C130.684 319.027 130.663 319.107 130.62 319.16C130.577 319.213 130.529 319.24 130.476 319.24C130.423 319.24 130.364 319.219 130.3 319.176C130.236 319.133 130.183 319.064 130.14 318.968C130.023 318.68 129.916 318.44 129.82 318.248C129.735 318.045 129.633 317.885 129.516 317.768C129.399 317.651 129.249 317.539 129.068 317.432C128.887 317.315 128.647 317.256 128.348 317.256H127.34C127.073 317.256 126.855 317.32 126.684 317.448C126.513 317.576 126.428 317.757 126.428 317.992V320.936C126.428 321.075 126.465 321.176 126.54 321.24C126.615 321.293 126.716 321.32 126.844 321.32H128.204C128.481 321.32 128.679 321.219 128.796 321.016C128.924 320.813 129.036 320.584 129.132 320.328C129.217 320.136 129.329 320.04 129.468 320.04C129.521 320.04 129.569 320.072 129.612 320.136C129.655 320.2 129.671 320.291 129.66 320.408C129.649 320.557 129.633 320.707 129.612 320.856C129.601 321.005 129.591 321.155 129.58 321.304C129.58 321.443 129.58 321.587 129.58 321.736C129.58 321.875 129.58 322.019 129.58 322.168C129.591 322.307 129.601 322.451 129.612 322.6C129.623 322.749 129.633 322.904 129.644 323.064C129.665 323.224 129.655 323.341 129.612 323.416C129.58 323.48 129.537 323.512 129.484 323.512C129.303 323.512 129.175 323.384 129.1 323.128C129.004 322.787 128.892 322.525 128.764 322.344C128.647 322.163 128.487 322.072 128.284 322.072H126.78C126.663 322.072 126.572 322.104 126.508 322.168C126.455 322.232 126.428 322.323 126.428 322.44V325.464C126.428 325.763 126.492 325.976 126.62 326.104C126.748 326.221 126.945 326.28 127.212 326.28H128.636C128.849 326.28 129.057 326.253 129.26 326.2C129.473 326.136 129.655 326.04 129.804 325.912C129.985 325.763 130.151 325.571 130.3 325.336C130.46 325.101 130.599 324.867 130.716 324.632C130.759 324.547 130.801 324.493 130.844 324.472C130.897 324.451 130.956 324.44 131.02 324.44C131.084 324.44 131.127 324.477 131.148 324.552C131.169 324.616 131.18 324.685 131.18 324.76C131.18 324.952 131.153 325.16 131.1 325.384C131.047 325.608 130.977 325.848 130.892 326.104C130.817 326.349 130.743 326.605 130.668 326.872C130.647 326.947 130.599 326.995 130.524 327.016C130.449 327.048 130.369 327.064 130.284 327.064C130.231 327.064 130.023 327.059 129.66 327.048C129.297 327.048 128.844 327.043 128.3 327.032C127.767 327.021 127.207 327.011 126.62 327C126.044 327 125.516 327 125.036 327C124.823 327 124.577 327.005 124.3 327.016C124.023 327.027 123.745 327.037 123.468 327.048C123.191 327.069 122.945 327.08 122.732 327.08ZM141.758 327.336C141.161 327.336 140.66 327.261 140.254 327.112C139.86 326.963 139.529 326.771 139.262 326.536C138.996 326.291 138.756 326.024 138.542 325.736C138.318 325.427 138.1 325.117 137.886 324.808C137.673 324.488 137.465 324.152 137.262 323.8C137.06 323.437 136.857 323.037 136.654 322.6C136.548 322.365 136.42 322.205 136.27 322.12C136.206 322.077 136.137 322.051 136.062 322.04C135.998 322.019 135.94 322.008 135.886 322.008C135.833 322.008 135.79 322.04 135.758 322.104C135.737 322.157 135.726 322.232 135.726 322.328V325.432C135.726 325.763 135.817 325.992 135.998 326.12C136.19 326.248 136.516 326.36 136.974 326.456C137.07 326.477 137.145 326.515 137.198 326.568C137.252 326.611 137.278 326.685 137.278 326.792C137.278 326.867 137.257 326.925 137.214 326.968C137.172 327.011 137.108 327.032 137.022 327.032C136.798 327.032 136.516 327.027 136.174 327.016C135.833 327.005 135.492 326.995 135.15 326.984C134.82 326.973 134.548 326.968 134.334 326.968C134.121 326.968 133.87 326.973 133.582 326.984C133.305 326.995 133.017 327.005 132.718 327.016C132.43 327.037 132.169 327.048 131.934 327.048C131.87 327.048 131.806 327.027 131.742 326.984C131.678 326.941 131.646 326.883 131.646 326.808C131.646 326.627 131.748 326.509 131.95 326.456C132.356 326.371 132.633 326.264 132.782 326.136C132.932 326.008 133.006 325.779 133.006 325.448V318.184C133.006 317.949 132.98 317.768 132.926 317.64C132.873 317.501 132.777 317.395 132.638 317.32C132.5 317.235 132.302 317.165 132.046 317.112C131.918 317.08 131.828 317.032 131.774 316.968C131.732 316.904 131.71 316.84 131.71 316.776C131.71 316.701 131.737 316.643 131.79 316.6C131.854 316.547 131.934 316.52 132.03 316.52C132.382 316.52 132.676 316.531 132.91 316.552C133.145 316.573 133.369 316.595 133.582 316.616C133.796 316.637 134.041 316.648 134.318 316.648C134.574 316.648 134.798 316.637 134.99 316.616C135.193 316.584 135.417 316.557 135.662 316.536C135.908 316.504 136.228 316.488 136.622 316.488C137.881 316.488 138.852 316.701 139.534 317.128C140.228 317.544 140.574 318.184 140.574 319.048C140.574 319.528 140.468 319.933 140.254 320.264C140.041 320.584 139.774 320.845 139.454 321.048C139.134 321.24 138.809 321.384 138.478 321.48C138.436 321.491 138.414 321.517 138.414 321.56C138.425 321.603 138.441 321.64 138.462 321.672C138.782 322.141 139.092 322.595 139.39 323.032C139.7 323.469 140.009 323.875 140.318 324.248C140.628 324.611 140.937 324.941 141.246 325.24C141.62 325.592 142.004 325.8 142.398 325.864C142.804 325.928 143.193 325.96 143.566 325.96C143.726 325.96 143.806 326.061 143.806 326.264C143.806 326.52 143.721 326.728 143.55 326.888C143.39 327.037 143.156 327.149 142.846 327.224C142.537 327.299 142.174 327.336 141.758 327.336ZM136.286 321.464C136.67 321.464 136.985 321.379 137.23 321.208C137.476 321.037 137.657 320.803 137.774 320.504C137.902 320.195 137.966 319.837 137.966 319.432C137.966 318.92 137.902 318.504 137.774 318.184C137.646 317.864 137.46 317.629 137.214 317.48C136.98 317.32 136.692 317.24 136.35 317.24C136.137 317.24 135.977 317.331 135.87 317.512C135.774 317.693 135.726 318.093 135.726 318.712C135.726 318.947 135.726 319.245 135.726 319.608C135.726 319.96 135.726 320.376 135.726 320.856C135.726 321.069 135.774 321.224 135.87 321.32C135.977 321.416 136.116 321.464 136.286 321.464ZM144.247 327.048C144.183 327.048 144.119 327.027 144.055 326.984C143.991 326.941 143.959 326.883 143.959 326.808C143.959 326.627 144.06 326.509 144.263 326.456C144.668 326.371 144.945 326.264 145.095 326.136C145.244 326.008 145.319 325.779 145.319 325.448V318.184C145.319 317.843 145.249 317.603 145.111 317.464C144.983 317.315 144.732 317.197 144.359 317.112C144.231 317.08 144.14 317.032 144.087 316.968C144.044 316.904 144.023 316.84 144.023 316.776C144.023 316.701 144.049 316.643 144.103 316.6C144.167 316.547 144.247 316.52 144.343 316.52C144.577 316.52 144.833 316.525 145.111 316.536C145.388 316.547 145.66 316.563 145.927 316.584C146.193 316.595 146.433 316.6 146.647 316.6C147.095 316.6 147.58 316.6 148.103 316.6C148.636 316.6 149.143 316.6 149.623 316.6C150.081 316.6 150.497 316.573 150.871 316.52C151.255 316.456 151.564 316.424 151.799 316.424C151.884 316.424 151.969 316.451 152.055 316.504C152.151 316.547 152.204 316.632 152.215 316.76C152.236 317.027 152.252 317.299 152.263 317.576C152.273 317.853 152.279 318.12 152.279 318.376C152.289 318.621 152.295 318.84 152.295 319.032C152.295 319.245 152.225 319.352 152.087 319.352C152.033 319.352 151.969 319.331 151.895 319.288C151.82 319.245 151.772 319.176 151.751 319.08C151.676 318.803 151.591 318.552 151.495 318.328C151.409 318.093 151.292 317.901 151.143 317.752C151.004 317.613 150.839 317.512 150.647 317.448C150.465 317.373 150.236 317.336 149.959 317.336H148.951C148.684 317.336 148.465 317.4 148.295 317.528C148.124 317.656 148.039 317.837 148.039 318.072C148.039 318.253 148.039 318.472 148.039 318.728C148.039 318.973 148.039 319.187 148.039 319.368C148.039 319.603 148.039 319.859 148.039 320.136C148.039 320.413 148.039 320.675 148.039 320.92C148.039 321.059 148.076 321.16 148.151 321.224C148.225 321.277 148.327 321.304 148.455 321.304C148.7 321.304 148.945 321.304 149.191 321.304C149.447 321.304 149.697 321.304 149.943 321.304C150.22 321.304 150.417 321.219 150.535 321.048C150.663 320.877 150.775 320.675 150.871 320.44C150.913 320.344 150.961 320.275 151.015 320.232C151.079 320.179 151.143 320.152 151.207 320.152C151.26 320.152 151.308 320.184 151.351 320.248C151.393 320.312 151.409 320.403 151.399 320.52C151.377 320.755 151.356 320.979 151.335 321.192C151.324 321.395 151.319 321.576 151.319 321.736C151.319 321.949 151.324 322.125 151.335 322.264C151.345 322.403 151.361 322.595 151.383 322.84C151.404 323 151.393 323.117 151.351 323.192C151.319 323.256 151.276 323.288 151.223 323.288C151.148 323.288 151.073 323.251 150.999 323.176C150.924 323.101 150.871 323.011 150.839 322.904C150.743 322.573 150.631 322.349 150.503 322.232C150.385 322.115 150.225 322.056 150.023 322.056C149.905 322.056 149.783 322.056 149.655 322.056C149.527 322.056 149.404 322.056 149.287 322.056C149.137 322.056 148.983 322.056 148.823 322.056C148.663 322.056 148.508 322.056 148.359 322.056C148.241 322.056 148.151 322.088 148.087 322.152C148.033 322.216 148.007 322.307 148.007 322.424C148.007 322.904 148.012 323.405 148.023 323.928C148.033 324.451 148.039 324.952 148.039 325.432C148.039 325.763 148.129 325.992 148.311 326.12C148.503 326.248 148.828 326.36 149.287 326.456C149.383 326.477 149.457 326.515 149.511 326.568C149.564 326.611 149.591 326.685 149.591 326.792C149.591 326.867 149.569 326.925 149.527 326.968C149.484 327.011 149.42 327.032 149.335 327.032C149.111 327.032 148.828 327.027 148.487 327.016C148.145 327.005 147.804 326.995 147.463 326.984C147.132 326.973 146.86 326.968 146.647 326.968C146.433 326.968 146.183 326.973 145.895 326.984C145.617 326.995 145.329 327.005 145.031 327.016C144.743 327.037 144.481 327.048 144.247 327.048ZM158.578 327.224C157.831 327.224 157.122 327.101 156.45 326.856C155.778 326.6 155.181 326.243 154.658 325.784C154.135 325.315 153.725 324.76 153.426 324.12C153.127 323.469 152.978 322.749 152.978 321.96C152.978 321.235 153.101 320.541 153.346 319.88C153.591 319.208 153.954 318.611 154.434 318.088C154.925 317.565 155.527 317.149 156.242 316.84C156.957 316.531 157.783 316.376 158.722 316.376C159.469 316.376 160.178 316.504 160.85 316.76C161.522 317.005 162.119 317.363 162.642 317.832C163.165 318.291 163.575 318.845 163.874 319.496C164.173 320.136 164.322 320.851 164.322 321.64C164.322 322.355 164.199 323.048 163.954 323.72C163.709 324.392 163.341 324.989 162.85 325.512C162.37 326.035 161.773 326.451 161.058 326.76C160.343 327.069 159.517 327.224 158.578 327.224ZM158.866 326.472C159.431 326.472 159.901 326.301 160.274 325.96C160.658 325.619 160.946 325.149 161.138 324.552C161.33 323.944 161.426 323.251 161.426 322.472C161.426 321.832 161.367 321.197 161.25 320.568C161.133 319.939 160.951 319.368 160.706 318.856C160.461 318.333 160.146 317.917 159.762 317.608C159.389 317.299 158.935 317.144 158.402 317.144C157.847 317.144 157.378 317.315 156.994 317.656C156.621 317.997 156.338 318.467 156.146 319.064C155.965 319.661 155.874 320.349 155.874 321.128C155.874 321.768 155.933 322.403 156.05 323.032C156.167 323.661 156.343 324.237 156.578 324.76C156.823 325.272 157.133 325.688 157.506 326.008C157.89 326.317 158.343 326.472 158.866 326.472ZM175.071 327.336C174.473 327.336 173.972 327.261 173.567 327.112C173.172 326.963 172.841 326.771 172.575 326.536C172.308 326.291 172.068 326.024 171.855 325.736C171.631 325.427 171.412 325.117 171.199 324.808C170.985 324.488 170.777 324.152 170.575 323.8C170.372 323.437 170.169 323.037 169.967 322.6C169.86 322.365 169.732 322.205 169.583 322.12C169.519 322.077 169.449 322.051 169.375 322.04C169.311 322.019 169.252 322.008 169.199 322.008C169.145 322.008 169.103 322.04 169.071 322.104C169.049 322.157 169.039 322.232 169.039 322.328V325.432C169.039 325.763 169.129 325.992 169.311 326.12C169.503 326.248 169.828 326.36 170.287 326.456C170.383 326.477 170.457 326.515 170.511 326.568C170.564 326.611 170.591 326.685 170.591 326.792C170.591 326.867 170.569 326.925 170.527 326.968C170.484 327.011 170.42 327.032 170.335 327.032C170.111 327.032 169.828 327.027 169.487 327.016C169.145 327.005 168.804 326.995 168.463 326.984C168.132 326.973 167.86 326.968 167.647 326.968C167.433 326.968 167.183 326.973 166.895 326.984C166.617 326.995 166.329 327.005 166.031 327.016C165.743 327.037 165.481 327.048 165.247 327.048C165.183 327.048 165.119 327.027 165.055 326.984C164.991 326.941 164.959 326.883 164.959 326.808C164.959 326.627 165.06 326.509 165.263 326.456C165.668 326.371 165.945 326.264 166.095 326.136C166.244 326.008 166.319 325.779 166.319 325.448V318.184C166.319 317.949 166.292 317.768 166.239 317.64C166.185 317.501 166.089 317.395 165.951 317.32C165.812 317.235 165.615 317.165 165.359 317.112C165.231 317.08 165.14 317.032 165.087 316.968C165.044 316.904 165.023 316.84 165.023 316.776C165.023 316.701 165.049 316.643 165.103 316.6C165.167 316.547 165.247 316.52 165.343 316.52C165.695 316.52 165.988 316.531 166.223 316.552C166.457 316.573 166.681 316.595 166.895 316.616C167.108 316.637 167.353 316.648 167.631 316.648C167.887 316.648 168.111 316.637 168.303 316.616C168.505 316.584 168.729 316.557 168.975 316.536C169.22 316.504 169.54 316.488 169.935 316.488C171.193 316.488 172.164 316.701 172.847 317.128C173.54 317.544 173.887 318.184 173.887 319.048C173.887 319.528 173.78 319.933 173.567 320.264C173.353 320.584 173.087 320.845 172.767 321.048C172.447 321.24 172.121 321.384 171.791 321.48C171.748 321.491 171.727 321.517 171.727 321.56C171.737 321.603 171.753 321.64 171.775 321.672C172.095 322.141 172.404 322.595 172.703 323.032C173.012 323.469 173.321 323.875 173.631 324.248C173.94 324.611 174.249 324.941 174.559 325.24C174.932 325.592 175.316 325.8 175.711 325.864C176.116 325.928 176.505 325.96 176.879 325.96C177.039 325.96 177.119 326.061 177.119 326.264C177.119 326.52 177.033 326.728 176.863 326.888C176.703 327.037 176.468 327.149 176.159 327.224C175.849 327.299 175.487 327.336 175.071 327.336ZM169.599 321.464C169.983 321.464 170.297 321.379 170.543 321.208C170.788 321.037 170.969 320.803 171.087 320.504C171.215 320.195 171.279 319.837 171.279 319.432C171.279 318.92 171.215 318.504 171.087 318.184C170.959 317.864 170.772 317.629 170.527 317.48C170.292 317.32 170.004 317.24 169.663 317.24C169.449 317.24 169.289 317.331 169.183 317.512C169.087 317.693 169.039 318.093 169.039 318.712C169.039 318.947 169.039 319.245 169.039 319.608C169.039 319.96 169.039 320.376 169.039 320.856C169.039 321.069 169.087 321.224 169.183 321.32C169.289 321.416 169.428 321.464 169.599 321.464ZM177.719 327.048C177.591 327.048 177.495 327.027 177.431 326.984C177.378 326.941 177.351 326.883 177.351 326.808C177.351 326.712 177.399 326.653 177.495 326.632C177.591 326.6 177.687 326.563 177.783 326.52C178.029 326.424 178.242 326.269 178.423 326.056C178.615 325.843 178.733 325.576 178.775 325.256C178.829 324.861 178.887 324.323 178.951 323.64C179.015 322.947 179.085 322.179 179.159 321.336C179.234 320.483 179.309 319.619 179.383 318.744C179.394 318.691 179.399 318.616 179.399 318.52C179.399 318.424 179.399 318.317 179.399 318.2C179.399 317.987 179.362 317.821 179.287 317.704C179.223 317.587 179.122 317.491 178.983 317.416C178.866 317.352 178.738 317.293 178.599 317.24C178.461 317.176 178.311 317.123 178.151 317.08C178.023 317.048 177.917 317.005 177.831 316.952C177.757 316.899 177.719 316.824 177.719 316.728C177.719 316.632 177.757 316.568 177.831 316.536C177.917 316.493 178.018 316.472 178.135 316.472C178.306 316.472 178.509 316.477 178.743 316.488C178.989 316.499 179.255 316.509 179.543 316.52C179.831 316.52 180.125 316.525 180.423 316.536C180.733 316.547 181.031 316.552 181.319 316.552C181.405 316.552 181.485 316.584 181.559 316.648C181.634 316.712 181.682 316.776 181.703 316.84C181.789 317.053 181.863 317.251 181.927 317.432C181.991 317.603 182.066 317.795 182.151 318.008L184.455 323.432C184.477 323.475 184.498 323.496 184.519 323.496C184.551 323.496 184.573 323.475 184.583 323.432L186.679 318.392C186.765 317.976 186.829 317.651 186.871 317.416C186.925 317.171 186.973 316.984 187.015 316.856C187.058 316.717 187.149 316.648 187.287 316.648H188.007C188.477 316.627 188.967 316.595 189.479 316.552C190.002 316.499 190.413 316.472 190.711 316.472C190.829 316.472 190.925 316.493 190.999 316.536C191.085 316.568 191.127 316.632 191.127 316.728C191.127 316.824 191.09 316.893 191.015 316.936C190.941 316.979 190.855 317.016 190.759 317.048C190.717 317.059 190.658 317.08 190.583 317.112C190.519 317.144 190.466 317.171 190.423 317.192C190.103 317.341 189.869 317.507 189.719 317.688C189.581 317.869 189.522 318.163 189.543 318.568C189.575 319.347 189.607 320.013 189.639 320.568C189.671 321.123 189.698 321.635 189.719 322.104C189.751 322.573 189.783 323.069 189.815 323.592C189.858 324.104 189.901 324.717 189.943 325.432C189.965 325.699 190.082 325.917 190.295 326.088C190.509 326.248 190.775 326.371 191.095 326.456C191.191 326.488 191.271 326.525 191.335 326.568C191.41 326.611 191.447 326.685 191.447 326.792C191.447 326.867 191.415 326.925 191.351 326.968C191.298 327.011 191.229 327.032 191.143 327.032C190.919 327.032 190.642 327.027 190.311 327.016C189.991 327.005 189.671 326.995 189.351 326.984C189.031 326.973 188.765 326.968 188.551 326.968C188.338 326.968 188.087 326.973 187.799 326.984C187.522 326.995 187.234 327.005 186.935 327.016C186.647 327.037 186.386 327.048 186.151 327.048C186.066 327.048 185.986 327.027 185.911 326.984C185.847 326.941 185.815 326.883 185.815 326.808C185.815 326.712 185.847 326.637 185.911 326.584C185.986 326.52 186.071 326.477 186.167 326.456C186.573 326.371 186.855 326.264 187.015 326.136C187.175 325.997 187.245 325.768 187.223 325.448C187.191 324.808 187.165 324.157 187.143 323.496C187.122 322.835 187.101 322.184 187.079 321.544C187.069 320.893 187.047 320.28 187.015 319.704C187.015 319.64 186.999 319.613 186.967 319.624C186.935 319.624 186.903 319.661 186.871 319.736L183.959 326.952C183.895 327.123 183.805 327.192 183.687 327.16C183.581 327.128 183.506 327.069 183.463 326.984C182.909 325.747 182.338 324.525 181.751 323.32C181.165 322.115 180.642 320.947 180.183 319.816C180.141 319.709 180.082 319.672 180.007 319.704C179.943 319.736 179.906 319.821 179.895 319.96C179.874 320.44 179.858 321 179.847 321.64C179.847 322.28 179.853 322.925 179.863 323.576C179.874 324.227 179.879 324.813 179.879 325.336C179.879 325.635 179.975 325.869 180.167 326.04C180.359 326.211 180.669 326.349 181.095 326.456C181.191 326.477 181.287 326.515 181.383 326.568C181.479 326.611 181.527 326.685 181.527 326.792C181.527 326.867 181.485 326.925 181.399 326.968C181.314 327.011 181.229 327.032 181.143 327.032C180.855 327.032 180.631 327.027 180.471 327.016C180.311 327.005 180.162 327 180.023 327C179.895 326.989 179.719 326.984 179.495 326.984C179.25 326.984 178.989 326.989 178.711 327C178.434 327.011 178.199 327.021 178.007 327.032C177.815 327.043 177.719 327.048 177.719 327.048ZM192.102 327.08C191.984 327.08 191.883 327.059 191.798 327.016C191.723 326.984 191.686 326.915 191.686 326.808C191.686 326.701 191.718 326.627 191.782 326.584C191.856 326.531 191.942 326.488 192.038 326.456C192.358 326.371 192.63 326.237 192.854 326.056C193.088 325.875 193.259 325.667 193.366 325.432C193.622 324.845 193.867 324.264 194.102 323.688C194.336 323.112 194.566 322.541 194.79 321.976C195.014 321.4 195.232 320.824 195.446 320.248C195.67 319.661 195.888 319.075 196.102 318.488C196.283 317.997 196.395 317.651 196.438 317.448C196.48 317.235 196.518 317.123 196.55 317.112C196.763 317.059 196.96 317.011 197.142 316.968C197.323 316.915 197.526 316.851 197.75 316.776C197.952 316.701 198.128 316.611 198.278 316.504C198.438 316.387 198.555 316.291 198.63 316.216C198.683 316.184 198.731 316.163 198.774 316.152C198.827 316.141 198.875 316.179 198.918 316.264C198.96 316.339 198.992 316.413 199.014 316.488C199.046 316.552 199.072 316.627 199.094 316.712C199.307 317.416 199.526 318.125 199.75 318.84C199.984 319.555 200.219 320.28 200.454 321.016C200.688 321.741 200.923 322.472 201.158 323.208C201.403 323.944 201.643 324.685 201.878 325.432C201.931 325.603 202.016 325.757 202.134 325.896C202.262 326.024 202.411 326.136 202.582 326.232C202.752 326.317 202.944 326.392 203.158 326.456C203.254 326.488 203.334 326.525 203.398 326.568C203.472 326.611 203.51 326.685 203.51 326.792C203.51 326.867 203.478 326.925 203.414 326.968C203.36 327.011 203.291 327.032 203.206 327.032C202.982 327.032 202.704 327.027 202.374 327.016C202.054 327.005 201.728 326.995 201.398 326.984C201.078 326.973 200.795 326.968 200.55 326.968C200.336 326.968 200.075 326.973 199.766 326.984C199.456 326.995 199.142 327.005 198.822 327.016C198.502 327.037 198.224 327.048 197.99 327.048C197.904 327.048 197.824 327.027 197.75 326.984C197.686 326.941 197.654 326.883 197.654 326.808C197.654 326.712 197.686 326.637 197.75 326.584C197.824 326.52 197.91 326.477 198.006 326.456C198.411 326.371 198.71 326.259 198.902 326.12C199.094 325.981 199.147 325.757 199.062 325.448C199.008 325.235 198.95 325.027 198.886 324.824C198.832 324.621 198.779 324.419 198.726 324.216C198.672 324.003 198.619 323.795 198.566 323.592C198.544 323.507 198.518 323.443 198.486 323.4C198.454 323.347 198.395 323.32 198.31 323.32H195.526C195.44 323.32 195.376 323.347 195.334 323.4C195.302 323.443 195.275 323.507 195.254 323.592C195.211 323.752 195.163 323.901 195.11 324.04C195.067 324.168 195.024 324.296 194.982 324.424C194.939 324.552 194.896 324.685 194.854 324.824C194.811 324.952 194.768 325.096 194.726 325.256C194.63 325.597 194.646 325.853 194.774 326.024C194.902 326.195 195.216 326.339 195.718 326.456C195.952 326.509 196.07 326.627 196.07 326.808C196.07 326.883 196.043 326.941 195.99 326.984C195.936 327.016 195.851 327.032 195.734 327.032C195.382 327.032 195.072 327.021 194.806 327C194.539 326.989 194.246 326.984 193.926 326.984C193.616 326.984 193.318 327 193.03 327.032C192.752 327.064 192.443 327.08 192.102 327.08ZM195.974 322.392H197.974C198.134 322.392 198.214 322.355 198.214 322.28C198.214 322.237 198.208 322.211 198.198 322.2C198.198 322.179 198.192 322.147 198.182 322.104L197.158 318.568C197.126 318.461 197.094 318.408 197.062 318.408C197.04 318.408 197.008 318.461 196.966 318.568L195.734 322.104C195.712 322.147 195.702 322.189 195.702 322.232C195.702 322.285 195.728 322.328 195.782 322.36C195.846 322.381 195.91 322.392 195.974 322.392ZM214.069 327.304C213.919 327.304 213.685 327.219 213.365 327.048C213.055 326.888 212.725 326.595 212.373 326.168C212.074 325.848 211.775 325.533 211.477 325.224C211.189 324.904 210.895 324.589 210.597 324.28C210.298 323.96 209.999 323.645 209.701 323.336C209.402 323.016 209.103 322.701 208.805 322.392C208.517 322.083 208.223 321.773 207.925 321.464C207.626 321.144 207.327 320.829 207.029 320.52C206.741 320.2 206.447 319.88 206.149 319.56C206.138 319.539 206.111 319.507 206.069 319.464C206.026 319.421 205.994 319.4 205.973 319.4C205.93 319.4 205.898 319.437 205.877 319.512C205.866 319.587 205.861 319.651 205.861 319.704C205.861 320.184 205.866 320.755 205.877 321.416C205.898 322.077 205.914 322.744 205.925 323.416C205.946 324.077 205.957 324.669 205.957 325.192C205.957 325.555 206.069 325.832 206.293 326.024C206.527 326.205 206.858 326.349 207.285 326.456C207.381 326.477 207.477 326.515 207.573 326.568C207.669 326.611 207.717 326.685 207.717 326.792C207.717 326.867 207.674 326.925 207.589 326.968C207.503 327.011 207.418 327.032 207.333 327.032C207.045 327.032 206.805 327.027 206.613 327.016C206.421 327.005 206.239 327 206.069 327C205.909 326.989 205.717 326.984 205.493 326.984C205.247 326.984 205.007 326.989 204.773 327C204.549 327.011 204.362 327.021 204.213 327.032C204.074 327.043 204.005 327.048 204.005 327.048C203.941 327.048 203.861 327.027 203.765 326.984C203.679 326.941 203.637 326.883 203.637 326.808C203.637 326.712 203.674 326.643 203.749 326.6C203.834 326.547 203.925 326.499 204.021 326.456C204.266 326.36 204.453 326.2 204.581 325.976C204.719 325.752 204.799 325.48 204.821 325.16C204.863 324.765 204.906 324.243 204.949 323.592C205.002 322.941 205.05 322.211 205.093 321.4C205.135 320.589 205.157 319.747 205.157 318.872C205.157 318.317 205.018 317.917 204.741 317.672C204.463 317.427 204.127 317.229 203.733 317.08C203.637 317.059 203.541 317.021 203.445 316.968C203.349 316.904 203.301 316.824 203.301 316.728C203.301 316.632 203.338 316.568 203.413 316.536C203.498 316.493 203.599 316.472 203.717 316.472C203.887 316.472 204.095 316.477 204.341 316.488C204.597 316.499 204.869 316.509 205.157 316.52C205.455 316.52 205.759 316.525 206.069 316.536C206.378 316.547 206.677 316.552 206.965 316.552C207.05 316.552 207.114 316.568 207.157 316.6C207.21 316.621 207.253 316.659 207.285 316.712C207.562 317.021 207.839 317.336 208.117 317.656C208.405 317.965 208.687 318.275 208.965 318.584C209.253 318.893 209.535 319.203 209.813 319.512C210.101 319.821 210.383 320.136 210.661 320.456C210.938 320.765 211.215 321.075 211.493 321.384C211.781 321.693 212.063 322.008 212.341 322.328C212.629 322.637 212.911 322.947 213.189 323.256C213.221 323.299 213.258 323.341 213.301 323.384C213.343 323.427 213.381 323.448 213.413 323.448C213.498 323.448 213.541 323.373 213.541 323.224C213.541 322.851 213.541 322.445 213.541 322.008C213.541 321.56 213.541 321.107 213.541 320.648C213.541 320.179 213.535 319.731 213.525 319.304C213.525 318.867 213.514 318.483 213.493 318.152C213.482 317.843 213.37 317.619 213.157 317.48C212.954 317.341 212.65 317.219 212.245 317.112C212.149 317.091 212.063 317.059 211.989 317.016C211.914 316.963 211.877 316.883 211.877 316.776C211.877 316.701 211.914 316.643 211.989 316.6C212.063 316.557 212.138 316.536 212.213 316.536C212.501 316.536 212.735 316.541 212.917 316.552C213.098 316.552 213.263 316.557 213.413 316.568C213.562 316.568 213.727 316.568 213.909 316.568C214.122 316.568 214.303 316.568 214.453 316.568C214.602 316.557 214.762 316.547 214.933 316.536C215.114 316.525 215.338 316.52 215.605 316.52C215.722 316.52 215.813 316.541 215.877 316.584C215.951 316.627 215.989 316.685 215.989 316.76C215.989 316.931 215.855 317.043 215.589 317.096C215.226 317.171 214.959 317.277 214.789 317.416C214.618 317.555 214.533 317.784 214.533 318.104C214.533 318.563 214.527 319.021 214.517 319.48C214.506 319.928 214.49 320.371 214.469 320.808C214.447 321.245 214.426 321.672 214.405 322.088C214.383 322.493 214.367 322.883 214.357 323.256C214.346 323.629 214.341 323.971 214.341 324.28C214.341 324.525 214.357 324.808 214.389 325.128C214.421 325.437 214.453 325.725 214.485 325.992C214.517 326.248 214.533 326.424 214.533 326.52C214.533 326.808 214.49 327.011 214.405 327.128C214.33 327.245 214.218 327.304 214.069 327.304ZM222.62 327.224C221.778 327.224 220.988 327.101 220.252 326.856C219.516 326.6 218.871 326.243 218.316 325.784C217.762 325.315 217.33 324.76 217.02 324.12C216.711 323.469 216.556 322.749 216.556 321.96C216.556 321.235 216.7 320.541 216.988 319.88C217.276 319.208 217.698 318.611 218.252 318.088C218.818 317.565 219.506 317.149 220.316 316.84C221.127 316.531 222.05 316.376 223.084 316.376C223.415 316.376 223.756 316.403 224.108 316.456C224.471 316.509 224.818 316.579 225.148 316.664C225.49 316.749 225.783 316.845 226.028 316.952C226.114 316.995 226.188 317.048 226.252 317.112C226.327 317.176 226.37 317.267 226.38 317.384C226.434 317.768 226.466 318.131 226.476 318.472C226.498 318.803 226.508 319.085 226.508 319.32C226.508 319.448 226.46 319.533 226.364 319.576C226.279 319.619 226.183 319.619 226.076 319.576C225.98 319.533 225.911 319.448 225.868 319.32C225.794 319.107 225.708 318.883 225.612 318.648C225.527 318.413 225.394 318.211 225.212 318.04C224.999 317.816 224.706 317.629 224.332 317.48C223.959 317.331 223.495 317.256 222.94 317.256C222.407 317.256 221.927 317.373 221.5 317.608C221.074 317.832 220.711 318.147 220.412 318.552C220.114 318.947 219.884 319.4 219.724 319.912C219.564 320.413 219.484 320.941 219.484 321.496C219.484 322.211 219.554 322.867 219.692 323.464C219.831 324.051 220.044 324.557 220.332 324.984C220.62 325.411 220.978 325.741 221.404 325.976C221.842 326.2 222.354 326.312 222.94 326.312C223.74 326.312 224.38 326.147 224.86 325.816C225.351 325.485 225.762 324.963 226.092 324.248C226.178 324.056 226.3 323.965 226.46 323.976C226.62 323.987 226.7 324.077 226.7 324.248C226.7 324.397 226.684 324.573 226.652 324.776C226.631 324.968 226.594 325.181 226.54 325.416C226.498 325.64 226.439 325.88 226.364 326.136C226.332 326.253 226.279 326.349 226.204 326.424C226.13 326.499 226.044 326.563 225.948 326.616C225.543 326.797 225.063 326.941 224.508 327.048C223.954 327.165 223.324 327.224 222.62 327.224ZM228.06 327.08C227.964 327.08 227.889 327.053 227.836 327C227.783 326.947 227.756 326.888 227.756 326.824C227.756 326.664 227.863 326.552 228.076 326.488C228.428 326.381 228.673 326.269 228.812 326.152C228.961 326.035 229.036 325.811 229.036 325.48V318.184C229.036 317.843 228.967 317.603 228.828 317.464C228.7 317.315 228.449 317.197 228.076 317.112C227.948 317.08 227.857 317.032 227.804 316.968C227.761 316.904 227.74 316.84 227.74 316.776C227.74 316.701 227.767 316.643 227.82 316.6C227.884 316.547 227.964 316.52 228.06 316.52C228.295 316.52 228.551 316.525 228.828 316.536C229.105 316.547 229.377 316.563 229.644 316.584C229.911 316.595 230.151 316.6 230.364 316.6C230.961 316.6 231.601 316.595 232.284 316.584C232.967 316.573 233.569 316.563 234.092 316.552C234.433 316.552 234.711 316.531 234.924 316.488C235.148 316.445 235.281 316.424 235.324 316.424C235.409 316.424 235.495 316.451 235.58 316.504C235.676 316.547 235.729 316.632 235.74 316.76C235.783 317.155 235.836 317.544 235.9 317.928C235.975 318.301 236.012 318.632 236.012 318.92C236.012 319.027 235.991 319.107 235.948 319.16C235.905 319.213 235.857 319.24 235.804 319.24C235.751 319.24 235.692 319.219 235.628 319.176C235.564 319.133 235.511 319.064 235.468 318.968C235.351 318.68 235.244 318.44 235.148 318.248C235.063 318.045 234.961 317.885 234.844 317.768C234.727 317.651 234.577 317.539 234.396 317.432C234.215 317.315 233.975 317.256 233.676 317.256H232.668C232.401 317.256 232.183 317.32 232.012 317.448C231.841 317.576 231.756 317.757 231.756 317.992V320.936C231.756 321.075 231.793 321.176 231.868 321.24C231.943 321.293 232.044 321.32 232.172 321.32H233.532C233.809 321.32 234.007 321.219 234.124 321.016C234.252 320.813 234.364 320.584 234.46 320.328C234.545 320.136 234.657 320.04 234.796 320.04C234.849 320.04 234.897 320.072 234.94 320.136C234.983 320.2 234.999 320.291 234.988 320.408C234.977 320.557 234.961 320.707 234.94 320.856C234.929 321.005 234.919 321.155 234.908 321.304C234.908 321.443 234.908 321.587 234.908 321.736C234.908 321.875 234.908 322.019 234.908 322.168C234.919 322.307 234.929 322.451 234.94 322.6C234.951 322.749 234.961 322.904 234.972 323.064C234.993 323.224 234.983 323.341 234.94 323.416C234.908 323.48 234.865 323.512 234.812 323.512C234.631 323.512 234.503 323.384 234.428 323.128C234.332 322.787 234.22 322.525 234.092 322.344C233.975 322.163 233.815 322.072 233.612 322.072H232.108C231.991 322.072 231.9 322.104 231.836 322.168C231.783 322.232 231.756 322.323 231.756 322.44V325.464C231.756 325.763 231.82 325.976 231.948 326.104C232.076 326.221 232.273 326.28 232.54 326.28H233.964C234.177 326.28 234.385 326.253 234.588 326.2C234.801 326.136 234.983 326.04 235.132 325.912C235.313 325.763 235.479 325.571 235.628 325.336C235.788 325.101 235.927 324.867 236.044 324.632C236.087 324.547 236.129 324.493 236.172 324.472C236.225 324.451 236.284 324.44 236.348 324.44C236.412 324.44 236.455 324.477 236.476 324.552C236.497 324.616 236.508 324.685 236.508 324.76C236.508 324.952 236.481 325.16 236.428 325.384C236.375 325.608 236.305 325.848 236.22 326.104C236.145 326.349 236.071 326.605 235.996 326.872C235.975 326.947 235.927 326.995 235.852 327.016C235.777 327.048 235.697 327.064 235.612 327.064C235.559 327.064 235.351 327.059 234.988 327.048C234.625 327.048 234.172 327.043 233.628 327.032C233.095 327.021 232.535 327.011 231.948 327C231.372 327 230.844 327 230.364 327C230.151 327 229.905 327.005 229.628 327.016C229.351 327.027 229.073 327.037 228.796 327.048C228.519 327.069 228.273 327.08 228.06 327.08Z" fill="#292929" fill-opacity="0.3" />
		</g>
	</g>
	<defs>
		<filter id="filter0_d_1_2841" x="0.799999" y="0.799999" width="348.4" height="413.4" filterUnits="userSpaceOnUse" color-interpolation-filters="sRGB">
			<feFlood flood-opacity="0" result="BackgroundImageFix" />
			<feColorMatrix in="SourceAlpha" type="matrix" values="0 0 0 0 0 0 0 0 0 0 0 0 0 0 0 0 0 0 127 0" result="hardAlpha" />
			<feOffset />
			<feGaussianBlur stdDeviation="23.6" />
			<feComposite in2="hardAlpha" operator="out" />
			<feColorMatrix type="matrix" values="0 0 0 0 0 0 0 0 0 0 0 0 0 0 0 0 0 0 0.07 0" />
			<feBlend mode="normal" in2="BackgroundImageFix" result="effect1_dropShadow_1_2841" />
			<feBlend mode="normal" in="SourceGraphic" in2="effect1_dropShadow_1_2841" result="shape" />
		</filter>
		<linearGradient id="paint0_linear_1_2841" x1="120.5" y1="326.5" x2="310.959" y2="224.711" gradientUnits="userSpaceOnUse">
			<stop stop-color="#FFD700" />
			<stop offset="0.302268" stop-color="#DEC956" />
			<stop offset="0.578532" stop-color="#69C3B3" />
			<stop offset="0.783532" stop-color="#ADA578" />
			<stop offset="1" stop-color="#C7AB15" />
		</linearGradient>
		<linearGradient id="paint1_linear_1_2841" x1="120.5" y1="326.5" x2="310.959" y2="224.711" gradientUnits="userSpaceOnUse">
			<stop stop-color="#FFD700" />
			<stop offset="0.302268" stop-color="#DEC956" />
			<stop offset="0.578532" stop-color="#69C3B3" />
			<stop offset="0.783532" stop-color="#ADA578" />
			<stop offset="1" stop-color="#C7AB15" />
		</linearGradient>
		<linearGradient id="paint2_linear_1_2841" x1="120.5" y1="326.5" x2="310.959" y2="224.711" gradientUnits="userSpaceOnUse">
			<stop stop-color="#FFD700" />
			<stop offset="0.302268" stop-color="#DEC956" />
			<stop offset="0.578532" stop-color="#69C3B3" />
			<stop offset="0.783532" stop-color="#ADA578" />
			<stop offset="1" stop-color="#C7AB15" />
		</linearGradient>
		<linearGradient id="paint3_linear_1_2841" x1="120.5" y1="326.5" x2="310.959" y2="224.711" gradientUnits="userSpaceOnUse">
			<stop stop-color="#FFD700" />
			<stop offset="0.302268" stop-color="#DEC956" />
			<stop offset="0.578532" stop-color="#69C3B3" />
			<stop offset="0.783532" stop-color="#ADA578" />
			<stop offset="1" stop-color="#C7AB15" />
		</linearGradient>
		<linearGradient id="paint4_linear_1_2841" x1="120.5" y1="326.5" x2="310.959" y2="224.711" gradientUnits="userSpaceOnUse">
			<stop stop-color="#FFD700" />
			<stop offset="0.302268" stop-color="#DEC956" />
			<stop offset="0.578532" stop-color="#69C3B3" />
			<stop offset="0.783532" stop-color="#ADA578" />
			<stop offset="1" stop-color="#C7AB15" />
		</linearGradient>
		<linearGradient id="paint5_linear_1_2841" x1="120.5" y1="326.5" x2="310.959" y2="224.711" gradientUnits="userSpaceOnUse">
			<stop stop-color="#FFD700" />
			<stop offset="0.302268" stop-color="#DEC956" />
			<stop offset="0.578532" stop-color="#69C3B3" />
			<stop offset="0.783532" stop-color="#ADA578" />
			<stop offset="1" stop-color="#C7AB15" />
		</linearGradient>
		<linearGradient id="paint6_linear_1_2841" x1="120.5" y1="326.5" x2="310.959" y2="224.711" gradientUnits="userSpaceOnUse">
			<stop stop-color="#FFD700" />
			<stop offset="0.302268" stop-color="#DEC956" />
			<stop offset="0.578532" stop-color="#69C3B3" />
			<stop offset="0.783532" stop-color="#ADA578" />
			<stop offset="1" stop-color="#C7AB15" />
		</linearGradient>
		<clipPath id="clip0_1_2841">
			<rect x="48" y="48" width="254" height="319" rx="23" fill="white" />
		</clipPath>
	</defs>
</svg>
