<svg width="254" height="319" viewBox="0 0 254 319" fill="none" xmlns="http://www.w3.org/2000/svg">
<g clip-path="url(#clip0_1_2853)">
<rect width="254" height="319" fill="#EBFFE6"/>
<path d="M5.74375 220.72C4.78375 220.72 3.90375 220.4 3.10375 219.76C2.46375 219.12 2.14375 218.4 2.14375 217.6C2.14375 215.84 3.42375 214.64 5.98375 214C11.4238 212.4 15.9838 211.04 19.6638 209.92C23.3438 208.64 26.0638 206.88 27.8238 204.64C29.7438 202.24 30.7038 198.88 30.7038 194.56V104.56C30.7038 101.36 29.7438 98.88 27.8238 97.12C25.9038 95.36 23.3438 94.16 20.1438 93.52C17.1038 92.72 13.8238 92.16 10.3038 91.84C8.86375 91.68 7.42375 91.28 5.98375 90.64C4.70375 89.84 4.06375 88.72 4.06375 87.28C4.06375 85.84 4.70375 84.72 5.98375 83.92C7.26375 82.96 8.78375 82.4 10.5438 82.24C18.5438 81.28 25.6638 79.92 31.9038 78.16C38.3038 76.24 44.6238 72.72 50.8638 67.6C51.0238 67.44 51.2638 67.36 51.5838 67.36C51.9038 67.2 52.2238 67.12 52.5438 67.12C53.5038 67.12 54.3038 67.36 54.9438 67.84C55.7438 68.32 56.1438 68.88 56.1438 69.52C55.8238 71.76 55.5038 74.24 55.1838 76.96C55.0238 79.68 54.9438 82.88 54.9438 86.56V196.72C54.9438 200.4 55.7438 203.28 57.3438 205.36C59.1038 207.28 61.7438 208.88 65.2638 210.16C68.9438 211.28 73.7438 212.56 79.6638 214C80.7838 214.32 81.7438 214.8 82.5438 215.44C83.3438 215.92 83.7438 216.72 83.7438 217.84C83.7438 219.76 82.6238 220.72 80.3838 220.72C76.2238 220.72 71.9838 220.56 67.6638 220.24C63.5038 220.08 59.3438 219.92 55.1838 219.76C51.1838 219.6 47.1838 219.52 43.1838 219.52C39.1838 219.52 35.1038 219.6 30.9438 219.76C26.7838 219.92 22.5438 220.08 18.2238 220.24C14.0638 220.56 9.90375 220.72 5.74375 220.72ZM135.121 223.36C130.001 223.36 125.121 222.64 120.481 221.2C116.001 219.76 112.081 217.68 108.721 214.96C107.601 212.88 106.801 209.6 106.321 205.12C105.841 200.64 105.601 196.56 105.601 192.88C105.601 191.28 106.801 190.48 109.201 190.48C110.161 190.48 110.961 190.72 111.601 191.2C112.401 191.52 112.881 192 113.041 192.64C115.441 200.16 118.801 205.84 123.121 209.68C127.441 213.52 132.161 215.44 137.281 215.44C141.761 215.44 145.441 214 148.321 211.12C151.201 208.08 152.641 204.48 152.641 200.32C152.641 196 151.121 192.4 148.081 189.52C145.041 186.48 140.401 183.04 134.161 179.2C129.041 176.16 124.641 173.2 120.961 170.32C117.281 167.28 114.481 164 112.561 160.48C110.641 156.8 109.681 152.64 109.681 148C109.681 142.4 111.041 137.44 113.761 133.12C116.641 128.8 120.641 125.36 125.761 122.8C130.881 120.24 137.041 118.96 144.241 118.96C149.361 118.96 153.681 119.52 157.201 120.64C160.881 121.6 163.521 122.64 165.121 123.76C166.401 125.52 167.441 128.4 168.241 132.4C169.201 136.4 169.681 140.4 169.681 144.4C169.681 145.68 168.641 146.32 166.561 146.32C165.601 146.32 164.561 146.08 163.441 145.6C162.481 145.12 161.841 144.48 161.521 143.68C159.441 138.08 156.801 133.84 153.601 130.96C150.561 128.08 146.801 126.64 142.321 126.64C138.481 126.64 135.041 127.84 132.001 130.24C128.961 132.48 127.441 135.76 127.441 140.08C127.441 143.76 128.721 147.04 131.281 149.92C134.001 152.64 138.241 155.6 144.001 158.8C153.601 164.08 160.641 169.12 165.121 173.92C169.761 178.56 172.081 184.8 172.081 192.64C172.081 201.92 168.721 209.36 162.001 214.96C155.441 220.56 146.481 223.36 135.121 223.36ZM227.266 223.36C218.466 223.36 211.666 220.88 206.866 215.92C202.226 210.96 199.906 203.68 199.906 194.08V138.4C199.906 137.12 199.346 136.24 198.226 135.76C197.266 135.12 195.266 134.8 192.226 134.8H190.306C189.346 134.8 188.546 134.16 187.906 132.88C187.266 131.44 186.946 130.08 186.946 128.8C186.946 128.48 187.106 128.08 187.426 127.6C187.906 126.96 188.306 126.56 188.626 126.4C191.986 124.32 195.266 122.08 198.466 119.68C201.826 117.12 204.866 114.56 207.586 112C210.466 109.44 212.866 107.2 214.786 105.28C215.746 104.48 216.546 103.76 217.186 103.12C217.826 102.48 218.626 102.16 219.586 102.16C220.546 102.16 221.346 102.4 221.986 102.88C222.786 103.36 223.106 104.32 222.946 105.76L221.506 117.52C221.346 119.44 221.746 120.72 222.706 121.36C223.826 122 225.346 122.32 227.266 122.32H255.106C255.586 122.32 256.066 122.88 256.546 124C257.026 125.12 257.266 126.24 257.266 127.36C257.266 129.12 257.026 130.8 256.546 132.4C256.066 134 255.506 134.8 254.866 134.8H231.586C227.586 134.8 224.946 135.2 223.666 136C222.546 136.8 221.986 138.64 221.986 141.52V188.08C221.986 194.8 223.346 200 226.066 203.68C228.786 207.2 232.626 208.96 237.586 208.96C242.226 208.96 245.746 208.56 248.146 207.76C250.546 206.96 252.706 206 254.626 204.88C255.106 204.56 255.506 204.4 255.826 204.4C256.626 204.4 257.106 204.8 257.266 205.6C257.586 206.4 257.746 207.28 257.746 208.24C257.746 209.2 256.306 210.88 253.426 213.28C250.546 215.68 246.786 217.92 242.146 220C237.506 222.24 232.546 223.36 227.266 223.36Z" fill="black" fill-opacity="0.03"/>
<path d="M155.444 130.109C155.444 145.24 142.907 157.507 127.443 157.507C111.978 157.507 99.4409 145.24 99.4409 130.109C99.4409 118.269 107.118 108.182 117.868 104.356C120.855 103.292 124.079 102.712 127.443 102.712C134.317 102.712 140.614 105.136 145.487 109.158C151.576 114.184 155.444 121.705 155.444 130.109Z" fill="url(#paint0_linear_1_2853)"/>
<path d="M117.868 104.356C120.855 103.292 124.079 102.712 127.443 102.712C134.317 102.712 140.614 105.136 145.487 109.158C150.663 111.04 154.477 112.828 157.459 115.605C161.715 118.659 164.435 123.208 165.92 130.109C166.8 136.442 165.555 139.75 163.301 145.42C159.144 153.358 154.474 157.959 148.998 161.334C143.812 164.695 138.079 166.996 130.061 167.378H124.824C119.435 167.071 114.306 166.577 109.715 163.752C102.605 160.409 97.6156 155.274 93.5988 148.643C91.0385 144.53 89.7809 137.776 90.3756 130.109C92.8537 118.05 98.6024 112.668 110.722 104.356L125.025 94.0496V92.438H120.392C110.543 99.4683 105.031 103.196 95.8147 109.964C81.4874 121.392 78.1406 130.644 78.8929 144.211C79.3832 151.278 81.3587 155.791 84.332 160.126C86.8878 163.351 88.9912 166.172 91.5843 168.586C98.0583 174.615 105.476 178.262 115.154 180.472C118.137 181.5 120.921 181.525 124.824 181.882H130.061C140.915 181.013 148.663 178.548 154.84 174.63C160.802 171.381 165.594 167.457 169.336 161.939C172.79 157.447 174.76 152.038 175.388 145.42C175.295 136.593 174.25 129.032 170.352 123.059C166.105 115.291 159.745 110.569 153.027 106.942C146.841 103.957 139.439 102.341 130.061 102.108L124.824 102.309C121.846 102.736 120.391 103.281 117.868 104.356Z" fill="url(#paint1_linear_1_2853)"/>
<path fill-rule="evenodd" clip-rule="evenodd" d="M66 89.8192H188.684V193.768H66V89.8192ZM186.468 191.149H68.4174V92.438H186.468V191.149Z" fill="url(#paint2_linear_1_2853)"/>
<path d="M124.824 92.2366H130.061V213.913H124.824V92.2366Z" fill="url(#paint3_linear_1_2853)"/>
<path d="M130.061 213.107C130.061 220.228 124.289 226 117.169 226C110.048 226 104.276 220.228 104.276 213.107C104.276 205.987 110.048 200.214 117.169 200.214C124.289 200.214 130.061 205.987 130.061 213.107Z" fill="url(#paint4_linear_1_2853)"/>
<path d="M125.025 201.826L124.219 202.43L122.809 203.639L125.227 205.049C125.629 205.251 126.476 205.613 126.637 205.452C126.798 205.291 127.241 203.639 127.443 202.833L125.025 201.826Z" fill="url(#paint5_linear_1_2853)"/>
<path fill-rule="evenodd" clip-rule="evenodd" d="M124.219 89.8192C124.38 89.8192 124.555 89.4163 124.824 89.2148V52.3493C126.073 44.0903 128.621 39.5301 132.076 36.6361C134.747 34.3982 138.126 32.9136 142.954 33.01C147.518 32.8383 151.409 34.9046 153.833 37.039C155.295 38.5499 156.221 40.4803 157.459 42.6797C158.561 45.2248 159.664 48.206 159.473 52.3493C159.228 56.1195 158.552 59.5067 157.454 62.6233C152.526 73.5454 144.157 81.009 131.472 89.8192H124.219ZM130.061 52.3493V85.7902C145.697 73.6872 154.341 66.8821 154.638 52.3493C153.766 46.3414 152.716 42.3161 149.804 39.8593C148.198 38.5048 146.166 37.3912 142.954 37.2405C140.073 37.1688 137.852 38.6384 136.105 39.8593C132.832 42.1473 131.225 45.778 130.061 52.3493Z" fill="url(#paint6_linear_1_2853)"/>
<path d="M68.8013 258.108C68.6573 258.108 68.5133 258.06 68.3693 257.964C68.2253 257.868 68.1533 257.736 68.1533 257.568C68.1533 257.16 68.3813 256.896 68.8373 256.776C69.7493 256.584 70.3733 256.344 70.7093 256.056C71.0453 255.768 71.2133 255.252 71.2133 254.508V238.164C71.2133 237.396 71.0573 236.856 70.7453 236.544C70.4573 236.208 69.8933 235.944 69.0533 235.752C68.7653 235.68 68.5613 235.572 68.4413 235.428C68.3453 235.284 68.2973 235.14 68.2973 234.996C68.2973 234.828 68.3573 234.696 68.4773 234.6C68.6213 234.48 68.8013 234.42 69.0173 234.42C69.5453 234.42 70.1213 234.432 70.7453 234.456C71.3693 234.48 71.9813 234.516 72.5813 234.564C73.1813 234.588 73.7213 234.6 74.2013 234.6C74.7773 234.6 75.2813 234.576 75.7133 234.528C76.1693 234.456 76.6733 234.396 77.2253 234.348C77.7773 234.276 78.4973 234.24 79.3853 234.24C82.3373 234.24 84.6773 234.876 86.4053 236.148C88.1333 237.396 88.9973 239.112 88.9973 241.296C88.9973 242.808 88.6733 244.212 88.0253 245.508C87.3773 246.78 86.3933 247.812 85.0733 248.604C83.7773 249.372 82.1333 249.756 80.1413 249.756C79.4933 249.756 79.0013 249.66 78.6653 249.468C78.3293 249.276 78.1613 249.036 78.1613 248.748C78.1613 248.556 78.2453 248.412 78.4133 248.316C78.5813 248.22 78.7253 248.172 78.8453 248.172C79.1333 248.172 79.3613 248.208 79.5293 248.28C79.7213 248.328 79.9733 248.352 80.2853 248.352C81.1973 248.352 81.8813 247.8 82.3373 246.696C82.8173 245.568 83.0573 244.116 83.0573 242.34C83.0573 240.06 82.7333 238.428 82.0853 237.444C81.4613 236.436 80.5613 235.932 79.3853 235.932C78.7133 235.932 78.2093 236.088 77.8733 236.4C77.5373 236.712 77.3693 237.192 77.3693 237.84L77.3333 254.472C77.3333 255.216 77.5373 255.732 77.9453 256.02C78.3773 256.308 79.1093 256.56 80.1413 256.776C80.3573 256.824 80.5253 256.908 80.6453 257.028C80.7653 257.124 80.8253 257.292 80.8253 257.532C80.8253 257.7 80.7773 257.832 80.6813 257.928C80.5853 258.024 80.4413 258.072 80.2493 258.072C79.7453 258.072 79.1093 258.06 78.3413 258.036C77.5733 258.012 76.8053 257.988 76.0373 257.964C75.2933 257.94 74.6813 257.928 74.2013 257.928C73.7213 257.928 73.1573 257.94 72.5093 257.964C71.8853 257.988 71.2373 258.012 70.5653 258.036C69.9173 258.084 69.3293 258.108 68.8013 258.108ZM91.0903 258.108C90.9463 258.108 90.8023 258.06 90.6583 257.964C90.5143 257.868 90.4423 257.736 90.4423 257.568C90.4423 257.16 90.6703 256.896 91.1263 256.776C92.0383 256.584 92.6623 256.344 92.9983 256.056C93.3343 255.768 93.5023 255.252 93.5023 254.508V238.164C93.5023 237.396 93.3463 236.856 93.0343 236.544C92.7223 236.232 92.0863 235.968 91.1263 235.752C90.6703 235.632 90.4423 235.368 90.4423 234.96C90.4423 234.792 90.5143 234.66 90.6583 234.564C90.8023 234.468 90.9463 234.42 91.0903 234.42C91.6183 234.42 92.2063 234.432 92.8543 234.456C93.5263 234.48 94.1743 234.516 94.7983 234.564C95.4463 234.588 96.0103 234.6 96.4903 234.6C96.9703 234.6 97.5463 234.588 98.2183 234.564C98.8903 234.54 99.5743 234.516 100.27 234.492C100.966 234.468 101.566 234.456 102.07 234.456C102.262 234.456 102.406 234.504 102.502 234.6C102.598 234.672 102.646 234.804 102.646 234.996C102.646 235.236 102.586 235.404 102.466 235.5C102.346 235.596 102.178 235.68 101.962 235.752C100.978 236.04 100.342 236.34 100.054 236.652C99.7663 236.964 99.6223 237.48 99.6223 238.2V254.472C99.6223 255.144 99.7783 255.636 100.09 255.948C100.402 256.236 101.026 256.512 101.962 256.776C102.178 256.848 102.346 256.932 102.466 257.028C102.586 257.124 102.646 257.292 102.646 257.532C102.646 257.7 102.598 257.832 102.502 257.928C102.406 258.024 102.262 258.072 102.07 258.072C101.566 258.072 100.966 258.06 100.27 258.036C99.5743 258.012 98.8903 257.988 98.2183 257.964C97.5463 257.94 96.9703 257.928 96.4903 257.928C96.0103 257.928 95.4463 257.94 94.7983 257.964C94.1743 257.988 93.5263 258.012 92.8543 258.036C92.2063 258.084 91.6183 258.108 91.0903 258.108ZM103.947 258.18C103.683 258.18 103.455 258.132 103.263 258.036C103.095 257.964 103.011 257.808 103.011 257.568C103.011 257.328 103.083 257.16 103.227 257.064C103.395 256.944 103.587 256.848 103.803 256.776C104.523 256.584 105.135 256.284 105.639 255.876C106.167 255.468 106.551 255 106.791 254.472C107.367 253.152 107.919 251.844 108.447 250.548C108.975 249.252 109.491 247.968 109.995 246.696C110.499 245.4 110.991 244.104 111.471 242.808C111.975 241.488 112.467 240.168 112.947 238.848C113.355 237.744 113.607 236.964 113.703 236.508C113.799 236.028 113.883 235.776 113.955 235.752C114.435 235.632 114.879 235.524 115.287 235.428C115.695 235.308 116.151 235.164 116.655 234.996C117.111 234.828 117.507 234.624 117.843 234.384C118.203 234.12 118.467 233.904 118.635 233.736C118.755 233.664 118.863 233.616 118.959 233.592C119.079 233.568 119.187 233.652 119.283 233.844C119.379 234.012 119.451 234.18 119.499 234.348C119.571 234.492 119.631 234.66 119.679 234.852C120.159 236.436 120.651 238.032 121.155 239.64C121.683 241.248 122.211 242.88 122.739 244.536C123.267 246.168 123.795 247.812 124.323 249.468C124.875 251.124 125.415 252.792 125.943 254.472C126.063 254.856 126.255 255.204 126.519 255.516C126.807 255.804 127.143 256.056 127.527 256.272C127.911 256.464 128.343 256.632 128.823 256.776C129.039 256.848 129.219 256.932 129.363 257.028C129.531 257.124 129.615 257.292 129.615 257.532C129.615 257.7 129.543 257.832 129.399 257.928C129.279 258.024 129.123 258.072 128.931 258.072C128.427 258.072 127.803 258.06 127.059 258.036C126.339 258.012 125.607 257.988 124.863 257.964C124.143 257.94 123.507 257.928 122.955 257.928C122.475 257.928 121.887 257.94 121.191 257.964C120.495 257.988 119.787 258.012 119.067 258.036C118.347 258.084 117.723 258.108 117.195 258.108C117.003 258.108 116.823 258.06 116.655 257.964C116.511 257.868 116.439 257.736 116.439 257.568C116.439 257.352 116.511 257.184 116.655 257.064C116.823 256.92 117.015 256.824 117.231 256.776C118.143 256.584 118.815 256.332 119.247 256.02C119.679 255.708 119.799 255.204 119.607 254.508C119.487 254.028 119.355 253.56 119.211 253.104C119.091 252.648 118.971 252.192 118.851 251.736C118.731 251.256 118.611 250.788 118.491 250.332C118.443 250.14 118.383 249.996 118.311 249.9C118.239 249.78 118.107 249.72 117.915 249.72H111.651C111.459 249.72 111.315 249.78 111.219 249.9C111.147 249.996 111.087 250.14 111.039 250.332C110.943 250.692 110.835 251.028 110.715 251.34C110.619 251.628 110.523 251.916 110.427 252.204C110.331 252.492 110.235 252.792 110.139 253.104C110.043 253.392 109.947 253.716 109.851 254.076C109.635 254.844 109.671 255.42 109.959 255.804C110.247 256.188 110.955 256.512 112.083 256.776C112.611 256.896 112.875 257.16 112.875 257.568C112.875 257.736 112.815 257.868 112.695 257.964C112.575 258.036 112.383 258.072 112.119 258.072C111.327 258.072 110.631 258.048 110.031 258C109.431 257.976 108.771 257.964 108.051 257.964C107.355 257.964 106.683 258 106.035 258.072C105.411 258.144 104.715 258.18 103.947 258.18ZM112.659 247.632H117.159C117.519 247.632 117.699 247.548 117.699 247.38C117.699 247.284 117.687 247.224 117.663 247.2C117.663 247.152 117.651 247.08 117.627 246.984L115.323 239.028C115.251 238.788 115.179 238.668 115.107 238.668C115.059 238.668 114.987 238.788 114.891 239.028L112.119 246.984C112.071 247.08 112.047 247.176 112.047 247.272C112.047 247.392 112.107 247.488 112.227 247.56C112.371 247.608 112.515 247.632 112.659 247.632ZM153.373 258.684C153.037 258.684 152.509 258.492 151.789 258.108C151.093 257.748 150.349 257.088 149.557 256.128C148.885 255.408 148.213 254.7 147.541 254.004C146.893 253.284 146.233 252.576 145.561 251.88C144.889 251.16 144.217 250.452 143.545 249.756C142.873 249.036 142.201 248.328 141.529 247.632C140.881 246.936 140.221 246.24 139.549 245.544C138.877 244.824 138.205 244.116 137.533 243.42C136.885 242.7 136.225 241.98 135.553 241.26C135.529 241.212 135.469 241.14 135.373 241.044C135.277 240.948 135.205 240.9 135.157 240.9C135.061 240.9 134.989 240.984 134.941 241.152C134.917 241.32 134.905 241.464 134.905 241.584C134.905 242.664 134.917 243.948 134.941 245.436C134.989 246.924 135.025 248.424 135.049 249.936C135.097 251.424 135.121 252.756 135.121 253.932C135.121 254.748 135.373 255.372 135.877 255.804C136.405 256.212 137.149 256.536 138.109 256.776C138.325 256.824 138.541 256.908 138.757 257.028C138.973 257.124 139.081 257.292 139.081 257.532C139.081 257.7 138.985 257.832 138.793 257.928C138.601 258.024 138.409 258.072 138.217 258.072C137.569 258.072 137.029 258.06 136.597 258.036C136.165 258.012 135.757 258 135.373 258C135.013 257.976 134.581 257.964 134.077 257.964C133.525 257.964 132.985 257.976 132.457 258C131.953 258.024 131.533 258.048 131.197 258.072C130.885 258.096 130.729 258.108 130.729 258.108C130.585 258.108 130.405 258.06 130.189 257.964C129.997 257.868 129.901 257.736 129.901 257.568C129.901 257.352 129.985 257.196 130.153 257.1C130.345 256.98 130.549 256.872 130.765 256.776C131.317 256.56 131.737 256.2 132.025 255.696C132.337 255.192 132.517 254.58 132.565 253.86C132.661 252.972 132.757 251.796 132.853 250.332C132.973 248.868 133.081 247.224 133.177 245.4C133.273 243.576 133.321 241.68 133.321 239.712C133.321 238.464 133.009 237.564 132.385 237.012C131.761 236.46 131.005 236.016 130.117 235.68C129.901 235.632 129.685 235.548 129.469 235.428C129.253 235.284 129.145 235.104 129.145 234.888C129.145 234.672 129.229 234.528 129.397 234.456C129.589 234.36 129.817 234.312 130.081 234.312C130.465 234.312 130.933 234.324 131.485 234.348C132.061 234.372 132.673 234.396 133.321 234.42C133.993 234.42 134.677 234.432 135.373 234.456C136.069 234.48 136.741 234.492 137.389 234.492C137.581 234.492 137.725 234.528 137.821 234.6C137.941 234.648 138.037 234.732 138.109 234.852C138.733 235.548 139.357 236.256 139.981 236.976C140.629 237.672 141.265 238.368 141.889 239.064C142.537 239.76 143.173 240.456 143.797 241.152C144.445 241.848 145.081 242.556 145.705 243.276C146.329 243.972 146.953 244.668 147.577 245.364C148.225 246.06 148.861 246.768 149.485 247.488C150.133 248.184 150.769 248.88 151.393 249.576C151.465 249.672 151.549 249.768 151.645 249.864C151.741 249.96 151.825 250.008 151.897 250.008C152.089 250.008 152.185 249.84 152.185 249.504C152.185 248.664 152.185 247.752 152.185 246.768C152.185 245.76 152.185 244.74 152.185 243.708C152.185 242.652 152.173 241.644 152.149 240.684C152.149 239.7 152.125 238.836 152.077 238.092C152.053 237.396 151.801 236.892 151.321 236.58C150.865 236.268 150.181 235.992 149.269 235.752C149.053 235.704 148.861 235.632 148.693 235.536C148.525 235.416 148.441 235.236 148.441 234.996C148.441 234.828 148.525 234.696 148.693 234.6C148.861 234.504 149.029 234.456 149.197 234.456C149.845 234.456 150.373 234.468 150.781 234.492C151.189 234.492 151.561 234.504 151.897 234.528C152.233 234.528 152.605 234.528 153.013 234.528C153.493 234.528 153.901 234.528 154.237 234.528C154.573 234.504 154.933 234.48 155.317 234.456C155.725 234.432 156.229 234.42 156.829 234.42C157.093 234.42 157.297 234.468 157.441 234.564C157.609 234.66 157.693 234.792 157.693 234.96C157.693 235.344 157.393 235.596 156.793 235.716C155.977 235.884 155.377 236.124 154.993 236.436C154.609 236.748 154.417 237.264 154.417 237.984C154.417 239.016 154.405 240.048 154.381 241.08C154.357 242.088 154.321 243.084 154.273 244.068C154.225 245.052 154.177 246.012 154.129 246.948C154.081 247.86 154.045 248.736 154.021 249.576C153.997 250.416 153.985 251.184 153.985 251.88C153.985 252.432 154.021 253.068 154.093 253.788C154.165 254.484 154.237 255.132 154.309 255.732C154.381 256.308 154.417 256.704 154.417 256.92C154.417 257.568 154.321 258.024 154.129 258.288C153.961 258.552 153.709 258.684 153.373 258.684ZM171.57 258.504C169.89 258.504 168.294 258.228 166.782 257.676C165.27 257.1 163.926 256.296 162.75 255.264C161.574 254.208 160.65 252.96 159.978 251.52C159.306 250.056 158.97 248.436 158.97 246.66C158.97 245.028 159.246 243.468 159.798 241.98C160.35 240.468 161.166 239.124 162.246 237.948C163.35 236.772 164.706 235.836 166.314 235.14C167.922 234.444 169.782 234.096 171.894 234.096C173.574 234.096 175.17 234.384 176.682 234.96C178.194 235.512 179.538 236.316 180.714 237.372C181.89 238.404 182.814 239.652 183.486 241.116C184.158 242.556 184.494 244.164 184.494 245.94C184.494 247.548 184.218 249.108 183.666 250.62C183.114 252.132 182.286 253.476 181.182 254.652C180.102 255.828 178.758 256.764 177.15 257.46C175.542 258.156 173.682 258.504 171.57 258.504ZM172.218 256.812C173.49 256.812 174.546 256.428 175.386 255.66C176.25 254.892 176.898 253.836 177.33 252.492C177.762 251.124 177.978 249.564 177.978 247.812C177.978 246.372 177.846 244.944 177.582 243.528C177.318 242.112 176.91 240.828 176.358 239.676C175.806 238.5 175.098 237.564 174.234 236.868C173.394 236.172 172.374 235.824 171.174 235.824C169.926 235.824 168.87 236.208 168.006 236.976C167.166 237.744 166.53 238.8 166.098 240.144C165.69 241.488 165.486 243.036 165.486 244.788C165.486 246.228 165.618 247.656 165.882 249.072C166.146 250.488 166.542 251.784 167.07 252.96C167.622 254.112 168.318 255.048 169.158 255.768C170.022 256.464 171.042 256.812 172.218 256.812Z" fill="#292929"/>
<path d="M64.7936 279.048C64.7296 279.048 64.6656 279.027 64.6016 278.984C64.5376 278.941 64.5056 278.883 64.5056 278.808C64.5056 278.627 64.607 278.509 64.8096 278.456C65.215 278.371 65.4923 278.264 65.6416 278.136C65.791 278.008 65.8656 277.779 65.8656 277.448V270.184C65.8656 269.843 65.7963 269.603 65.6576 269.464C65.5296 269.315 65.279 269.197 64.9056 269.112C64.7776 269.08 64.687 269.032 64.6336 268.968C64.591 268.904 64.5696 268.84 64.5696 268.776C64.5696 268.701 64.5963 268.643 64.6496 268.6C64.7136 268.547 64.7936 268.52 64.8896 268.52C65.1243 268.52 65.3803 268.525 65.6576 268.536C65.935 268.547 66.207 268.563 66.4736 268.584C66.7403 268.595 66.9803 268.6 67.1936 268.6C67.4496 268.6 67.6736 268.589 67.8656 268.568C68.0683 268.536 68.2923 268.509 68.5376 268.488C68.783 268.456 69.103 268.44 69.4976 268.44C70.8096 268.44 71.8496 268.723 72.6176 269.288C73.3856 269.843 73.7696 270.605 73.7696 271.576C73.7696 272.248 73.6256 272.872 73.3376 273.448C73.0496 274.013 72.6123 274.472 72.0256 274.824C71.4496 275.165 70.719 275.336 69.8336 275.336C69.5456 275.336 69.327 275.293 69.1776 275.208C69.0283 275.123 68.9536 275.016 68.9536 274.888C68.9536 274.803 68.991 274.739 69.0656 274.696C69.1403 274.653 69.2043 274.632 69.2576 274.632C69.3856 274.632 69.487 274.648 69.5616 274.68C69.647 274.701 69.759 274.712 69.8976 274.712C70.303 274.712 70.607 274.467 70.8096 273.976C71.023 273.475 71.1296 272.829 71.1296 272.04C71.1296 271.027 70.9856 270.301 70.6976 269.864C70.4203 269.416 70.0203 269.192 69.4976 269.192C69.199 269.192 68.975 269.261 68.8256 269.4C68.6763 269.539 68.6016 269.752 68.6016 270.04L68.5856 277.432C68.5856 277.763 68.6763 277.992 68.8576 278.12C69.0496 278.248 69.375 278.36 69.8336 278.456C69.9296 278.477 70.0043 278.515 70.0576 278.568C70.111 278.611 70.1376 278.685 70.1376 278.792C70.1376 278.867 70.1163 278.925 70.0736 278.968C70.031 279.011 69.967 279.032 69.8816 279.032C69.6576 279.032 69.375 279.027 69.0336 279.016C68.6923 279.005 68.351 278.995 68.0096 278.984C67.679 278.973 67.407 278.968 67.1936 278.968C66.9803 278.968 66.7296 278.973 66.4416 278.984C66.1643 278.995 65.8763 279.005 65.5776 279.016C65.2896 279.037 65.0283 279.048 64.7936 279.048ZM74.7319 279.08C74.6359 279.08 74.5612 279.053 74.5079 279C74.4545 278.947 74.4279 278.888 74.4279 278.824C74.4279 278.664 74.5345 278.552 74.7479 278.488C75.0999 278.381 75.3452 278.269 75.4839 278.152C75.6332 278.035 75.7079 277.811 75.7079 277.48V270.184C75.7079 269.843 75.6385 269.603 75.4999 269.464C75.3719 269.315 75.1212 269.197 74.7479 269.112C74.6199 269.08 74.5292 269.032 74.4759 268.968C74.4332 268.904 74.4119 268.84 74.4119 268.776C74.4119 268.701 74.4385 268.643 74.4919 268.6C74.5559 268.547 74.6359 268.52 74.7319 268.52C74.9665 268.52 75.2225 268.525 75.4999 268.536C75.7772 268.547 76.0492 268.563 76.3159 268.584C76.5825 268.595 76.8225 268.6 77.0359 268.6C77.6332 268.6 78.2732 268.595 78.9559 268.584C79.6385 268.573 80.2412 268.563 80.7639 268.552C81.1052 268.552 81.3825 268.531 81.5959 268.488C81.8199 268.445 81.9532 268.424 81.9959 268.424C82.0812 268.424 82.1665 268.451 82.2519 268.504C82.3479 268.547 82.4012 268.632 82.4119 268.76C82.4545 269.155 82.5079 269.544 82.5719 269.928C82.6465 270.301 82.6839 270.632 82.6839 270.92C82.6839 271.027 82.6625 271.107 82.6199 271.16C82.5772 271.213 82.5292 271.24 82.4759 271.24C82.4225 271.24 82.3639 271.219 82.2999 271.176C82.2359 271.133 82.1825 271.064 82.1399 270.968C82.0225 270.68 81.9159 270.44 81.8199 270.248C81.7345 270.045 81.6332 269.885 81.5159 269.768C81.3985 269.651 81.2492 269.539 81.0679 269.432C80.8865 269.315 80.6465 269.256 80.3479 269.256H79.3399C79.0732 269.256 78.8545 269.32 78.6839 269.448C78.5132 269.576 78.4279 269.757 78.4279 269.992V272.936C78.4279 273.075 78.4652 273.176 78.5399 273.24C78.6145 273.293 78.7159 273.32 78.8439 273.32H80.2039C80.4812 273.32 80.6785 273.219 80.7959 273.016C80.9239 272.813 81.0359 272.584 81.1319 272.328C81.2172 272.136 81.3292 272.04 81.4679 272.04C81.5212 272.04 81.5692 272.072 81.6119 272.136C81.6545 272.2 81.6705 272.291 81.6599 272.408C81.6492 272.557 81.6332 272.707 81.6119 272.856C81.6012 273.005 81.5905 273.155 81.5799 273.304C81.5799 273.443 81.5799 273.587 81.5799 273.736C81.5799 273.875 81.5799 274.019 81.5799 274.168C81.5905 274.307 81.6012 274.451 81.6119 274.6C81.6225 274.749 81.6332 274.904 81.6439 275.064C81.6652 275.224 81.6545 275.341 81.6119 275.416C81.5799 275.48 81.5372 275.512 81.4839 275.512C81.3025 275.512 81.1745 275.384 81.0999 275.128C81.0039 274.787 80.8919 274.525 80.7639 274.344C80.6465 274.163 80.4865 274.072 80.2839 274.072H78.7799C78.6625 274.072 78.5719 274.104 78.5079 274.168C78.4545 274.232 78.4279 274.323 78.4279 274.44V277.464C78.4279 277.763 78.4919 277.976 78.6199 278.104C78.7479 278.221 78.9452 278.28 79.2119 278.28H80.6359C80.8492 278.28 81.0572 278.253 81.2599 278.2C81.4732 278.136 81.6545 278.04 81.8039 277.912C81.9852 277.763 82.1505 277.571 82.2999 277.336C82.4599 277.101 82.5985 276.867 82.7159 276.632C82.7585 276.547 82.8012 276.493 82.8439 276.472C82.8972 276.451 82.9559 276.44 83.0199 276.44C83.0839 276.44 83.1265 276.477 83.1479 276.552C83.1692 276.616 83.1799 276.685 83.1799 276.76C83.1799 276.952 83.1532 277.16 83.0999 277.384C83.0465 277.608 82.9772 277.848 82.8919 278.104C82.8172 278.349 82.7425 278.605 82.6679 278.872C82.6465 278.947 82.5985 278.995 82.5239 279.016C82.4492 279.048 82.3692 279.064 82.2839 279.064C82.2305 279.064 82.0225 279.059 81.6599 279.048C81.2972 279.048 80.8439 279.043 80.2999 279.032C79.7665 279.021 79.2065 279.011 78.6199 279C78.0439 279 77.5159 279 77.0359 279C76.8225 279 76.5772 279.005 76.2999 279.016C76.0225 279.027 75.7452 279.037 75.4679 279.048C75.1905 279.069 74.9452 279.08 74.7319 279.08ZM93.7583 279.336C93.1609 279.336 92.6596 279.261 92.2543 279.112C91.8596 278.963 91.5289 278.771 91.2623 278.536C90.9956 278.291 90.7556 278.024 90.5423 277.736C90.3183 277.427 90.0996 277.117 89.8863 276.808C89.6729 276.488 89.4649 276.152 89.2623 275.8C89.0596 275.437 88.8569 275.037 88.6543 274.6C88.5476 274.365 88.4196 274.205 88.2703 274.12C88.2063 274.077 88.1369 274.051 88.0623 274.04C87.9983 274.019 87.9396 274.008 87.8863 274.008C87.8329 274.008 87.7903 274.04 87.7583 274.104C87.7369 274.157 87.7263 274.232 87.7263 274.328V277.432C87.7263 277.763 87.8169 277.992 87.9983 278.12C88.1903 278.248 88.5156 278.36 88.9743 278.456C89.0703 278.477 89.1449 278.515 89.1983 278.568C89.2516 278.611 89.2783 278.685 89.2783 278.792C89.2783 278.867 89.2569 278.925 89.2143 278.968C89.1716 279.011 89.1076 279.032 89.0223 279.032C88.7983 279.032 88.5156 279.027 88.1743 279.016C87.8329 279.005 87.4916 278.995 87.1503 278.984C86.8196 278.973 86.5476 278.968 86.3343 278.968C86.1209 278.968 85.8703 278.973 85.5823 278.984C85.3049 278.995 85.0169 279.005 84.7183 279.016C84.4303 279.037 84.1689 279.048 83.9342 279.048C83.8703 279.048 83.8063 279.027 83.7423 278.984C83.6783 278.941 83.6463 278.883 83.6463 278.808C83.6463 278.627 83.7476 278.509 83.9503 278.456C84.3556 278.371 84.6329 278.264 84.7823 278.136C84.9316 278.008 85.0063 277.779 85.0063 277.448V270.184C85.0063 269.949 84.9796 269.768 84.9263 269.64C84.8729 269.501 84.7769 269.395 84.6383 269.32C84.4996 269.235 84.3023 269.165 84.0463 269.112C83.9183 269.08 83.8276 269.032 83.7743 268.968C83.7316 268.904 83.7103 268.84 83.7103 268.776C83.7103 268.701 83.7369 268.643 83.7903 268.6C83.8543 268.547 83.9343 268.52 84.0303 268.52C84.3823 268.52 84.6756 268.531 84.9103 268.552C85.1449 268.573 85.3689 268.595 85.5823 268.616C85.7956 268.637 86.0409 268.648 86.3183 268.648C86.5743 268.648 86.7983 268.637 86.9903 268.616C87.1929 268.584 87.4169 268.557 87.6623 268.536C87.9076 268.504 88.2276 268.488 88.6223 268.488C89.8809 268.488 90.8516 268.701 91.5343 269.128C92.2276 269.544 92.5743 270.184 92.5743 271.048C92.5743 271.528 92.4676 271.933 92.2543 272.264C92.0409 272.584 91.7743 272.845 91.4543 273.048C91.1343 273.24 90.8089 273.384 90.4783 273.48C90.4356 273.491 90.4143 273.517 90.4143 273.56C90.4249 273.603 90.4409 273.64 90.4623 273.672C90.7823 274.141 91.0916 274.595 91.3903 275.032C91.6996 275.469 92.0089 275.875 92.3183 276.248C92.6276 276.611 92.9369 276.941 93.2463 277.24C93.6196 277.592 94.0036 277.8 94.3983 277.864C94.8036 277.928 95.1929 277.96 95.5663 277.96C95.7263 277.96 95.8063 278.061 95.8063 278.264C95.8063 278.52 95.7209 278.728 95.5503 278.888C95.3903 279.037 95.1556 279.149 94.8463 279.224C94.5369 279.299 94.1743 279.336 93.7583 279.336ZM88.2863 273.464C88.6703 273.464 88.9849 273.379 89.2303 273.208C89.4756 273.037 89.6569 272.803 89.7743 272.504C89.9023 272.195 89.9663 271.837 89.9663 271.432C89.9663 270.92 89.9023 270.504 89.7743 270.184C89.6463 269.864 89.4596 269.629 89.2143 269.48C88.9796 269.32 88.6916 269.24 88.3503 269.24C88.1369 269.24 87.9769 269.331 87.8703 269.512C87.7743 269.693 87.7263 270.093 87.7263 270.712C87.7263 270.947 87.7263 271.245 87.7263 271.608C87.7263 271.96 87.7263 272.376 87.7263 272.856C87.7263 273.069 87.7743 273.224 87.8703 273.32C87.9769 273.416 88.1156 273.464 88.2863 273.464ZM96.2467 279.048C96.1828 279.048 96.1188 279.027 96.0548 278.984C95.9908 278.941 95.9588 278.883 95.9588 278.808C95.9588 278.627 96.0601 278.509 96.2628 278.456C96.6681 278.371 96.9454 278.264 97.0948 278.136C97.2441 278.008 97.3188 277.779 97.3188 277.448V270.184C97.3188 269.843 97.2494 269.603 97.1108 269.464C96.9828 269.315 96.7321 269.197 96.3588 269.112C96.2308 269.08 96.1401 269.032 96.0868 268.968C96.0441 268.904 96.0228 268.84 96.0228 268.776C96.0228 268.701 96.0494 268.643 96.1028 268.6C96.1668 268.547 96.2468 268.52 96.3428 268.52C96.5774 268.52 96.8334 268.525 97.1108 268.536C97.3881 268.547 97.6601 268.563 97.9268 268.584C98.1934 268.595 98.4334 268.6 98.6468 268.6C99.0948 268.6 99.5801 268.6 100.103 268.6C100.636 268.6 101.143 268.6 101.623 268.6C102.081 268.6 102.497 268.573 102.871 268.52C103.255 268.456 103.564 268.424 103.799 268.424C103.884 268.424 103.969 268.451 104.055 268.504C104.151 268.547 104.204 268.632 104.215 268.76C104.236 269.027 104.252 269.299 104.263 269.576C104.273 269.853 104.279 270.12 104.279 270.376C104.289 270.621 104.295 270.84 104.295 271.032C104.295 271.245 104.225 271.352 104.087 271.352C104.033 271.352 103.969 271.331 103.895 271.288C103.82 271.245 103.772 271.176 103.751 271.08C103.676 270.803 103.591 270.552 103.495 270.328C103.409 270.093 103.292 269.901 103.143 269.752C103.004 269.613 102.839 269.512 102.647 269.448C102.465 269.373 102.236 269.336 101.959 269.336H100.951C100.684 269.336 100.465 269.4 100.295 269.528C100.124 269.656 100.039 269.837 100.039 270.072C100.039 270.253 100.039 270.472 100.039 270.728C100.039 270.973 100.039 271.187 100.039 271.368C100.039 271.603 100.039 271.859 100.039 272.136C100.039 272.413 100.039 272.675 100.039 272.92C100.039 273.059 100.076 273.16 100.151 273.224C100.225 273.277 100.327 273.304 100.455 273.304C100.7 273.304 100.945 273.304 101.191 273.304C101.447 273.304 101.697 273.304 101.943 273.304C102.22 273.304 102.417 273.219 102.535 273.048C102.663 272.877 102.775 272.675 102.871 272.44C102.913 272.344 102.961 272.275 103.015 272.232C103.079 272.179 103.143 272.152 103.207 272.152C103.26 272.152 103.308 272.184 103.351 272.248C103.393 272.312 103.409 272.403 103.399 272.52C103.377 272.755 103.356 272.979 103.335 273.192C103.324 273.395 103.319 273.576 103.319 273.736C103.319 273.949 103.324 274.125 103.335 274.264C103.345 274.403 103.361 274.595 103.383 274.84C103.404 275 103.393 275.117 103.351 275.192C103.319 275.256 103.276 275.288 103.223 275.288C103.148 275.288 103.073 275.251 102.999 275.176C102.924 275.101 102.871 275.011 102.839 274.904C102.743 274.573 102.631 274.349 102.503 274.232C102.385 274.115 102.225 274.056 102.023 274.056C101.905 274.056 101.783 274.056 101.655 274.056C101.527 274.056 101.404 274.056 101.287 274.056C101.137 274.056 100.983 274.056 100.823 274.056C100.663 274.056 100.508 274.056 100.359 274.056C100.241 274.056 100.151 274.088 100.087 274.152C100.033 274.216 100.007 274.307 100.007 274.424C100.007 274.904 100.012 275.405 100.023 275.928C100.033 276.451 100.039 276.952 100.039 277.432C100.039 277.763 100.129 277.992 100.311 278.12C100.503 278.248 100.828 278.36 101.287 278.456C101.383 278.477 101.457 278.515 101.511 278.568C101.564 278.611 101.591 278.685 101.591 278.792C101.591 278.867 101.569 278.925 101.527 278.968C101.484 279.011 101.42 279.032 101.335 279.032C101.111 279.032 100.828 279.027 100.487 279.016C100.145 279.005 99.8041 278.995 99.4628 278.984C99.1321 278.973 98.8601 278.968 98.6468 278.968C98.4334 278.968 98.1828 278.973 97.8948 278.984C97.6174 278.995 97.3294 279.005 97.0308 279.016C96.7428 279.037 96.4814 279.048 96.2467 279.048ZM110.578 279.224C109.831 279.224 109.122 279.101 108.45 278.856C107.778 278.6 107.181 278.243 106.658 277.784C106.135 277.315 105.725 276.76 105.426 276.12C105.127 275.469 104.978 274.749 104.978 273.96C104.978 273.235 105.101 272.541 105.346 271.88C105.591 271.208 105.954 270.611 106.434 270.088C106.925 269.565 107.527 269.149 108.242 268.84C108.957 268.531 109.783 268.376 110.722 268.376C111.469 268.376 112.178 268.504 112.85 268.76C113.522 269.005 114.119 269.363 114.642 269.832C115.165 270.291 115.575 270.845 115.874 271.496C116.173 272.136 116.322 272.851 116.322 273.64C116.322 274.355 116.199 275.048 115.954 275.72C115.709 276.392 115.341 276.989 114.85 277.512C114.37 278.035 113.773 278.451 113.058 278.76C112.343 279.069 111.517 279.224 110.578 279.224ZM110.866 278.472C111.431 278.472 111.901 278.301 112.274 277.96C112.658 277.619 112.946 277.149 113.138 276.552C113.33 275.944 113.426 275.251 113.426 274.472C113.426 273.832 113.367 273.197 113.25 272.568C113.133 271.939 112.951 271.368 112.706 270.856C112.461 270.333 112.146 269.917 111.762 269.608C111.389 269.299 110.935 269.144 110.402 269.144C109.847 269.144 109.378 269.315 108.994 269.656C108.621 269.997 108.338 270.467 108.146 271.064C107.965 271.661 107.874 272.349 107.874 273.128C107.874 273.768 107.933 274.403 108.05 275.032C108.167 275.661 108.343 276.237 108.578 276.76C108.823 277.272 109.133 277.688 109.506 278.008C109.89 278.317 110.343 278.472 110.866 278.472ZM127.071 279.336C126.473 279.336 125.972 279.261 125.567 279.112C125.172 278.963 124.841 278.771 124.575 278.536C124.308 278.291 124.068 278.024 123.855 277.736C123.631 277.427 123.412 277.117 123.199 276.808C122.985 276.488 122.777 276.152 122.575 275.8C122.372 275.437 122.169 275.037 121.967 274.6C121.86 274.365 121.732 274.205 121.583 274.12C121.519 274.077 121.449 274.051 121.375 274.04C121.311 274.019 121.252 274.008 121.199 274.008C121.145 274.008 121.103 274.04 121.071 274.104C121.049 274.157 121.039 274.232 121.039 274.328V277.432C121.039 277.763 121.129 277.992 121.311 278.12C121.503 278.248 121.828 278.36 122.287 278.456C122.383 278.477 122.457 278.515 122.511 278.568C122.564 278.611 122.591 278.685 122.591 278.792C122.591 278.867 122.569 278.925 122.527 278.968C122.484 279.011 122.42 279.032 122.335 279.032C122.111 279.032 121.828 279.027 121.487 279.016C121.145 279.005 120.804 278.995 120.463 278.984C120.132 278.973 119.86 278.968 119.647 278.968C119.433 278.968 119.183 278.973 118.895 278.984C118.617 278.995 118.329 279.005 118.031 279.016C117.743 279.037 117.481 279.048 117.247 279.048C117.183 279.048 117.119 279.027 117.055 278.984C116.991 278.941 116.959 278.883 116.959 278.808C116.959 278.627 117.06 278.509 117.263 278.456C117.668 278.371 117.945 278.264 118.095 278.136C118.244 278.008 118.319 277.779 118.319 277.448V270.184C118.319 269.949 118.292 269.768 118.239 269.64C118.185 269.501 118.089 269.395 117.951 269.32C117.812 269.235 117.615 269.165 117.359 269.112C117.231 269.08 117.14 269.032 117.087 268.968C117.044 268.904 117.023 268.84 117.023 268.776C117.023 268.701 117.049 268.643 117.103 268.6C117.167 268.547 117.247 268.52 117.343 268.52C117.695 268.52 117.988 268.531 118.223 268.552C118.457 268.573 118.681 268.595 118.895 268.616C119.108 268.637 119.353 268.648 119.631 268.648C119.887 268.648 120.111 268.637 120.303 268.616C120.505 268.584 120.729 268.557 120.975 268.536C121.22 268.504 121.54 268.488 121.935 268.488C123.193 268.488 124.164 268.701 124.847 269.128C125.54 269.544 125.887 270.184 125.887 271.048C125.887 271.528 125.78 271.933 125.567 272.264C125.353 272.584 125.087 272.845 124.767 273.048C124.447 273.24 124.121 273.384 123.791 273.48C123.748 273.491 123.727 273.517 123.727 273.56C123.737 273.603 123.753 273.64 123.775 273.672C124.095 274.141 124.404 274.595 124.703 275.032C125.012 275.469 125.321 275.875 125.631 276.248C125.94 276.611 126.249 276.941 126.559 277.24C126.932 277.592 127.316 277.8 127.711 277.864C128.116 277.928 128.505 277.96 128.879 277.96C129.039 277.96 129.119 278.061 129.119 278.264C129.119 278.52 129.033 278.728 128.863 278.888C128.703 279.037 128.468 279.149 128.159 279.224C127.849 279.299 127.487 279.336 127.071 279.336ZM121.599 273.464C121.983 273.464 122.297 273.379 122.543 273.208C122.788 273.037 122.969 272.803 123.087 272.504C123.215 272.195 123.279 271.837 123.279 271.432C123.279 270.92 123.215 270.504 123.087 270.184C122.959 269.864 122.772 269.629 122.527 269.48C122.292 269.32 122.004 269.24 121.663 269.24C121.449 269.24 121.289 269.331 121.183 269.512C121.087 269.693 121.039 270.093 121.039 270.712C121.039 270.947 121.039 271.245 121.039 271.608C121.039 271.96 121.039 272.376 121.039 272.856C121.039 273.069 121.087 273.224 121.183 273.32C121.289 273.416 121.428 273.464 121.599 273.464ZM129.719 279.048C129.591 279.048 129.495 279.027 129.431 278.984C129.378 278.941 129.351 278.883 129.351 278.808C129.351 278.712 129.399 278.653 129.495 278.632C129.591 278.6 129.687 278.563 129.783 278.52C130.029 278.424 130.242 278.269 130.423 278.056C130.615 277.843 130.733 277.576 130.775 277.256C130.829 276.861 130.887 276.323 130.951 275.64C131.015 274.947 131.085 274.179 131.159 273.336C131.234 272.483 131.309 271.619 131.383 270.744C131.394 270.691 131.399 270.616 131.399 270.52C131.399 270.424 131.399 270.317 131.399 270.2C131.399 269.987 131.362 269.821 131.287 269.704C131.223 269.587 131.122 269.491 130.983 269.416C130.866 269.352 130.738 269.293 130.599 269.24C130.461 269.176 130.311 269.123 130.151 269.08C130.023 269.048 129.917 269.005 129.831 268.952C129.757 268.899 129.719 268.824 129.719 268.728C129.719 268.632 129.757 268.568 129.831 268.536C129.917 268.493 130.018 268.472 130.135 268.472C130.306 268.472 130.509 268.477 130.743 268.488C130.989 268.499 131.255 268.509 131.543 268.52C131.831 268.52 132.125 268.525 132.423 268.536C132.733 268.547 133.031 268.552 133.319 268.552C133.405 268.552 133.485 268.584 133.559 268.648C133.634 268.712 133.682 268.776 133.703 268.84C133.789 269.053 133.863 269.251 133.927 269.432C133.991 269.603 134.066 269.795 134.151 270.008L136.455 275.432C136.477 275.475 136.498 275.496 136.519 275.496C136.551 275.496 136.573 275.475 136.583 275.432L138.679 270.392C138.765 269.976 138.829 269.651 138.871 269.416C138.925 269.171 138.973 268.984 139.015 268.856C139.058 268.717 139.149 268.648 139.287 268.648H140.007C140.477 268.627 140.967 268.595 141.479 268.552C142.002 268.499 142.413 268.472 142.711 268.472C142.829 268.472 142.925 268.493 142.999 268.536C143.085 268.568 143.127 268.632 143.127 268.728C143.127 268.824 143.09 268.893 143.015 268.936C142.941 268.979 142.855 269.016 142.759 269.048C142.717 269.059 142.658 269.08 142.583 269.112C142.519 269.144 142.466 269.171 142.423 269.192C142.103 269.341 141.869 269.507 141.719 269.688C141.581 269.869 141.522 270.163 141.543 270.568C141.575 271.347 141.607 272.013 141.639 272.568C141.671 273.123 141.698 273.635 141.719 274.104C141.751 274.573 141.783 275.069 141.815 275.592C141.858 276.104 141.901 276.717 141.943 277.432C141.965 277.699 142.082 277.917 142.295 278.088C142.509 278.248 142.775 278.371 143.095 278.456C143.191 278.488 143.271 278.525 143.335 278.568C143.41 278.611 143.447 278.685 143.447 278.792C143.447 278.867 143.415 278.925 143.351 278.968C143.298 279.011 143.229 279.032 143.143 279.032C142.919 279.032 142.642 279.027 142.311 279.016C141.991 279.005 141.671 278.995 141.351 278.984C141.031 278.973 140.765 278.968 140.551 278.968C140.338 278.968 140.087 278.973 139.799 278.984C139.522 278.995 139.234 279.005 138.935 279.016C138.647 279.037 138.386 279.048 138.151 279.048C138.066 279.048 137.986 279.027 137.911 278.984C137.847 278.941 137.815 278.883 137.815 278.808C137.815 278.712 137.847 278.637 137.911 278.584C137.986 278.52 138.071 278.477 138.167 278.456C138.573 278.371 138.855 278.264 139.015 278.136C139.175 277.997 139.245 277.768 139.223 277.448C139.191 276.808 139.165 276.157 139.143 275.496C139.122 274.835 139.101 274.184 139.079 273.544C139.069 272.893 139.047 272.28 139.015 271.704C139.015 271.64 138.999 271.613 138.967 271.624C138.935 271.624 138.903 271.661 138.871 271.736L135.959 278.952C135.895 279.123 135.805 279.192 135.687 279.16C135.581 279.128 135.506 279.069 135.463 278.984C134.909 277.747 134.338 276.525 133.751 275.32C133.165 274.115 132.642 272.947 132.183 271.816C132.141 271.709 132.082 271.672 132.007 271.704C131.943 271.736 131.906 271.821 131.895 271.96C131.874 272.44 131.858 273 131.847 273.64C131.847 274.28 131.853 274.925 131.863 275.576C131.874 276.227 131.879 276.813 131.879 277.336C131.879 277.635 131.975 277.869 132.167 278.04C132.359 278.211 132.669 278.349 133.095 278.456C133.191 278.477 133.287 278.515 133.383 278.568C133.479 278.611 133.527 278.685 133.527 278.792C133.527 278.867 133.485 278.925 133.399 278.968C133.314 279.011 133.229 279.032 133.143 279.032C132.855 279.032 132.631 279.027 132.471 279.016C132.311 279.005 132.162 279 132.023 279C131.895 278.989 131.719 278.984 131.495 278.984C131.25 278.984 130.989 278.989 130.711 279C130.434 279.011 130.199 279.021 130.007 279.032C129.815 279.043 129.719 279.048 129.719 279.048ZM144.102 279.08C143.984 279.08 143.883 279.059 143.798 279.016C143.723 278.984 143.686 278.915 143.686 278.808C143.686 278.701 143.718 278.627 143.782 278.584C143.856 278.531 143.942 278.488 144.038 278.456C144.358 278.371 144.63 278.237 144.854 278.056C145.088 277.875 145.259 277.667 145.366 277.432C145.622 276.845 145.867 276.264 146.102 275.688C146.336 275.112 146.566 274.541 146.79 273.976C147.014 273.4 147.232 272.824 147.446 272.248C147.67 271.661 147.888 271.075 148.102 270.488C148.283 269.997 148.395 269.651 148.438 269.448C148.48 269.235 148.518 269.123 148.55 269.112C148.763 269.059 148.96 269.011 149.142 268.968C149.323 268.915 149.526 268.851 149.75 268.776C149.952 268.701 150.128 268.611 150.278 268.504C150.438 268.387 150.555 268.291 150.63 268.216C150.683 268.184 150.731 268.163 150.774 268.152C150.827 268.141 150.875 268.179 150.918 268.264C150.96 268.339 150.992 268.413 151.014 268.488C151.046 268.552 151.072 268.627 151.094 268.712C151.307 269.416 151.526 270.125 151.75 270.84C151.984 271.555 152.219 272.28 152.454 273.016C152.688 273.741 152.923 274.472 153.158 275.208C153.403 275.944 153.643 276.685 153.878 277.432C153.931 277.603 154.016 277.757 154.134 277.896C154.262 278.024 154.411 278.136 154.582 278.232C154.752 278.317 154.944 278.392 155.158 278.456C155.254 278.488 155.334 278.525 155.398 278.568C155.472 278.611 155.51 278.685 155.51 278.792C155.51 278.867 155.478 278.925 155.414 278.968C155.36 279.011 155.291 279.032 155.206 279.032C154.982 279.032 154.704 279.027 154.374 279.016C154.054 279.005 153.728 278.995 153.398 278.984C153.078 278.973 152.795 278.968 152.55 278.968C152.336 278.968 152.075 278.973 151.766 278.984C151.456 278.995 151.142 279.005 150.822 279.016C150.502 279.037 150.224 279.048 149.99 279.048C149.904 279.048 149.824 279.027 149.75 278.984C149.686 278.941 149.654 278.883 149.654 278.808C149.654 278.712 149.686 278.637 149.75 278.584C149.824 278.52 149.91 278.477 150.006 278.456C150.411 278.371 150.71 278.259 150.902 278.12C151.094 277.981 151.147 277.757 151.062 277.448C151.008 277.235 150.95 277.027 150.886 276.824C150.832 276.621 150.779 276.419 150.726 276.216C150.672 276.003 150.619 275.795 150.566 275.592C150.544 275.507 150.518 275.443 150.486 275.4C150.454 275.347 150.395 275.32 150.31 275.32H147.526C147.44 275.32 147.376 275.347 147.334 275.4C147.302 275.443 147.275 275.507 147.254 275.592C147.211 275.752 147.163 275.901 147.11 276.04C147.067 276.168 147.024 276.296 146.982 276.424C146.939 276.552 146.896 276.685 146.854 276.824C146.811 276.952 146.768 277.096 146.726 277.256C146.63 277.597 146.646 277.853 146.774 278.024C146.902 278.195 147.216 278.339 147.718 278.456C147.952 278.509 148.07 278.627 148.07 278.808C148.07 278.883 148.043 278.941 147.99 278.984C147.936 279.016 147.851 279.032 147.734 279.032C147.382 279.032 147.072 279.021 146.806 279C146.539 278.989 146.246 278.984 145.926 278.984C145.616 278.984 145.318 279 145.03 279.032C144.752 279.064 144.443 279.08 144.102 279.08ZM147.974 274.392H149.974C150.134 274.392 150.214 274.355 150.214 274.28C150.214 274.237 150.208 274.211 150.198 274.2C150.198 274.179 150.192 274.147 150.182 274.104L149.158 270.568C149.126 270.461 149.094 270.408 149.062 270.408C149.04 270.408 149.008 270.461 148.966 270.568L147.734 274.104C147.712 274.147 147.702 274.189 147.702 274.232C147.702 274.285 147.728 274.328 147.782 274.36C147.846 274.381 147.91 274.392 147.974 274.392ZM166.069 279.304C165.919 279.304 165.685 279.219 165.365 279.048C165.055 278.888 164.725 278.595 164.373 278.168C164.074 277.848 163.775 277.533 163.477 277.224C163.189 276.904 162.895 276.589 162.597 276.28C162.298 275.96 161.999 275.645 161.701 275.336C161.402 275.016 161.103 274.701 160.805 274.392C160.517 274.083 160.223 273.773 159.925 273.464C159.626 273.144 159.327 272.829 159.029 272.52C158.741 272.2 158.447 271.88 158.149 271.56C158.138 271.539 158.111 271.507 158.069 271.464C158.026 271.421 157.994 271.4 157.973 271.4C157.93 271.4 157.898 271.437 157.877 271.512C157.866 271.587 157.861 271.651 157.861 271.704C157.861 272.184 157.866 272.755 157.877 273.416C157.898 274.077 157.914 274.744 157.925 275.416C157.946 276.077 157.957 276.669 157.957 277.192C157.957 277.555 158.069 277.832 158.293 278.024C158.527 278.205 158.858 278.349 159.285 278.456C159.381 278.477 159.477 278.515 159.573 278.568C159.669 278.611 159.717 278.685 159.717 278.792C159.717 278.867 159.674 278.925 159.589 278.968C159.503 279.011 159.418 279.032 159.333 279.032C159.045 279.032 158.805 279.027 158.613 279.016C158.421 279.005 158.239 279 158.069 279C157.909 278.989 157.717 278.984 157.493 278.984C157.247 278.984 157.007 278.989 156.773 279C156.549 279.011 156.362 279.021 156.213 279.032C156.074 279.043 156.005 279.048 156.005 279.048C155.941 279.048 155.861 279.027 155.765 278.984C155.679 278.941 155.637 278.883 155.637 278.808C155.637 278.712 155.674 278.643 155.749 278.6C155.834 278.547 155.925 278.499 156.021 278.456C156.266 278.36 156.453 278.2 156.581 277.976C156.719 277.752 156.799 277.48 156.821 277.16C156.863 276.765 156.906 276.243 156.949 275.592C157.002 274.941 157.05 274.211 157.093 273.4C157.135 272.589 157.157 271.747 157.157 270.872C157.157 270.317 157.018 269.917 156.741 269.672C156.463 269.427 156.127 269.229 155.733 269.08C155.637 269.059 155.541 269.021 155.445 268.968C155.349 268.904 155.301 268.824 155.301 268.728C155.301 268.632 155.338 268.568 155.413 268.536C155.498 268.493 155.599 268.472 155.717 268.472C155.887 268.472 156.095 268.477 156.341 268.488C156.597 268.499 156.869 268.509 157.157 268.52C157.455 268.52 157.759 268.525 158.069 268.536C158.378 268.547 158.677 268.552 158.965 268.552C159.05 268.552 159.114 268.568 159.157 268.6C159.21 268.621 159.253 268.659 159.285 268.712C159.562 269.021 159.839 269.336 160.117 269.656C160.405 269.965 160.687 270.275 160.965 270.584C161.253 270.893 161.535 271.203 161.813 271.512C162.101 271.821 162.383 272.136 162.661 272.456C162.938 272.765 163.215 273.075 163.493 273.384C163.781 273.693 164.063 274.008 164.341 274.328C164.629 274.637 164.911 274.947 165.189 275.256C165.221 275.299 165.258 275.341 165.301 275.384C165.343 275.427 165.381 275.448 165.413 275.448C165.498 275.448 165.541 275.373 165.541 275.224C165.541 274.851 165.541 274.445 165.541 274.008C165.541 273.56 165.541 273.107 165.541 272.648C165.541 272.179 165.535 271.731 165.525 271.304C165.525 270.867 165.514 270.483 165.493 270.152C165.482 269.843 165.37 269.619 165.157 269.48C164.954 269.341 164.65 269.219 164.245 269.112C164.149 269.091 164.063 269.059 163.989 269.016C163.914 268.963 163.877 268.883 163.877 268.776C163.877 268.701 163.914 268.643 163.989 268.6C164.063 268.557 164.138 268.536 164.213 268.536C164.501 268.536 164.735 268.541 164.917 268.552C165.098 268.552 165.263 268.557 165.413 268.568C165.562 268.568 165.727 268.568 165.909 268.568C166.122 268.568 166.303 268.568 166.453 268.568C166.602 268.557 166.762 268.547 166.933 268.536C167.114 268.525 167.338 268.52 167.605 268.52C167.722 268.52 167.813 268.541 167.877 268.584C167.951 268.627 167.989 268.685 167.989 268.76C167.989 268.931 167.855 269.043 167.589 269.096C167.226 269.171 166.959 269.277 166.789 269.416C166.618 269.555 166.533 269.784 166.533 270.104C166.533 270.563 166.527 271.021 166.517 271.48C166.506 271.928 166.49 272.371 166.469 272.808C166.447 273.245 166.426 273.672 166.405 274.088C166.383 274.493 166.367 274.883 166.357 275.256C166.346 275.629 166.341 275.971 166.341 276.28C166.341 276.525 166.357 276.808 166.389 277.128C166.421 277.437 166.453 277.725 166.485 277.992C166.517 278.248 166.533 278.424 166.533 278.52C166.533 278.808 166.49 279.011 166.405 279.128C166.33 279.245 166.218 279.304 166.069 279.304ZM174.62 279.224C173.778 279.224 172.988 279.101 172.252 278.856C171.516 278.6 170.871 278.243 170.316 277.784C169.762 277.315 169.33 276.76 169.02 276.12C168.711 275.469 168.556 274.749 168.556 273.96C168.556 273.235 168.7 272.541 168.988 271.88C169.276 271.208 169.698 270.611 170.252 270.088C170.818 269.565 171.506 269.149 172.316 268.84C173.127 268.531 174.05 268.376 175.084 268.376C175.415 268.376 175.756 268.403 176.108 268.456C176.471 268.509 176.818 268.579 177.148 268.664C177.49 268.749 177.783 268.845 178.028 268.952C178.114 268.995 178.188 269.048 178.252 269.112C178.327 269.176 178.37 269.267 178.38 269.384C178.434 269.768 178.466 270.131 178.476 270.472C178.498 270.803 178.508 271.085 178.508 271.32C178.508 271.448 178.46 271.533 178.364 271.576C178.279 271.619 178.183 271.619 178.076 271.576C177.98 271.533 177.911 271.448 177.868 271.32C177.794 271.107 177.708 270.883 177.612 270.648C177.527 270.413 177.394 270.211 177.212 270.04C176.999 269.816 176.706 269.629 176.332 269.48C175.959 269.331 175.495 269.256 174.94 269.256C174.407 269.256 173.927 269.373 173.5 269.608C173.074 269.832 172.711 270.147 172.412 270.552C172.114 270.947 171.884 271.4 171.724 271.912C171.564 272.413 171.484 272.941 171.484 273.496C171.484 274.211 171.554 274.867 171.692 275.464C171.831 276.051 172.044 276.557 172.332 276.984C172.62 277.411 172.978 277.741 173.404 277.976C173.842 278.2 174.354 278.312 174.94 278.312C175.74 278.312 176.38 278.147 176.86 277.816C177.351 277.485 177.762 276.963 178.092 276.248C178.178 276.056 178.3 275.965 178.46 275.976C178.62 275.987 178.7 276.077 178.7 276.248C178.7 276.397 178.684 276.573 178.652 276.776C178.631 276.968 178.594 277.181 178.54 277.416C178.498 277.64 178.439 277.88 178.364 278.136C178.332 278.253 178.279 278.349 178.204 278.424C178.13 278.499 178.044 278.563 177.948 278.616C177.543 278.797 177.063 278.941 176.508 279.048C175.954 279.165 175.324 279.224 174.62 279.224ZM180.06 279.08C179.964 279.08 179.889 279.053 179.836 279C179.783 278.947 179.756 278.888 179.756 278.824C179.756 278.664 179.863 278.552 180.076 278.488C180.428 278.381 180.673 278.269 180.812 278.152C180.961 278.035 181.036 277.811 181.036 277.48V270.184C181.036 269.843 180.967 269.603 180.828 269.464C180.7 269.315 180.449 269.197 180.076 269.112C179.948 269.08 179.857 269.032 179.804 268.968C179.761 268.904 179.74 268.84 179.74 268.776C179.74 268.701 179.767 268.643 179.82 268.6C179.884 268.547 179.964 268.52 180.06 268.52C180.295 268.52 180.551 268.525 180.828 268.536C181.105 268.547 181.377 268.563 181.644 268.584C181.911 268.595 182.151 268.6 182.364 268.6C182.961 268.6 183.601 268.595 184.284 268.584C184.967 268.573 185.569 268.563 186.092 268.552C186.433 268.552 186.711 268.531 186.924 268.488C187.148 268.445 187.281 268.424 187.324 268.424C187.409 268.424 187.495 268.451 187.58 268.504C187.676 268.547 187.729 268.632 187.74 268.76C187.783 269.155 187.836 269.544 187.9 269.928C187.975 270.301 188.012 270.632 188.012 270.92C188.012 271.027 187.991 271.107 187.948 271.16C187.905 271.213 187.857 271.24 187.804 271.24C187.751 271.24 187.692 271.219 187.628 271.176C187.564 271.133 187.511 271.064 187.468 270.968C187.351 270.68 187.244 270.44 187.148 270.248C187.063 270.045 186.961 269.885 186.844 269.768C186.727 269.651 186.577 269.539 186.396 269.432C186.215 269.315 185.975 269.256 185.676 269.256H184.668C184.401 269.256 184.183 269.32 184.012 269.448C183.841 269.576 183.756 269.757 183.756 269.992V272.936C183.756 273.075 183.793 273.176 183.868 273.24C183.943 273.293 184.044 273.32 184.172 273.32H185.532C185.809 273.32 186.007 273.219 186.124 273.016C186.252 272.813 186.364 272.584 186.46 272.328C186.545 272.136 186.657 272.04 186.796 272.04C186.849 272.04 186.897 272.072 186.94 272.136C186.983 272.2 186.999 272.291 186.988 272.408C186.977 272.557 186.961 272.707 186.94 272.856C186.929 273.005 186.919 273.155 186.908 273.304C186.908 273.443 186.908 273.587 186.908 273.736C186.908 273.875 186.908 274.019 186.908 274.168C186.919 274.307 186.929 274.451 186.94 274.6C186.951 274.749 186.961 274.904 186.972 275.064C186.993 275.224 186.983 275.341 186.94 275.416C186.908 275.48 186.865 275.512 186.812 275.512C186.631 275.512 186.503 275.384 186.428 275.128C186.332 274.787 186.22 274.525 186.092 274.344C185.975 274.163 185.815 274.072 185.612 274.072H184.108C183.991 274.072 183.9 274.104 183.836 274.168C183.783 274.232 183.756 274.323 183.756 274.44V277.464C183.756 277.763 183.82 277.976 183.948 278.104C184.076 278.221 184.273 278.28 184.54 278.28H185.964C186.177 278.28 186.385 278.253 186.588 278.2C186.801 278.136 186.983 278.04 187.132 277.912C187.313 277.763 187.479 277.571 187.628 277.336C187.788 277.101 187.927 276.867 188.044 276.632C188.087 276.547 188.129 276.493 188.172 276.472C188.225 276.451 188.284 276.44 188.348 276.44C188.412 276.44 188.455 276.477 188.476 276.552C188.497 276.616 188.508 276.685 188.508 276.76C188.508 276.952 188.481 277.16 188.428 277.384C188.375 277.608 188.305 277.848 188.22 278.104C188.145 278.349 188.071 278.605 187.996 278.872C187.975 278.947 187.927 278.995 187.852 279.016C187.777 279.048 187.697 279.064 187.612 279.064C187.559 279.064 187.351 279.059 186.988 279.048C186.625 279.048 186.172 279.043 185.628 279.032C185.095 279.021 184.535 279.011 183.948 279C183.372 279 182.844 279 182.364 279C182.151 279 181.905 279.005 181.628 279.016C181.351 279.027 181.073 279.037 180.796 279.048C180.519 279.069 180.273 279.08 180.06 279.08Z" fill="#292929" fill-opacity="0.3"/>
</g>
<defs>
<linearGradient id="paint0_linear_1_2853" x1="72.5" y1="278.5" x2="262.959" y2="176.711" gradientUnits="userSpaceOnUse">
<stop stop-color="#FFD700"/>
<stop offset="0.302268" stop-color="#DEC956"/>
<stop offset="0.578532" stop-color="#69C3B3"/>
<stop offset="0.783532" stop-color="#ADA578"/>
<stop offset="1" stop-color="#C7AB15"/>
</linearGradient>
<linearGradient id="paint1_linear_1_2853" x1="72.5" y1="278.5" x2="262.959" y2="176.711" gradientUnits="userSpaceOnUse">
<stop stop-color="#FFD700"/>
<stop offset="0.302268" stop-color="#DEC956"/>
<stop offset="0.578532" stop-color="#69C3B3"/>
<stop offset="0.783532" stop-color="#ADA578"/>
<stop offset="1" stop-color="#C7AB15"/>
</linearGradient>
<linearGradient id="paint2_linear_1_2853" x1="72.5" y1="278.5" x2="262.959" y2="176.711" gradientUnits="userSpaceOnUse">
<stop stop-color="#FFD700"/>
<stop offset="0.302268" stop-color="#DEC956"/>
<stop offset="0.578532" stop-color="#69C3B3"/>
<stop offset="0.783532" stop-color="#ADA578"/>
<stop offset="1" stop-color="#C7AB15"/>
</linearGradient>
<linearGradient id="paint3_linear_1_2853" x1="72.5" y1="278.5" x2="262.959" y2="176.711" gradientUnits="userSpaceOnUse">
<stop stop-color="#FFD700"/>
<stop offset="0.302268" stop-color="#DEC956"/>
<stop offset="0.578532" stop-color="#69C3B3"/>
<stop offset="0.783532" stop-color="#ADA578"/>
<stop offset="1" stop-color="#C7AB15"/>
</linearGradient>
<linearGradient id="paint4_linear_1_2853" x1="72.5" y1="278.5" x2="262.959" y2="176.711" gradientUnits="userSpaceOnUse">
<stop stop-color="#FFD700"/>
<stop offset="0.302268" stop-color="#DEC956"/>
<stop offset="0.578532" stop-color="#69C3B3"/>
<stop offset="0.783532" stop-color="#ADA578"/>
<stop offset="1" stop-color="#C7AB15"/>
</linearGradient>
<linearGradient id="paint5_linear_1_2853" x1="72.5" y1="278.5" x2="262.959" y2="176.711" gradientUnits="userSpaceOnUse">
<stop stop-color="#FFD700"/>
<stop offset="0.302268" stop-color="#DEC956"/>
<stop offset="0.578532" stop-color="#69C3B3"/>
<stop offset="0.783532" stop-color="#ADA578"/>
<stop offset="1" stop-color="#C7AB15"/>
</linearGradient>
<linearGradient id="paint6_linear_1_2853" x1="72.5" y1="278.5" x2="262.959" y2="176.711" gradientUnits="userSpaceOnUse">
<stop stop-color="#FFD700"/>
<stop offset="0.302268" stop-color="#DEC956"/>
<stop offset="0.578532" stop-color="#69C3B3"/>
<stop offset="0.783532" stop-color="#ADA578"/>
<stop offset="1" stop-color="#C7AB15"/>
</linearGradient>
<clipPath id="clip0_1_2853">
<rect width="254" height="319" fill="white"/>
</clipPath>
</defs>
</svg>
