<svg width="254" height="319" viewBox="0 0 254 319" fill="none" xmlns="http://www.w3.org/2000/svg">
<g clip-path="url(#clip0_1_2841)">
<rect width="254" height="319" fill="#EBFFE6"/>
<path d="M13.6766 204.84C8.75656 204.84 5.09656 204.18 2.69656 202.86C0.416563 201.54 -0.723437 199.8 -0.723437 197.64C-0.723437 195.36 -0.303437 193.44 0.536563 191.88C1.37656 190.32 2.75656 189.54 4.67656 189.54C5.39656 189.54 6.41656 189.9 7.73656 190.62C9.05656 191.22 10.3166 191.94 11.5166 192.78C13.1966 193.74 14.9966 194.7 16.9166 195.66C18.9566 196.62 21.1166 197.1 23.3966 197.1C29.9966 197.1 35.7566 195.3 40.6766 191.7C45.5966 188.1 49.4366 183.48 52.1966 177.84C54.9566 172.08 56.3366 166.02 56.3366 159.66C56.3366 155.34 55.3766 151.68 53.4566 148.68C51.5366 145.68 48.4166 144.18 44.0966 144.18C42.2966 144.18 40.3166 144.48 38.1566 145.08C35.9966 145.68 33.9566 146.46 32.0366 147.42C31.4366 147.54 30.7766 147.54 30.0566 147.42C29.4566 147.18 29.1566 146.58 29.1566 145.62C29.1566 144.42 29.6366 143.34 30.5966 142.38C31.5566 141.42 32.6966 140.58 34.0166 139.86C35.3366 139.14 36.4766 138.54 37.4366 138.06C40.5566 136.86 43.7966 135.36 47.1566 133.56C50.6366 131.64 53.8766 129.42 56.8766 126.9C59.8766 124.26 62.2766 121.38 64.0766 118.26C65.9966 115.14 66.9566 111.84 66.9566 108.36C66.9566 104.76 65.9366 101.76 63.8966 99.36C61.8566 96.96 59.0966 95.76 55.6166 95.76C50.8166 95.76 46.6766 96.9 43.1966 99.18C39.8366 101.46 36.6566 104.82 33.6566 109.26C33.0566 110.1 32.5166 110.82 32.0366 111.42C31.6766 111.9 31.0766 112.14 30.2366 112.14C29.7566 112.14 29.0366 111.54 28.0766 110.34C27.2366 109.02 26.8166 107.76 26.8166 106.56C26.8166 105.12 27.8966 103.2 30.0566 100.8C32.3366 98.28 35.3366 95.82 39.0566 93.42C42.7766 90.9 46.7966 88.8 51.1166 87.12C55.4366 85.44 59.6366 84.6 63.7166 84.6C68.0366 84.6 71.8766 85.38 75.2366 86.94C78.5966 88.5 81.1766 90.66 82.9766 93.42C84.8966 96.06 85.8566 99.06 85.8566 102.42C85.8566 105.66 85.0166 108.78 83.3366 111.78C81.6566 114.66 79.4366 117.42 76.6766 120.06C73.9166 122.7 70.7966 125.16 67.3166 127.44C63.9566 129.6 60.4766 131.46 56.8766 133.02C56.5166 133.14 56.2766 133.38 56.1566 133.74C56.0366 133.98 56.2166 134.16 56.6966 134.28C60.4166 134.76 63.8366 135.84 66.9566 137.52C70.0766 139.2 72.5366 141.6 74.3366 144.72C76.2566 147.72 77.2166 151.38 77.2166 155.7C77.2166 160.5 75.8966 165.36 73.2566 170.28C70.7366 175.08 67.1966 179.64 62.6366 183.96C58.1966 188.28 53.1566 192.06 47.5166 195.3C42.2366 198.42 36.6566 200.76 30.7766 202.32C24.8966 204 19.1966 204.84 13.6766 204.84ZM99.9092 200.88C99.0692 200.88 98.1092 200.64 97.0292 200.16C96.0692 199.68 95.1692 198.96 94.3292 198C93.6092 197.16 93.2492 196.26 93.2492 195.3C93.2492 193.98 93.5492 192.48 94.1492 190.8C94.7492 189 95.5292 186.78 96.4892 184.14L113.589 139.68C114.189 138.24 114.369 136.98 114.129 135.9C114.009 134.7 113.349 134.1 112.149 134.1C110.229 134.1 108.489 134.4 106.929 135C105.369 135.6 103.989 136.32 102.789 137.16C102.069 137.64 101.349 137.76 100.629 137.52C99.9092 137.28 99.5492 136.68 99.5492 135.72C99.4292 134.28 100.029 132.72 101.349 131.04C102.789 129.36 104.589 127.86 106.749 126.54C108.549 125.22 110.649 124.2 113.049 123.48C115.449 122.64 117.849 122.22 120.249 122.22C123.609 122.22 125.829 123.12 126.909 124.92C127.989 126.6 128.289 128.94 127.809 131.94C127.449 134.82 126.489 138.12 124.929 141.84L117.189 160.74C116.709 161.58 116.829 162.12 117.549 162.36C118.389 162.6 118.989 162.36 119.349 161.64C123.909 153.6 128.469 146.64 133.029 140.76C137.709 134.76 142.089 130.08 146.169 126.72C150.369 123.36 154.149 121.68 157.509 121.68C160.869 121.68 163.269 122.64 164.709 124.56C166.269 126.48 167.049 128.82 167.049 131.58C167.049 134.1 166.509 136.62 165.429 139.14C164.469 141.66 163.149 143.76 161.469 145.44C159.909 147 158.289 147.78 156.609 147.78C155.409 147.78 154.509 147.18 153.909 145.98C153.429 144.78 153.069 143.1 152.829 140.94C152.709 139.14 152.349 137.64 151.749 136.44C151.269 135.12 150.369 134.46 149.049 134.46C147.489 134.46 145.689 135.48 143.649 137.52C141.609 139.44 139.149 142.5 136.269 146.7C135.069 148.38 133.449 150.78 131.409 153.9C129.369 156.9 127.209 160.26 124.929 163.98C122.649 167.7 120.369 171.42 118.089 175.14C115.809 178.86 113.829 182.22 112.149 185.22C109.269 190.38 106.929 194.28 105.129 196.92C103.329 199.56 101.589 200.88 99.9092 200.88ZM172.687 200.52C168.967 200.52 165.907 199.26 163.507 196.74C161.107 194.1 159.907 190.8 159.907 186.84C159.907 182.28 160.867 177.3 162.787 171.9C164.707 166.38 167.287 160.8 170.527 155.16C173.887 149.4 177.727 144.06 182.047 139.14C186.967 133.5 191.827 129.18 196.627 126.18C201.547 123.06 206.047 121.5 210.127 121.5C212.167 121.5 213.907 121.92 215.347 122.76C216.907 123.48 219.187 124.8 222.187 126.72C224.107 127.92 225.247 128.64 225.607 128.88C225.967 129 226.087 129.06 225.967 129.06C226.447 129.06 226.807 128.58 227.047 127.62L237.847 91.8C238.327 90.36 238.627 89.28 238.747 88.56C238.987 87.84 239.107 87.42 239.107 87.3C239.227 87.06 239.227 86.88 239.107 86.76C239.107 86.52 239.107 86.28 239.107 86.04C239.107 84.84 238.687 83.82 237.847 82.98C237.007 82.02 235.507 81.18 233.347 80.46C231.067 79.5 229.687 78.9 229.207 78.66C228.727 78.42 228.487 78.12 228.487 77.76C228.487 76.92 228.907 76.26 229.747 75.78C230.707 75.3 232.267 74.82 234.427 74.34C236.107 73.98 238.027 73.62 240.187 73.26C242.467 72.78 244.627 72.42 246.667 72.18C248.827 71.82 250.687 71.52 252.247 71.28C253.927 71.04 255.067 70.92 255.667 70.92C257.587 70.92 258.547 71.76 258.547 73.44C258.547 74.28 258.487 75.06 258.367 75.78C258.247 76.5 257.947 77.46 257.467 78.66L227.047 178.2C226.927 179.04 226.747 179.82 226.507 180.54C226.387 181.26 226.327 181.98 226.327 182.7C226.327 184.86 227.047 185.94 228.487 185.94C229.807 185.94 231.487 185.4 233.527 184.32C235.567 183.12 237.667 181.62 239.827 179.82C241.987 177.9 243.847 175.92 245.407 173.88C245.767 173.52 246.007 173.34 246.127 173.34C246.247 173.22 246.427 173.16 246.667 173.16C247.867 173.16 248.347 173.76 248.107 174.96C248.107 176.4 247.387 178.26 245.947 180.54C244.507 182.7 242.587 184.92 240.187 187.2C237.907 189.48 235.387 191.64 232.627 193.68C229.987 195.72 227.347 197.34 224.707 198.54C222.187 199.86 220.027 200.52 218.227 200.52C216.787 200.52 215.347 200.1 213.907 199.26C212.467 198.42 211.267 197.34 210.307 196.02C209.347 194.58 208.867 193.14 208.867 191.7C208.867 191.1 209.107 189.6 209.587 187.2C209.947 185.88 210.427 184.26 211.027 182.34C211.627 180.42 212.227 178.56 212.827 176.76C213.427 174.96 213.847 173.64 214.087 172.8C214.327 171.96 214.327 172.02 214.087 172.98C214.327 172.14 214.267 171.54 213.907 171.18C213.547 170.82 213.187 170.94 212.827 171.54C204.547 181.86 197.287 189.3 191.047 193.86C184.807 198.3 178.687 200.52 172.687 200.52ZM182.407 188.82C185.287 188.82 188.527 187.74 192.127 185.58C195.727 183.3 199.267 180.36 202.747 176.76C206.227 173.04 209.467 168.96 212.467 164.52C215.467 160.08 217.807 155.7 219.487 151.38C221.287 146.94 222.187 142.86 222.187 139.14C222.187 135.78 221.467 133.14 220.027 131.22C218.587 129.3 216.487 128.34 213.727 128.34C211.207 128.34 208.267 129.6 204.907 132.12C201.667 134.64 198.367 137.94 195.007 142.02C191.767 146.1 188.707 150.54 185.827 155.34C183.067 160.14 180.787 164.94 178.987 169.74C177.307 174.54 176.467 178.74 176.467 182.34C176.467 184.74 176.887 186.42 177.727 187.38C178.687 188.34 180.247 188.82 182.407 188.82Z" fill="black" fill-opacity="0.03"/>
<path d="M155.444 130.109C155.444 145.24 142.907 157.507 127.443 157.507C111.978 157.507 99.4409 145.24 99.4409 130.109C99.4409 118.269 107.118 108.182 117.868 104.356C120.855 103.292 124.079 102.712 127.443 102.712C134.317 102.712 140.614 105.136 145.487 109.158C151.576 114.184 155.444 121.705 155.444 130.109Z" fill="url(#paint0_linear_1_2841)"/>
<path d="M117.868 104.356C120.855 103.292 124.079 102.712 127.443 102.712C134.317 102.712 140.614 105.136 145.487 109.158C150.663 111.04 154.477 112.828 157.459 115.605C161.715 118.659 164.435 123.208 165.92 130.109C166.8 136.442 165.555 139.75 163.301 145.42C159.144 153.358 154.474 157.959 148.998 161.334C143.812 164.695 138.079 166.996 130.061 167.378H124.824C119.435 167.071 114.306 166.577 109.715 163.752C102.605 160.409 97.6156 155.274 93.5988 148.643C91.0385 144.53 89.7809 137.776 90.3756 130.109C92.8537 118.05 98.6024 112.668 110.722 104.356L125.025 94.0496V92.438H120.392C110.543 99.4683 105.031 103.196 95.8147 109.964C81.4874 121.392 78.1406 130.644 78.8929 144.211C79.3832 151.278 81.3587 155.791 84.332 160.126C86.8878 163.351 88.9912 166.172 91.5843 168.586C98.0583 174.615 105.476 178.262 115.154 180.472C118.137 181.5 120.921 181.525 124.824 181.882H130.061C140.915 181.013 148.663 178.548 154.84 174.63C160.802 171.381 165.594 167.457 169.336 161.939C172.79 157.447 174.76 152.038 175.388 145.42C175.295 136.593 174.25 129.032 170.352 123.059C166.105 115.291 159.745 110.569 153.027 106.942C146.841 103.957 139.439 102.341 130.061 102.108L124.824 102.309C121.846 102.736 120.391 103.281 117.868 104.356Z" fill="url(#paint1_linear_1_2841)"/>
<path fill-rule="evenodd" clip-rule="evenodd" d="M66 89.8192H188.684V193.768H66V89.8192ZM186.468 191.149H68.4174V92.438H186.468V191.149Z" fill="url(#paint2_linear_1_2841)"/>
<path d="M124.824 92.2366H130.061V213.913H124.824V92.2366Z" fill="url(#paint3_linear_1_2841)"/>
<path d="M130.061 213.107C130.061 220.228 124.289 226 117.169 226C110.048 226 104.276 220.228 104.276 213.107C104.276 205.987 110.048 200.214 117.169 200.214C124.289 200.214 130.061 205.987 130.061 213.107Z" fill="url(#paint4_linear_1_2841)"/>
<path d="M125.025 201.826L124.219 202.43L122.809 203.639L125.227 205.049C125.629 205.251 126.476 205.613 126.637 205.452C126.798 205.291 127.241 203.639 127.443 202.833L125.025 201.826Z" fill="url(#paint5_linear_1_2841)"/>
<path fill-rule="evenodd" clip-rule="evenodd" d="M124.219 89.8192C124.38 89.8192 124.555 89.4163 124.824 89.2148V52.3493C126.073 44.0903 128.621 39.5301 132.076 36.6361C134.747 34.3982 138.126 32.9136 142.954 33.01C147.518 32.8383 151.409 34.9046 153.833 37.039C155.295 38.5499 156.221 40.4803 157.459 42.6797C158.561 45.2248 159.664 48.206 159.473 52.3493C159.228 56.1195 158.552 59.5067 157.454 62.6233C152.526 73.5454 144.157 81.009 131.472 89.8192H124.219ZM130.061 52.3493V85.7902C145.697 73.6872 154.341 66.8821 154.638 52.3493C153.766 46.3414 152.716 42.3161 149.804 39.8593C148.198 38.5048 146.166 37.3912 142.954 37.2405C140.073 37.1688 137.852 38.6384 136.105 39.8593C132.832 42.1473 131.225 45.778 130.061 52.3493Z" fill="url(#paint6_linear_1_2841)"/>
<path d="M57.1131 258.504C56.0811 258.504 55.0731 258.384 54.0891 258.144C53.1051 257.928 52.1811 257.556 51.3171 257.028C51.1491 256.908 50.9811 256.776 50.8131 256.632C50.6691 256.464 50.5611 256.296 50.4891 256.128C50.2251 255.432 50.0451 254.604 49.9491 253.644C49.8531 252.66 49.8291 251.64 49.8771 250.584C49.8771 250.416 49.9371 250.296 50.0571 250.224C50.2011 250.152 50.3691 250.116 50.5611 250.116C50.8251 250.116 50.9931 250.152 51.0651 250.224C51.1611 250.296 51.2571 250.416 51.3531 250.584C51.9051 252.36 52.7091 253.836 53.7651 255.012C54.8451 256.188 56.1171 256.776 57.5811 256.776C58.3251 256.776 58.9251 256.608 59.3811 256.272C59.8611 255.912 60.2091 255.48 60.4251 254.976C60.6651 254.448 60.7851 253.944 60.7851 253.464C60.7851 252.744 60.6411 252.132 60.3531 251.628C60.0651 251.124 59.6211 250.656 59.0211 250.224C58.4211 249.792 57.6411 249.324 56.6811 248.82C55.6731 248.268 54.6891 247.668 53.7291 247.02C52.7931 246.372 52.0251 245.58 51.4251 244.644C50.8251 243.708 50.5251 242.532 50.5251 241.116C50.5251 239.676 50.9091 238.44 51.6771 237.408C52.4691 236.352 53.5131 235.536 54.8091 234.96C56.1291 234.384 57.5691 234.096 59.1291 234.096C60.0411 234.096 60.9291 234.192 61.7931 234.384C62.6811 234.576 63.3891 234.78 63.9171 234.996C64.2291 235.116 64.4451 235.248 64.5651 235.392C64.6851 235.512 64.8051 235.776 64.9251 236.184C65.0451 236.688 65.1291 237.312 65.1771 238.056C65.2491 238.776 65.2851 239.604 65.2851 240.54C65.2851 240.852 65.0571 241.008 64.6011 241.008C64.4091 241.008 64.2171 240.96 64.0251 240.864C63.8571 240.744 63.7491 240.6 63.7011 240.432C63.3171 238.944 62.7171 237.828 61.9011 237.084C61.0851 236.316 60.0891 235.932 58.9131 235.932C58.1691 235.932 57.5571 236.052 57.0771 236.292C56.6211 236.532 56.2731 236.88 56.0331 237.336C55.8171 237.768 55.7091 238.32 55.7091 238.992C55.7091 239.52 55.9011 240.024 56.2851 240.504C56.6691 240.984 57.2211 241.476 57.9411 241.98C58.6851 242.46 59.5491 243 60.5331 243.6C61.9251 244.416 63.0051 245.208 63.7731 245.976C64.5411 246.744 65.0811 247.548 65.3931 248.388C65.7051 249.204 65.8611 250.14 65.8611 251.196C65.8611 252.9 65.4891 254.292 64.7451 255.372C64.0251 256.452 63.0051 257.244 61.6851 257.748C60.3891 258.252 58.8651 258.504 57.1131 258.504ZM68.3091 258.108C68.1651 258.108 68.0211 258.06 67.8771 257.964C67.7331 257.868 67.6611 257.736 67.6611 257.568C67.6611 257.16 67.8891 256.896 68.3451 256.776C69.2571 256.584 69.8811 256.344 70.2171 256.056C70.5531 255.768 70.7211 255.252 70.7211 254.508V238.164C70.7211 237.396 70.5651 236.856 70.2531 236.544C69.9411 236.232 69.3051 235.968 68.3451 235.752C67.8891 235.632 67.6611 235.368 67.6611 234.96C67.6611 234.792 67.7331 234.66 67.8771 234.564C68.0211 234.468 68.1651 234.42 68.3091 234.42C68.8371 234.42 69.4251 234.432 70.0731 234.456C70.7451 234.48 71.3931 234.516 72.0171 234.564C72.6651 234.588 73.2291 234.6 73.7091 234.6C74.1891 234.6 74.7651 234.588 75.4371 234.564C76.1091 234.54 76.7931 234.516 77.4891 234.492C78.1851 234.468 78.7851 234.456 79.2891 234.456C79.4811 234.456 79.6251 234.504 79.7211 234.6C79.8171 234.672 79.8651 234.804 79.8651 234.996C79.8651 235.236 79.8051 235.404 79.6851 235.5C79.5651 235.596 79.3971 235.68 79.1811 235.752C78.1971 236.04 77.5611 236.34 77.2731 236.652C76.9851 236.964 76.8411 237.48 76.8411 238.2V254.472C76.8411 255.144 76.9971 255.636 77.3091 255.948C77.6211 256.236 78.2451 256.512 79.1811 256.776C79.3971 256.848 79.5651 256.932 79.6851 257.028C79.8051 257.124 79.8651 257.292 79.8651 257.532C79.8651 257.7 79.8171 257.832 79.7211 257.928C79.6251 258.024 79.4811 258.072 79.2891 258.072C78.7851 258.072 78.1851 258.06 77.4891 258.036C76.7931 258.012 76.1091 257.988 75.4371 257.964C74.7651 257.94 74.1891 257.928 73.7091 257.928C73.2291 257.928 72.6651 257.94 72.0171 257.964C71.3931 257.988 70.7451 258.012 70.0731 258.036C69.4251 258.084 68.8371 258.108 68.3091 258.108ZM104.998 258.684C104.662 258.684 104.134 258.492 103.414 258.108C102.718 257.748 101.974 257.088 101.182 256.128C100.51 255.408 99.8382 254.7 99.1662 254.004C98.5182 253.284 97.8582 252.576 97.1862 251.88C96.5142 251.16 95.8422 250.452 95.1702 249.756C94.4982 249.036 93.8262 248.328 93.1542 247.632C92.5062 246.936 91.8462 246.24 91.1742 245.544C90.5022 244.824 89.8302 244.116 89.1582 243.42C88.5102 242.7 87.8502 241.98 87.1782 241.26C87.1542 241.212 87.0942 241.14 86.9982 241.044C86.9022 240.948 86.8302 240.9 86.7822 240.9C86.6862 240.9 86.6142 240.984 86.5662 241.152C86.5422 241.32 86.5302 241.464 86.5302 241.584C86.5302 242.664 86.5422 243.948 86.5662 245.436C86.6142 246.924 86.6502 248.424 86.6742 249.936C86.7222 251.424 86.7462 252.756 86.7462 253.932C86.7462 254.748 86.9982 255.372 87.5022 255.804C88.0302 256.212 88.7742 256.536 89.7342 256.776C89.9502 256.824 90.1662 256.908 90.3822 257.028C90.5982 257.124 90.7062 257.292 90.7062 257.532C90.7062 257.7 90.6102 257.832 90.4182 257.928C90.2262 258.024 90.0342 258.072 89.8422 258.072C89.1942 258.072 88.6542 258.06 88.2222 258.036C87.7902 258.012 87.3822 258 86.9982 258C86.6382 257.976 86.2062 257.964 85.7022 257.964C85.1502 257.964 84.6102 257.976 84.0822 258C83.5782 258.024 83.1582 258.048 82.8222 258.072C82.5102 258.096 82.3542 258.108 82.3542 258.108C82.2102 258.108 82.0302 258.06 81.8142 257.964C81.6222 257.868 81.5262 257.736 81.5262 257.568C81.5262 257.352 81.6102 257.196 81.7782 257.1C81.9702 256.98 82.1742 256.872 82.3902 256.776C82.9422 256.56 83.3622 256.2 83.6502 255.696C83.9622 255.192 84.1422 254.58 84.1902 253.86C84.2862 252.972 84.3822 251.796 84.4782 250.332C84.5982 248.868 84.7062 247.224 84.8022 245.4C84.8982 243.576 84.9462 241.68 84.9462 239.712C84.9462 238.464 84.6342 237.564 84.0102 237.012C83.3862 236.46 82.6302 236.016 81.7422 235.68C81.5262 235.632 81.3102 235.548 81.0942 235.428C80.8782 235.284 80.7702 235.104 80.7702 234.888C80.7702 234.672 80.8542 234.528 81.0222 234.456C81.2142 234.36 81.4422 234.312 81.7062 234.312C82.0902 234.312 82.5582 234.324 83.1102 234.348C83.6862 234.372 84.2982 234.396 84.9462 234.42C85.6182 234.42 86.3022 234.432 86.9982 234.456C87.6942 234.48 88.3662 234.492 89.0142 234.492C89.2062 234.492 89.3502 234.528 89.4462 234.6C89.5662 234.648 89.6622 234.732 89.7342 234.852C90.3582 235.548 90.9822 236.256 91.6062 236.976C92.2542 237.672 92.8902 238.368 93.5142 239.064C94.1622 239.76 94.7982 240.456 95.4222 241.152C96.0702 241.848 96.7062 242.556 97.3302 243.276C97.9542 243.972 98.5782 244.668 99.2022 245.364C99.8502 246.06 100.486 246.768 101.11 247.488C101.758 248.184 102.394 248.88 103.018 249.576C103.09 249.672 103.174 249.768 103.27 249.864C103.366 249.96 103.45 250.008 103.522 250.008C103.714 250.008 103.81 249.84 103.81 249.504C103.81 248.664 103.81 247.752 103.81 246.768C103.81 245.76 103.81 244.74 103.81 243.708C103.81 242.652 103.798 241.644 103.774 240.684C103.774 239.7 103.75 238.836 103.702 238.092C103.678 237.396 103.426 236.892 102.946 236.58C102.49 236.268 101.806 235.992 100.894 235.752C100.678 235.704 100.486 235.632 100.318 235.536C100.15 235.416 100.066 235.236 100.066 234.996C100.066 234.828 100.15 234.696 100.318 234.6C100.486 234.504 100.654 234.456 100.822 234.456C101.47 234.456 101.998 234.468 102.406 234.492C102.814 234.492 103.186 234.504 103.522 234.528C103.858 234.528 104.23 234.528 104.638 234.528C105.118 234.528 105.526 234.528 105.862 234.528C106.198 234.504 106.558 234.48 106.942 234.456C107.35 234.432 107.854 234.42 108.454 234.42C108.718 234.42 108.922 234.468 109.066 234.564C109.234 234.66 109.318 234.792 109.318 234.96C109.318 235.344 109.018 235.596 108.418 235.716C107.602 235.884 107.002 236.124 106.618 236.436C106.234 236.748 106.042 237.264 106.042 237.984C106.042 239.016 106.03 240.048 106.006 241.08C105.982 242.088 105.946 243.084 105.898 244.068C105.85 245.052 105.802 246.012 105.754 246.948C105.706 247.86 105.67 248.736 105.646 249.576C105.622 250.416 105.61 251.184 105.61 251.88C105.61 252.432 105.646 253.068 105.718 253.788C105.79 254.484 105.862 255.132 105.934 255.732C106.006 256.308 106.042 256.704 106.042 256.92C106.042 257.568 105.946 258.024 105.754 258.288C105.586 258.552 105.334 258.684 104.998 258.684ZM123.231 258.504C121.479 258.504 119.835 258.228 118.299 257.676C116.787 257.1 115.443 256.296 114.267 255.264C113.115 254.208 112.215 252.96 111.567 251.52C110.919 250.056 110.595 248.436 110.595 246.66C110.595 245.028 110.907 243.468 111.531 241.98C112.155 240.468 113.055 239.124 114.231 237.948C115.431 236.772 116.871 235.836 118.551 235.14C120.255 234.444 122.163 234.096 124.275 234.096C124.779 234.096 125.355 234.132 126.003 234.204C126.651 234.276 127.311 234.372 127.983 234.492C128.679 234.612 129.327 234.756 129.927 234.924C130.551 235.068 131.079 235.224 131.511 235.392C131.727 235.488 131.907 235.608 132.051 235.752C132.195 235.896 132.279 236.1 132.303 236.364C132.423 237.228 132.519 238.044 132.591 238.812C132.687 239.556 132.735 240.192 132.735 240.72C132.735 240.96 132.675 241.14 132.555 241.26C132.459 241.38 132.315 241.44 132.123 241.44C131.835 241.44 131.619 241.38 131.475 241.26C131.355 241.116 131.235 240.936 131.115 240.72C130.899 240.24 130.635 239.736 130.323 239.208C130.011 238.656 129.651 238.176 129.243 237.768C128.931 237.456 128.583 237.18 128.199 236.94C127.815 236.676 127.359 236.472 126.831 236.328C126.303 236.16 125.667 236.076 124.923 236.076C123.651 236.076 122.523 236.34 121.539 236.868C120.579 237.372 119.775 238.08 119.127 238.992C118.479 239.88 117.987 240.9 117.651 242.052C117.339 243.18 117.183 244.368 117.183 245.616C117.183 247.224 117.303 248.7 117.543 250.044C117.807 251.364 118.203 252.504 118.731 253.464C119.283 254.424 119.979 255.168 120.819 255.696C121.659 256.2 122.667 256.452 123.843 256.452C124.275 256.452 124.659 256.368 124.995 256.2C125.355 256.008 125.655 255.828 125.895 255.66C126.135 255.492 126.315 255.204 126.435 254.796C126.579 254.388 126.663 253.932 126.687 253.428C126.711 253.212 126.723 252.9 126.723 252.492C126.723 252.06 126.723 251.64 126.723 251.232C126.747 250.8 126.759 250.476 126.759 250.26C126.759 249.996 126.687 249.756 126.543 249.54C126.423 249.3 126.183 249.108 125.823 248.964C125.583 248.868 125.343 248.784 125.103 248.712C124.887 248.616 124.659 248.544 124.419 248.496C124.203 248.424 123.987 248.364 123.771 248.316C123.555 248.268 123.351 248.172 123.159 248.028C122.967 247.884 122.871 247.704 122.871 247.488C122.871 247.32 122.955 247.188 123.123 247.092C123.291 246.996 123.471 246.948 123.663 246.948C124.191 246.948 124.803 246.96 125.499 246.984C126.219 247.008 126.927 247.044 127.623 247.092C128.319 247.116 128.907 247.128 129.387 247.128C130.083 247.128 130.851 247.104 131.691 247.056C132.555 247.008 133.359 246.984 134.103 246.984C134.295 246.984 134.439 247.032 134.535 247.128C134.631 247.2 134.679 247.332 134.679 247.524C134.679 247.764 134.619 247.944 134.499 248.064C134.379 248.16 134.211 248.232 133.995 248.28C133.275 248.472 132.783 248.7 132.519 248.964C132.279 249.204 132.111 249.564 132.015 250.044C131.919 250.572 131.847 251.04 131.799 251.448C131.775 251.832 131.763 252.264 131.763 252.744V253.968C131.763 254.088 131.811 254.208 131.907 254.328C132.027 254.448 132.147 254.568 132.267 254.688C132.387 254.808 132.471 254.94 132.519 255.084C132.591 255.204 132.627 255.336 132.627 255.48C132.627 255.648 132.567 255.816 132.447 255.984C132.327 256.128 132.135 256.224 131.871 256.272C131.679 256.296 131.343 256.428 130.863 256.668C130.407 256.884 129.819 257.136 129.099 257.424C128.379 257.712 127.527 257.964 126.543 258.18C125.559 258.396 124.455 258.504 123.231 258.504ZM136.688 258.108C136.544 258.108 136.4 258.06 136.256 257.964C136.112 257.868 136.04 257.736 136.04 257.568C136.04 257.16 136.268 256.896 136.724 256.776C137.636 256.584 138.26 256.344 138.596 256.056C138.932 255.768 139.1 255.252 139.1 254.508V238.164C139.1 237.396 138.944 236.856 138.632 236.544C138.32 236.232 137.684 235.968 136.724 235.752C136.268 235.632 136.04 235.368 136.04 234.96C136.04 234.792 136.112 234.66 136.256 234.564C136.4 234.468 136.544 234.42 136.688 234.42C137.216 234.42 137.804 234.432 138.452 234.456C139.124 234.48 139.772 234.516 140.396 234.564C141.044 234.588 141.608 234.6 142.088 234.6C142.568 234.6 143.144 234.588 143.816 234.564C144.488 234.54 145.172 234.516 145.868 234.492C146.564 234.468 147.164 234.456 147.668 234.456C147.86 234.456 148.004 234.504 148.1 234.6C148.196 234.672 148.244 234.804 148.244 234.996C148.244 235.236 148.184 235.404 148.064 235.5C147.944 235.596 147.776 235.68 147.56 235.752C146.576 236.04 145.94 236.34 145.652 236.652C145.364 236.964 145.22 237.48 145.22 238.2V254.472C145.22 255.144 145.376 255.636 145.688 255.948C146 256.236 146.624 256.512 147.56 256.776C147.776 256.848 147.944 256.932 148.064 257.028C148.184 257.124 148.244 257.292 148.244 257.532C148.244 257.7 148.196 257.832 148.1 257.928C148.004 258.024 147.86 258.072 147.668 258.072C147.164 258.072 146.564 258.06 145.868 258.036C145.172 258.012 144.488 257.988 143.816 257.964C143.144 257.94 142.568 257.928 142.088 257.928C141.608 257.928 141.044 257.94 140.396 257.964C139.772 257.988 139.124 258.012 138.452 258.036C137.804 258.084 137.216 258.108 136.688 258.108ZM173.377 258.684C173.041 258.684 172.513 258.492 171.793 258.108C171.097 257.748 170.353 257.088 169.561 256.128C168.889 255.408 168.217 254.7 167.545 254.004C166.897 253.284 166.237 252.576 165.565 251.88C164.893 251.16 164.221 250.452 163.549 249.756C162.877 249.036 162.205 248.328 161.533 247.632C160.885 246.936 160.225 246.24 159.553 245.544C158.881 244.824 158.209 244.116 157.537 243.42C156.889 242.7 156.229 241.98 155.557 241.26C155.533 241.212 155.473 241.14 155.377 241.044C155.281 240.948 155.209 240.9 155.161 240.9C155.065 240.9 154.993 240.984 154.945 241.152C154.921 241.32 154.909 241.464 154.909 241.584C154.909 242.664 154.921 243.948 154.945 245.436C154.993 246.924 155.029 248.424 155.053 249.936C155.101 251.424 155.125 252.756 155.125 253.932C155.125 254.748 155.377 255.372 155.881 255.804C156.409 256.212 157.153 256.536 158.113 256.776C158.329 256.824 158.545 256.908 158.761 257.028C158.977 257.124 159.085 257.292 159.085 257.532C159.085 257.7 158.989 257.832 158.797 257.928C158.605 258.024 158.413 258.072 158.221 258.072C157.573 258.072 157.033 258.06 156.601 258.036C156.169 258.012 155.761 258 155.377 258C155.017 257.976 154.585 257.964 154.081 257.964C153.529 257.964 152.989 257.976 152.461 258C151.957 258.024 151.537 258.048 151.201 258.072C150.889 258.096 150.733 258.108 150.733 258.108C150.589 258.108 150.409 258.06 150.193 257.964C150.001 257.868 149.905 257.736 149.905 257.568C149.905 257.352 149.989 257.196 150.157 257.1C150.349 256.98 150.553 256.872 150.769 256.776C151.321 256.56 151.741 256.2 152.029 255.696C152.341 255.192 152.521 254.58 152.569 253.86C152.665 252.972 152.761 251.796 152.857 250.332C152.977 248.868 153.085 247.224 153.181 245.4C153.277 243.576 153.325 241.68 153.325 239.712C153.325 238.464 153.013 237.564 152.389 237.012C151.765 236.46 151.009 236.016 150.121 235.68C149.905 235.632 149.689 235.548 149.473 235.428C149.257 235.284 149.149 235.104 149.149 234.888C149.149 234.672 149.233 234.528 149.401 234.456C149.593 234.36 149.821 234.312 150.085 234.312C150.469 234.312 150.937 234.324 151.489 234.348C152.065 234.372 152.677 234.396 153.325 234.42C153.997 234.42 154.681 234.432 155.377 234.456C156.073 234.48 156.745 234.492 157.393 234.492C157.585 234.492 157.729 234.528 157.825 234.6C157.945 234.648 158.041 234.732 158.113 234.852C158.737 235.548 159.361 236.256 159.985 236.976C160.633 237.672 161.269 238.368 161.893 239.064C162.541 239.76 163.177 240.456 163.801 241.152C164.449 241.848 165.085 242.556 165.709 243.276C166.333 243.972 166.957 244.668 167.581 245.364C168.229 246.06 168.865 246.768 169.489 247.488C170.137 248.184 170.773 248.88 171.397 249.576C171.469 249.672 171.553 249.768 171.649 249.864C171.745 249.96 171.829 250.008 171.901 250.008C172.093 250.008 172.189 249.84 172.189 249.504C172.189 248.664 172.189 247.752 172.189 246.768C172.189 245.76 172.189 244.74 172.189 243.708C172.189 242.652 172.177 241.644 172.153 240.684C172.153 239.7 172.129 238.836 172.081 238.092C172.057 237.396 171.805 236.892 171.325 236.58C170.869 236.268 170.185 235.992 169.273 235.752C169.057 235.704 168.865 235.632 168.697 235.536C168.529 235.416 168.445 235.236 168.445 234.996C168.445 234.828 168.529 234.696 168.697 234.6C168.865 234.504 169.033 234.456 169.201 234.456C169.849 234.456 170.377 234.468 170.785 234.492C171.193 234.492 171.565 234.504 171.901 234.528C172.237 234.528 172.609 234.528 173.017 234.528C173.497 234.528 173.905 234.528 174.241 234.528C174.577 234.504 174.937 234.48 175.321 234.456C175.729 234.432 176.233 234.42 176.833 234.42C177.097 234.42 177.301 234.468 177.445 234.564C177.613 234.66 177.697 234.792 177.697 234.96C177.697 235.344 177.397 235.596 176.797 235.716C175.981 235.884 175.381 236.124 174.997 236.436C174.613 236.748 174.421 237.264 174.421 237.984C174.421 239.016 174.409 240.048 174.385 241.08C174.361 242.088 174.325 243.084 174.277 244.068C174.229 245.052 174.181 246.012 174.133 246.948C174.085 247.86 174.049 248.736 174.025 249.576C174.001 250.416 173.989 251.184 173.989 251.88C173.989 252.432 174.025 253.068 174.097 253.788C174.169 254.484 174.241 255.132 174.313 255.732C174.385 256.308 174.421 256.704 174.421 256.92C174.421 257.568 174.325 258.024 174.133 258.288C173.965 258.552 173.713 258.684 173.377 258.684ZM191.61 258.504C189.858 258.504 188.214 258.228 186.678 257.676C185.166 257.1 183.822 256.296 182.646 255.264C181.494 254.208 180.594 252.96 179.946 251.52C179.298 250.056 178.974 248.436 178.974 246.66C178.974 245.028 179.286 243.468 179.91 241.98C180.534 240.468 181.434 239.124 182.61 237.948C183.81 236.772 185.25 235.836 186.93 235.14C188.634 234.444 190.542 234.096 192.654 234.096C193.158 234.096 193.734 234.132 194.382 234.204C195.03 234.276 195.69 234.372 196.362 234.492C197.058 234.612 197.706 234.756 198.306 234.924C198.93 235.068 199.458 235.224 199.89 235.392C200.106 235.488 200.286 235.608 200.43 235.752C200.574 235.896 200.658 236.1 200.682 236.364C200.802 237.228 200.898 238.044 200.97 238.812C201.066 239.556 201.114 240.192 201.114 240.72C201.114 240.96 201.054 241.14 200.934 241.26C200.838 241.38 200.694 241.44 200.502 241.44C200.214 241.44 199.998 241.38 199.854 241.26C199.734 241.116 199.614 240.936 199.494 240.72C199.278 240.24 199.014 239.736 198.702 239.208C198.39 238.656 198.03 238.176 197.622 237.768C197.31 237.456 196.962 237.18 196.578 236.94C196.194 236.676 195.738 236.472 195.21 236.328C194.682 236.16 194.046 236.076 193.302 236.076C192.03 236.076 190.902 236.34 189.918 236.868C188.958 237.372 188.154 238.08 187.506 238.992C186.858 239.88 186.366 240.9 186.03 242.052C185.718 243.18 185.562 244.368 185.562 245.616C185.562 247.224 185.682 248.7 185.922 250.044C186.186 251.364 186.582 252.504 187.11 253.464C187.662 254.424 188.358 255.168 189.198 255.696C190.038 256.2 191.046 256.452 192.222 256.452C192.654 256.452 193.038 256.368 193.374 256.2C193.734 256.008 194.034 255.828 194.274 255.66C194.514 255.492 194.694 255.204 194.814 254.796C194.958 254.388 195.042 253.932 195.066 253.428C195.09 253.212 195.102 252.9 195.102 252.492C195.102 252.06 195.102 251.64 195.102 251.232C195.126 250.8 195.138 250.476 195.138 250.26C195.138 249.996 195.066 249.756 194.922 249.54C194.802 249.3 194.562 249.108 194.202 248.964C193.962 248.868 193.722 248.784 193.482 248.712C193.266 248.616 193.038 248.544 192.798 248.496C192.582 248.424 192.366 248.364 192.15 248.316C191.934 248.268 191.73 248.172 191.538 248.028C191.346 247.884 191.25 247.704 191.25 247.488C191.25 247.32 191.334 247.188 191.502 247.092C191.67 246.996 191.85 246.948 192.042 246.948C192.57 246.948 193.182 246.96 193.878 246.984C194.598 247.008 195.306 247.044 196.002 247.092C196.698 247.116 197.286 247.128 197.766 247.128C198.462 247.128 199.23 247.104 200.07 247.056C200.934 247.008 201.738 246.984 202.482 246.984C202.674 246.984 202.818 247.032 202.914 247.128C203.01 247.2 203.058 247.332 203.058 247.524C203.058 247.764 202.998 247.944 202.878 248.064C202.758 248.16 202.59 248.232 202.374 248.28C201.654 248.472 201.162 248.7 200.898 248.964C200.658 249.204 200.49 249.564 200.394 250.044C200.298 250.572 200.226 251.04 200.178 251.448C200.154 251.832 200.142 252.264 200.142 252.744V253.968C200.142 254.088 200.19 254.208 200.286 254.328C200.406 254.448 200.526 254.568 200.646 254.688C200.766 254.808 200.85 254.94 200.898 255.084C200.97 255.204 201.006 255.336 201.006 255.48C201.006 255.648 200.946 255.816 200.826 255.984C200.706 256.128 200.514 256.224 200.25 256.272C200.058 256.296 199.722 256.428 199.242 256.668C198.786 256.884 198.198 257.136 197.478 257.424C196.758 257.712 195.906 257.964 194.922 258.18C193.938 258.396 192.834 258.504 191.61 258.504Z" fill="#292929"/>
<path d="M64.7936 279.048C64.7296 279.048 64.6656 279.027 64.6016 278.984C64.5376 278.941 64.5056 278.883 64.5056 278.808C64.5056 278.627 64.607 278.509 64.8096 278.456C65.215 278.371 65.4923 278.264 65.6416 278.136C65.791 278.008 65.8656 277.779 65.8656 277.448V270.184C65.8656 269.843 65.7963 269.603 65.6576 269.464C65.5296 269.315 65.279 269.197 64.9056 269.112C64.7776 269.08 64.687 269.032 64.6336 268.968C64.591 268.904 64.5696 268.84 64.5696 268.776C64.5696 268.701 64.5963 268.643 64.6496 268.6C64.7136 268.547 64.7936 268.52 64.8896 268.52C65.1243 268.52 65.3803 268.525 65.6576 268.536C65.935 268.547 66.207 268.563 66.4736 268.584C66.7403 268.595 66.9803 268.6 67.1936 268.6C67.4496 268.6 67.6736 268.589 67.8656 268.568C68.0683 268.536 68.2923 268.509 68.5376 268.488C68.783 268.456 69.103 268.44 69.4976 268.44C70.8096 268.44 71.8496 268.723 72.6176 269.288C73.3856 269.843 73.7696 270.605 73.7696 271.576C73.7696 272.248 73.6256 272.872 73.3376 273.448C73.0496 274.013 72.6123 274.472 72.0256 274.824C71.4496 275.165 70.719 275.336 69.8336 275.336C69.5456 275.336 69.327 275.293 69.1776 275.208C69.0283 275.123 68.9536 275.016 68.9536 274.888C68.9536 274.803 68.991 274.739 69.0656 274.696C69.1403 274.653 69.2043 274.632 69.2576 274.632C69.3856 274.632 69.487 274.648 69.5616 274.68C69.647 274.701 69.759 274.712 69.8976 274.712C70.303 274.712 70.607 274.467 70.8096 273.976C71.023 273.475 71.1296 272.829 71.1296 272.04C71.1296 271.027 70.9856 270.301 70.6976 269.864C70.4203 269.416 70.0203 269.192 69.4976 269.192C69.199 269.192 68.975 269.261 68.8256 269.4C68.6763 269.539 68.6016 269.752 68.6016 270.04L68.5856 277.432C68.5856 277.763 68.6763 277.992 68.8576 278.12C69.0496 278.248 69.375 278.36 69.8336 278.456C69.9296 278.477 70.0043 278.515 70.0576 278.568C70.111 278.611 70.1376 278.685 70.1376 278.792C70.1376 278.867 70.1163 278.925 70.0736 278.968C70.031 279.011 69.967 279.032 69.8816 279.032C69.6576 279.032 69.375 279.027 69.0336 279.016C68.6923 279.005 68.351 278.995 68.0096 278.984C67.679 278.973 67.407 278.968 67.1936 278.968C66.9803 278.968 66.7296 278.973 66.4416 278.984C66.1643 278.995 65.8763 279.005 65.5776 279.016C65.2896 279.037 65.0283 279.048 64.7936 279.048ZM74.7319 279.08C74.6359 279.08 74.5612 279.053 74.5079 279C74.4545 278.947 74.4279 278.888 74.4279 278.824C74.4279 278.664 74.5345 278.552 74.7479 278.488C75.0999 278.381 75.3452 278.269 75.4839 278.152C75.6332 278.035 75.7079 277.811 75.7079 277.48V270.184C75.7079 269.843 75.6385 269.603 75.4999 269.464C75.3719 269.315 75.1212 269.197 74.7479 269.112C74.6199 269.08 74.5292 269.032 74.4759 268.968C74.4332 268.904 74.4119 268.84 74.4119 268.776C74.4119 268.701 74.4385 268.643 74.4919 268.6C74.5559 268.547 74.6359 268.52 74.7319 268.52C74.9665 268.52 75.2225 268.525 75.4999 268.536C75.7772 268.547 76.0492 268.563 76.3159 268.584C76.5825 268.595 76.8225 268.6 77.0359 268.6C77.6332 268.6 78.2732 268.595 78.9559 268.584C79.6385 268.573 80.2412 268.563 80.7639 268.552C81.1052 268.552 81.3825 268.531 81.5959 268.488C81.8199 268.445 81.9532 268.424 81.9959 268.424C82.0812 268.424 82.1665 268.451 82.2519 268.504C82.3479 268.547 82.4012 268.632 82.4119 268.76C82.4545 269.155 82.5079 269.544 82.5719 269.928C82.6465 270.301 82.6839 270.632 82.6839 270.92C82.6839 271.027 82.6625 271.107 82.6199 271.16C82.5772 271.213 82.5292 271.24 82.4759 271.24C82.4225 271.24 82.3639 271.219 82.2999 271.176C82.2359 271.133 82.1825 271.064 82.1399 270.968C82.0225 270.68 81.9159 270.44 81.8199 270.248C81.7345 270.045 81.6332 269.885 81.5159 269.768C81.3985 269.651 81.2492 269.539 81.0679 269.432C80.8865 269.315 80.6465 269.256 80.3479 269.256H79.3399C79.0732 269.256 78.8545 269.32 78.6839 269.448C78.5132 269.576 78.4279 269.757 78.4279 269.992V272.936C78.4279 273.075 78.4652 273.176 78.5399 273.24C78.6145 273.293 78.7159 273.32 78.8439 273.32H80.2039C80.4812 273.32 80.6785 273.219 80.7959 273.016C80.9239 272.813 81.0359 272.584 81.1319 272.328C81.2172 272.136 81.3292 272.04 81.4679 272.04C81.5212 272.04 81.5692 272.072 81.6119 272.136C81.6545 272.2 81.6705 272.291 81.6599 272.408C81.6492 272.557 81.6332 272.707 81.6119 272.856C81.6012 273.005 81.5905 273.155 81.5799 273.304C81.5799 273.443 81.5799 273.587 81.5799 273.736C81.5799 273.875 81.5799 274.019 81.5799 274.168C81.5905 274.307 81.6012 274.451 81.6119 274.6C81.6225 274.749 81.6332 274.904 81.6439 275.064C81.6652 275.224 81.6545 275.341 81.6119 275.416C81.5799 275.48 81.5372 275.512 81.4839 275.512C81.3025 275.512 81.1745 275.384 81.0999 275.128C81.0039 274.787 80.8919 274.525 80.7639 274.344C80.6465 274.163 80.4865 274.072 80.2839 274.072H78.7799C78.6625 274.072 78.5719 274.104 78.5079 274.168C78.4545 274.232 78.4279 274.323 78.4279 274.44V277.464C78.4279 277.763 78.4919 277.976 78.6199 278.104C78.7479 278.221 78.9452 278.28 79.2119 278.28H80.6359C80.8492 278.28 81.0572 278.253 81.2599 278.2C81.4732 278.136 81.6545 278.04 81.8039 277.912C81.9852 277.763 82.1505 277.571 82.2999 277.336C82.4599 277.101 82.5985 276.867 82.7159 276.632C82.7585 276.547 82.8012 276.493 82.8439 276.472C82.8972 276.451 82.9559 276.44 83.0199 276.44C83.0839 276.44 83.1265 276.477 83.1479 276.552C83.1692 276.616 83.1799 276.685 83.1799 276.76C83.1799 276.952 83.1532 277.16 83.0999 277.384C83.0465 277.608 82.9772 277.848 82.8919 278.104C82.8172 278.349 82.7425 278.605 82.6679 278.872C82.6465 278.947 82.5985 278.995 82.5239 279.016C82.4492 279.048 82.3692 279.064 82.2839 279.064C82.2305 279.064 82.0225 279.059 81.6599 279.048C81.2972 279.048 80.8439 279.043 80.2999 279.032C79.7665 279.021 79.2065 279.011 78.6199 279C78.0439 279 77.5159 279 77.0359 279C76.8225 279 76.5772 279.005 76.2999 279.016C76.0225 279.027 75.7452 279.037 75.4679 279.048C75.1905 279.069 74.9452 279.08 74.7319 279.08ZM93.7583 279.336C93.1609 279.336 92.6596 279.261 92.2543 279.112C91.8596 278.963 91.5289 278.771 91.2623 278.536C90.9956 278.291 90.7556 278.024 90.5423 277.736C90.3183 277.427 90.0996 277.117 89.8863 276.808C89.6729 276.488 89.4649 276.152 89.2623 275.8C89.0596 275.437 88.8569 275.037 88.6543 274.6C88.5476 274.365 88.4196 274.205 88.2703 274.12C88.2063 274.077 88.1369 274.051 88.0623 274.04C87.9983 274.019 87.9396 274.008 87.8863 274.008C87.8329 274.008 87.7903 274.04 87.7583 274.104C87.7369 274.157 87.7263 274.232 87.7263 274.328V277.432C87.7263 277.763 87.8169 277.992 87.9983 278.12C88.1903 278.248 88.5156 278.36 88.9743 278.456C89.0703 278.477 89.1449 278.515 89.1983 278.568C89.2516 278.611 89.2783 278.685 89.2783 278.792C89.2783 278.867 89.2569 278.925 89.2143 278.968C89.1716 279.011 89.1076 279.032 89.0223 279.032C88.7983 279.032 88.5156 279.027 88.1743 279.016C87.8329 279.005 87.4916 278.995 87.1503 278.984C86.8196 278.973 86.5476 278.968 86.3343 278.968C86.1209 278.968 85.8703 278.973 85.5823 278.984C85.3049 278.995 85.0169 279.005 84.7183 279.016C84.4303 279.037 84.1689 279.048 83.9342 279.048C83.8703 279.048 83.8063 279.027 83.7423 278.984C83.6783 278.941 83.6463 278.883 83.6463 278.808C83.6463 278.627 83.7476 278.509 83.9503 278.456C84.3556 278.371 84.6329 278.264 84.7823 278.136C84.9316 278.008 85.0063 277.779 85.0063 277.448V270.184C85.0063 269.949 84.9796 269.768 84.9263 269.64C84.8729 269.501 84.7769 269.395 84.6383 269.32C84.4996 269.235 84.3023 269.165 84.0463 269.112C83.9183 269.08 83.8276 269.032 83.7743 268.968C83.7316 268.904 83.7103 268.84 83.7103 268.776C83.7103 268.701 83.7369 268.643 83.7903 268.6C83.8543 268.547 83.9343 268.52 84.0303 268.52C84.3823 268.52 84.6756 268.531 84.9103 268.552C85.1449 268.573 85.3689 268.595 85.5823 268.616C85.7956 268.637 86.0409 268.648 86.3183 268.648C86.5743 268.648 86.7983 268.637 86.9903 268.616C87.1929 268.584 87.4169 268.557 87.6623 268.536C87.9076 268.504 88.2276 268.488 88.6223 268.488C89.8809 268.488 90.8516 268.701 91.5343 269.128C92.2276 269.544 92.5743 270.184 92.5743 271.048C92.5743 271.528 92.4676 271.933 92.2543 272.264C92.0409 272.584 91.7743 272.845 91.4543 273.048C91.1343 273.24 90.8089 273.384 90.4783 273.48C90.4356 273.491 90.4143 273.517 90.4143 273.56C90.4249 273.603 90.4409 273.64 90.4623 273.672C90.7823 274.141 91.0916 274.595 91.3903 275.032C91.6996 275.469 92.0089 275.875 92.3183 276.248C92.6276 276.611 92.9369 276.941 93.2463 277.24C93.6196 277.592 94.0036 277.8 94.3983 277.864C94.8036 277.928 95.1929 277.96 95.5663 277.96C95.7263 277.96 95.8063 278.061 95.8063 278.264C95.8063 278.52 95.7209 278.728 95.5503 278.888C95.3903 279.037 95.1556 279.149 94.8463 279.224C94.5369 279.299 94.1743 279.336 93.7583 279.336ZM88.2863 273.464C88.6703 273.464 88.9849 273.379 89.2303 273.208C89.4756 273.037 89.6569 272.803 89.7743 272.504C89.9023 272.195 89.9663 271.837 89.9663 271.432C89.9663 270.92 89.9023 270.504 89.7743 270.184C89.6463 269.864 89.4596 269.629 89.2143 269.48C88.9796 269.32 88.6916 269.24 88.3503 269.24C88.1369 269.24 87.9769 269.331 87.8703 269.512C87.7743 269.693 87.7263 270.093 87.7263 270.712C87.7263 270.947 87.7263 271.245 87.7263 271.608C87.7263 271.96 87.7263 272.376 87.7263 272.856C87.7263 273.069 87.7743 273.224 87.8703 273.32C87.9769 273.416 88.1156 273.464 88.2863 273.464ZM96.2467 279.048C96.1828 279.048 96.1188 279.027 96.0548 278.984C95.9908 278.941 95.9588 278.883 95.9588 278.808C95.9588 278.627 96.0601 278.509 96.2628 278.456C96.6681 278.371 96.9454 278.264 97.0948 278.136C97.2441 278.008 97.3188 277.779 97.3188 277.448V270.184C97.3188 269.843 97.2494 269.603 97.1108 269.464C96.9828 269.315 96.7321 269.197 96.3588 269.112C96.2308 269.08 96.1401 269.032 96.0868 268.968C96.0441 268.904 96.0228 268.84 96.0228 268.776C96.0228 268.701 96.0494 268.643 96.1028 268.6C96.1668 268.547 96.2468 268.52 96.3428 268.52C96.5774 268.52 96.8334 268.525 97.1108 268.536C97.3881 268.547 97.6601 268.563 97.9268 268.584C98.1934 268.595 98.4334 268.6 98.6468 268.6C99.0948 268.6 99.5801 268.6 100.103 268.6C100.636 268.6 101.143 268.6 101.623 268.6C102.081 268.6 102.497 268.573 102.871 268.52C103.255 268.456 103.564 268.424 103.799 268.424C103.884 268.424 103.969 268.451 104.055 268.504C104.151 268.547 104.204 268.632 104.215 268.76C104.236 269.027 104.252 269.299 104.263 269.576C104.273 269.853 104.279 270.12 104.279 270.376C104.289 270.621 104.295 270.84 104.295 271.032C104.295 271.245 104.225 271.352 104.087 271.352C104.033 271.352 103.969 271.331 103.895 271.288C103.82 271.245 103.772 271.176 103.751 271.08C103.676 270.803 103.591 270.552 103.495 270.328C103.409 270.093 103.292 269.901 103.143 269.752C103.004 269.613 102.839 269.512 102.647 269.448C102.465 269.373 102.236 269.336 101.959 269.336H100.951C100.684 269.336 100.465 269.4 100.295 269.528C100.124 269.656 100.039 269.837 100.039 270.072C100.039 270.253 100.039 270.472 100.039 270.728C100.039 270.973 100.039 271.187 100.039 271.368C100.039 271.603 100.039 271.859 100.039 272.136C100.039 272.413 100.039 272.675 100.039 272.92C100.039 273.059 100.076 273.16 100.151 273.224C100.225 273.277 100.327 273.304 100.455 273.304C100.7 273.304 100.945 273.304 101.191 273.304C101.447 273.304 101.697 273.304 101.943 273.304C102.22 273.304 102.417 273.219 102.535 273.048C102.663 272.877 102.775 272.675 102.871 272.44C102.913 272.344 102.961 272.275 103.015 272.232C103.079 272.179 103.143 272.152 103.207 272.152C103.26 272.152 103.308 272.184 103.351 272.248C103.393 272.312 103.409 272.403 103.399 272.52C103.377 272.755 103.356 272.979 103.335 273.192C103.324 273.395 103.319 273.576 103.319 273.736C103.319 273.949 103.324 274.125 103.335 274.264C103.345 274.403 103.361 274.595 103.383 274.84C103.404 275 103.393 275.117 103.351 275.192C103.319 275.256 103.276 275.288 103.223 275.288C103.148 275.288 103.073 275.251 102.999 275.176C102.924 275.101 102.871 275.011 102.839 274.904C102.743 274.573 102.631 274.349 102.503 274.232C102.385 274.115 102.225 274.056 102.023 274.056C101.905 274.056 101.783 274.056 101.655 274.056C101.527 274.056 101.404 274.056 101.287 274.056C101.137 274.056 100.983 274.056 100.823 274.056C100.663 274.056 100.508 274.056 100.359 274.056C100.241 274.056 100.151 274.088 100.087 274.152C100.033 274.216 100.007 274.307 100.007 274.424C100.007 274.904 100.012 275.405 100.023 275.928C100.033 276.451 100.039 276.952 100.039 277.432C100.039 277.763 100.129 277.992 100.311 278.12C100.503 278.248 100.828 278.36 101.287 278.456C101.383 278.477 101.457 278.515 101.511 278.568C101.564 278.611 101.591 278.685 101.591 278.792C101.591 278.867 101.569 278.925 101.527 278.968C101.484 279.011 101.42 279.032 101.335 279.032C101.111 279.032 100.828 279.027 100.487 279.016C100.145 279.005 99.8041 278.995 99.4628 278.984C99.1321 278.973 98.8601 278.968 98.6468 278.968C98.4334 278.968 98.1828 278.973 97.8948 278.984C97.6174 278.995 97.3294 279.005 97.0308 279.016C96.7428 279.037 96.4814 279.048 96.2467 279.048ZM110.578 279.224C109.831 279.224 109.122 279.101 108.45 278.856C107.778 278.6 107.181 278.243 106.658 277.784C106.135 277.315 105.725 276.76 105.426 276.12C105.127 275.469 104.978 274.749 104.978 273.96C104.978 273.235 105.101 272.541 105.346 271.88C105.591 271.208 105.954 270.611 106.434 270.088C106.925 269.565 107.527 269.149 108.242 268.84C108.957 268.531 109.783 268.376 110.722 268.376C111.469 268.376 112.178 268.504 112.85 268.76C113.522 269.005 114.119 269.363 114.642 269.832C115.165 270.291 115.575 270.845 115.874 271.496C116.173 272.136 116.322 272.851 116.322 273.64C116.322 274.355 116.199 275.048 115.954 275.72C115.709 276.392 115.341 276.989 114.85 277.512C114.37 278.035 113.773 278.451 113.058 278.76C112.343 279.069 111.517 279.224 110.578 279.224ZM110.866 278.472C111.431 278.472 111.901 278.301 112.274 277.96C112.658 277.619 112.946 277.149 113.138 276.552C113.33 275.944 113.426 275.251 113.426 274.472C113.426 273.832 113.367 273.197 113.25 272.568C113.133 271.939 112.951 271.368 112.706 270.856C112.461 270.333 112.146 269.917 111.762 269.608C111.389 269.299 110.935 269.144 110.402 269.144C109.847 269.144 109.378 269.315 108.994 269.656C108.621 269.997 108.338 270.467 108.146 271.064C107.965 271.661 107.874 272.349 107.874 273.128C107.874 273.768 107.933 274.403 108.05 275.032C108.167 275.661 108.343 276.237 108.578 276.76C108.823 277.272 109.133 277.688 109.506 278.008C109.89 278.317 110.343 278.472 110.866 278.472ZM127.071 279.336C126.473 279.336 125.972 279.261 125.567 279.112C125.172 278.963 124.841 278.771 124.575 278.536C124.308 278.291 124.068 278.024 123.855 277.736C123.631 277.427 123.412 277.117 123.199 276.808C122.985 276.488 122.777 276.152 122.575 275.8C122.372 275.437 122.169 275.037 121.967 274.6C121.86 274.365 121.732 274.205 121.583 274.12C121.519 274.077 121.449 274.051 121.375 274.04C121.311 274.019 121.252 274.008 121.199 274.008C121.145 274.008 121.103 274.04 121.071 274.104C121.049 274.157 121.039 274.232 121.039 274.328V277.432C121.039 277.763 121.129 277.992 121.311 278.12C121.503 278.248 121.828 278.36 122.287 278.456C122.383 278.477 122.457 278.515 122.511 278.568C122.564 278.611 122.591 278.685 122.591 278.792C122.591 278.867 122.569 278.925 122.527 278.968C122.484 279.011 122.42 279.032 122.335 279.032C122.111 279.032 121.828 279.027 121.487 279.016C121.145 279.005 120.804 278.995 120.463 278.984C120.132 278.973 119.86 278.968 119.647 278.968C119.433 278.968 119.183 278.973 118.895 278.984C118.617 278.995 118.329 279.005 118.031 279.016C117.743 279.037 117.481 279.048 117.247 279.048C117.183 279.048 117.119 279.027 117.055 278.984C116.991 278.941 116.959 278.883 116.959 278.808C116.959 278.627 117.06 278.509 117.263 278.456C117.668 278.371 117.945 278.264 118.095 278.136C118.244 278.008 118.319 277.779 118.319 277.448V270.184C118.319 269.949 118.292 269.768 118.239 269.64C118.185 269.501 118.089 269.395 117.951 269.32C117.812 269.235 117.615 269.165 117.359 269.112C117.231 269.08 117.14 269.032 117.087 268.968C117.044 268.904 117.023 268.84 117.023 268.776C117.023 268.701 117.049 268.643 117.103 268.6C117.167 268.547 117.247 268.52 117.343 268.52C117.695 268.52 117.988 268.531 118.223 268.552C118.457 268.573 118.681 268.595 118.895 268.616C119.108 268.637 119.353 268.648 119.631 268.648C119.887 268.648 120.111 268.637 120.303 268.616C120.505 268.584 120.729 268.557 120.975 268.536C121.22 268.504 121.54 268.488 121.935 268.488C123.193 268.488 124.164 268.701 124.847 269.128C125.54 269.544 125.887 270.184 125.887 271.048C125.887 271.528 125.78 271.933 125.567 272.264C125.353 272.584 125.087 272.845 124.767 273.048C124.447 273.24 124.121 273.384 123.791 273.48C123.748 273.491 123.727 273.517 123.727 273.56C123.737 273.603 123.753 273.64 123.775 273.672C124.095 274.141 124.404 274.595 124.703 275.032C125.012 275.469 125.321 275.875 125.631 276.248C125.94 276.611 126.249 276.941 126.559 277.24C126.932 277.592 127.316 277.8 127.711 277.864C128.116 277.928 128.505 277.96 128.879 277.96C129.039 277.96 129.119 278.061 129.119 278.264C129.119 278.52 129.033 278.728 128.863 278.888C128.703 279.037 128.468 279.149 128.159 279.224C127.849 279.299 127.487 279.336 127.071 279.336ZM121.599 273.464C121.983 273.464 122.297 273.379 122.543 273.208C122.788 273.037 122.969 272.803 123.087 272.504C123.215 272.195 123.279 271.837 123.279 271.432C123.279 270.92 123.215 270.504 123.087 270.184C122.959 269.864 122.772 269.629 122.527 269.48C122.292 269.32 122.004 269.24 121.663 269.24C121.449 269.24 121.289 269.331 121.183 269.512C121.087 269.693 121.039 270.093 121.039 270.712C121.039 270.947 121.039 271.245 121.039 271.608C121.039 271.96 121.039 272.376 121.039 272.856C121.039 273.069 121.087 273.224 121.183 273.32C121.289 273.416 121.428 273.464 121.599 273.464ZM129.719 279.048C129.591 279.048 129.495 279.027 129.431 278.984C129.378 278.941 129.351 278.883 129.351 278.808C129.351 278.712 129.399 278.653 129.495 278.632C129.591 278.6 129.687 278.563 129.783 278.52C130.029 278.424 130.242 278.269 130.423 278.056C130.615 277.843 130.733 277.576 130.775 277.256C130.829 276.861 130.887 276.323 130.951 275.64C131.015 274.947 131.085 274.179 131.159 273.336C131.234 272.483 131.309 271.619 131.383 270.744C131.394 270.691 131.399 270.616 131.399 270.52C131.399 270.424 131.399 270.317 131.399 270.2C131.399 269.987 131.362 269.821 131.287 269.704C131.223 269.587 131.122 269.491 130.983 269.416C130.866 269.352 130.738 269.293 130.599 269.24C130.461 269.176 130.311 269.123 130.151 269.08C130.023 269.048 129.917 269.005 129.831 268.952C129.757 268.899 129.719 268.824 129.719 268.728C129.719 268.632 129.757 268.568 129.831 268.536C129.917 268.493 130.018 268.472 130.135 268.472C130.306 268.472 130.509 268.477 130.743 268.488C130.989 268.499 131.255 268.509 131.543 268.52C131.831 268.52 132.125 268.525 132.423 268.536C132.733 268.547 133.031 268.552 133.319 268.552C133.405 268.552 133.485 268.584 133.559 268.648C133.634 268.712 133.682 268.776 133.703 268.84C133.789 269.053 133.863 269.251 133.927 269.432C133.991 269.603 134.066 269.795 134.151 270.008L136.455 275.432C136.477 275.475 136.498 275.496 136.519 275.496C136.551 275.496 136.573 275.475 136.583 275.432L138.679 270.392C138.765 269.976 138.829 269.651 138.871 269.416C138.925 269.171 138.973 268.984 139.015 268.856C139.058 268.717 139.149 268.648 139.287 268.648H140.007C140.477 268.627 140.967 268.595 141.479 268.552C142.002 268.499 142.413 268.472 142.711 268.472C142.829 268.472 142.925 268.493 142.999 268.536C143.085 268.568 143.127 268.632 143.127 268.728C143.127 268.824 143.09 268.893 143.015 268.936C142.941 268.979 142.855 269.016 142.759 269.048C142.717 269.059 142.658 269.08 142.583 269.112C142.519 269.144 142.466 269.171 142.423 269.192C142.103 269.341 141.869 269.507 141.719 269.688C141.581 269.869 141.522 270.163 141.543 270.568C141.575 271.347 141.607 272.013 141.639 272.568C141.671 273.123 141.698 273.635 141.719 274.104C141.751 274.573 141.783 275.069 141.815 275.592C141.858 276.104 141.901 276.717 141.943 277.432C141.965 277.699 142.082 277.917 142.295 278.088C142.509 278.248 142.775 278.371 143.095 278.456C143.191 278.488 143.271 278.525 143.335 278.568C143.41 278.611 143.447 278.685 143.447 278.792C143.447 278.867 143.415 278.925 143.351 278.968C143.298 279.011 143.229 279.032 143.143 279.032C142.919 279.032 142.642 279.027 142.311 279.016C141.991 279.005 141.671 278.995 141.351 278.984C141.031 278.973 140.765 278.968 140.551 278.968C140.338 278.968 140.087 278.973 139.799 278.984C139.522 278.995 139.234 279.005 138.935 279.016C138.647 279.037 138.386 279.048 138.151 279.048C138.066 279.048 137.986 279.027 137.911 278.984C137.847 278.941 137.815 278.883 137.815 278.808C137.815 278.712 137.847 278.637 137.911 278.584C137.986 278.52 138.071 278.477 138.167 278.456C138.573 278.371 138.855 278.264 139.015 278.136C139.175 277.997 139.245 277.768 139.223 277.448C139.191 276.808 139.165 276.157 139.143 275.496C139.122 274.835 139.101 274.184 139.079 273.544C139.069 272.893 139.047 272.28 139.015 271.704C139.015 271.64 138.999 271.613 138.967 271.624C138.935 271.624 138.903 271.661 138.871 271.736L135.959 278.952C135.895 279.123 135.805 279.192 135.687 279.16C135.581 279.128 135.506 279.069 135.463 278.984C134.909 277.747 134.338 276.525 133.751 275.32C133.165 274.115 132.642 272.947 132.183 271.816C132.141 271.709 132.082 271.672 132.007 271.704C131.943 271.736 131.906 271.821 131.895 271.96C131.874 272.44 131.858 273 131.847 273.64C131.847 274.28 131.853 274.925 131.863 275.576C131.874 276.227 131.879 276.813 131.879 277.336C131.879 277.635 131.975 277.869 132.167 278.04C132.359 278.211 132.669 278.349 133.095 278.456C133.191 278.477 133.287 278.515 133.383 278.568C133.479 278.611 133.527 278.685 133.527 278.792C133.527 278.867 133.485 278.925 133.399 278.968C133.314 279.011 133.229 279.032 133.143 279.032C132.855 279.032 132.631 279.027 132.471 279.016C132.311 279.005 132.162 279 132.023 279C131.895 278.989 131.719 278.984 131.495 278.984C131.25 278.984 130.989 278.989 130.711 279C130.434 279.011 130.199 279.021 130.007 279.032C129.815 279.043 129.719 279.048 129.719 279.048ZM144.102 279.08C143.984 279.08 143.883 279.059 143.798 279.016C143.723 278.984 143.686 278.915 143.686 278.808C143.686 278.701 143.718 278.627 143.782 278.584C143.856 278.531 143.942 278.488 144.038 278.456C144.358 278.371 144.63 278.237 144.854 278.056C145.088 277.875 145.259 277.667 145.366 277.432C145.622 276.845 145.867 276.264 146.102 275.688C146.336 275.112 146.566 274.541 146.79 273.976C147.014 273.4 147.232 272.824 147.446 272.248C147.67 271.661 147.888 271.075 148.102 270.488C148.283 269.997 148.395 269.651 148.438 269.448C148.48 269.235 148.518 269.123 148.55 269.112C148.763 269.059 148.96 269.011 149.142 268.968C149.323 268.915 149.526 268.851 149.75 268.776C149.952 268.701 150.128 268.611 150.278 268.504C150.438 268.387 150.555 268.291 150.63 268.216C150.683 268.184 150.731 268.163 150.774 268.152C150.827 268.141 150.875 268.179 150.918 268.264C150.96 268.339 150.992 268.413 151.014 268.488C151.046 268.552 151.072 268.627 151.094 268.712C151.307 269.416 151.526 270.125 151.75 270.84C151.984 271.555 152.219 272.28 152.454 273.016C152.688 273.741 152.923 274.472 153.158 275.208C153.403 275.944 153.643 276.685 153.878 277.432C153.931 277.603 154.016 277.757 154.134 277.896C154.262 278.024 154.411 278.136 154.582 278.232C154.752 278.317 154.944 278.392 155.158 278.456C155.254 278.488 155.334 278.525 155.398 278.568C155.472 278.611 155.51 278.685 155.51 278.792C155.51 278.867 155.478 278.925 155.414 278.968C155.36 279.011 155.291 279.032 155.206 279.032C154.982 279.032 154.704 279.027 154.374 279.016C154.054 279.005 153.728 278.995 153.398 278.984C153.078 278.973 152.795 278.968 152.55 278.968C152.336 278.968 152.075 278.973 151.766 278.984C151.456 278.995 151.142 279.005 150.822 279.016C150.502 279.037 150.224 279.048 149.99 279.048C149.904 279.048 149.824 279.027 149.75 278.984C149.686 278.941 149.654 278.883 149.654 278.808C149.654 278.712 149.686 278.637 149.75 278.584C149.824 278.52 149.91 278.477 150.006 278.456C150.411 278.371 150.71 278.259 150.902 278.12C151.094 277.981 151.147 277.757 151.062 277.448C151.008 277.235 150.95 277.027 150.886 276.824C150.832 276.621 150.779 276.419 150.726 276.216C150.672 276.003 150.619 275.795 150.566 275.592C150.544 275.507 150.518 275.443 150.486 275.4C150.454 275.347 150.395 275.32 150.31 275.32H147.526C147.44 275.32 147.376 275.347 147.334 275.4C147.302 275.443 147.275 275.507 147.254 275.592C147.211 275.752 147.163 275.901 147.11 276.04C147.067 276.168 147.024 276.296 146.982 276.424C146.939 276.552 146.896 276.685 146.854 276.824C146.811 276.952 146.768 277.096 146.726 277.256C146.63 277.597 146.646 277.853 146.774 278.024C146.902 278.195 147.216 278.339 147.718 278.456C147.952 278.509 148.07 278.627 148.07 278.808C148.07 278.883 148.043 278.941 147.99 278.984C147.936 279.016 147.851 279.032 147.734 279.032C147.382 279.032 147.072 279.021 146.806 279C146.539 278.989 146.246 278.984 145.926 278.984C145.616 278.984 145.318 279 145.03 279.032C144.752 279.064 144.443 279.08 144.102 279.08ZM147.974 274.392H149.974C150.134 274.392 150.214 274.355 150.214 274.28C150.214 274.237 150.208 274.211 150.198 274.2C150.198 274.179 150.192 274.147 150.182 274.104L149.158 270.568C149.126 270.461 149.094 270.408 149.062 270.408C149.04 270.408 149.008 270.461 148.966 270.568L147.734 274.104C147.712 274.147 147.702 274.189 147.702 274.232C147.702 274.285 147.728 274.328 147.782 274.36C147.846 274.381 147.91 274.392 147.974 274.392ZM166.069 279.304C165.919 279.304 165.685 279.219 165.365 279.048C165.055 278.888 164.725 278.595 164.373 278.168C164.074 277.848 163.775 277.533 163.477 277.224C163.189 276.904 162.895 276.589 162.597 276.28C162.298 275.96 161.999 275.645 161.701 275.336C161.402 275.016 161.103 274.701 160.805 274.392C160.517 274.083 160.223 273.773 159.925 273.464C159.626 273.144 159.327 272.829 159.029 272.52C158.741 272.2 158.447 271.88 158.149 271.56C158.138 271.539 158.111 271.507 158.069 271.464C158.026 271.421 157.994 271.4 157.973 271.4C157.93 271.4 157.898 271.437 157.877 271.512C157.866 271.587 157.861 271.651 157.861 271.704C157.861 272.184 157.866 272.755 157.877 273.416C157.898 274.077 157.914 274.744 157.925 275.416C157.946 276.077 157.957 276.669 157.957 277.192C157.957 277.555 158.069 277.832 158.293 278.024C158.527 278.205 158.858 278.349 159.285 278.456C159.381 278.477 159.477 278.515 159.573 278.568C159.669 278.611 159.717 278.685 159.717 278.792C159.717 278.867 159.674 278.925 159.589 278.968C159.503 279.011 159.418 279.032 159.333 279.032C159.045 279.032 158.805 279.027 158.613 279.016C158.421 279.005 158.239 279 158.069 279C157.909 278.989 157.717 278.984 157.493 278.984C157.247 278.984 157.007 278.989 156.773 279C156.549 279.011 156.362 279.021 156.213 279.032C156.074 279.043 156.005 279.048 156.005 279.048C155.941 279.048 155.861 279.027 155.765 278.984C155.679 278.941 155.637 278.883 155.637 278.808C155.637 278.712 155.674 278.643 155.749 278.6C155.834 278.547 155.925 278.499 156.021 278.456C156.266 278.36 156.453 278.2 156.581 277.976C156.719 277.752 156.799 277.48 156.821 277.16C156.863 276.765 156.906 276.243 156.949 275.592C157.002 274.941 157.05 274.211 157.093 273.4C157.135 272.589 157.157 271.747 157.157 270.872C157.157 270.317 157.018 269.917 156.741 269.672C156.463 269.427 156.127 269.229 155.733 269.08C155.637 269.059 155.541 269.021 155.445 268.968C155.349 268.904 155.301 268.824 155.301 268.728C155.301 268.632 155.338 268.568 155.413 268.536C155.498 268.493 155.599 268.472 155.717 268.472C155.887 268.472 156.095 268.477 156.341 268.488C156.597 268.499 156.869 268.509 157.157 268.52C157.455 268.52 157.759 268.525 158.069 268.536C158.378 268.547 158.677 268.552 158.965 268.552C159.05 268.552 159.114 268.568 159.157 268.6C159.21 268.621 159.253 268.659 159.285 268.712C159.562 269.021 159.839 269.336 160.117 269.656C160.405 269.965 160.687 270.275 160.965 270.584C161.253 270.893 161.535 271.203 161.813 271.512C162.101 271.821 162.383 272.136 162.661 272.456C162.938 272.765 163.215 273.075 163.493 273.384C163.781 273.693 164.063 274.008 164.341 274.328C164.629 274.637 164.911 274.947 165.189 275.256C165.221 275.299 165.258 275.341 165.301 275.384C165.343 275.427 165.381 275.448 165.413 275.448C165.498 275.448 165.541 275.373 165.541 275.224C165.541 274.851 165.541 274.445 165.541 274.008C165.541 273.56 165.541 273.107 165.541 272.648C165.541 272.179 165.535 271.731 165.525 271.304C165.525 270.867 165.514 270.483 165.493 270.152C165.482 269.843 165.37 269.619 165.157 269.48C164.954 269.341 164.65 269.219 164.245 269.112C164.149 269.091 164.063 269.059 163.989 269.016C163.914 268.963 163.877 268.883 163.877 268.776C163.877 268.701 163.914 268.643 163.989 268.6C164.063 268.557 164.138 268.536 164.213 268.536C164.501 268.536 164.735 268.541 164.917 268.552C165.098 268.552 165.263 268.557 165.413 268.568C165.562 268.568 165.727 268.568 165.909 268.568C166.122 268.568 166.303 268.568 166.453 268.568C166.602 268.557 166.762 268.547 166.933 268.536C167.114 268.525 167.338 268.52 167.605 268.52C167.722 268.52 167.813 268.541 167.877 268.584C167.951 268.627 167.989 268.685 167.989 268.76C167.989 268.931 167.855 269.043 167.589 269.096C167.226 269.171 166.959 269.277 166.789 269.416C166.618 269.555 166.533 269.784 166.533 270.104C166.533 270.563 166.527 271.021 166.517 271.48C166.506 271.928 166.49 272.371 166.469 272.808C166.447 273.245 166.426 273.672 166.405 274.088C166.383 274.493 166.367 274.883 166.357 275.256C166.346 275.629 166.341 275.971 166.341 276.28C166.341 276.525 166.357 276.808 166.389 277.128C166.421 277.437 166.453 277.725 166.485 277.992C166.517 278.248 166.533 278.424 166.533 278.52C166.533 278.808 166.49 279.011 166.405 279.128C166.33 279.245 166.218 279.304 166.069 279.304ZM174.62 279.224C173.778 279.224 172.988 279.101 172.252 278.856C171.516 278.6 170.871 278.243 170.316 277.784C169.762 277.315 169.33 276.76 169.02 276.12C168.711 275.469 168.556 274.749 168.556 273.96C168.556 273.235 168.7 272.541 168.988 271.88C169.276 271.208 169.698 270.611 170.252 270.088C170.818 269.565 171.506 269.149 172.316 268.84C173.127 268.531 174.05 268.376 175.084 268.376C175.415 268.376 175.756 268.403 176.108 268.456C176.471 268.509 176.818 268.579 177.148 268.664C177.49 268.749 177.783 268.845 178.028 268.952C178.114 268.995 178.188 269.048 178.252 269.112C178.327 269.176 178.37 269.267 178.38 269.384C178.434 269.768 178.466 270.131 178.476 270.472C178.498 270.803 178.508 271.085 178.508 271.32C178.508 271.448 178.46 271.533 178.364 271.576C178.279 271.619 178.183 271.619 178.076 271.576C177.98 271.533 177.911 271.448 177.868 271.32C177.794 271.107 177.708 270.883 177.612 270.648C177.527 270.413 177.394 270.211 177.212 270.04C176.999 269.816 176.706 269.629 176.332 269.48C175.959 269.331 175.495 269.256 174.94 269.256C174.407 269.256 173.927 269.373 173.5 269.608C173.074 269.832 172.711 270.147 172.412 270.552C172.114 270.947 171.884 271.4 171.724 271.912C171.564 272.413 171.484 272.941 171.484 273.496C171.484 274.211 171.554 274.867 171.692 275.464C171.831 276.051 172.044 276.557 172.332 276.984C172.62 277.411 172.978 277.741 173.404 277.976C173.842 278.2 174.354 278.312 174.94 278.312C175.74 278.312 176.38 278.147 176.86 277.816C177.351 277.485 177.762 276.963 178.092 276.248C178.178 276.056 178.3 275.965 178.46 275.976C178.62 275.987 178.7 276.077 178.7 276.248C178.7 276.397 178.684 276.573 178.652 276.776C178.631 276.968 178.594 277.181 178.54 277.416C178.498 277.64 178.439 277.88 178.364 278.136C178.332 278.253 178.279 278.349 178.204 278.424C178.13 278.499 178.044 278.563 177.948 278.616C177.543 278.797 177.063 278.941 176.508 279.048C175.954 279.165 175.324 279.224 174.62 279.224ZM180.06 279.08C179.964 279.08 179.889 279.053 179.836 279C179.783 278.947 179.756 278.888 179.756 278.824C179.756 278.664 179.863 278.552 180.076 278.488C180.428 278.381 180.673 278.269 180.812 278.152C180.961 278.035 181.036 277.811 181.036 277.48V270.184C181.036 269.843 180.967 269.603 180.828 269.464C180.7 269.315 180.449 269.197 180.076 269.112C179.948 269.08 179.857 269.032 179.804 268.968C179.761 268.904 179.74 268.84 179.74 268.776C179.74 268.701 179.767 268.643 179.82 268.6C179.884 268.547 179.964 268.52 180.06 268.52C180.295 268.52 180.551 268.525 180.828 268.536C181.105 268.547 181.377 268.563 181.644 268.584C181.911 268.595 182.151 268.6 182.364 268.6C182.961 268.6 183.601 268.595 184.284 268.584C184.967 268.573 185.569 268.563 186.092 268.552C186.433 268.552 186.711 268.531 186.924 268.488C187.148 268.445 187.281 268.424 187.324 268.424C187.409 268.424 187.495 268.451 187.58 268.504C187.676 268.547 187.729 268.632 187.74 268.76C187.783 269.155 187.836 269.544 187.9 269.928C187.975 270.301 188.012 270.632 188.012 270.92C188.012 271.027 187.991 271.107 187.948 271.16C187.905 271.213 187.857 271.24 187.804 271.24C187.751 271.24 187.692 271.219 187.628 271.176C187.564 271.133 187.511 271.064 187.468 270.968C187.351 270.68 187.244 270.44 187.148 270.248C187.063 270.045 186.961 269.885 186.844 269.768C186.727 269.651 186.577 269.539 186.396 269.432C186.215 269.315 185.975 269.256 185.676 269.256H184.668C184.401 269.256 184.183 269.32 184.012 269.448C183.841 269.576 183.756 269.757 183.756 269.992V272.936C183.756 273.075 183.793 273.176 183.868 273.24C183.943 273.293 184.044 273.32 184.172 273.32H185.532C185.809 273.32 186.007 273.219 186.124 273.016C186.252 272.813 186.364 272.584 186.46 272.328C186.545 272.136 186.657 272.04 186.796 272.04C186.849 272.04 186.897 272.072 186.94 272.136C186.983 272.2 186.999 272.291 186.988 272.408C186.977 272.557 186.961 272.707 186.94 272.856C186.929 273.005 186.919 273.155 186.908 273.304C186.908 273.443 186.908 273.587 186.908 273.736C186.908 273.875 186.908 274.019 186.908 274.168C186.919 274.307 186.929 274.451 186.94 274.6C186.951 274.749 186.961 274.904 186.972 275.064C186.993 275.224 186.983 275.341 186.94 275.416C186.908 275.48 186.865 275.512 186.812 275.512C186.631 275.512 186.503 275.384 186.428 275.128C186.332 274.787 186.22 274.525 186.092 274.344C185.975 274.163 185.815 274.072 185.612 274.072H184.108C183.991 274.072 183.9 274.104 183.836 274.168C183.783 274.232 183.756 274.323 183.756 274.44V277.464C183.756 277.763 183.82 277.976 183.948 278.104C184.076 278.221 184.273 278.28 184.54 278.28H185.964C186.177 278.28 186.385 278.253 186.588 278.2C186.801 278.136 186.983 278.04 187.132 277.912C187.313 277.763 187.479 277.571 187.628 277.336C187.788 277.101 187.927 276.867 188.044 276.632C188.087 276.547 188.129 276.493 188.172 276.472C188.225 276.451 188.284 276.44 188.348 276.44C188.412 276.44 188.455 276.477 188.476 276.552C188.497 276.616 188.508 276.685 188.508 276.76C188.508 276.952 188.481 277.16 188.428 277.384C188.375 277.608 188.305 277.848 188.22 278.104C188.145 278.349 188.071 278.605 187.996 278.872C187.975 278.947 187.927 278.995 187.852 279.016C187.777 279.048 187.697 279.064 187.612 279.064C187.559 279.064 187.351 279.059 186.988 279.048C186.625 279.048 186.172 279.043 185.628 279.032C185.095 279.021 184.535 279.011 183.948 279C183.372 279 182.844 279 182.364 279C182.151 279 181.905 279.005 181.628 279.016C181.351 279.027 181.073 279.037 180.796 279.048C180.519 279.069 180.273 279.08 180.06 279.08Z" fill="#292929" fill-opacity="0.3"/>
</g>
<defs>
<linearGradient id="paint0_linear_1_2841" x1="72.5" y1="278.5" x2="262.959" y2="176.711" gradientUnits="userSpaceOnUse">
<stop stop-color="#FFD700"/>
<stop offset="0.302268" stop-color="#DEC956"/>
<stop offset="0.578532" stop-color="#69C3B3"/>
<stop offset="0.783532" stop-color="#ADA578"/>
<stop offset="1" stop-color="#C7AB15"/>
</linearGradient>
<linearGradient id="paint1_linear_1_2841" x1="72.5" y1="278.5" x2="262.959" y2="176.711" gradientUnits="userSpaceOnUse">
<stop stop-color="#FFD700"/>
<stop offset="0.302268" stop-color="#DEC956"/>
<stop offset="0.578532" stop-color="#69C3B3"/>
<stop offset="0.783532" stop-color="#ADA578"/>
<stop offset="1" stop-color="#C7AB15"/>
</linearGradient>
<linearGradient id="paint2_linear_1_2841" x1="72.5" y1="278.5" x2="262.959" y2="176.711" gradientUnits="userSpaceOnUse">
<stop stop-color="#FFD700"/>
<stop offset="0.302268" stop-color="#DEC956"/>
<stop offset="0.578532" stop-color="#69C3B3"/>
<stop offset="0.783532" stop-color="#ADA578"/>
<stop offset="1" stop-color="#C7AB15"/>
</linearGradient>
<linearGradient id="paint3_linear_1_2841" x1="72.5" y1="278.5" x2="262.959" y2="176.711" gradientUnits="userSpaceOnUse">
<stop stop-color="#FFD700"/>
<stop offset="0.302268" stop-color="#DEC956"/>
<stop offset="0.578532" stop-color="#69C3B3"/>
<stop offset="0.783532" stop-color="#ADA578"/>
<stop offset="1" stop-color="#C7AB15"/>
</linearGradient>
<linearGradient id="paint4_linear_1_2841" x1="72.5" y1="278.5" x2="262.959" y2="176.711" gradientUnits="userSpaceOnUse">
<stop stop-color="#FFD700"/>
<stop offset="0.302268" stop-color="#DEC956"/>
<stop offset="0.578532" stop-color="#69C3B3"/>
<stop offset="0.783532" stop-color="#ADA578"/>
<stop offset="1" stop-color="#C7AB15"/>
</linearGradient>
<linearGradient id="paint5_linear_1_2841" x1="72.5" y1="278.5" x2="262.959" y2="176.711" gradientUnits="userSpaceOnUse">
<stop stop-color="#FFD700"/>
<stop offset="0.302268" stop-color="#DEC956"/>
<stop offset="0.578532" stop-color="#69C3B3"/>
<stop offset="0.783532" stop-color="#ADA578"/>
<stop offset="1" stop-color="#C7AB15"/>
</linearGradient>
<linearGradient id="paint6_linear_1_2841" x1="72.5" y1="278.5" x2="262.959" y2="176.711" gradientUnits="userSpaceOnUse">
<stop stop-color="#FFD700"/>
<stop offset="0.302268" stop-color="#DEC956"/>
<stop offset="0.578532" stop-color="#69C3B3"/>
<stop offset="0.783532" stop-color="#ADA578"/>
<stop offset="1" stop-color="#C7AB15"/>
</linearGradient>
<clipPath id="clip0_1_2841">
<rect width="254" height="319" fill="white"/>
</clipPath>
</defs>
</svg>
